%TF.GenerationSoftware,KiCad,Pcbnew,7.0.8*%
%TF.CreationDate,2024-07-04T02:39:20-07:00*%
%TF.ProjectId,go-kart-esc,676f2d6b-6172-4742-9d65-73632e6b6963,rev?*%
%TF.SameCoordinates,Original*%
%TF.FileFunction,Paste,Bot*%
%TF.FilePolarity,Positive*%
%FSLAX46Y46*%
G04 Gerber Fmt 4.6, Leading zero omitted, Abs format (unit mm)*
G04 Created by KiCad (PCBNEW 7.0.8) date 2024-07-04 02:39:20*
%MOMM*%
%LPD*%
G01*
G04 APERTURE LIST*
G04 Aperture macros list*
%AMRoundRect*
0 Rectangle with rounded corners*
0 $1 Rounding radius*
0 $2 $3 $4 $5 $6 $7 $8 $9 X,Y pos of 4 corners*
0 Add a 4 corners polygon primitive as box body*
4,1,4,$2,$3,$4,$5,$6,$7,$8,$9,$2,$3,0*
0 Add four circle primitives for the rounded corners*
1,1,$1+$1,$2,$3*
1,1,$1+$1,$4,$5*
1,1,$1+$1,$6,$7*
1,1,$1+$1,$8,$9*
0 Add four rect primitives between the rounded corners*
20,1,$1+$1,$2,$3,$4,$5,0*
20,1,$1+$1,$4,$5,$6,$7,0*
20,1,$1+$1,$6,$7,$8,$9,0*
20,1,$1+$1,$8,$9,$2,$3,0*%
G04 Aperture macros list end*
%ADD10RoundRect,0.155000X0.212500X0.155000X-0.212500X0.155000X-0.212500X-0.155000X0.212500X-0.155000X0*%
%ADD11RoundRect,0.160000X0.197500X0.160000X-0.197500X0.160000X-0.197500X-0.160000X0.197500X-0.160000X0*%
%ADD12RoundRect,0.160000X0.160000X-0.197500X0.160000X0.197500X-0.160000X0.197500X-0.160000X-0.197500X0*%
%ADD13RoundRect,0.237500X0.300000X0.237500X-0.300000X0.237500X-0.300000X-0.237500X0.300000X-0.237500X0*%
%ADD14RoundRect,0.212500X0.212500X-0.212500X0.212500X0.212500X-0.212500X0.212500X-0.212500X-0.212500X0*%
%ADD15RoundRect,0.062500X0.062500X-0.375000X0.062500X0.375000X-0.062500X0.375000X-0.062500X-0.375000X0*%
%ADD16RoundRect,0.062500X0.375000X-0.062500X0.375000X0.062500X-0.375000X0.062500X-0.375000X-0.062500X0*%
%ADD17RoundRect,0.090000X-0.139000X-0.090000X0.139000X-0.090000X0.139000X0.090000X-0.139000X0.090000X0*%
%ADD18RoundRect,0.212500X-0.212500X-0.212500X0.212500X-0.212500X0.212500X0.212500X-0.212500X0.212500X0*%
%ADD19RoundRect,0.062500X-0.375000X-0.062500X0.375000X-0.062500X0.375000X0.062500X-0.375000X0.062500X0*%
%ADD20RoundRect,0.062500X-0.062500X-0.375000X0.062500X-0.375000X0.062500X0.375000X-0.062500X0.375000X0*%
%ADD21RoundRect,0.160000X-0.197500X-0.160000X0.197500X-0.160000X0.197500X0.160000X-0.197500X0.160000X0*%
%ADD22RoundRect,0.155000X-0.155000X0.212500X-0.155000X-0.212500X0.155000X-0.212500X0.155000X0.212500X0*%
%ADD23RoundRect,0.155000X0.155000X-0.212500X0.155000X0.212500X-0.155000X0.212500X-0.155000X-0.212500X0*%
%ADD24RoundRect,0.237500X0.237500X-0.300000X0.237500X0.300000X-0.237500X0.300000X-0.237500X-0.300000X0*%
%ADD25RoundRect,0.237500X-0.300000X-0.237500X0.300000X-0.237500X0.300000X0.237500X-0.300000X0.237500X0*%
%ADD26RoundRect,0.237500X-0.237500X0.300000X-0.237500X-0.300000X0.237500X-0.300000X0.237500X0.300000X0*%
%ADD27RoundRect,0.090000X0.139000X0.090000X-0.139000X0.090000X-0.139000X-0.090000X0.139000X-0.090000X0*%
G04 APERTURE END LIST*
D10*
%TO.C,C203*%
X56067500Y-80500000D03*
X54932500Y-80500000D03*
%TD*%
D11*
%TO.C,R305*%
X25000000Y-67500000D03*
X23805000Y-67500000D03*
%TD*%
D12*
%TO.C,R302*%
X45000000Y-84000000D03*
X45000000Y-82805000D03*
%TD*%
D13*
%TO.C,C502*%
X77475000Y-92475000D03*
X75750000Y-92475000D03*
%TD*%
D14*
%TO.C,U501*%
X75975000Y-87025000D03*
X77025000Y-87025000D03*
X75975000Y-85975000D03*
X77025000Y-85975000D03*
D15*
X77750000Y-88437500D03*
X77250000Y-88437500D03*
X76750000Y-88437500D03*
X76250000Y-88437500D03*
X75750000Y-88437500D03*
X75250000Y-88437500D03*
D16*
X74562500Y-87750000D03*
X74562500Y-87250000D03*
X74562500Y-86750000D03*
X74562500Y-86250000D03*
X74562500Y-85750000D03*
X74562500Y-85250000D03*
D15*
X75250000Y-84562500D03*
X75750000Y-84562500D03*
X76250000Y-84562500D03*
X76750000Y-84562500D03*
X77250000Y-84562500D03*
X77750000Y-84562500D03*
D16*
X78437500Y-85250000D03*
X78437500Y-85750000D03*
X78437500Y-86250000D03*
X78437500Y-86750000D03*
X78437500Y-87250000D03*
X78437500Y-87750000D03*
%TD*%
D17*
%TO.C,TH601*%
X99567500Y-86250000D03*
X100432500Y-86250000D03*
%TD*%
D10*
%TO.C,C501*%
X78750000Y-90975000D03*
X77615000Y-90975000D03*
%TD*%
%TO.C,C205*%
X53045000Y-90062500D03*
X51910000Y-90062500D03*
%TD*%
D18*
%TO.C,U201*%
X56475000Y-85975000D03*
X56475000Y-87025000D03*
X57525000Y-85975000D03*
X57525000Y-87025000D03*
D19*
X55062500Y-87750000D03*
X55062500Y-87250000D03*
X55062500Y-86750000D03*
X55062500Y-86250000D03*
X55062500Y-85750000D03*
X55062500Y-85250000D03*
D20*
X55750000Y-84562500D03*
X56250000Y-84562500D03*
X56750000Y-84562500D03*
X57250000Y-84562500D03*
X57750000Y-84562500D03*
X58250000Y-84562500D03*
D19*
X58937500Y-85250000D03*
X58937500Y-85750000D03*
X58937500Y-86250000D03*
X58937500Y-86750000D03*
X58937500Y-87250000D03*
X58937500Y-87750000D03*
D20*
X58250000Y-88437500D03*
X57750000Y-88437500D03*
X57250000Y-88437500D03*
X56750000Y-88437500D03*
X56250000Y-88437500D03*
X55750000Y-88437500D03*
%TD*%
D21*
%TO.C,R605*%
X105000000Y-67500000D03*
X106195000Y-67500000D03*
%TD*%
D22*
%TO.C,C503*%
X70250000Y-87407500D03*
X70250000Y-88542500D03*
%TD*%
D23*
%TO.C,C201*%
X53250000Y-88697500D03*
X53250000Y-87562500D03*
%TD*%
D24*
%TO.C,C202*%
X52000000Y-87362500D03*
X52000000Y-85637500D03*
%TD*%
D25*
%TO.C,C303*%
X46875000Y-82805000D03*
X48600000Y-82805000D03*
%TD*%
D22*
%TO.C,C505*%
X80750000Y-91475000D03*
X80750000Y-92610000D03*
%TD*%
%TO.C,C504*%
X71750000Y-87975000D03*
X71750000Y-89110000D03*
%TD*%
D26*
%TO.C,C603*%
X83000000Y-95500000D03*
X83000000Y-97225000D03*
%TD*%
D11*
%TO.C,R602*%
X85597500Y-95500000D03*
X84402500Y-95500000D03*
%TD*%
D10*
%TO.C,C204*%
X55567500Y-82000000D03*
X54432500Y-82000000D03*
%TD*%
D27*
%TO.C,TH301*%
X30432500Y-86250000D03*
X29567500Y-86250000D03*
%TD*%
M02*
