M48
; DRILL file {KiCad 8.0.3} date 2024-07-05T23:35:19-0700
; FORMAT={-:-/ absolute / inch / decimal}
; #@! TF.CreationDate,2024-07-05T23:35:19-07:00
; #@! TF.GenerationSoftware,Kicad,Pcbnew,8.0.3
; #@! TF.FileFunction,Plated,1,4,PTH
FMAT,2
INCH
; #@! TA.AperFunction,Plated,PTH,ViaDrill
T1C0.0157
; #@! TA.AperFunction,Plated,PTH,ComponentDrill
T2C0.0374
; #@! TA.AperFunction,Plated,PTH,ComponentDrill
T3C0.0394
; #@! TA.AperFunction,Plated,PTH,ComponentDrill
T4C0.0472
%
G90
G05
T1
X0.6496Y-3.622
X0.6693Y-3.4252
X0.689Y-3.9961
X0.7087Y-3.622
X0.7283Y-2.7362
X0.7283Y-4.1535
X0.748Y-3.3268
X0.748Y-3.5433
X0.8268Y-1.2795
X0.8465Y-4.1142
X0.8858Y-2.5591
X0.9055Y-2.6772
X0.9449Y-1.1811
X0.9843Y-3.1102
X0.9843Y-4.3504
X1.0039Y-2.3819
X1.0433Y-1.3189
X1.0433Y-3.6811
X1.063Y-2.3031
X1.063Y-2.7559
X1.063Y-4.311
X1.0827Y-4.4488
X1.122Y-1.6535
X1.122Y-2.2441
X1.1614Y-2.0472
X1.1614Y-2.2638
X1.1614Y-2.5
X1.1614Y-3.0709
X1.1811Y-2.6575
X1.1811Y-3.9764
X1.2008Y-1.122
X1.2598Y-1.2205
X1.2598Y-3.3858
X1.2598Y-4.4488
X1.2795Y-0.8071
X1.2795Y-1.122
X1.2795Y-1.3189
X1.2992Y-2.7362
X1.2992Y-3.4055
X1.3189Y-1.4764
X1.3189Y-1.9488
X1.3583Y-2.185
X1.378Y-1.4764
X1.3976Y-2.5
X1.3976Y-3.1693
X1.4173Y-1.063
X1.437Y-1.1811
X1.437Y-1.5157
X1.437Y-2.0276
X1.437Y-4.3307
X1.4567Y-1.2795
X1.4567Y-2.3622
X1.4764Y-1.6142
X1.4764Y-2.7362
X1.4764Y-4.4488
X1.4961Y-1.9488
X1.5157Y-1.2008
X1.5551Y-1.3583
X1.5551Y-3.0906
X1.5748Y-4.3701
X1.5945Y-1.9488
X1.6142Y-2.6575
X1.6339Y-1.4173
X1.6535Y-1.7913
X1.6732Y-3.0315
X1.6929Y-1.9488
X1.6929Y-2.6969
X1.7126Y-1.4961
X1.7126Y-2.2244
X1.7126Y-2.4803
X1.7126Y-3.3071
X1.7323Y-1.8898
X1.7323Y-2.7756
X1.7717Y-1.5551
X1.7742Y-4.4412
X1.7913Y-2.3228
X1.7913Y-3.2087
X1.7913Y-3.5827
X1.811Y-3.0906
X1.811Y-3.4843
X1.8307Y-1.6142
X1.8307Y-3.4252
X1.8504Y-1.8701
X1.8504Y-3.5236
X1.8701Y-1.9488
X1.8898Y-1.122
X1.8898Y-1.7126
X1.8898Y-3.4646
X1.8898Y-3.563
X1.9094Y-2.0512
X1.9094Y-4.3504
X1.9173Y-2.1654
X1.9291Y-2.6575
X1.9488Y-3.4252
X1.9685Y-2.0538
X1.9685Y-2.2835
X1.9685Y-3.5236
X1.9882Y-2.7362
X2.0079Y-1.2598
X2.0079Y-1.5945
X2.0079Y-2.1457
X2.0276Y-1.7913
X2.0276Y-4.4094
X2.0472Y-2.2835
X2.0669Y-1.122
X2.0669Y-2.6772
X2.0669Y-4.3307
X2.0866Y-1.3386
X2.0866Y-1.437
X2.0866Y-1.5157
X2.0866Y-1.6142
X2.0866Y-1.7126
X2.0866Y-1.8701
X2.0866Y-3.2087
X2.0866Y-3.5827
X2.1063Y-3.1496
X2.1063Y-3.3465
X2.126Y-1.1811
X2.1654Y-2.5591
X2.1654Y-2.7559
X2.1654Y-3.1102
X2.185Y-1.2598
X2.185Y-2.0866
X2.185Y-2.4606
X2.1988Y-2.4016
X2.2047Y-1.3386
X2.2047Y-1.4961
X2.2047Y-1.6535
X2.2047Y-2.5591
X2.2441Y-2.5591
X2.2463Y-3.5455
X2.2835Y-1.6535
X2.2835Y-2.3819
X2.2835Y-2.5591
X2.3031Y-1.7913
X2.3031Y-2.0866
X2.3031Y-3.2677
X2.31Y-2.3449
X2.3228Y-2.4685
X2.3281Y-2.4114
X2.342Y-2.3037
X2.3425Y-2.7756
X2.3622Y-1.7126
X2.4027Y-3.4241
X2.4213Y-1.8701
X2.4213Y-1.9291
X2.4409Y-2.6575
X2.4606Y-1.7323
X2.5Y-1.8701
X2.5Y-1.9291
X2.5197Y-2.4213
X2.5787Y-1.4961
X2.5787Y-1.7126
X2.5787Y-1.8504
X2.5787Y-1.9291
X2.5787Y-2.1654
X2.5984Y-1.3583
X2.5984Y-1.5945
X2.6181Y-4.3898
X2.6378Y-4.1929
X2.6575Y-1.1024
X2.6575Y-1.4173
X2.6772Y-1.2205
X2.6772Y-1.9987
X2.6969Y-2.2244
X2.6969Y-3.4449
X2.6969Y-4.0354
X2.7165Y-1.811
X2.7559Y-1.9094
X2.7756Y-2.6575
X2.7756Y-3.5433
X2.7908Y-3.6777
X2.7953Y-1.811
X2.7953Y-2.3425
X2.7953Y-3.8386
X2.815Y-2.2638
X2.8346Y-1.1024
X2.8346Y-3.5433
X2.8543Y-1.2795
X2.8543Y-4.0748
X2.874Y-1.2008
X2.874Y-3.3268
X2.8937Y-1.8701
X2.8937Y-3.6811
X2.9134Y-1.6142
X2.9174Y-3.967
X2.9331Y-1.378
X2.9331Y-1.6535
X2.9331Y-2.4213
X2.9528Y-3.563
X2.9724Y-2.4606
X2.9921Y-1.4961
X3.0118Y-1.5945
X3.0118Y-1.6929
X3.0199Y-4.3247
X3.0315Y-1.9291
X3.0315Y-3.248
X3.05Y-4.3829
X3.0512Y-2.0669
X3.0512Y-2.2638
X3.0512Y-2.3819
X3.0709Y-2.4606
X3.1102Y-1.7913
X3.1102Y-2.5394
X3.1102Y-2.7362
X3.1693Y-1.9094
X3.1693Y-3.5433
X3.189Y-2.2835
X3.2283Y-3.6614
X3.248Y-2.126
X3.248Y-2.5394
X3.248Y-3.4252
X3.248Y-3.5827
X3.248Y-4.4094
X3.2874Y-3.622
X3.2874Y-3.878
X3.3071Y-2.5787
X3.3071Y-2.7362
X3.3071Y-3.4449
X3.3071Y-3.9173
X3.3268Y-2.126
X3.3268Y-3.6614
X3.3465Y-3.8189
X3.3858Y-2.1457
X3.4055Y-2.2441
X3.4252Y-1.1024
X3.4252Y-3.7598
X3.4252Y-3.9567
X3.4449Y-2.0276
X3.4646Y-2.2638
X3.472Y-2.7233
X3.5039Y-0.9646
X3.5236Y-1.0827
X3.5236Y-2.2638
X3.5433Y-1.2008
X3.5433Y-4.0157
X3.563Y-1.8898
X3.563Y-2.0866
X3.5827Y-1.122
X3.5827Y-4.4094
X3.622Y-1.4764
X3.622Y-2.3622
X3.6417Y-1.122
X3.6417Y-2.126
X3.6614Y-2.2441
X3.6769Y-2.7213
X3.6811Y-1.811
X3.7205Y-1.4567
X3.7205Y-1.9685
X3.7205Y-2.3031
X3.7205Y-2.4803
X3.7402Y-1.1024
X3.7402Y-1.8898
X3.7402Y-2.1063
X3.7598Y-1.5748
X3.7598Y-1.7126
X3.7795Y-1.2402
X3.7992Y-1.8307
X3.8189Y-2.2244
X3.8189Y-2.3819
X3.8189Y-3.3858
X3.8189Y-3.6811
X3.8386Y-1.1417
X3.8386Y-1.437
X3.8386Y-2.126
X3.8583Y-1.6339
X3.8618Y-2.7092
X3.878Y-1.2402
X3.878Y-1.752
X3.878Y-2.5984
X3.878Y-3.3858
X3.9173Y-1.5551
X3.9173Y-2.2835
X3.937Y-1.6929
X3.937Y-2.5
X3.937Y-3.7008
X3.9567Y-1.8701
X3.9567Y-2.1063
X3.9567Y-2.7165
X3.9567Y-2.815
X3.9567Y-3.1102
X3.9764Y-2.2638
X3.9961Y-1.1614
X3.9961Y-1.6929
X4.0354Y-2.5394
X4.0551Y-2.1063
X4.0551Y-2.7165
X4.0945Y-4.4291
X4.1339Y-0.9252
X4.1339Y-1.0827
X4.1535Y-3.6614
X4.2416Y-2.7413
X4.311Y-2.5591
X4.4304Y-3.1553
X4.4405Y-3.5692
X4.4485Y-3.3622
X4.4488Y-2.7165
X4.4488Y-4.0551
X4.4488Y-4.2323
T2
X0.9823Y-1.4764
X0.9823Y-1.5748
X0.9823Y-1.6732
X0.9823Y-2.0669
X0.9823Y-2.1654
X0.9823Y-2.2638
X1.2795Y-0.9823
X1.378Y-0.9823
X1.4764Y-0.9823
X1.8701Y-0.9823
X1.9685Y-0.9823
X2.0669Y-0.9823
X4.1358Y-1.4764
X4.1358Y-1.5748
X4.1358Y-1.6732
X4.1358Y-2.0669
X4.1358Y-2.1654
X4.1358Y-2.2638
T3
X1.1811Y-4.1339
X1.1811Y-4.3307
X1.7717Y-4.1339
X1.7717Y-4.3307
X2.7067Y-0.9823
X2.8051Y-0.9823
X3.2185Y-0.9823
X3.2283Y-2.3409
X3.2283Y-2.4409
X3.3169Y-0.9823
X3.3283Y-2.3409
X3.3283Y-2.4409
X3.3465Y-4.1339
X3.3465Y-4.3307
X3.6909Y-0.9193
X3.7894Y-0.9193
X3.937Y-4.1339
X3.937Y-4.3307
T4
X2.5591Y-2.7559
X2.5591Y-3.0512
M30
