%TF.GenerationSoftware,KiCad,Pcbnew,7.0.8*%
%TF.CreationDate,2024-07-04T02:39:20-07:00*%
%TF.ProjectId,go-kart-esc,676f2d6b-6172-4742-9d65-73632e6b6963,rev?*%
%TF.SameCoordinates,Original*%
%TF.FileFunction,Copper,L4,Bot*%
%TF.FilePolarity,Positive*%
%FSLAX46Y46*%
G04 Gerber Fmt 4.6, Leading zero omitted, Abs format (unit mm)*
G04 Created by KiCad (PCBNEW 7.0.8) date 2024-07-04 02:39:20*
%MOMM*%
%LPD*%
G01*
G04 APERTURE LIST*
G04 Aperture macros list*
%AMRoundRect*
0 Rectangle with rounded corners*
0 $1 Rounding radius*
0 $2 $3 $4 $5 $6 $7 $8 $9 X,Y pos of 4 corners*
0 Add a 4 corners polygon primitive as box body*
4,1,4,$2,$3,$4,$5,$6,$7,$8,$9,$2,$3,0*
0 Add four circle primitives for the rounded corners*
1,1,$1+$1,$2,$3*
1,1,$1+$1,$4,$5*
1,1,$1+$1,$6,$7*
1,1,$1+$1,$8,$9*
0 Add four rect primitives between the rounded corners*
20,1,$1+$1,$2,$3,$4,$5,0*
20,1,$1+$1,$4,$5,$6,$7,0*
20,1,$1+$1,$6,$7,$8,$9,0*
20,1,$1+$1,$8,$9,$2,$3,0*%
G04 Aperture macros list end*
%TA.AperFunction,ComponentPad*%
%ADD10R,2.000000X2.000000*%
%TD*%
%TA.AperFunction,ComponentPad*%
%ADD11C,2.000000*%
%TD*%
%TA.AperFunction,ComponentPad*%
%ADD12RoundRect,0.250000X0.725000X-0.600000X0.725000X0.600000X-0.725000X0.600000X-0.725000X-0.600000X0*%
%TD*%
%TA.AperFunction,ComponentPad*%
%ADD13O,1.950000X1.700000*%
%TD*%
%TA.AperFunction,ComponentPad*%
%ADD14R,2.400000X2.400000*%
%TD*%
%TA.AperFunction,ComponentPad*%
%ADD15C,2.400000*%
%TD*%
%TA.AperFunction,ComponentPad*%
%ADD16RoundRect,0.250000X0.600000X0.750000X-0.600000X0.750000X-0.600000X-0.750000X0.600000X-0.750000X0*%
%TD*%
%TA.AperFunction,ComponentPad*%
%ADD17O,1.700000X2.000000*%
%TD*%
%TA.AperFunction,ComponentPad*%
%ADD18RoundRect,0.250000X0.600000X0.725000X-0.600000X0.725000X-0.600000X-0.725000X0.600000X-0.725000X0*%
%TD*%
%TA.AperFunction,ComponentPad*%
%ADD19O,1.700000X1.950000*%
%TD*%
%TA.AperFunction,ComponentPad*%
%ADD20R,1.700000X1.700000*%
%TD*%
%TA.AperFunction,ComponentPad*%
%ADD21O,1.700000X1.700000*%
%TD*%
%TA.AperFunction,ComponentPad*%
%ADD22RoundRect,0.250000X-0.725000X0.600000X-0.725000X-0.600000X0.725000X-0.600000X0.725000X0.600000X0*%
%TD*%
%TA.AperFunction,SMDPad,CuDef*%
%ADD23RoundRect,0.155000X0.212500X0.155000X-0.212500X0.155000X-0.212500X-0.155000X0.212500X-0.155000X0*%
%TD*%
%TA.AperFunction,SMDPad,CuDef*%
%ADD24RoundRect,0.160000X0.197500X0.160000X-0.197500X0.160000X-0.197500X-0.160000X0.197500X-0.160000X0*%
%TD*%
%TA.AperFunction,SMDPad,CuDef*%
%ADD25RoundRect,0.160000X0.160000X-0.197500X0.160000X0.197500X-0.160000X0.197500X-0.160000X-0.197500X0*%
%TD*%
%TA.AperFunction,SMDPad,CuDef*%
%ADD26RoundRect,0.237500X0.300000X0.237500X-0.300000X0.237500X-0.300000X-0.237500X0.300000X-0.237500X0*%
%TD*%
%TA.AperFunction,SMDPad,CuDef*%
%ADD27RoundRect,0.062500X0.062500X-0.375000X0.062500X0.375000X-0.062500X0.375000X-0.062500X-0.375000X0*%
%TD*%
%TA.AperFunction,SMDPad,CuDef*%
%ADD28RoundRect,0.062500X0.375000X-0.062500X0.375000X0.062500X-0.375000X0.062500X-0.375000X-0.062500X0*%
%TD*%
%TA.AperFunction,SMDPad,CuDef*%
%ADD29R,2.100000X2.100000*%
%TD*%
%TA.AperFunction,SMDPad,CuDef*%
%ADD30RoundRect,0.100000X-0.217500X-0.100000X0.217500X-0.100000X0.217500X0.100000X-0.217500X0.100000X0*%
%TD*%
%TA.AperFunction,SMDPad,CuDef*%
%ADD31RoundRect,0.062500X-0.375000X-0.062500X0.375000X-0.062500X0.375000X0.062500X-0.375000X0.062500X0*%
%TD*%
%TA.AperFunction,SMDPad,CuDef*%
%ADD32RoundRect,0.062500X-0.062500X-0.375000X0.062500X-0.375000X0.062500X0.375000X-0.062500X0.375000X0*%
%TD*%
%TA.AperFunction,SMDPad,CuDef*%
%ADD33RoundRect,0.160000X-0.197500X-0.160000X0.197500X-0.160000X0.197500X0.160000X-0.197500X0.160000X0*%
%TD*%
%TA.AperFunction,SMDPad,CuDef*%
%ADD34RoundRect,0.155000X-0.155000X0.212500X-0.155000X-0.212500X0.155000X-0.212500X0.155000X0.212500X0*%
%TD*%
%TA.AperFunction,SMDPad,CuDef*%
%ADD35RoundRect,0.155000X0.155000X-0.212500X0.155000X0.212500X-0.155000X0.212500X-0.155000X-0.212500X0*%
%TD*%
%TA.AperFunction,SMDPad,CuDef*%
%ADD36RoundRect,0.237500X0.237500X-0.300000X0.237500X0.300000X-0.237500X0.300000X-0.237500X-0.300000X0*%
%TD*%
%TA.AperFunction,SMDPad,CuDef*%
%ADD37RoundRect,0.237500X-0.300000X-0.237500X0.300000X-0.237500X0.300000X0.237500X-0.300000X0.237500X0*%
%TD*%
%TA.AperFunction,SMDPad,CuDef*%
%ADD38RoundRect,0.237500X-0.237500X0.300000X-0.237500X-0.300000X0.237500X-0.300000X0.237500X0.300000X0*%
%TD*%
%TA.AperFunction,SMDPad,CuDef*%
%ADD39RoundRect,0.100000X0.217500X0.100000X-0.217500X0.100000X-0.217500X-0.100000X0.217500X-0.100000X0*%
%TD*%
%TA.AperFunction,ViaPad*%
%ADD40C,0.800000*%
%TD*%
%TA.AperFunction,Conductor*%
%ADD41C,0.200000*%
%TD*%
G04 APERTURE END LIST*
D10*
%TO.P,C602,1*%
%TO.N,+BATT*%
X85000000Y-105000000D03*
D11*
%TO.P,C602,2*%
%TO.N,GND*%
X85000000Y-110000000D03*
%TD*%
D12*
%TO.P,J109,1,Pin_1*%
%TO.N,GND*%
X105050000Y-57500000D03*
D13*
%TO.P,J109,2,Pin_2*%
%TO.N,/STM32F042/MOTOR_TEMP_B*%
X105050000Y-55000000D03*
%TO.P,J109,3,Pin_3*%
%TO.N,+3V3*%
X105050000Y-52500000D03*
%TD*%
D10*
%TO.P,C302,1*%
%TO.N,+BATT*%
X45000000Y-105000000D03*
D11*
%TO.P,C302,2*%
%TO.N,GND*%
X45000000Y-110000000D03*
%TD*%
D14*
%TO.P,C101,1*%
%TO.N,+BATT*%
X65000000Y-77500000D03*
D15*
%TO.P,C101,2*%
%TO.N,GND*%
X65000000Y-70000000D03*
%TD*%
D16*
%TO.P,J103,1,Pin_1*%
%TO.N,GND*%
X96250000Y-23350000D03*
D17*
%TO.P,J103,2,Pin_2*%
%TO.N,+5V*%
X93750000Y-23350000D03*
%TD*%
D16*
%TO.P,J104,1,Pin_1*%
%TO.N,/CAN/CANL*%
X71250000Y-24950000D03*
D17*
%TO.P,J104,2,Pin_2*%
%TO.N,/CAN/CANH*%
X68750000Y-24950000D03*
%TD*%
D18*
%TO.P,J111,1,Pin_1*%
%TO.N,GND*%
X52500000Y-24950000D03*
D19*
%TO.P,J111,2,Pin_2*%
%TO.N,/STM32F042/THROTTLE*%
X50000000Y-24950000D03*
%TO.P,J111,3,Pin_3*%
%TO.N,+3V3*%
X47500000Y-24950000D03*
%TD*%
D20*
%TO.P,J105,1,Pin_1*%
%TO.N,/STM32F042/nRESET*%
X84540000Y-59460000D03*
D21*
%TO.P,J105,2,Pin_2*%
%TO.N,/STM32F042/SWDIO*%
X84540000Y-62000000D03*
%TO.P,J105,3,Pin_3*%
%TO.N,GND*%
X82000000Y-59460000D03*
%TO.P,J105,4,Pin_4*%
%TO.N,/STM32F042/SWCLK*%
X82000000Y-62000000D03*
%TD*%
D12*
%TO.P,J108,1,Pin_1*%
%TO.N,GND*%
X105050000Y-42500000D03*
D13*
%TO.P,J108,2,Pin_2*%
%TO.N,/STM32F042/WHEEL_ENCODER_B*%
X105050000Y-40000000D03*
%TO.P,J108,3,Pin_3*%
%TO.N,+3V3*%
X105050000Y-37500000D03*
%TD*%
D10*
%TO.P,C604,1*%
%TO.N,+BATT*%
X30000000Y-105000000D03*
D11*
%TO.P,C604,2*%
%TO.N,GND*%
X30000000Y-110000000D03*
%TD*%
D10*
%TO.P,C304,1*%
%TO.N,+BATT*%
X100000000Y-105000000D03*
D11*
%TO.P,C304,2*%
%TO.N,GND*%
X100000000Y-110000000D03*
%TD*%
D22*
%TO.P,J106,1,Pin_1*%
%TO.N,GND*%
X24950000Y-52500000D03*
D13*
%TO.P,J106,2,Pin_2*%
%TO.N,/STM32F042/MOTOR_TEMP_A*%
X24950000Y-55000000D03*
%TO.P,J106,3,Pin_3*%
%TO.N,+3V3*%
X24950000Y-57500000D03*
%TD*%
D18*
%TO.P,J112,1,Pin_1*%
%TO.N,GND*%
X37500000Y-24950000D03*
D19*
%TO.P,J112,2,Pin_2*%
%TO.N,/STM32F042/BRAKE*%
X35000000Y-24950000D03*
%TO.P,J112,3,Pin_3*%
%TO.N,+3V3*%
X32500000Y-24950000D03*
%TD*%
D22*
%TO.P,J107,1,Pin_1*%
%TO.N,GND*%
X24950000Y-37500000D03*
D13*
%TO.P,J107,2,Pin_2*%
%TO.N,/STM32F042/WHEEL_ENCODER_A*%
X24950000Y-40000000D03*
%TO.P,J107,3,Pin_3*%
%TO.N,+3V3*%
X24950000Y-42500000D03*
%TD*%
D23*
%TO.P,C203,1*%
%TO.N,Net-(U201-DVDD)*%
X56067500Y-80500000D03*
%TO.P,C203,2*%
%TO.N,GND*%
X54932500Y-80500000D03*
%TD*%
D24*
%TO.P,R305,1*%
%TO.N,/Power-A/TEMP*%
X25000000Y-67500000D03*
%TO.P,R305,2*%
%TO.N,GND*%
X23805000Y-67500000D03*
%TD*%
D25*
%TO.P,R302,1*%
%TO.N,/Power-A/C*%
X45000000Y-84000000D03*
%TO.P,R302,2*%
%TO.N,/Power-A/CURR*%
X45000000Y-82805000D03*
%TD*%
D26*
%TO.P,C502,1*%
%TO.N,Net-(U501-CPH)*%
X77475000Y-92475000D03*
%TO.P,C502,2*%
%TO.N,Net-(U501-CPL)*%
X75750000Y-92475000D03*
%TD*%
D27*
%TO.P,U501,1,VM*%
%TO.N,+BATT*%
X77750000Y-88437500D03*
%TO.P,U501,2,VCP*%
%TO.N,Net-(U501-VCP)*%
X77250000Y-88437500D03*
%TO.P,U501,3,CPH*%
%TO.N,Net-(U501-CPH)*%
X76750000Y-88437500D03*
%TO.P,U501,4,CPL*%
%TO.N,Net-(U501-CPL)*%
X76250000Y-88437500D03*
%TO.P,U501,5,GND*%
%TO.N,GND*%
X75750000Y-88437500D03*
%TO.P,U501,6,VREF*%
X75250000Y-88437500D03*
D28*
%TO.P,U501,7,AVDD*%
%TO.N,Net-(U501-AVDD)*%
X74562500Y-87750000D03*
%TO.P,U501,8,DVDD*%
%TO.N,Net-(U501-DVDD)*%
X74562500Y-87250000D03*
%TO.P,U501,9,nFAULT*%
%TO.N,/DRV8701P-A1/nFAULT*%
X74562500Y-86750000D03*
%TO.P,U501,10,SNSOUT*%
%TO.N,unconnected-(U501-SNSOUT-Pad10)*%
X74562500Y-86250000D03*
%TO.P,U501,11,SO*%
%TO.N,unconnected-(U501-SO-Pad11)*%
X74562500Y-85750000D03*
%TO.P,U501,12,IDRIVE*%
%TO.N,GND*%
X74562500Y-85250000D03*
D27*
%TO.P,U501,13,nSLEEP*%
%TO.N,/DRV8701P-A1/nSLEEP*%
X75250000Y-84562500D03*
%TO.P,U501,14,IN2*%
%TO.N,/DRV8701P-A1/IN2*%
X75750000Y-84562500D03*
%TO.P,U501,15,IN1*%
%TO.N,/DRV8701P-A1/IN1*%
X76250000Y-84562500D03*
%TO.P,U501,16,GND*%
%TO.N,GND*%
X76750000Y-84562500D03*
%TO.P,U501,17,GH1*%
%TO.N,/DRV8701P-A1/GH1*%
X77250000Y-84562500D03*
%TO.P,U501,18,SH1*%
%TO.N,/DRV8701P-A1/SH1*%
X77750000Y-84562500D03*
D28*
%TO.P,U501,19,GL1*%
%TO.N,/DRV8701P-A1/GL1*%
X78437500Y-85250000D03*
%TO.P,U501,20,SN*%
%TO.N,GND*%
X78437500Y-85750000D03*
%TO.P,U501,21,SP*%
X78437500Y-86250000D03*
%TO.P,U501,22,GL2*%
%TO.N,/DRV8701P-A1/GL2*%
X78437500Y-86750000D03*
%TO.P,U501,23,SH2*%
%TO.N,/DRV8701P-A1/SH2*%
X78437500Y-87250000D03*
%TO.P,U501,24,GH2*%
%TO.N,/DRV8701P-A1/GH2*%
X78437500Y-87750000D03*
D29*
%TO.P,U501,25,GND*%
%TO.N,GND*%
X76500000Y-86500000D03*
%TD*%
D30*
%TO.P,TH601,1*%
%TO.N,+3V3*%
X99592500Y-86250000D03*
%TO.P,TH601,2*%
%TO.N,/Power-A1/TEMP*%
X100407500Y-86250000D03*
%TD*%
D23*
%TO.P,C501,1*%
%TO.N,+BATT*%
X78750000Y-90975000D03*
%TO.P,C501,2*%
%TO.N,Net-(U501-VCP)*%
X77615000Y-90975000D03*
%TD*%
%TO.P,C205,1*%
%TO.N,+BATT*%
X53045000Y-90062500D03*
%TO.P,C205,2*%
%TO.N,GND*%
X51910000Y-90062500D03*
%TD*%
D31*
%TO.P,U201,1,VM*%
%TO.N,+BATT*%
X55062500Y-87750000D03*
%TO.P,U201,2,VCP*%
%TO.N,Net-(U201-VCP)*%
X55062500Y-87250000D03*
%TO.P,U201,3,CPH*%
%TO.N,Net-(U201-CPH)*%
X55062500Y-86750000D03*
%TO.P,U201,4,CPL*%
%TO.N,Net-(U201-CPL)*%
X55062500Y-86250000D03*
%TO.P,U201,5,GND*%
%TO.N,GND*%
X55062500Y-85750000D03*
%TO.P,U201,6,VREF*%
X55062500Y-85250000D03*
D32*
%TO.P,U201,7,AVDD*%
%TO.N,Net-(U201-AVDD)*%
X55750000Y-84562500D03*
%TO.P,U201,8,DVDD*%
%TO.N,Net-(U201-DVDD)*%
X56250000Y-84562500D03*
%TO.P,U201,9,nFAULT*%
%TO.N,/DRV8701P-A/nFAULT*%
X56750000Y-84562500D03*
%TO.P,U201,10,SNSOUT*%
%TO.N,unconnected-(U201-SNSOUT-Pad10)*%
X57250000Y-84562500D03*
%TO.P,U201,11,SO*%
%TO.N,unconnected-(U201-SO-Pad11)*%
X57750000Y-84562500D03*
%TO.P,U201,12,IDRIVE*%
%TO.N,GND*%
X58250000Y-84562500D03*
D31*
%TO.P,U201,13,nSLEEP*%
%TO.N,/DRV8701P-A/nSLEEP*%
X58937500Y-85250000D03*
%TO.P,U201,14,IN2*%
%TO.N,/DRV8701P-A/IN2*%
X58937500Y-85750000D03*
%TO.P,U201,15,IN1*%
%TO.N,/DRV8701P-A/IN1*%
X58937500Y-86250000D03*
%TO.P,U201,16,GND*%
%TO.N,GND*%
X58937500Y-86750000D03*
%TO.P,U201,17,GH1*%
%TO.N,/DRV8701P-A/GH1*%
X58937500Y-87250000D03*
%TO.P,U201,18,SH1*%
%TO.N,/DRV8701P-A/SH1*%
X58937500Y-87750000D03*
D32*
%TO.P,U201,19,GL1*%
%TO.N,/DRV8701P-A/GL1*%
X58250000Y-88437500D03*
%TO.P,U201,20,SN*%
%TO.N,GND*%
X57750000Y-88437500D03*
%TO.P,U201,21,SP*%
X57250000Y-88437500D03*
%TO.P,U201,22,GL2*%
%TO.N,/DRV8701P-A/GL2*%
X56750000Y-88437500D03*
%TO.P,U201,23,SH2*%
%TO.N,/DRV8701P-A/SH2*%
X56250000Y-88437500D03*
%TO.P,U201,24,GH2*%
%TO.N,/DRV8701P-A/GH2*%
X55750000Y-88437500D03*
D29*
%TO.P,U201,25,GND*%
%TO.N,GND*%
X57000000Y-86500000D03*
%TD*%
D33*
%TO.P,R605,1*%
%TO.N,/Power-A1/TEMP*%
X105000000Y-67500000D03*
%TO.P,R605,2*%
%TO.N,GND*%
X106195000Y-67500000D03*
%TD*%
D34*
%TO.P,C503,1*%
%TO.N,Net-(U501-DVDD)*%
X70250000Y-87407500D03*
%TO.P,C503,2*%
%TO.N,GND*%
X70250000Y-88542500D03*
%TD*%
D35*
%TO.P,C201,1*%
%TO.N,+BATT*%
X53250000Y-88697500D03*
%TO.P,C201,2*%
%TO.N,Net-(U201-VCP)*%
X53250000Y-87562500D03*
%TD*%
D36*
%TO.P,C202,1*%
%TO.N,Net-(U201-CPH)*%
X52000000Y-87362500D03*
%TO.P,C202,2*%
%TO.N,Net-(U201-CPL)*%
X52000000Y-85637500D03*
%TD*%
D37*
%TO.P,C303,1*%
%TO.N,/Power-A/CURR*%
X46875000Y-82805000D03*
%TO.P,C303,2*%
%TO.N,GND*%
X48600000Y-82805000D03*
%TD*%
D34*
%TO.P,C505,1*%
%TO.N,+BATT*%
X80750000Y-91475000D03*
%TO.P,C505,2*%
%TO.N,GND*%
X80750000Y-92610000D03*
%TD*%
%TO.P,C504,1*%
%TO.N,Net-(U501-AVDD)*%
X71750000Y-87975000D03*
%TO.P,C504,2*%
%TO.N,GND*%
X71750000Y-89110000D03*
%TD*%
D38*
%TO.P,C603,1*%
%TO.N,/Power-A1/CURR*%
X83000000Y-95500000D03*
%TO.P,C603,2*%
%TO.N,GND*%
X83000000Y-97225000D03*
%TD*%
D24*
%TO.P,R602,1*%
%TO.N,/Power-A1/C*%
X85597500Y-95500000D03*
%TO.P,R602,2*%
%TO.N,/Power-A1/CURR*%
X84402500Y-95500000D03*
%TD*%
D23*
%TO.P,C204,1*%
%TO.N,Net-(U201-AVDD)*%
X55567500Y-82000000D03*
%TO.P,C204,2*%
%TO.N,GND*%
X54432500Y-82000000D03*
%TD*%
D39*
%TO.P,TH301,1*%
%TO.N,+3V3*%
X30407500Y-86250000D03*
%TO.P,TH301,2*%
%TO.N,/Power-A/TEMP*%
X29592500Y-86250000D03*
%TD*%
D40*
%TO.N,GND*%
X68000000Y-50767657D03*
%TO.N,+3V3*%
X64000000Y-61500000D03*
%TO.N,Net-(U501-DVDD)*%
X68500000Y-87500000D03*
%TO.N,+5V*%
X105000000Y-23500000D03*
X105000000Y-27500000D03*
X101500000Y-29500000D03*
X89000000Y-24500000D03*
X89500000Y-27500000D03*
X95000000Y-28000000D03*
X97500000Y-29000000D03*
%TO.N,GND*%
X59000000Y-62699500D03*
%TO.N,/STM32F042/SWDIO*%
X59486551Y-58513449D03*
%TO.N,/DRV8701P-A1/IN2*%
X58000000Y-60500000D03*
%TO.N,/DRV8701P-A1/IN1*%
X58672791Y-59561504D03*
%TO.N,+3V3*%
X97500000Y-36500000D03*
X100500000Y-47500000D03*
X99500000Y-39500000D03*
X100000000Y-43000000D03*
X98500000Y-44500000D03*
X98000000Y-41500000D03*
X95500000Y-43500000D03*
X93500000Y-46000000D03*
X95000000Y-48000000D03*
X96500000Y-46500000D03*
X95500000Y-40000000D03*
X76500000Y-40500000D03*
%TO.N,Net-(U201-DVDD)*%
X55000000Y-79000000D03*
%TO.N,+3V3*%
X65500000Y-49000000D03*
X65500000Y-47000000D03*
X63500000Y-49000000D03*
X63500000Y-47500000D03*
X61500000Y-47500000D03*
X61500000Y-49000000D03*
%TO.N,GND*%
X58500000Y-53000000D03*
X55500000Y-53000000D03*
X58000000Y-42000000D03*
X92500000Y-28500000D03*
X53500000Y-85000000D03*
%TO.N,+3V3*%
X90000000Y-102000000D03*
%TO.N,/STM32F042/WHEEL_ENCODER_A*%
X52000000Y-58000000D03*
X45500000Y-59000000D03*
X40500000Y-49500000D03*
%TO.N,+3V3*%
X94500000Y-37000000D03*
X56000000Y-42000000D03*
%TO.N,GND*%
X103000000Y-69000000D03*
X100500000Y-69000000D03*
X92000000Y-60000000D03*
X94500000Y-63000000D03*
X98500000Y-66000000D03*
X94500000Y-58500000D03*
X97000000Y-60500000D03*
X100000000Y-63500000D03*
X109500000Y-65000000D03*
X102500000Y-64500000D03*
X89500000Y-57500000D03*
X93000000Y-57000000D03*
X97000000Y-56500000D03*
X95000000Y-53500000D03*
X92500000Y-54000000D03*
X97500000Y-54000000D03*
X100500000Y-53500000D03*
X103000000Y-53500000D03*
X98500000Y-31500000D03*
X87000000Y-28000000D03*
X90000000Y-30500000D03*
X96000000Y-31500000D03*
X77000000Y-49000000D03*
X76500000Y-43000000D03*
X80500000Y-48500000D03*
X87500000Y-51500000D03*
X84500000Y-54000000D03*
X90500000Y-48000000D03*
X94500000Y-50000000D03*
X90500000Y-53000000D03*
X88000000Y-57500000D03*
X81000000Y-58000000D03*
X78000000Y-62500000D03*
X71000000Y-59500000D03*
X75500000Y-62500000D03*
X77500000Y-60500000D03*
X70000000Y-48500000D03*
X73500000Y-47500000D03*
X74500000Y-42000000D03*
X76000000Y-38000000D03*
X74500000Y-35000000D03*
X72500000Y-32500000D03*
X73000000Y-30500000D03*
X72000000Y-28000000D03*
X67500000Y-28000000D03*
X68000000Y-31000000D03*
X66000000Y-34500000D03*
X65500000Y-38000000D03*
X66000000Y-40500000D03*
X65500000Y-43500000D03*
X62500000Y-44000000D03*
X60000000Y-43500000D03*
X56000000Y-38000000D03*
X56000000Y-34000000D03*
X55500000Y-32000000D03*
X54000000Y-30000000D03*
X52500000Y-28500000D03*
X51000000Y-32000000D03*
X53000000Y-34000000D03*
X53000000Y-36500000D03*
X53000000Y-41000000D03*
X53000000Y-47500000D03*
X53000000Y-43500000D03*
X53000000Y-38500000D03*
X51000000Y-40500000D03*
X51500000Y-45500000D03*
X48000000Y-43500000D03*
X46500000Y-41000000D03*
X45000000Y-39500000D03*
X43500000Y-38000000D03*
X36000000Y-27000000D03*
X36500000Y-30000000D03*
X37000000Y-32500000D03*
X39500000Y-34500000D03*
X41500000Y-36000000D03*
X38500000Y-30500000D03*
X32500000Y-20500000D03*
X30500000Y-28500000D03*
X26500000Y-33500000D03*
X21000000Y-32500000D03*
X24000000Y-30000000D03*
X33500000Y-37500000D03*
X35000000Y-37500000D03*
X32500000Y-33500000D03*
X32000000Y-31000000D03*
X37500000Y-41000000D03*
X42000000Y-45500000D03*
X36500000Y-38500000D03*
X47000000Y-47500000D03*
X44000000Y-48000000D03*
X38000000Y-49500000D03*
X43000000Y-49500000D03*
X33500000Y-49500000D03*
X29500000Y-52000000D03*
X27000000Y-58500000D03*
X25500000Y-60500000D03*
X22500000Y-65000000D03*
X29500000Y-63500000D03*
X34500000Y-55500000D03*
X43500000Y-56500000D03*
X43500000Y-63000000D03*
X35500000Y-63500000D03*
X37000000Y-60000000D03*
X82500000Y-91000000D03*
X84000000Y-87500000D03*
X83500000Y-92000000D03*
X84500000Y-93000000D03*
X47000000Y-89500000D03*
X46500000Y-87000000D03*
X48000000Y-88000000D03*
X48000000Y-90500000D03*
X46000000Y-88500000D03*
X45500000Y-91000000D03*
X66500000Y-111500000D03*
X67000000Y-106500000D03*
X68500000Y-102500000D03*
X70500000Y-67500000D03*
X62000000Y-67500000D03*
X59500000Y-70500000D03*
X43000000Y-68500000D03*
X49000000Y-67500000D03*
X55000000Y-70000000D03*
X52500000Y-68000000D03*
X50500000Y-69500000D03*
X44000000Y-70500000D03*
X41000000Y-67500000D03*
X37500000Y-69500000D03*
X33000000Y-69500000D03*
X30000000Y-67500000D03*
X27000000Y-70000000D03*
X18500000Y-69500000D03*
X19000000Y-84500000D03*
X18000000Y-92000000D03*
X17000000Y-87000000D03*
X16500000Y-92000000D03*
X19000000Y-90000000D03*
X17500000Y-101500000D03*
X21500000Y-104500000D03*
X18500000Y-105500000D03*
X27000000Y-109500000D03*
X27500000Y-113000000D03*
X25000000Y-110500000D03*
X32000000Y-113000000D03*
X36500000Y-110000000D03*
X37500000Y-113000000D03*
X40000000Y-111000000D03*
X48500000Y-110500000D03*
X45063481Y-112806380D03*
X51500000Y-112000000D03*
X52500000Y-110000000D03*
X73500000Y-93500000D03*
X70887571Y-93412796D03*
X71000000Y-97500000D03*
X74102823Y-100761944D03*
X72500000Y-103500000D03*
X76705646Y-109846307D03*
X77471182Y-111326344D03*
X82500000Y-112000000D03*
X91000000Y-112000000D03*
X104000000Y-112500000D03*
X113000000Y-107500000D03*
X113000000Y-103000000D03*
X112787920Y-90656865D03*
X112992063Y-85400183D03*
X112532742Y-80143501D03*
X113000000Y-69000000D03*
X107735381Y-69630137D03*
X98089625Y-68813565D03*
X93394336Y-69119779D03*
X88188689Y-69170815D03*
X84000000Y-69500000D03*
X79000000Y-69500000D03*
X99500000Y-58000000D03*
X29500000Y-57500000D03*
%TO.N,/STM32F042/nRESET*%
X79000000Y-45500000D03*
%TO.N,GND*%
X86500000Y-57000000D03*
X82500000Y-64500000D03*
X79000000Y-64500000D03*
%TO.N,/STM32F042/SWDIO*%
X84000000Y-65500000D03*
%TO.N,/STM32F042/WHEEL_ENCODER_B*%
X86000000Y-54500000D03*
%TO.N,/Power-A1/CURR*%
X50000000Y-52166657D03*
%TO.N,/STM32F042/MOTOR_TEMP_B*%
X51000000Y-54500000D03*
%TO.N,+3V3*%
X98500000Y-86000000D03*
%TO.N,/Power-A/CURR*%
X47500000Y-49500000D03*
%TO.N,/Power-A/TEMP*%
X36500000Y-51500000D03*
%TO.N,GND*%
X23000000Y-68000000D03*
%TO.N,+3V3*%
X32000000Y-86000000D03*
%TO.N,/Power-A1/TEMP*%
X48500000Y-52100500D03*
%TO.N,/STM32F042/MOTOR_TEMP_B*%
X82500000Y-54000000D03*
%TO.N,GND*%
X46000000Y-78500000D03*
X61027464Y-86972536D03*
X82500000Y-87000000D03*
X84000000Y-99500000D03*
X101500000Y-43000000D03*
X32500000Y-28500000D03*
X92000000Y-37500000D03*
X28500000Y-42000000D03*
X42500000Y-77000000D03*
X77000000Y-82500000D03*
X74000000Y-41000000D03*
X59135000Y-61250000D03*
X50000000Y-89500000D03*
X58500000Y-83000000D03*
X69000000Y-46000000D03*
X49500000Y-87000000D03*
X87000000Y-100500000D03*
X48699500Y-55000000D03*
X53500000Y-80000000D03*
X75000000Y-90500000D03*
X57055282Y-90055282D03*
X73000000Y-84500000D03*
X77500000Y-57500000D03*
X71500000Y-57500000D03*
X48000000Y-28500000D03*
X72000000Y-90000000D03*
X53000000Y-81500000D03*
X83500000Y-98500000D03*
X74500000Y-61500000D03*
X70500000Y-90000000D03*
X67500000Y-36000000D03*
X82000000Y-93000000D03*
X28500000Y-57000000D03*
X101000000Y-57500000D03*
%TO.N,+3V3*%
X45500000Y-81500000D03*
X77500000Y-52500000D03*
X50000000Y-58000000D03*
X85000000Y-97000000D03*
X39500000Y-78500000D03*
%TO.N,/STM32F042/WHEEL_ENCODER_A*%
X65500000Y-55000000D03*
%TO.N,/STM32F042/WHEEL_ENCODER_B*%
X68500000Y-56500000D03*
%TO.N,/DRV8701P-A/GH1*%
X30000000Y-101000000D03*
%TO.N,/DRV8701P-A/SH1*%
X26500000Y-93500000D03*
%TO.N,/DRV8701P-A/GL1*%
X33000000Y-86500000D03*
%TO.N,/DRV8701P-A/GH2*%
X29500000Y-78000000D03*
%TO.N,/DRV8701P-A/SH2*%
X25000000Y-79000000D03*
%TO.N,/DRV8701P-A/GL2*%
X35500000Y-80500000D03*
%TO.N,/DRV8701P-A1/GH1*%
X100500000Y-71500000D03*
%TO.N,/DRV8701P-A1/SH1*%
X100500000Y-79000000D03*
%TO.N,/DRV8701P-A1/GL1*%
X97000000Y-86000000D03*
%TO.N,/DRV8701P-A1/GH2*%
X100000000Y-94000000D03*
%TO.N,/DRV8701P-A1/SH2*%
X105500000Y-93000000D03*
%TO.N,/DRV8701P-A1/GL2*%
X97000000Y-93500000D03*
%TO.N,/DRV8701P-A1/nFAULT*%
X55500000Y-62500000D03*
%TO.N,/DRV8701P-A1/nSLEEP*%
X55850500Y-61000000D03*
%TO.N,/DRV8701P-A/nFAULT*%
X55000000Y-65000000D03*
%TO.N,/DRV8701P-A/nSLEEP*%
X56000000Y-65000000D03*
%TO.N,/DRV8701P-A/IN1*%
X58000000Y-65000000D03*
%TO.N,/DRV8701P-A/IN2*%
X57000000Y-65000000D03*
%TO.N,/STM32F042/nRESET*%
X58500000Y-45500000D03*
%TO.N,/Power-A/C*%
X43500000Y-84000000D03*
%TO.N,/Power-A1/C*%
X87000000Y-95500000D03*
%TO.N,+5V*%
X71000000Y-46000000D03*
X91000000Y-28500000D03*
%TO.N,+BATT*%
X80500000Y-90000000D03*
X53000000Y-91000000D03*
%TD*%
D41*
%TO.N,Net-(U201-AVDD)*%
X55567500Y-84380000D02*
X55750000Y-84562500D01*
X55567500Y-82000000D02*
X55567500Y-84380000D01*
%TO.N,Net-(U501-DVDD)*%
X68592500Y-87407500D02*
X68500000Y-87500000D01*
X70250000Y-87407500D02*
X68592500Y-87407500D01*
%TO.N,/STM32F042/SWDIO*%
X75000000Y-65500000D02*
X84000000Y-65500000D01*
X68013449Y-58513449D02*
X75000000Y-65500000D01*
X59486551Y-58513449D02*
X68013449Y-58513449D01*
%TO.N,/DRV8701P-A1/IN2*%
X58349500Y-60500000D02*
X58549500Y-60300000D01*
X58000000Y-60500000D02*
X58349500Y-60500000D01*
%TO.N,/Power-A/CURR*%
X46875000Y-50125000D02*
X47500000Y-49500000D01*
X46875000Y-82805000D02*
X46875000Y-50125000D01*
%TO.N,Net-(U201-DVDD)*%
X56067500Y-80067500D02*
X55000000Y-79000000D01*
X56067500Y-80500000D02*
X56067500Y-80067500D01*
%TO.N,GND*%
X53750000Y-85250000D02*
X53500000Y-85000000D01*
X55062500Y-85250000D02*
X53750000Y-85250000D01*
X55062500Y-85750000D02*
X55062500Y-85250000D01*
%TO.N,/STM32F042/WHEEL_ENCODER_A*%
X52400000Y-58000000D02*
X55200000Y-55200000D01*
X52000000Y-58000000D02*
X52400000Y-58000000D01*
X41000000Y-55000000D02*
X45000000Y-59000000D01*
X41000000Y-50000000D02*
X41000000Y-55000000D01*
X40500000Y-49500000D02*
X41000000Y-50000000D01*
X45000000Y-59000000D02*
X45500000Y-59000000D01*
%TO.N,Net-(U501-AVDD)*%
X71750000Y-87975000D02*
X71975000Y-87750000D01*
%TO.N,/DRV8701P-A1/nFAULT*%
X63200000Y-63700000D02*
X56700000Y-63700000D01*
X69000000Y-69500000D02*
X63200000Y-63700000D01*
X56700000Y-63700000D02*
X55500000Y-62500000D01*
X69000000Y-81637654D02*
X69000000Y-69500000D01*
X74112346Y-86750000D02*
X69000000Y-81637654D01*
X74562500Y-86750000D02*
X74112346Y-86750000D01*
%TO.N,/STM32F042/nRESET*%
X78800000Y-45300000D02*
X58700000Y-45300000D01*
X79000000Y-45500000D02*
X78800000Y-45300000D01*
X58700000Y-45300000D02*
X58500000Y-45500000D01*
%TO.N,/STM32F042/WHEEL_ENCODER_B*%
X82000000Y-56500000D02*
X84000000Y-56500000D01*
X84000000Y-56500000D02*
X86000000Y-54500000D01*
%TO.N,/Power-A1/CURR*%
X48000000Y-54166657D02*
X48000000Y-63000000D01*
X50000000Y-52166657D02*
X48000000Y-54166657D01*
%TO.N,/STM32F042/MOTOR_TEMP_B*%
X51000000Y-54500000D02*
X51200000Y-54300000D01*
X82200000Y-54300000D02*
X82500000Y-54000000D01*
X51200000Y-54300000D02*
X82200000Y-54300000D01*
%TO.N,/Power-A1/CURR*%
X61600000Y-64100000D02*
X49100000Y-64100000D01*
X67000000Y-69500000D02*
X61600000Y-64100000D01*
X49100000Y-64100000D02*
X48000000Y-63000000D01*
X67000000Y-94000000D02*
X67000000Y-69500000D01*
%TO.N,+3V3*%
X98750000Y-86250000D02*
X98500000Y-86000000D01*
X99592500Y-86250000D02*
X98750000Y-86250000D01*
%TO.N,/Power-A1/TEMP*%
X104250000Y-86250000D02*
X100407500Y-86250000D01*
X105000000Y-85500000D02*
X104250000Y-86250000D01*
X105000000Y-67500000D02*
X105000000Y-85500000D01*
X49133343Y-51467157D02*
X48500000Y-52100500D01*
X85467157Y-51467157D02*
X49133343Y-51467157D01*
X101500000Y-67500000D02*
X85467157Y-51467157D01*
X105000000Y-67500000D02*
X101500000Y-67500000D01*
%TO.N,/Power-A/TEMP*%
X25000000Y-63000000D02*
X36500000Y-51500000D01*
X25000000Y-67500000D02*
X25000000Y-63000000D01*
%TO.N,GND*%
X23500000Y-67500000D02*
X23000000Y-68000000D01*
X23805000Y-67500000D02*
X23500000Y-67500000D01*
%TO.N,/Power-A/TEMP*%
X24300000Y-84800000D02*
X24300000Y-68200000D01*
X25750000Y-86250000D02*
X24300000Y-84800000D01*
X24300000Y-68200000D02*
X25000000Y-67500000D01*
X29592500Y-86250000D02*
X25750000Y-86250000D01*
%TO.N,+3V3*%
X31750000Y-86250000D02*
X32000000Y-86000000D01*
X30407500Y-86250000D02*
X31750000Y-86250000D01*
%TO.N,/STM32F042/WHEEL_ENCODER_A*%
X65300000Y-55200000D02*
X55200000Y-55200000D01*
%TO.N,GND*%
X76750000Y-82750000D02*
X77000000Y-82500000D01*
X58250000Y-83250000D02*
X58500000Y-83000000D01*
X58937500Y-86750000D02*
X60804928Y-86750000D01*
X54432500Y-82000000D02*
X53500000Y-82000000D01*
X57250000Y-88437500D02*
X57750000Y-88437500D01*
X57250000Y-88437500D02*
X57250000Y-89860564D01*
X60804928Y-86750000D02*
X61027464Y-86972536D01*
X74562500Y-85250000D02*
X73750000Y-85250000D01*
X83000000Y-97225000D02*
X83000000Y-98000000D01*
X75250000Y-88437500D02*
X75250000Y-90250000D01*
X78437500Y-85750000D02*
X81250000Y-85750000D01*
X54932500Y-80500000D02*
X54000000Y-80500000D01*
X53500000Y-82000000D02*
X53000000Y-81500000D01*
X75750000Y-88437500D02*
X75250000Y-88437500D01*
X48600000Y-82805000D02*
X48600000Y-86100000D01*
X73750000Y-85250000D02*
X73000000Y-84500000D01*
X78437500Y-85750000D02*
X78437500Y-86250000D01*
X50562500Y-90062500D02*
X50000000Y-89500000D01*
X81250000Y-85750000D02*
X82500000Y-87000000D01*
X81610000Y-92610000D02*
X82000000Y-93000000D01*
X58250000Y-84562500D02*
X58250000Y-83250000D01*
X76750000Y-84562500D02*
X76750000Y-82750000D01*
X51910000Y-90062500D02*
X50562500Y-90062500D01*
X75250000Y-90250000D02*
X75000000Y-90500000D01*
X70250000Y-88542500D02*
X70250000Y-89750000D01*
X83000000Y-98000000D02*
X83500000Y-98500000D01*
X71750000Y-89750000D02*
X72000000Y-90000000D01*
X70250000Y-89750000D02*
X70500000Y-90000000D01*
X80750000Y-92610000D02*
X81610000Y-92610000D01*
X54000000Y-80500000D02*
X53500000Y-80000000D01*
X48600000Y-86100000D02*
X49500000Y-87000000D01*
X57250000Y-89860564D02*
X57055282Y-90055282D01*
X71750000Y-89110000D02*
X71750000Y-89750000D01*
%TO.N,Net-(U201-DVDD)*%
X56250000Y-84562500D02*
X56250000Y-80682500D01*
X56250000Y-80682500D02*
X56067500Y-80500000D01*
%TO.N,Net-(U501-DVDD)*%
X74562500Y-87250000D02*
X70407500Y-87250000D01*
X70407500Y-87250000D02*
X70250000Y-87407500D01*
%TO.N,/STM32F042/WHEEL_ENCODER_A*%
X65500000Y-55000000D02*
X65300000Y-55200000D01*
%TO.N,/STM32F042/WHEEL_ENCODER_B*%
X68500000Y-56500000D02*
X82000000Y-56500000D01*
%TO.N,/DRV8701P-A/GH1*%
X51065686Y-101000000D02*
X30000000Y-101000000D01*
X60315686Y-87250000D02*
X60900000Y-87834315D01*
X58937500Y-87250000D02*
X60315686Y-87250000D01*
X60900000Y-91165686D02*
X51065686Y-101000000D01*
X60900000Y-87834315D02*
X60900000Y-91165686D01*
%TO.N,/DRV8701P-A/SH1*%
X57500000Y-94000000D02*
X46000000Y-94000000D01*
X60250000Y-87750000D02*
X60500000Y-88000000D01*
X60500000Y-91000000D02*
X57500000Y-94000000D01*
X46000000Y-94000000D02*
X27000000Y-94000000D01*
X27000000Y-94000000D02*
X26500000Y-93500000D01*
X60500000Y-88000000D02*
X60500000Y-88500000D01*
X60500000Y-88500000D02*
X60500000Y-91000000D01*
X58937500Y-87750000D02*
X60250000Y-87750000D01*
%TO.N,/DRV8701P-A/GL1*%
X58250000Y-88437500D02*
X58250000Y-89850514D01*
X54600514Y-93500000D02*
X40000000Y-93500000D01*
X58250000Y-89850514D02*
X54600514Y-93500000D01*
X40000000Y-93500000D02*
X33000000Y-86500000D01*
%TO.N,/DRV8701P-A/GH2*%
X55750000Y-88437500D02*
X55750000Y-89239950D01*
X37000000Y-79000000D02*
X36000000Y-78000000D01*
X37000000Y-87000000D02*
X37000000Y-79000000D01*
X42000000Y-92000000D02*
X41500000Y-91500000D01*
X55750000Y-89239950D02*
X52989950Y-92000000D01*
X33000000Y-78000000D02*
X29500000Y-78000000D01*
X52989950Y-92000000D02*
X48500000Y-92000000D01*
X48500000Y-92000000D02*
X42000000Y-92000000D01*
X41500000Y-91500000D02*
X37000000Y-87000000D01*
X36000000Y-78000000D02*
X33000000Y-78000000D01*
%TO.N,/DRV8701P-A/SH2*%
X41834314Y-92400000D02*
X36500000Y-87065686D01*
X56250000Y-88437500D02*
X56250000Y-89305635D01*
X36500000Y-79500000D02*
X36000000Y-79000000D01*
X56250000Y-89305635D02*
X53155635Y-92400000D01*
X53155635Y-92400000D02*
X41834314Y-92400000D01*
X36500000Y-87065686D02*
X36500000Y-79500000D01*
X36000000Y-79000000D02*
X25000000Y-79000000D01*
%TO.N,/DRV8701P-A/GL2*%
X53321320Y-92800000D02*
X41300000Y-92800000D01*
X56750000Y-88437500D02*
X56750000Y-89371321D01*
X35500000Y-87000000D02*
X35500000Y-80500000D01*
X41300000Y-92800000D02*
X35500000Y-87000000D01*
X56750000Y-89371321D02*
X53321320Y-92800000D01*
%TO.N,/DRV8701P-A1/GH1*%
X89000000Y-71500000D02*
X100500000Y-71500000D01*
X77250000Y-83250000D02*
X89000000Y-71500000D01*
X77250000Y-84562500D02*
X77250000Y-83250000D01*
%TO.N,/DRV8701P-A1/SH1*%
X82065686Y-79000000D02*
X100500000Y-79000000D01*
X77750000Y-84562500D02*
X77750000Y-83315686D01*
X77750000Y-83315686D02*
X82065686Y-79000000D01*
%TO.N,/DRV8701P-A1/GL1*%
X96250000Y-85250000D02*
X97000000Y-86000000D01*
X78437500Y-85250000D02*
X96250000Y-85250000D01*
%TO.N,/DRV8701P-A1/GH2*%
X87968629Y-94600000D02*
X99400000Y-94600000D01*
X81118628Y-87750000D02*
X87968629Y-94600000D01*
X78437500Y-87750000D02*
X81118628Y-87750000D01*
X99400000Y-94600000D02*
X100000000Y-94000000D01*
%TO.N,/DRV8701P-A1/SH2*%
X88134314Y-94200000D02*
X97300000Y-94200000D01*
X78437500Y-87250000D02*
X81184314Y-87250000D01*
X98000000Y-93500000D02*
X98500000Y-93000000D01*
X97300000Y-94200000D02*
X98000000Y-93500000D01*
X98500000Y-93000000D02*
X99500000Y-93000000D01*
X81184314Y-87250000D02*
X88134314Y-94200000D01*
X99500000Y-93000000D02*
X105500000Y-93000000D01*
%TO.N,/DRV8701P-A1/GL2*%
X90000000Y-90000000D02*
X93500000Y-93500000D01*
X93500000Y-93500000D02*
X97000000Y-93500000D01*
X84500000Y-90000000D02*
X90000000Y-90000000D01*
X82500000Y-88000000D02*
X84500000Y-90000000D01*
X81250000Y-86750000D02*
X82500000Y-88000000D01*
X78437500Y-86750000D02*
X81250000Y-86750000D01*
%TO.N,/Power-A/CURR*%
X45000000Y-82805000D02*
X46875000Y-82805000D01*
%TO.N,/Power-A1/CURR*%
X83000000Y-95500000D02*
X68500000Y-95500000D01*
X68500000Y-95500000D02*
X67000000Y-94000000D01*
X84402500Y-95500000D02*
X83000000Y-95500000D01*
%TO.N,/DRV8701P-A1/nSLEEP*%
X62500000Y-62000000D02*
X70500000Y-70000000D01*
X55850500Y-61000000D02*
X56850500Y-62000000D01*
X75250000Y-83750000D02*
X75250000Y-84562500D01*
X70500000Y-79000000D02*
X75250000Y-83750000D01*
X56850500Y-62000000D02*
X62500000Y-62000000D01*
X70500000Y-70000000D02*
X70500000Y-79000000D01*
%TO.N,/DRV8701P-A/nFAULT*%
X55000000Y-65000000D02*
X56750000Y-66750000D01*
X56750000Y-66750000D02*
X56750000Y-84562500D01*
%TO.N,/DRV8701P-A/nSLEEP*%
X58937500Y-85250000D02*
X60500000Y-83687500D01*
X60500000Y-69500000D02*
X60500000Y-83687500D01*
X56000000Y-65000000D02*
X60500000Y-69500000D01*
%TO.N,/DRV8701P-A1/IN1*%
X65027145Y-59461460D02*
X58747955Y-59461460D01*
X76250000Y-79250000D02*
X74000000Y-77000000D01*
X74000000Y-68434315D02*
X65027145Y-59461460D01*
X76250000Y-84562500D02*
X76250000Y-79250000D01*
X74000000Y-77000000D02*
X74000000Y-68434315D01*
%TO.N,/DRV8701P-A1/IN2*%
X72000000Y-67000000D02*
X65300000Y-60300000D01*
X75750000Y-84562500D02*
X75750000Y-81250000D01*
X72000000Y-77500000D02*
X72000000Y-67000000D01*
X75750000Y-81250000D02*
X72000000Y-77500000D01*
X65300000Y-60300000D02*
X58549500Y-60300000D01*
%TO.N,/DRV8701P-A/IN1*%
X62000000Y-86000000D02*
X63000000Y-85000000D01*
X63000000Y-85000000D02*
X63000000Y-70000000D01*
X63000000Y-70000000D02*
X58000000Y-65000000D01*
X61750000Y-86250000D02*
X62000000Y-86000000D01*
X58937500Y-86250000D02*
X61750000Y-86250000D01*
%TO.N,/DRV8701P-A/IN2*%
X62000000Y-70000000D02*
X62000000Y-85000000D01*
X58937500Y-85750000D02*
X61250000Y-85750000D01*
X61250000Y-85750000D02*
X62000000Y-85000000D01*
X57000000Y-65000000D02*
X62000000Y-70000000D01*
%TO.N,Net-(U501-AVDD)*%
X74562500Y-87750000D02*
X71975000Y-87750000D01*
%TO.N,/Power-A/C*%
X43500000Y-84000000D02*
X45000000Y-84000000D01*
%TO.N,/Power-A1/C*%
X87000000Y-95500000D02*
X85597500Y-95500000D01*
%TO.N,Net-(U201-VCP)*%
X53562500Y-87250000D02*
X53250000Y-87562500D01*
X55062500Y-87250000D02*
X53562500Y-87250000D01*
%TO.N,Net-(U201-CPH)*%
X52000000Y-87362500D02*
X52612500Y-86750000D01*
X52612500Y-86750000D02*
X55062500Y-86750000D01*
%TO.N,Net-(U201-CPL)*%
X52612500Y-86250000D02*
X55062500Y-86250000D01*
X52000000Y-85637500D02*
X52612500Y-86250000D01*
%TO.N,Net-(U501-VCP)*%
X77250000Y-90610000D02*
X77250000Y-88437500D01*
X77615000Y-90975000D02*
X77250000Y-90610000D01*
%TO.N,Net-(U501-CPH)*%
X76750000Y-91750000D02*
X76750000Y-88437500D01*
X77475000Y-92475000D02*
X76750000Y-91750000D01*
%TO.N,Net-(U501-CPL)*%
X76250000Y-92015686D02*
X76250000Y-88437500D01*
X75750000Y-92475000D02*
X75790686Y-92475000D01*
X75790686Y-92475000D02*
X76250000Y-92015686D01*
%TO.N,+BATT*%
X80750000Y-91475000D02*
X80750000Y-90250000D01*
X80750000Y-90250000D02*
X80500000Y-90000000D01*
X53250000Y-89857500D02*
X53045000Y-90062500D01*
X77750000Y-88437500D02*
X77750000Y-89975000D01*
X53250000Y-88697500D02*
X53250000Y-89857500D01*
X77750000Y-89975000D02*
X78750000Y-90975000D01*
X53045000Y-90062500D02*
X53045000Y-90955000D01*
X54197500Y-87750000D02*
X53250000Y-88697500D01*
X80250000Y-90975000D02*
X80750000Y-91475000D01*
X78750000Y-90975000D02*
X80250000Y-90975000D01*
X55062500Y-87750000D02*
X54197500Y-87750000D01*
X53045000Y-90955000D02*
X53000000Y-91000000D01*
%TD*%
%TA.AperFunction,Conductor*%
%TO.N,GND*%
G36*
X69571660Y-88027685D02*
G01*
X69592297Y-88044314D01*
X69690046Y-88142063D01*
X69832600Y-88226370D01*
X69860498Y-88234475D01*
X69991637Y-88272575D01*
X69991640Y-88272575D01*
X69991642Y-88272576D01*
X70004027Y-88273550D01*
X70028795Y-88275500D01*
X70028796Y-88275499D01*
X70028797Y-88275500D01*
X70471202Y-88275499D01*
X70508358Y-88272576D01*
X70667400Y-88226370D01*
X70754207Y-88175031D01*
X70821927Y-88157850D01*
X70888190Y-88180009D01*
X70931953Y-88234475D01*
X70940943Y-88272037D01*
X70942423Y-88290854D01*
X70942423Y-88290857D01*
X70942424Y-88290858D01*
X70968799Y-88381642D01*
X70988630Y-88449900D01*
X71072934Y-88592450D01*
X71072941Y-88592459D01*
X71190040Y-88709558D01*
X71190049Y-88709565D01*
X71229435Y-88732858D01*
X71332600Y-88793870D01*
X71374541Y-88806055D01*
X71491637Y-88840075D01*
X71491640Y-88840075D01*
X71491642Y-88840076D01*
X71504027Y-88841050D01*
X71528795Y-88843000D01*
X71528796Y-88842999D01*
X71528797Y-88843000D01*
X71971202Y-88842999D01*
X72008358Y-88840076D01*
X72167400Y-88793870D01*
X72309954Y-88709563D01*
X72427063Y-88592454D01*
X72511370Y-88449900D01*
X72514273Y-88439904D01*
X72551879Y-88381020D01*
X72615352Y-88351813D01*
X72633350Y-88350500D01*
X73990492Y-88350500D01*
X74037942Y-88359938D01*
X74040528Y-88361009D01*
X74150599Y-88375500D01*
X74974400Y-88375499D01*
X74974403Y-88375499D01*
X75084463Y-88361011D01*
X75084467Y-88361009D01*
X75084472Y-88361009D01*
X75221429Y-88304279D01*
X75339036Y-88214036D01*
X75402125Y-88131815D01*
X75458552Y-88090614D01*
X75528298Y-88086459D01*
X75589218Y-88120671D01*
X75621971Y-88182388D01*
X75624500Y-88207303D01*
X75624500Y-88849401D01*
X75638990Y-88959470D01*
X75638991Y-88959472D01*
X75640059Y-88962051D01*
X75649500Y-89009507D01*
X75649500Y-91375500D01*
X75629815Y-91442539D01*
X75577011Y-91488294D01*
X75525501Y-91499500D01*
X75400831Y-91499500D01*
X75400812Y-91499501D01*
X75299747Y-91509825D01*
X75135984Y-91564092D01*
X75135981Y-91564093D01*
X74989148Y-91654661D01*
X74867161Y-91776648D01*
X74776593Y-91923481D01*
X74776591Y-91923486D01*
X74749219Y-92006088D01*
X74722326Y-92087247D01*
X74722326Y-92087248D01*
X74722325Y-92087248D01*
X74712000Y-92188315D01*
X74712000Y-92761669D01*
X74712001Y-92761687D01*
X74722325Y-92862752D01*
X74757130Y-92967784D01*
X74776592Y-93026516D01*
X74867160Y-93173350D01*
X74989150Y-93295340D01*
X75135984Y-93385908D01*
X75299747Y-93440174D01*
X75400823Y-93450500D01*
X76099176Y-93450499D01*
X76099184Y-93450498D01*
X76099187Y-93450498D01*
X76154530Y-93444844D01*
X76200253Y-93440174D01*
X76364016Y-93385908D01*
X76510850Y-93295340D01*
X76524819Y-93281371D01*
X76586142Y-93247886D01*
X76655834Y-93252870D01*
X76700181Y-93281371D01*
X76714150Y-93295340D01*
X76860984Y-93385908D01*
X77024747Y-93440174D01*
X77125823Y-93450500D01*
X77824176Y-93450499D01*
X77824184Y-93450498D01*
X77824187Y-93450498D01*
X77879530Y-93444844D01*
X77925253Y-93440174D01*
X78089016Y-93385908D01*
X78235850Y-93295340D01*
X78357840Y-93173350D01*
X78448408Y-93026516D01*
X78502674Y-92862753D01*
X78513000Y-92761677D01*
X78512999Y-92188324D01*
X78502674Y-92087247D01*
X78456697Y-91948501D01*
X78454296Y-91878675D01*
X78490027Y-91818633D01*
X78552548Y-91787440D01*
X78574394Y-91785499D01*
X79028702Y-91785499D01*
X79065858Y-91782576D01*
X79224900Y-91736370D01*
X79367454Y-91652063D01*
X79407697Y-91611820D01*
X79469020Y-91578334D01*
X79495379Y-91575500D01*
X79815501Y-91575500D01*
X79882540Y-91595185D01*
X79928295Y-91647989D01*
X79939501Y-91699500D01*
X79939501Y-91753702D01*
X79942423Y-91790854D01*
X79942424Y-91790856D01*
X79942424Y-91790858D01*
X79967937Y-91878675D01*
X79988630Y-91949900D01*
X80072934Y-92092450D01*
X80072941Y-92092459D01*
X80190040Y-92209558D01*
X80190044Y-92209561D01*
X80190046Y-92209563D01*
X80332600Y-92293870D01*
X80374541Y-92306055D01*
X80491637Y-92340075D01*
X80491640Y-92340075D01*
X80491642Y-92340076D01*
X80504027Y-92341050D01*
X80528795Y-92343000D01*
X80528796Y-92342999D01*
X80528797Y-92343000D01*
X80971202Y-92342999D01*
X81008358Y-92340076D01*
X81167400Y-92293870D01*
X81309954Y-92209563D01*
X81427063Y-92092454D01*
X81511370Y-91949900D01*
X81557576Y-91790858D01*
X81560500Y-91753703D01*
X81560499Y-91196298D01*
X81557576Y-91159142D01*
X81511370Y-91000100D01*
X81427063Y-90857546D01*
X81427061Y-90857544D01*
X81427058Y-90857540D01*
X81386819Y-90817301D01*
X81353334Y-90755978D01*
X81350500Y-90729620D01*
X81350500Y-90316149D01*
X81356569Y-90277831D01*
X81358407Y-90272171D01*
X81385674Y-90188256D01*
X81405460Y-90000000D01*
X81385674Y-89811744D01*
X81327179Y-89631716D01*
X81232533Y-89467784D01*
X81105871Y-89327112D01*
X81089137Y-89314954D01*
X80952734Y-89215851D01*
X80952729Y-89215848D01*
X80779807Y-89138857D01*
X80779802Y-89138855D01*
X80634001Y-89107865D01*
X80594646Y-89099500D01*
X80405354Y-89099500D01*
X80372897Y-89106398D01*
X80220197Y-89138855D01*
X80220192Y-89138857D01*
X80047270Y-89215848D01*
X80047265Y-89215851D01*
X79894129Y-89327111D01*
X79767466Y-89467785D01*
X79672821Y-89631715D01*
X79672818Y-89631722D01*
X79614518Y-89811152D01*
X79614326Y-89811744D01*
X79594540Y-90000000D01*
X79614326Y-90188256D01*
X79614327Y-90188259D01*
X79622100Y-90212182D01*
X79624095Y-90282023D01*
X79588015Y-90341856D01*
X79525314Y-90372684D01*
X79504169Y-90374500D01*
X79495379Y-90374500D01*
X79428340Y-90354815D01*
X79407697Y-90338180D01*
X79367459Y-90297941D01*
X79367450Y-90297934D01*
X79224898Y-90213629D01*
X79224895Y-90213628D01*
X79065862Y-90167424D01*
X79065856Y-90167423D01*
X79028705Y-90164500D01*
X79028703Y-90164500D01*
X78840097Y-90164500D01*
X78773058Y-90144815D01*
X78752416Y-90128181D01*
X78386819Y-89762584D01*
X78353334Y-89701261D01*
X78350500Y-89674903D01*
X78350500Y-89009507D01*
X78359940Y-88962051D01*
X78361009Y-88959472D01*
X78375500Y-88849401D01*
X78375499Y-88499498D01*
X78395183Y-88432460D01*
X78447987Y-88386705D01*
X78499499Y-88375499D01*
X78849403Y-88375499D01*
X78959463Y-88361011D01*
X78959466Y-88361009D01*
X78959472Y-88361009D01*
X78962058Y-88359938D01*
X79009508Y-88350500D01*
X80818531Y-88350500D01*
X80885570Y-88370185D01*
X80906212Y-88386819D01*
X83987921Y-91468528D01*
X86919972Y-94400578D01*
X86953457Y-94461901D01*
X86948473Y-94531593D01*
X86906601Y-94587526D01*
X86858072Y-94609549D01*
X86720197Y-94638855D01*
X86720192Y-94638857D01*
X86547270Y-94715848D01*
X86547265Y-94715851D01*
X86394135Y-94827106D01*
X86389305Y-94831456D01*
X86387616Y-94829581D01*
X86337747Y-94860289D01*
X86267891Y-94858943D01*
X86217430Y-94828342D01*
X86205334Y-94816246D01*
X86205329Y-94816242D01*
X86068070Y-94733267D01*
X86068066Y-94733265D01*
X85914933Y-94685548D01*
X85914935Y-94685548D01*
X85888312Y-94683128D01*
X85848381Y-94679500D01*
X85848378Y-94679500D01*
X85346611Y-94679500D01*
X85280073Y-94685546D01*
X85280066Y-94685548D01*
X85126933Y-94733265D01*
X85126929Y-94733267D01*
X85064149Y-94771219D01*
X84996594Y-94789055D01*
X84935851Y-94771219D01*
X84873070Y-94733267D01*
X84873066Y-94733265D01*
X84719933Y-94685548D01*
X84719935Y-94685548D01*
X84693312Y-94683128D01*
X84653381Y-94679500D01*
X84653378Y-94679500D01*
X84151611Y-94679500D01*
X84085073Y-94685546D01*
X84085066Y-94685548D01*
X83931931Y-94733266D01*
X83928954Y-94734606D01*
X83926581Y-94734933D01*
X83924770Y-94735498D01*
X83924676Y-94735196D01*
X83859740Y-94744161D01*
X83796349Y-94714780D01*
X83790395Y-94709205D01*
X83698351Y-94617161D01*
X83698350Y-94617160D01*
X83551516Y-94526592D01*
X83387753Y-94472326D01*
X83387751Y-94472325D01*
X83286678Y-94462000D01*
X82713330Y-94462000D01*
X82713312Y-94462001D01*
X82612247Y-94472325D01*
X82448484Y-94526592D01*
X82448481Y-94526593D01*
X82301648Y-94617161D01*
X82179660Y-94739149D01*
X82179657Y-94739153D01*
X82117086Y-94840597D01*
X82065138Y-94887322D01*
X82011548Y-94899500D01*
X68800097Y-94899500D01*
X68733058Y-94879815D01*
X68712416Y-94863181D01*
X67636819Y-93787584D01*
X67603334Y-93726261D01*
X67600500Y-93699903D01*
X67600500Y-88169811D01*
X67620185Y-88102772D01*
X67672989Y-88057017D01*
X67742147Y-88047073D01*
X67805703Y-88076098D01*
X67816649Y-88086838D01*
X67849525Y-88123350D01*
X67894129Y-88172888D01*
X68047265Y-88284148D01*
X68047270Y-88284151D01*
X68220192Y-88361142D01*
X68220197Y-88361144D01*
X68405354Y-88400500D01*
X68405355Y-88400500D01*
X68594644Y-88400500D01*
X68594646Y-88400500D01*
X68779803Y-88361144D01*
X68952730Y-88284151D01*
X69105871Y-88172888D01*
X69217395Y-88049027D01*
X69276882Y-88012379D01*
X69309545Y-88008000D01*
X69504621Y-88008000D01*
X69571660Y-88027685D01*
G37*
%TD.AperFunction*%
%TA.AperFunction,Conductor*%
G36*
X57532514Y-85484501D02*
G01*
X57532674Y-85483905D01*
X57540524Y-85486008D01*
X57540526Y-85486008D01*
X57540528Y-85486009D01*
X57650599Y-85500500D01*
X57849400Y-85500499D01*
X57862039Y-85498835D01*
X57931073Y-85509600D01*
X57983329Y-85555980D01*
X58002215Y-85623249D01*
X58001164Y-85637952D01*
X57999500Y-85650596D01*
X57999500Y-85849403D01*
X58013989Y-85959468D01*
X58016094Y-85967322D01*
X58012814Y-85968200D01*
X58018581Y-86022073D01*
X58015517Y-86032522D01*
X58016095Y-86032677D01*
X58013990Y-86040529D01*
X57999500Y-86150598D01*
X57999500Y-86349403D01*
X58013988Y-86459463D01*
X58013991Y-86459472D01*
X58070719Y-86596426D01*
X58070721Y-86596429D01*
X58130637Y-86674514D01*
X58155831Y-86739683D01*
X58141792Y-86808128D01*
X58130637Y-86825486D01*
X58070721Y-86903570D01*
X58070719Y-86903573D01*
X58013991Y-87040527D01*
X58013990Y-87040529D01*
X57999500Y-87150598D01*
X57999500Y-87349403D01*
X58009750Y-87427263D01*
X57998983Y-87496298D01*
X57952603Y-87548553D01*
X57934267Y-87558005D01*
X57903571Y-87570721D01*
X57785964Y-87660964D01*
X57714324Y-87754328D01*
X57695719Y-87778574D01*
X57638991Y-87915527D01*
X57638990Y-87915529D01*
X57624500Y-88025598D01*
X57624500Y-88849401D01*
X57638990Y-88959470D01*
X57638991Y-88959472D01*
X57640059Y-88962051D01*
X57649500Y-89009507D01*
X57649500Y-89550417D01*
X57629815Y-89617456D01*
X57613185Y-89638093D01*
X57550018Y-89701261D01*
X57501381Y-89749898D01*
X57440058Y-89783382D01*
X57370366Y-89778398D01*
X57314433Y-89736526D01*
X57290016Y-89671062D01*
X57299138Y-89614766D01*
X57335044Y-89528083D01*
X57350500Y-89410682D01*
X57355682Y-89371321D01*
X57351030Y-89335990D01*
X57350500Y-89327892D01*
X57350500Y-89009507D01*
X57359940Y-88962051D01*
X57361009Y-88959472D01*
X57375500Y-88849401D01*
X57375499Y-88025600D01*
X57375499Y-88025598D01*
X57375499Y-88025596D01*
X57361011Y-87915536D01*
X57361009Y-87915529D01*
X57361009Y-87915528D01*
X57304279Y-87778571D01*
X57214036Y-87660964D01*
X57096429Y-87570721D01*
X57096425Y-87570719D01*
X56959472Y-87513991D01*
X56959470Y-87513990D01*
X56849401Y-87499500D01*
X56650596Y-87499500D01*
X56540531Y-87513989D01*
X56532678Y-87516094D01*
X56531802Y-87512824D01*
X56477853Y-87518567D01*
X56467477Y-87515518D01*
X56467323Y-87516095D01*
X56459470Y-87513990D01*
X56349401Y-87499500D01*
X56150598Y-87499500D01*
X56137953Y-87501165D01*
X56068918Y-87490395D01*
X56016665Y-87444012D01*
X55997784Y-87376742D01*
X55998836Y-87362039D01*
X55998954Y-87361142D01*
X56000500Y-87349401D01*
X56000499Y-87150600D01*
X55986009Y-87040528D01*
X55986008Y-87040525D01*
X55983905Y-87032674D01*
X55987207Y-87031789D01*
X55981392Y-86978075D01*
X55984501Y-86967485D01*
X55983905Y-86967326D01*
X55986008Y-86959475D01*
X55986008Y-86959474D01*
X55986009Y-86959472D01*
X56000500Y-86849401D01*
X56000499Y-86650600D01*
X55986009Y-86540528D01*
X55986008Y-86540525D01*
X55983905Y-86532674D01*
X55987207Y-86531789D01*
X55981392Y-86478075D01*
X55984501Y-86467485D01*
X55983905Y-86467326D01*
X55986008Y-86459475D01*
X55986008Y-86459474D01*
X55986009Y-86459472D01*
X56000500Y-86349401D01*
X56000499Y-86150600D01*
X56000499Y-86150598D01*
X56000499Y-86150596D01*
X55986011Y-86040536D01*
X55986009Y-86040529D01*
X55986009Y-86040528D01*
X55929279Y-85903571D01*
X55839036Y-85785964D01*
X55839034Y-85785963D01*
X55839034Y-85785962D01*
X55803369Y-85758596D01*
X55756814Y-85722873D01*
X55715613Y-85666447D01*
X55711458Y-85596701D01*
X55745670Y-85535781D01*
X55807387Y-85503028D01*
X55832301Y-85500499D01*
X55849400Y-85500499D01*
X55849402Y-85500499D01*
X55878382Y-85496683D01*
X55959472Y-85486009D01*
X55959475Y-85486007D01*
X55967326Y-85483905D01*
X55968210Y-85487207D01*
X56021925Y-85481392D01*
X56032514Y-85484501D01*
X56032674Y-85483905D01*
X56040524Y-85486008D01*
X56040526Y-85486008D01*
X56040528Y-85486009D01*
X56150599Y-85500500D01*
X56349400Y-85500499D01*
X56349401Y-85500499D01*
X56370024Y-85497784D01*
X56459472Y-85486009D01*
X56459475Y-85486007D01*
X56467326Y-85483905D01*
X56468210Y-85487207D01*
X56521925Y-85481392D01*
X56532514Y-85484501D01*
X56532674Y-85483905D01*
X56540524Y-85486008D01*
X56540526Y-85486008D01*
X56540528Y-85486009D01*
X56650599Y-85500500D01*
X56849400Y-85500499D01*
X56849401Y-85500499D01*
X56870024Y-85497784D01*
X56959472Y-85486009D01*
X56959475Y-85486007D01*
X56967326Y-85483905D01*
X56968210Y-85487207D01*
X57021925Y-85481392D01*
X57032514Y-85484501D01*
X57032674Y-85483905D01*
X57040524Y-85486008D01*
X57040526Y-85486008D01*
X57040528Y-85486009D01*
X57150599Y-85500500D01*
X57349400Y-85500499D01*
X57349401Y-85500499D01*
X57370024Y-85497784D01*
X57459472Y-85486009D01*
X57459475Y-85486007D01*
X57467326Y-85483905D01*
X57468210Y-85487207D01*
X57521925Y-85481392D01*
X57532514Y-85484501D01*
G37*
%TD.AperFunction*%
%TA.AperFunction,Conductor*%
G36*
X76590002Y-52087342D02*
G01*
X76635757Y-52140146D01*
X76645701Y-52209304D01*
X76640894Y-52229975D01*
X76621795Y-52288756D01*
X76614326Y-52311744D01*
X76594540Y-52500000D01*
X76614326Y-52688256D01*
X76614327Y-52688259D01*
X76672818Y-52868277D01*
X76672821Y-52868284D01*
X76767467Y-53032216D01*
X76863487Y-53138857D01*
X76894129Y-53172888D01*
X77047265Y-53284148D01*
X77047270Y-53284151D01*
X77220192Y-53361142D01*
X77220197Y-53361144D01*
X77405354Y-53400500D01*
X77405355Y-53400500D01*
X77594644Y-53400500D01*
X77594646Y-53400500D01*
X77779803Y-53361144D01*
X77952730Y-53284151D01*
X78105871Y-53172888D01*
X78232533Y-53032216D01*
X78327179Y-52868284D01*
X78385674Y-52688256D01*
X78405460Y-52500000D01*
X78385674Y-52311744D01*
X78370351Y-52264586D01*
X78359106Y-52229975D01*
X78357111Y-52160133D01*
X78393192Y-52100301D01*
X78455893Y-52069473D01*
X78477037Y-52067657D01*
X85167060Y-52067657D01*
X85234099Y-52087342D01*
X85254741Y-52103976D01*
X101044669Y-67893904D01*
X101050020Y-67900005D01*
X101071718Y-67928282D01*
X101173044Y-68006032D01*
X101173045Y-68006033D01*
X101197157Y-68024535D01*
X101197158Y-68024535D01*
X101197159Y-68024536D01*
X101343238Y-68085044D01*
X101421619Y-68095363D01*
X101499999Y-68105682D01*
X101500000Y-68105682D01*
X101535329Y-68101030D01*
X101543428Y-68100500D01*
X104257550Y-68100500D01*
X104324589Y-68120185D01*
X104345231Y-68136819D01*
X104363181Y-68154769D01*
X104396666Y-68216092D01*
X104399500Y-68242450D01*
X104399500Y-85199903D01*
X104379815Y-85266942D01*
X104363181Y-85287584D01*
X104037584Y-85613181D01*
X103976261Y-85646666D01*
X103949903Y-85649500D01*
X101001257Y-85649500D01*
X100934218Y-85629815D01*
X100928900Y-85626075D01*
X100927836Y-85625461D01*
X100781765Y-85564957D01*
X100781760Y-85564955D01*
X100664361Y-85549500D01*
X100150636Y-85549500D01*
X100033234Y-85564955D01*
X100032083Y-85565264D01*
X100030891Y-85565264D01*
X100025179Y-85566016D01*
X100025080Y-85565264D01*
X99974919Y-85565264D01*
X99974820Y-85566017D01*
X99969107Y-85565264D01*
X99967917Y-85565265D01*
X99966765Y-85564956D01*
X99849362Y-85549500D01*
X99351303Y-85549500D01*
X99284264Y-85529815D01*
X99243915Y-85487499D01*
X99232533Y-85467784D01*
X99105871Y-85327112D01*
X99105867Y-85327109D01*
X98952734Y-85215851D01*
X98952729Y-85215848D01*
X98779807Y-85138857D01*
X98779802Y-85138855D01*
X98610364Y-85102841D01*
X98594646Y-85099500D01*
X98405354Y-85099500D01*
X98389636Y-85102841D01*
X98220197Y-85138855D01*
X98220192Y-85138857D01*
X98047270Y-85215848D01*
X98047265Y-85215851D01*
X97894132Y-85327109D01*
X97894129Y-85327111D01*
X97894129Y-85327112D01*
X97842148Y-85384841D01*
X97782663Y-85421489D01*
X97712806Y-85420158D01*
X97657851Y-85384841D01*
X97605871Y-85327112D01*
X97557772Y-85292166D01*
X97452734Y-85215851D01*
X97452729Y-85215848D01*
X97279807Y-85138857D01*
X97279802Y-85138855D01*
X97110364Y-85102841D01*
X97094646Y-85099500D01*
X97094645Y-85099500D01*
X97000097Y-85099500D01*
X96933058Y-85079815D01*
X96912416Y-85063181D01*
X96705328Y-84856093D01*
X96699974Y-84849988D01*
X96678286Y-84821722D01*
X96678283Y-84821720D01*
X96678282Y-84821718D01*
X96552841Y-84725464D01*
X96542684Y-84721257D01*
X96406762Y-84664956D01*
X96406760Y-84664955D01*
X96289361Y-84649500D01*
X96250000Y-84644318D01*
X96214670Y-84648969D01*
X96206572Y-84649500D01*
X79009508Y-84649500D01*
X78962058Y-84640062D01*
X78959475Y-84638992D01*
X78959470Y-84638990D01*
X78849410Y-84624501D01*
X78849407Y-84624500D01*
X78849401Y-84624500D01*
X78849394Y-84624500D01*
X78499499Y-84624500D01*
X78432460Y-84604815D01*
X78386705Y-84552011D01*
X78375499Y-84500500D01*
X78375499Y-84150596D01*
X78361011Y-84040536D01*
X78361009Y-84040531D01*
X78361009Y-84040528D01*
X78359938Y-84037942D01*
X78350500Y-83990492D01*
X78350500Y-83615783D01*
X78370185Y-83548744D01*
X78386819Y-83528102D01*
X82278102Y-79636819D01*
X82339425Y-79603334D01*
X82365783Y-79600500D01*
X99773742Y-79600500D01*
X99840781Y-79620185D01*
X99865891Y-79641527D01*
X99894128Y-79672887D01*
X99894135Y-79672893D01*
X100047265Y-79784148D01*
X100047270Y-79784151D01*
X100220192Y-79861142D01*
X100220197Y-79861144D01*
X100405354Y-79900500D01*
X100405355Y-79900500D01*
X100594644Y-79900500D01*
X100594646Y-79900500D01*
X100779803Y-79861144D01*
X100952730Y-79784151D01*
X101105871Y-79672888D01*
X101232533Y-79532216D01*
X101327179Y-79368284D01*
X101385674Y-79188256D01*
X101405460Y-79000000D01*
X101385674Y-78811744D01*
X101327179Y-78631716D01*
X101232533Y-78467784D01*
X101105871Y-78327112D01*
X101084719Y-78311744D01*
X100952734Y-78215851D01*
X100952729Y-78215848D01*
X100779807Y-78138857D01*
X100779802Y-78138855D01*
X100634001Y-78107865D01*
X100594646Y-78099500D01*
X100405354Y-78099500D01*
X100372897Y-78106398D01*
X100220197Y-78138855D01*
X100220192Y-78138857D01*
X100047270Y-78215848D01*
X100047265Y-78215851D01*
X99894135Y-78327106D01*
X99894128Y-78327112D01*
X99865891Y-78358473D01*
X99806405Y-78395121D01*
X99773742Y-78399500D01*
X83249097Y-78399500D01*
X83182058Y-78379815D01*
X83136303Y-78327011D01*
X83126359Y-78257853D01*
X83155384Y-78194297D01*
X83161416Y-78187819D01*
X89212416Y-72136819D01*
X89273739Y-72103334D01*
X89300097Y-72100500D01*
X99773742Y-72100500D01*
X99840781Y-72120185D01*
X99865891Y-72141527D01*
X99894128Y-72172887D01*
X99894135Y-72172893D01*
X100047265Y-72284148D01*
X100047270Y-72284151D01*
X100220192Y-72361142D01*
X100220197Y-72361144D01*
X100405354Y-72400500D01*
X100405355Y-72400500D01*
X100594644Y-72400500D01*
X100594646Y-72400500D01*
X100779803Y-72361144D01*
X100952730Y-72284151D01*
X101105871Y-72172888D01*
X101232533Y-72032216D01*
X101327179Y-71868284D01*
X101385674Y-71688256D01*
X101405460Y-71500000D01*
X101385674Y-71311744D01*
X101327179Y-71131716D01*
X101232533Y-70967784D01*
X101105871Y-70827112D01*
X101105863Y-70827106D01*
X100952734Y-70715851D01*
X100952729Y-70715848D01*
X100779807Y-70638857D01*
X100779802Y-70638855D01*
X100634001Y-70607865D01*
X100594646Y-70599500D01*
X100405354Y-70599500D01*
X100372897Y-70606398D01*
X100220197Y-70638855D01*
X100220192Y-70638857D01*
X100047270Y-70715848D01*
X100047265Y-70715851D01*
X99894135Y-70827106D01*
X99894128Y-70827112D01*
X99865891Y-70858473D01*
X99806405Y-70895121D01*
X99773742Y-70899500D01*
X89043428Y-70899500D01*
X89035329Y-70898969D01*
X89000000Y-70894318D01*
X88960639Y-70899500D01*
X88843239Y-70914955D01*
X88843237Y-70914956D01*
X88697157Y-70975464D01*
X88571719Y-71071716D01*
X88550019Y-71099994D01*
X88544668Y-71106096D01*
X77062181Y-82588583D01*
X77000858Y-82622068D01*
X76931166Y-82617084D01*
X76875233Y-82575212D01*
X76850816Y-82509748D01*
X76850500Y-82500902D01*
X76850500Y-79293434D01*
X76851031Y-79285333D01*
X76855683Y-79250000D01*
X76855683Y-79249999D01*
X76849166Y-79200499D01*
X76835044Y-79093238D01*
X76796888Y-79001122D01*
X76774538Y-78947163D01*
X76774537Y-78947162D01*
X76774536Y-78947159D01*
X76714013Y-78868284D01*
X76678282Y-78821718D01*
X76650005Y-78800020D01*
X76643904Y-78794669D01*
X74636819Y-76787584D01*
X74603334Y-76726261D01*
X74600500Y-76699903D01*
X74600500Y-68477743D01*
X74601031Y-68469641D01*
X74603784Y-68448735D01*
X74605682Y-68434315D01*
X74585044Y-68277553D01*
X74546191Y-68183753D01*
X74524538Y-68131478D01*
X74524535Y-68131473D01*
X74515873Y-68120185D01*
X74488909Y-68085044D01*
X74428282Y-68006033D01*
X74400005Y-67984335D01*
X74393904Y-67978984D01*
X65740550Y-59325630D01*
X65707065Y-59264307D01*
X65712049Y-59194615D01*
X65753921Y-59138682D01*
X65819385Y-59114265D01*
X65828231Y-59113949D01*
X67713352Y-59113949D01*
X67780391Y-59133634D01*
X67801033Y-59150268D01*
X74544669Y-65893904D01*
X74550020Y-65900005D01*
X74571718Y-65928282D01*
X74697159Y-66024536D01*
X74843238Y-66085044D01*
X74921619Y-66095363D01*
X74999999Y-66105682D01*
X75000000Y-66105682D01*
X75035329Y-66101030D01*
X75043428Y-66100500D01*
X83273742Y-66100500D01*
X83340781Y-66120185D01*
X83365891Y-66141527D01*
X83394128Y-66172887D01*
X83394135Y-66172893D01*
X83547265Y-66284148D01*
X83547270Y-66284151D01*
X83720192Y-66361142D01*
X83720197Y-66361144D01*
X83905354Y-66400500D01*
X83905355Y-66400500D01*
X84094644Y-66400500D01*
X84094646Y-66400500D01*
X84279803Y-66361144D01*
X84452730Y-66284151D01*
X84605871Y-66172888D01*
X84732533Y-66032216D01*
X84827179Y-65868284D01*
X84885674Y-65688256D01*
X84905460Y-65500000D01*
X84885674Y-65311744D01*
X84827179Y-65131716D01*
X84732533Y-64967784D01*
X84605871Y-64827112D01*
X84584719Y-64811744D01*
X84452734Y-64715851D01*
X84452729Y-64715848D01*
X84279807Y-64638857D01*
X84279802Y-64638855D01*
X84134001Y-64607865D01*
X84094646Y-64599500D01*
X83905354Y-64599500D01*
X83872897Y-64606398D01*
X83720197Y-64638855D01*
X83720192Y-64638857D01*
X83547270Y-64715848D01*
X83547265Y-64715851D01*
X83394135Y-64827106D01*
X83394128Y-64827112D01*
X83365891Y-64858473D01*
X83306405Y-64895121D01*
X83273742Y-64899500D01*
X75300097Y-64899500D01*
X75233058Y-64879815D01*
X75212416Y-64863181D01*
X72349235Y-62000000D01*
X80644341Y-62000000D01*
X80664936Y-62235403D01*
X80664938Y-62235413D01*
X80726094Y-62463655D01*
X80726096Y-62463659D01*
X80726097Y-62463663D01*
X80790153Y-62601031D01*
X80825965Y-62677830D01*
X80825967Y-62677834D01*
X80914315Y-62804007D01*
X80961505Y-62871401D01*
X81128599Y-63038495D01*
X81180401Y-63074767D01*
X81322165Y-63174032D01*
X81322167Y-63174033D01*
X81322170Y-63174035D01*
X81536337Y-63273903D01*
X81536343Y-63273904D01*
X81536344Y-63273905D01*
X81591285Y-63288626D01*
X81764592Y-63335063D01*
X81952918Y-63351539D01*
X81999999Y-63355659D01*
X82000000Y-63355659D01*
X82000001Y-63355659D01*
X82039234Y-63352226D01*
X82235408Y-63335063D01*
X82463663Y-63273903D01*
X82677830Y-63174035D01*
X82871401Y-63038495D01*
X83038495Y-62871401D01*
X83168425Y-62685842D01*
X83223002Y-62642217D01*
X83292500Y-62635023D01*
X83354855Y-62666546D01*
X83371575Y-62685842D01*
X83501500Y-62871395D01*
X83501505Y-62871401D01*
X83668599Y-63038495D01*
X83720401Y-63074767D01*
X83862165Y-63174032D01*
X83862167Y-63174033D01*
X83862170Y-63174035D01*
X84076337Y-63273903D01*
X84076343Y-63273904D01*
X84076344Y-63273905D01*
X84131285Y-63288626D01*
X84304592Y-63335063D01*
X84492918Y-63351539D01*
X84539999Y-63355659D01*
X84540000Y-63355659D01*
X84540001Y-63355659D01*
X84579234Y-63352226D01*
X84775408Y-63335063D01*
X85003663Y-63273903D01*
X85217830Y-63174035D01*
X85411401Y-63038495D01*
X85578495Y-62871401D01*
X85714035Y-62677830D01*
X85813903Y-62463663D01*
X85875063Y-62235408D01*
X85895659Y-62000000D01*
X85892840Y-61967785D01*
X85875063Y-61764596D01*
X85875063Y-61764592D01*
X85813903Y-61536337D01*
X85714035Y-61322171D01*
X85708424Y-61314158D01*
X85578496Y-61128600D01*
X85536396Y-61086500D01*
X85456567Y-61006671D01*
X85423084Y-60945351D01*
X85428068Y-60875659D01*
X85469939Y-60819725D01*
X85500915Y-60802810D01*
X85632331Y-60753796D01*
X85747546Y-60667546D01*
X85833796Y-60552331D01*
X85884091Y-60417483D01*
X85890500Y-60357873D01*
X85890499Y-58562128D01*
X85884091Y-58502517D01*
X85874768Y-58477522D01*
X85833797Y-58367671D01*
X85833793Y-58367664D01*
X85747547Y-58252455D01*
X85747544Y-58252452D01*
X85632335Y-58166206D01*
X85632328Y-58166202D01*
X85497482Y-58115908D01*
X85497483Y-58115908D01*
X85437883Y-58109501D01*
X85437881Y-58109500D01*
X85437873Y-58109500D01*
X85437864Y-58109500D01*
X83642129Y-58109500D01*
X83642123Y-58109501D01*
X83582516Y-58115908D01*
X83447671Y-58166202D01*
X83447664Y-58166206D01*
X83332455Y-58252452D01*
X83332452Y-58252455D01*
X83246206Y-58367664D01*
X83246202Y-58367671D01*
X83195908Y-58502517D01*
X83189501Y-58562116D01*
X83189501Y-58562123D01*
X83189500Y-58562135D01*
X83189500Y-60357870D01*
X83189501Y-60357876D01*
X83195908Y-60417483D01*
X83246202Y-60552328D01*
X83246206Y-60552335D01*
X83332452Y-60667544D01*
X83332455Y-60667547D01*
X83447664Y-60753793D01*
X83447671Y-60753797D01*
X83579081Y-60802810D01*
X83635015Y-60844681D01*
X83659432Y-60910145D01*
X83644580Y-60978418D01*
X83623430Y-61006673D01*
X83501503Y-61128600D01*
X83371575Y-61314158D01*
X83316998Y-61357783D01*
X83247500Y-61364977D01*
X83185145Y-61333454D01*
X83168425Y-61314158D01*
X83038494Y-61128597D01*
X82871402Y-60961506D01*
X82871395Y-60961501D01*
X82677834Y-60825967D01*
X82677830Y-60825965D01*
X82628174Y-60802810D01*
X82463663Y-60726097D01*
X82463659Y-60726096D01*
X82463655Y-60726094D01*
X82235413Y-60664938D01*
X82235403Y-60664936D01*
X82000001Y-60644341D01*
X81999999Y-60644341D01*
X81764596Y-60664936D01*
X81764586Y-60664938D01*
X81536344Y-60726094D01*
X81536335Y-60726098D01*
X81322171Y-60825964D01*
X81322169Y-60825965D01*
X81128597Y-60961505D01*
X80961505Y-61128597D01*
X80825965Y-61322169D01*
X80825964Y-61322171D01*
X80754483Y-61475464D01*
X80727191Y-61533992D01*
X80726098Y-61536335D01*
X80726094Y-61536344D01*
X80664938Y-61764586D01*
X80664936Y-61764596D01*
X80644341Y-61999999D01*
X80644341Y-62000000D01*
X72349235Y-62000000D01*
X71849235Y-61500000D01*
X68468769Y-58119534D01*
X68463429Y-58113444D01*
X68441731Y-58085167D01*
X68316290Y-57988913D01*
X68297751Y-57981234D01*
X68170211Y-57928405D01*
X68170209Y-57928404D01*
X68052810Y-57912949D01*
X68013449Y-57907767D01*
X67978119Y-57912418D01*
X67970021Y-57912949D01*
X60212809Y-57912949D01*
X60145770Y-57893264D01*
X60120660Y-57871922D01*
X60092422Y-57840561D01*
X60092415Y-57840555D01*
X59939285Y-57729300D01*
X59939280Y-57729297D01*
X59766358Y-57652306D01*
X59766353Y-57652304D01*
X59620552Y-57621314D01*
X59581197Y-57612949D01*
X59391905Y-57612949D01*
X59359448Y-57619847D01*
X59206748Y-57652304D01*
X59206743Y-57652306D01*
X59033821Y-57729297D01*
X59033816Y-57729300D01*
X58880680Y-57840560D01*
X58754017Y-57981234D01*
X58659372Y-58145164D01*
X58659369Y-58145171D01*
X58624512Y-58252452D01*
X58600877Y-58325193D01*
X58584867Y-58477522D01*
X58581091Y-58513451D01*
X58584525Y-58546132D01*
X58571954Y-58614861D01*
X58524221Y-58665884D01*
X58486985Y-58680380D01*
X58392988Y-58700359D01*
X58392983Y-58700361D01*
X58220061Y-58777352D01*
X58220056Y-58777355D01*
X58066920Y-58888615D01*
X57940257Y-59029289D01*
X57845612Y-59193219D01*
X57845609Y-59193226D01*
X57822514Y-59264307D01*
X57787117Y-59373248D01*
X57784305Y-59400007D01*
X57768599Y-59549438D01*
X57742014Y-59614052D01*
X57695715Y-59649755D01*
X57547267Y-59715850D01*
X57547265Y-59715851D01*
X57394129Y-59827111D01*
X57267466Y-59967785D01*
X57172821Y-60131715D01*
X57172818Y-60131722D01*
X57114327Y-60311740D01*
X57114326Y-60311744D01*
X57094540Y-60500000D01*
X57114326Y-60688256D01*
X57114327Y-60688259D01*
X57172818Y-60868277D01*
X57172821Y-60868284D01*
X57267467Y-61032216D01*
X57357063Y-61131722D01*
X57394129Y-61172888D01*
X57394132Y-61172890D01*
X57397287Y-61175183D01*
X57398670Y-61176977D01*
X57398958Y-61177236D01*
X57398910Y-61177288D01*
X57439953Y-61230513D01*
X57445931Y-61300127D01*
X57413324Y-61361921D01*
X57352485Y-61396278D01*
X57324401Y-61399500D01*
X57150597Y-61399500D01*
X57083558Y-61379815D01*
X57062916Y-61363181D01*
X56792279Y-61092544D01*
X56758794Y-61031221D01*
X56755960Y-61004863D01*
X56755960Y-61000002D01*
X56755960Y-61000000D01*
X56736174Y-60811744D01*
X56677679Y-60631716D01*
X56583033Y-60467784D01*
X56456371Y-60327112D01*
X56435219Y-60311744D01*
X56303234Y-60215851D01*
X56303229Y-60215848D01*
X56130307Y-60138857D01*
X56130302Y-60138855D01*
X55984501Y-60107865D01*
X55945146Y-60099500D01*
X55755854Y-60099500D01*
X55723397Y-60106398D01*
X55570697Y-60138855D01*
X55570692Y-60138857D01*
X55397770Y-60215848D01*
X55397765Y-60215851D01*
X55244629Y-60327111D01*
X55117966Y-60467785D01*
X55023321Y-60631715D01*
X55023318Y-60631722D01*
X54965230Y-60810500D01*
X54964826Y-60811744D01*
X54945040Y-61000000D01*
X54964826Y-61188256D01*
X54964827Y-61188259D01*
X55023318Y-61368277D01*
X55023321Y-61368284D01*
X55118992Y-61533992D01*
X55135465Y-61601893D01*
X55112612Y-61667919D01*
X55062046Y-61709269D01*
X55047269Y-61715848D01*
X54894129Y-61827111D01*
X54767466Y-61967785D01*
X54672821Y-62131715D01*
X54672818Y-62131722D01*
X54614327Y-62311740D01*
X54614326Y-62311744D01*
X54594540Y-62500000D01*
X54614326Y-62688256D01*
X54614327Y-62688259D01*
X54672818Y-62868277D01*
X54672821Y-62868284D01*
X54767467Y-63032216D01*
X54828050Y-63099500D01*
X54894129Y-63172888D01*
X55034924Y-63275182D01*
X55077590Y-63330512D01*
X55083569Y-63400125D01*
X55050963Y-63461920D01*
X54990124Y-63496278D01*
X54962039Y-63499500D01*
X49400097Y-63499500D01*
X49333058Y-63479815D01*
X49312416Y-63463181D01*
X48636819Y-62787584D01*
X48603334Y-62726261D01*
X48600500Y-62699903D01*
X48600500Y-58000000D01*
X49094540Y-58000000D01*
X49114326Y-58188256D01*
X49114327Y-58188259D01*
X49172818Y-58368277D01*
X49172821Y-58368284D01*
X49267467Y-58532216D01*
X49341881Y-58614861D01*
X49394129Y-58672888D01*
X49547265Y-58784148D01*
X49547270Y-58784151D01*
X49720192Y-58861142D01*
X49720197Y-58861144D01*
X49905354Y-58900500D01*
X49905355Y-58900500D01*
X50094644Y-58900500D01*
X50094646Y-58900500D01*
X50279803Y-58861144D01*
X50452730Y-58784151D01*
X50605871Y-58672888D01*
X50732533Y-58532216D01*
X50827179Y-58368284D01*
X50882069Y-58199351D01*
X50921506Y-58141675D01*
X50985865Y-58114477D01*
X51054711Y-58126392D01*
X51106187Y-58173636D01*
X51117931Y-58199351D01*
X51172818Y-58368277D01*
X51172821Y-58368284D01*
X51267467Y-58532216D01*
X51341881Y-58614861D01*
X51394129Y-58672888D01*
X51547265Y-58784148D01*
X51547270Y-58784151D01*
X51720192Y-58861142D01*
X51720197Y-58861144D01*
X51905354Y-58900500D01*
X51905355Y-58900500D01*
X52094644Y-58900500D01*
X52094646Y-58900500D01*
X52279803Y-58861144D01*
X52452730Y-58784151D01*
X52605871Y-58672888D01*
X52732533Y-58532216D01*
X52751780Y-58498877D01*
X52783675Y-58462509D01*
X52828282Y-58428282D01*
X52849984Y-58399998D01*
X52855310Y-58393923D01*
X54749234Y-56500000D01*
X67594540Y-56500000D01*
X67614326Y-56688256D01*
X67614327Y-56688259D01*
X67672818Y-56868277D01*
X67672821Y-56868284D01*
X67767467Y-57032216D01*
X67876020Y-57152776D01*
X67894129Y-57172888D01*
X68047265Y-57284148D01*
X68047270Y-57284151D01*
X68220192Y-57361142D01*
X68220197Y-57361144D01*
X68405354Y-57400500D01*
X68405355Y-57400500D01*
X68594644Y-57400500D01*
X68594646Y-57400500D01*
X68779803Y-57361144D01*
X68952730Y-57284151D01*
X69105871Y-57172888D01*
X69134109Y-57141527D01*
X69193595Y-57104879D01*
X69226258Y-57100500D01*
X81960639Y-57100500D01*
X83956572Y-57100500D01*
X83964670Y-57101030D01*
X84000000Y-57105682D01*
X84000001Y-57105682D01*
X84052254Y-57098802D01*
X84156762Y-57085044D01*
X84302841Y-57024536D01*
X84359143Y-56981334D01*
X84428282Y-56928282D01*
X84449984Y-56899998D01*
X84455310Y-56893923D01*
X85912416Y-55436819D01*
X85973739Y-55403334D01*
X86000097Y-55400500D01*
X86094644Y-55400500D01*
X86094646Y-55400500D01*
X86279803Y-55361144D01*
X86452730Y-55284151D01*
X86605871Y-55172888D01*
X86732533Y-55032216D01*
X86827179Y-54868284D01*
X86885674Y-54688256D01*
X86905460Y-54500000D01*
X86885674Y-54311744D01*
X86827179Y-54131716D01*
X86732533Y-53967784D01*
X86605871Y-53827112D01*
X86605870Y-53827111D01*
X86452734Y-53715851D01*
X86452729Y-53715848D01*
X86279807Y-53638857D01*
X86279802Y-53638855D01*
X86134001Y-53607865D01*
X86094646Y-53599500D01*
X85905354Y-53599500D01*
X85872897Y-53606398D01*
X85720197Y-53638855D01*
X85720192Y-53638857D01*
X85547270Y-53715848D01*
X85547265Y-53715851D01*
X85394129Y-53827111D01*
X85267466Y-53967785D01*
X85172821Y-54131715D01*
X85172818Y-54131722D01*
X85114327Y-54311740D01*
X85114326Y-54311744D01*
X85098034Y-54466754D01*
X85094540Y-54500002D01*
X85094540Y-54504862D01*
X85074855Y-54571901D01*
X85058221Y-54592543D01*
X83787584Y-55863181D01*
X83726261Y-55896666D01*
X83699903Y-55899500D01*
X69226258Y-55899500D01*
X69159219Y-55879815D01*
X69134109Y-55858473D01*
X69105871Y-55827112D01*
X69105864Y-55827106D01*
X68952734Y-55715851D01*
X68952729Y-55715848D01*
X68779807Y-55638857D01*
X68779802Y-55638855D01*
X68634001Y-55607865D01*
X68594646Y-55599500D01*
X68405354Y-55599500D01*
X68372897Y-55606398D01*
X68220197Y-55638855D01*
X68220192Y-55638857D01*
X68047270Y-55715848D01*
X68047265Y-55715851D01*
X67894129Y-55827111D01*
X67767466Y-55967785D01*
X67672821Y-56131715D01*
X67672818Y-56131722D01*
X67619117Y-56296999D01*
X67614326Y-56311744D01*
X67594540Y-56500000D01*
X54749234Y-56500000D01*
X55412416Y-55836819D01*
X55473739Y-55803334D01*
X55500097Y-55800500D01*
X65057633Y-55800500D01*
X65108069Y-55811221D01*
X65220192Y-55861142D01*
X65220197Y-55861144D01*
X65405354Y-55900500D01*
X65405355Y-55900500D01*
X65594644Y-55900500D01*
X65594646Y-55900500D01*
X65779803Y-55861144D01*
X65952730Y-55784151D01*
X66105871Y-55672888D01*
X66232533Y-55532216D01*
X66327179Y-55368284D01*
X66385674Y-55188256D01*
X66404247Y-55011536D01*
X66430832Y-54946924D01*
X66488129Y-54906939D01*
X66527568Y-54900500D01*
X82156572Y-54900500D01*
X82164670Y-54901030D01*
X82200000Y-54905682D01*
X82320741Y-54889786D01*
X82362706Y-54891434D01*
X82405354Y-54900500D01*
X82405355Y-54900500D01*
X82594644Y-54900500D01*
X82594646Y-54900500D01*
X82779803Y-54861144D01*
X82952730Y-54784151D01*
X83105871Y-54672888D01*
X83232533Y-54532216D01*
X83327179Y-54368284D01*
X83385674Y-54188256D01*
X83405460Y-54000000D01*
X83385674Y-53811744D01*
X83327179Y-53631716D01*
X83232533Y-53467784D01*
X83105871Y-53327112D01*
X83105870Y-53327111D01*
X82952734Y-53215851D01*
X82952729Y-53215848D01*
X82779807Y-53138857D01*
X82779802Y-53138855D01*
X82634001Y-53107865D01*
X82594646Y-53099500D01*
X82405354Y-53099500D01*
X82372897Y-53106398D01*
X82220197Y-53138855D01*
X82220192Y-53138857D01*
X82047270Y-53215848D01*
X82047265Y-53215851D01*
X81894129Y-53327111D01*
X81767465Y-53467785D01*
X81669571Y-53637344D01*
X81666925Y-53635816D01*
X81630397Y-53679006D01*
X81563598Y-53699491D01*
X81562115Y-53699500D01*
X51442367Y-53699500D01*
X51391931Y-53688779D01*
X51279807Y-53638857D01*
X51279802Y-53638855D01*
X51134001Y-53607865D01*
X51094646Y-53599500D01*
X50905354Y-53599500D01*
X50872897Y-53606398D01*
X50720197Y-53638855D01*
X50720192Y-53638857D01*
X50547270Y-53715848D01*
X50547265Y-53715851D01*
X50394129Y-53827111D01*
X50267466Y-53967785D01*
X50172821Y-54131715D01*
X50172818Y-54131722D01*
X50114327Y-54311740D01*
X50114326Y-54311744D01*
X50094540Y-54500000D01*
X50114326Y-54688256D01*
X50114327Y-54688259D01*
X50172818Y-54868277D01*
X50172821Y-54868284D01*
X50267467Y-55032216D01*
X50339468Y-55112181D01*
X50394129Y-55172888D01*
X50547265Y-55284148D01*
X50547270Y-55284151D01*
X50720192Y-55361142D01*
X50720197Y-55361144D01*
X50905354Y-55400500D01*
X50905355Y-55400500D01*
X51094644Y-55400500D01*
X51094646Y-55400500D01*
X51279803Y-55361144D01*
X51452730Y-55284151D01*
X51605871Y-55172888D01*
X51732533Y-55032216D01*
X51751133Y-55000000D01*
X51772784Y-54962500D01*
X51823351Y-54914284D01*
X51880171Y-54900500D01*
X54350903Y-54900500D01*
X54417942Y-54920185D01*
X54463697Y-54972989D01*
X54473641Y-55042147D01*
X54444616Y-55105703D01*
X54438584Y-55112181D01*
X52431472Y-57119291D01*
X52370149Y-57152776D01*
X52300457Y-57147792D01*
X52293358Y-57144891D01*
X52279801Y-57138855D01*
X52119952Y-57104879D01*
X52094646Y-57099500D01*
X51905354Y-57099500D01*
X51880048Y-57104879D01*
X51720197Y-57138855D01*
X51720192Y-57138857D01*
X51547270Y-57215848D01*
X51547265Y-57215851D01*
X51394129Y-57327111D01*
X51267466Y-57467785D01*
X51172821Y-57631715D01*
X51172818Y-57631722D01*
X51117931Y-57800648D01*
X51078493Y-57858324D01*
X51014135Y-57885522D01*
X50945288Y-57873607D01*
X50893813Y-57826363D01*
X50882069Y-57800648D01*
X50827181Y-57631722D01*
X50827180Y-57631721D01*
X50827179Y-57631716D01*
X50732533Y-57467784D01*
X50605871Y-57327112D01*
X50605870Y-57327111D01*
X50452734Y-57215851D01*
X50452729Y-57215848D01*
X50279807Y-57138857D01*
X50279802Y-57138855D01*
X50119952Y-57104879D01*
X50094646Y-57099500D01*
X49905354Y-57099500D01*
X49880048Y-57104879D01*
X49720197Y-57138855D01*
X49720192Y-57138857D01*
X49547270Y-57215848D01*
X49547265Y-57215851D01*
X49394129Y-57327111D01*
X49267466Y-57467785D01*
X49172821Y-57631715D01*
X49172818Y-57631722D01*
X49117931Y-57800648D01*
X49114326Y-57811744D01*
X49094540Y-58000000D01*
X48600500Y-58000000D01*
X48600500Y-54466754D01*
X48620185Y-54399715D01*
X48636819Y-54379073D01*
X49912416Y-53103476D01*
X49973739Y-53069991D01*
X50000097Y-53067157D01*
X50094644Y-53067157D01*
X50094646Y-53067157D01*
X50279803Y-53027801D01*
X50452730Y-52950808D01*
X50605871Y-52839545D01*
X50732533Y-52698873D01*
X50827179Y-52534941D01*
X50885674Y-52354913D01*
X50904194Y-52178693D01*
X50930778Y-52114081D01*
X50988076Y-52074096D01*
X51027515Y-52067657D01*
X76522963Y-52067657D01*
X76590002Y-52087342D01*
G37*
%TD.AperFunction*%
%TA.AperFunction,Conductor*%
G36*
X69805703Y-70155384D02*
G01*
X69812181Y-70161416D01*
X69863181Y-70212416D01*
X69896666Y-70273739D01*
X69899500Y-70300097D01*
X69899500Y-78956571D01*
X69898969Y-78964673D01*
X69894318Y-78999999D01*
X69894318Y-79000000D01*
X69899500Y-79039360D01*
X69914955Y-79156760D01*
X69914956Y-79156762D01*
X69953576Y-79250000D01*
X69975464Y-79302841D01*
X70071718Y-79428282D01*
X70099995Y-79449980D01*
X70106085Y-79455320D01*
X72392402Y-81741637D01*
X74601836Y-83951071D01*
X74635321Y-84012394D01*
X74637094Y-84054937D01*
X74624500Y-84150598D01*
X74624500Y-84974403D01*
X74625806Y-84984317D01*
X74615040Y-85053352D01*
X74568659Y-85105607D01*
X74502867Y-85124500D01*
X74150596Y-85124500D01*
X74040536Y-85138988D01*
X74040527Y-85138991D01*
X73903574Y-85195719D01*
X73903571Y-85195720D01*
X73903571Y-85195721D01*
X73785964Y-85285964D01*
X73785962Y-85285965D01*
X73785961Y-85285967D01*
X73746813Y-85336984D01*
X73690385Y-85378186D01*
X73620639Y-85382339D01*
X73560758Y-85349177D01*
X69636819Y-81425238D01*
X69603334Y-81363915D01*
X69600500Y-81337557D01*
X69600500Y-70249097D01*
X69620185Y-70182058D01*
X69672989Y-70136303D01*
X69742147Y-70126359D01*
X69805703Y-70155384D01*
G37*
%TD.AperFunction*%
%TA.AperFunction,Conductor*%
G36*
X57555703Y-67405384D02*
G01*
X57562181Y-67411416D01*
X59863181Y-69712416D01*
X59896666Y-69773739D01*
X59899500Y-69800097D01*
X59899500Y-83387402D01*
X59879815Y-83454441D01*
X59863181Y-83475083D01*
X58750082Y-84588181D01*
X58688759Y-84621666D01*
X58662402Y-84624500D01*
X58525603Y-84624500D01*
X58518597Y-84625422D01*
X58515680Y-84625806D01*
X58446646Y-84615039D01*
X58394391Y-84568658D01*
X58375499Y-84502867D01*
X58375499Y-84150596D01*
X58361011Y-84040536D01*
X58361009Y-84040531D01*
X58361009Y-84040528D01*
X58304279Y-83903571D01*
X58214036Y-83785964D01*
X58096429Y-83695721D01*
X58096425Y-83695719D01*
X57959472Y-83638991D01*
X57959470Y-83638990D01*
X57849401Y-83624500D01*
X57650596Y-83624500D01*
X57540531Y-83638989D01*
X57532678Y-83641094D01*
X57531802Y-83637824D01*
X57477853Y-83643567D01*
X57467477Y-83640518D01*
X57467323Y-83641095D01*
X57459468Y-83638990D01*
X57458304Y-83638837D01*
X57457395Y-83638434D01*
X57451622Y-83636888D01*
X57451863Y-83635987D01*
X57394410Y-83610565D01*
X57355944Y-83552237D01*
X57350500Y-83515899D01*
X57350500Y-67499097D01*
X57370185Y-67432058D01*
X57422989Y-67386303D01*
X57492147Y-67376359D01*
X57555703Y-67405384D01*
G37*
%TD.AperFunction*%
%TA.AperFunction,Conductor*%
G36*
X65066942Y-60920185D02*
G01*
X65087584Y-60936819D01*
X71363181Y-67212416D01*
X71396666Y-67273739D01*
X71399500Y-67300097D01*
X71399500Y-77456571D01*
X71398969Y-77464673D01*
X71394318Y-77499999D01*
X71394318Y-77500000D01*
X71399500Y-77539360D01*
X71414955Y-77656760D01*
X71414956Y-77656762D01*
X71439431Y-77715851D01*
X71475464Y-77802841D01*
X71571718Y-77928282D01*
X71599995Y-77949980D01*
X71606085Y-77955320D01*
X73366614Y-79715849D01*
X75113181Y-81462416D01*
X75146666Y-81523739D01*
X75149500Y-81550097D01*
X75149500Y-82500903D01*
X75129815Y-82567942D01*
X75077011Y-82613697D01*
X75007853Y-82623641D01*
X74944297Y-82594616D01*
X74937819Y-82588584D01*
X71136819Y-78787584D01*
X71103334Y-78726261D01*
X71100500Y-78699903D01*
X71100500Y-70043428D01*
X71101031Y-70035326D01*
X71105682Y-69999999D01*
X71105682Y-69999998D01*
X71085044Y-69843239D01*
X71085044Y-69843238D01*
X71024536Y-69697159D01*
X71024535Y-69697158D01*
X71024535Y-69697157D01*
X70951463Y-69601927D01*
X70951448Y-69601909D01*
X70928281Y-69571717D01*
X70900013Y-69550026D01*
X70893917Y-69544681D01*
X63961415Y-62612180D01*
X63927931Y-62550858D01*
X63932915Y-62481166D01*
X63974787Y-62425233D01*
X64040251Y-62400816D01*
X64049097Y-62400500D01*
X64094644Y-62400500D01*
X64094646Y-62400500D01*
X64279803Y-62361144D01*
X64452730Y-62284151D01*
X64605871Y-62172888D01*
X64732533Y-62032216D01*
X64827179Y-61868284D01*
X64885674Y-61688256D01*
X64905460Y-61500000D01*
X64885674Y-61311744D01*
X64827179Y-61131716D01*
X64801072Y-61086498D01*
X64784600Y-61018600D01*
X64807452Y-60952573D01*
X64862374Y-60909383D01*
X64908460Y-60900500D01*
X64999903Y-60900500D01*
X65066942Y-60920185D01*
G37*
%TD.AperFunction*%
%TA.AperFunction,Conductor*%
G36*
X61366942Y-64720185D02*
G01*
X61387584Y-64736819D01*
X66363181Y-69712416D01*
X66396666Y-69773739D01*
X66399500Y-69800097D01*
X66399500Y-75677756D01*
X66379815Y-75744795D01*
X66327011Y-75790550D01*
X66262247Y-75801045D01*
X66247873Y-75799500D01*
X66247864Y-75799500D01*
X63752129Y-75799500D01*
X63752121Y-75799501D01*
X63737752Y-75801046D01*
X63668993Y-75788639D01*
X63617857Y-75741027D01*
X63600500Y-75677756D01*
X63600500Y-70043428D01*
X63601031Y-70035326D01*
X63605682Y-69999999D01*
X63605682Y-69999998D01*
X63585044Y-69843239D01*
X63585043Y-69843237D01*
X63524538Y-69697163D01*
X63524538Y-69697162D01*
X63524534Y-69697157D01*
X63452450Y-69603215D01*
X63440366Y-69587466D01*
X63428283Y-69571718D01*
X63400009Y-69550023D01*
X63393909Y-69544674D01*
X58941779Y-65092544D01*
X58908294Y-65031221D01*
X58905460Y-65004863D01*
X58905460Y-65000003D01*
X58894897Y-64899500D01*
X58888376Y-64837458D01*
X58900945Y-64768732D01*
X58948677Y-64717708D01*
X59011697Y-64700500D01*
X61299903Y-64700500D01*
X61366942Y-64720185D01*
G37*
%TD.AperFunction*%
%TA.AperFunction,Conductor*%
G36*
X56757105Y-62593386D02*
G01*
X56811133Y-62600500D01*
X56850499Y-62605683D01*
X56850500Y-62605683D01*
X56885834Y-62601030D01*
X56893934Y-62600500D01*
X62199903Y-62600500D01*
X62266942Y-62620185D01*
X62287584Y-62636819D01*
X62538584Y-62887819D01*
X62572069Y-62949142D01*
X62567085Y-63018834D01*
X62525213Y-63074767D01*
X62459749Y-63099184D01*
X62450903Y-63099500D01*
X57000097Y-63099500D01*
X56933058Y-63079815D01*
X56912416Y-63063181D01*
X56653242Y-62804007D01*
X56619757Y-62742684D01*
X56624741Y-62672992D01*
X56666613Y-62617059D01*
X56732077Y-62592642D01*
X56757105Y-62593386D01*
G37*
%TD.AperFunction*%
%TA.AperFunction,Conductor*%
G36*
X63158579Y-60920185D02*
G01*
X63204334Y-60972989D01*
X63214278Y-61042147D01*
X63198927Y-61086497D01*
X63195437Y-61092544D01*
X63172821Y-61131715D01*
X63172818Y-61131722D01*
X63114327Y-61311740D01*
X63114326Y-61311744D01*
X63105159Y-61398969D01*
X63098301Y-61464214D01*
X63071716Y-61528828D01*
X63014419Y-61568813D01*
X62944600Y-61571473D01*
X62899494Y-61549628D01*
X62802842Y-61475464D01*
X62656762Y-61414956D01*
X62656760Y-61414955D01*
X62539361Y-61399500D01*
X62500000Y-61394318D01*
X62464670Y-61398969D01*
X62456572Y-61399500D01*
X58675599Y-61399500D01*
X58608560Y-61379815D01*
X58562805Y-61327011D01*
X58552861Y-61257853D01*
X58581886Y-61194297D01*
X58602713Y-61175183D01*
X58603954Y-61174280D01*
X58605871Y-61172888D01*
X58732533Y-61032216D01*
X58751133Y-61000000D01*
X58772784Y-60962500D01*
X58823351Y-60914284D01*
X58880171Y-60900500D01*
X63091540Y-60900500D01*
X63158579Y-60920185D01*
G37*
%TD.AperFunction*%
%TA.AperFunction,Conductor*%
G36*
X114942539Y-15020185D02*
G01*
X114988294Y-15072989D01*
X114999500Y-15124500D01*
X114999500Y-114875500D01*
X114979815Y-114942539D01*
X114927011Y-114988294D01*
X114875500Y-114999500D01*
X15124500Y-114999500D01*
X15057461Y-114979815D01*
X15011706Y-114927011D01*
X15000500Y-114875500D01*
X15000500Y-110067763D01*
X18145787Y-110067763D01*
X18175413Y-110337013D01*
X18175415Y-110337024D01*
X18243926Y-110599082D01*
X18243928Y-110599088D01*
X18349870Y-110848390D01*
X18421998Y-110966575D01*
X18490979Y-111079605D01*
X18490986Y-111079615D01*
X18664253Y-111287819D01*
X18664259Y-111287824D01*
X18865998Y-111468582D01*
X19091910Y-111618044D01*
X19337176Y-111733020D01*
X19337183Y-111733022D01*
X19337185Y-111733023D01*
X19596557Y-111811057D01*
X19596564Y-111811058D01*
X19596569Y-111811060D01*
X19864561Y-111850500D01*
X19864566Y-111850500D01*
X20067636Y-111850500D01*
X20119133Y-111846730D01*
X20270156Y-111835677D01*
X20382758Y-111810593D01*
X20534546Y-111776782D01*
X20534548Y-111776781D01*
X20534553Y-111776780D01*
X20787558Y-111680014D01*
X21023777Y-111547441D01*
X21238177Y-111381888D01*
X21426186Y-111186881D01*
X21583799Y-110966579D01*
X21657787Y-110822669D01*
X21707649Y-110725690D01*
X21707651Y-110725684D01*
X21707656Y-110725675D01*
X21795118Y-110469305D01*
X21844319Y-110202933D01*
X21849259Y-110067763D01*
X108145787Y-110067763D01*
X108175413Y-110337013D01*
X108175415Y-110337024D01*
X108243926Y-110599082D01*
X108243928Y-110599088D01*
X108349870Y-110848390D01*
X108421998Y-110966575D01*
X108490979Y-111079605D01*
X108490986Y-111079615D01*
X108664253Y-111287819D01*
X108664259Y-111287824D01*
X108865998Y-111468582D01*
X109091910Y-111618044D01*
X109337176Y-111733020D01*
X109337183Y-111733022D01*
X109337185Y-111733023D01*
X109596557Y-111811057D01*
X109596564Y-111811058D01*
X109596569Y-111811060D01*
X109864561Y-111850500D01*
X109864566Y-111850500D01*
X110067636Y-111850500D01*
X110119133Y-111846730D01*
X110270156Y-111835677D01*
X110382758Y-111810593D01*
X110534546Y-111776782D01*
X110534548Y-111776781D01*
X110534553Y-111776780D01*
X110787558Y-111680014D01*
X111023777Y-111547441D01*
X111238177Y-111381888D01*
X111426186Y-111186881D01*
X111583799Y-110966579D01*
X111657787Y-110822669D01*
X111707649Y-110725690D01*
X111707651Y-110725684D01*
X111707656Y-110725675D01*
X111795118Y-110469305D01*
X111844319Y-110202933D01*
X111854212Y-109932235D01*
X111824586Y-109662982D01*
X111756072Y-109400912D01*
X111650130Y-109151610D01*
X111509018Y-108920390D01*
X111419747Y-108813119D01*
X111335746Y-108712180D01*
X111335740Y-108712175D01*
X111134002Y-108531418D01*
X110908092Y-108381957D01*
X110908090Y-108381956D01*
X110662824Y-108266980D01*
X110662819Y-108266978D01*
X110662814Y-108266976D01*
X110403442Y-108188942D01*
X110403428Y-108188939D01*
X110287791Y-108171921D01*
X110135439Y-108149500D01*
X109932369Y-108149500D01*
X109932364Y-108149500D01*
X109729844Y-108164323D01*
X109729831Y-108164325D01*
X109465453Y-108223217D01*
X109465446Y-108223220D01*
X109212439Y-108319987D01*
X108976226Y-108452557D01*
X108761822Y-108618112D01*
X108573822Y-108813109D01*
X108573816Y-108813116D01*
X108416202Y-109033419D01*
X108416199Y-109033424D01*
X108292350Y-109274309D01*
X108292343Y-109274327D01*
X108204884Y-109530685D01*
X108204881Y-109530699D01*
X108155681Y-109797068D01*
X108155680Y-109797075D01*
X108145787Y-110067763D01*
X21849259Y-110067763D01*
X21854212Y-109932235D01*
X21824586Y-109662982D01*
X21756072Y-109400912D01*
X21650130Y-109151610D01*
X21509018Y-108920390D01*
X21419747Y-108813119D01*
X21335746Y-108712180D01*
X21335740Y-108712175D01*
X21134002Y-108531418D01*
X20908092Y-108381957D01*
X20908090Y-108381956D01*
X20662824Y-108266980D01*
X20662819Y-108266978D01*
X20662814Y-108266976D01*
X20403442Y-108188942D01*
X20403428Y-108188939D01*
X20287791Y-108171921D01*
X20135439Y-108149500D01*
X19932369Y-108149500D01*
X19932364Y-108149500D01*
X19729844Y-108164323D01*
X19729831Y-108164325D01*
X19465453Y-108223217D01*
X19465446Y-108223220D01*
X19212439Y-108319987D01*
X18976226Y-108452557D01*
X18761822Y-108618112D01*
X18573822Y-108813109D01*
X18573816Y-108813116D01*
X18416202Y-109033419D01*
X18416199Y-109033424D01*
X18292350Y-109274309D01*
X18292343Y-109274327D01*
X18204884Y-109530685D01*
X18204881Y-109530699D01*
X18155681Y-109797068D01*
X18155680Y-109797075D01*
X18145787Y-110067763D01*
X15000500Y-110067763D01*
X15000500Y-106047870D01*
X28499500Y-106047870D01*
X28499501Y-106047876D01*
X28505908Y-106107483D01*
X28556202Y-106242328D01*
X28556206Y-106242335D01*
X28642452Y-106357544D01*
X28642455Y-106357547D01*
X28757664Y-106443793D01*
X28757671Y-106443797D01*
X28892517Y-106494091D01*
X28892516Y-106494091D01*
X28899444Y-106494835D01*
X28952127Y-106500500D01*
X31047872Y-106500499D01*
X31107483Y-106494091D01*
X31242331Y-106443796D01*
X31357546Y-106357546D01*
X31443796Y-106242331D01*
X31494091Y-106107483D01*
X31500500Y-106047873D01*
X31500500Y-106047870D01*
X43499500Y-106047870D01*
X43499501Y-106047876D01*
X43505908Y-106107483D01*
X43556202Y-106242328D01*
X43556206Y-106242335D01*
X43642452Y-106357544D01*
X43642455Y-106357547D01*
X43757664Y-106443793D01*
X43757671Y-106443797D01*
X43892517Y-106494091D01*
X43892516Y-106494091D01*
X43899444Y-106494835D01*
X43952127Y-106500500D01*
X46047872Y-106500499D01*
X46107483Y-106494091D01*
X46242331Y-106443796D01*
X46357546Y-106357546D01*
X46443796Y-106242331D01*
X46494091Y-106107483D01*
X46500500Y-106047873D01*
X46500500Y-106047870D01*
X83499500Y-106047870D01*
X83499501Y-106047876D01*
X83505908Y-106107483D01*
X83556202Y-106242328D01*
X83556206Y-106242335D01*
X83642452Y-106357544D01*
X83642455Y-106357547D01*
X83757664Y-106443793D01*
X83757671Y-106443797D01*
X83892517Y-106494091D01*
X83892516Y-106494091D01*
X83899444Y-106494835D01*
X83952127Y-106500500D01*
X86047872Y-106500499D01*
X86107483Y-106494091D01*
X86242331Y-106443796D01*
X86357546Y-106357546D01*
X86443796Y-106242331D01*
X86494091Y-106107483D01*
X86500500Y-106047873D01*
X86500500Y-106047870D01*
X98499500Y-106047870D01*
X98499501Y-106047876D01*
X98505908Y-106107483D01*
X98556202Y-106242328D01*
X98556206Y-106242335D01*
X98642452Y-106357544D01*
X98642455Y-106357547D01*
X98757664Y-106443793D01*
X98757671Y-106443797D01*
X98892517Y-106494091D01*
X98892516Y-106494091D01*
X98899444Y-106494835D01*
X98952127Y-106500500D01*
X101047872Y-106500499D01*
X101107483Y-106494091D01*
X101242331Y-106443796D01*
X101357546Y-106357546D01*
X101443796Y-106242331D01*
X101494091Y-106107483D01*
X101500500Y-106047873D01*
X101500499Y-103952128D01*
X101494091Y-103892517D01*
X101443796Y-103757669D01*
X101443795Y-103757668D01*
X101443793Y-103757664D01*
X101357547Y-103642455D01*
X101357544Y-103642452D01*
X101242335Y-103556206D01*
X101242328Y-103556202D01*
X101107482Y-103505908D01*
X101107483Y-103505908D01*
X101047883Y-103499501D01*
X101047881Y-103499500D01*
X101047873Y-103499500D01*
X101047864Y-103499500D01*
X98952129Y-103499500D01*
X98952123Y-103499501D01*
X98892516Y-103505908D01*
X98757671Y-103556202D01*
X98757664Y-103556206D01*
X98642455Y-103642452D01*
X98642452Y-103642455D01*
X98556206Y-103757664D01*
X98556202Y-103757671D01*
X98505908Y-103892517D01*
X98499501Y-103952116D01*
X98499501Y-103952123D01*
X98499500Y-103952135D01*
X98499500Y-106047870D01*
X86500500Y-106047870D01*
X86500499Y-103952128D01*
X86494091Y-103892517D01*
X86443796Y-103757669D01*
X86443795Y-103757668D01*
X86443793Y-103757664D01*
X86357547Y-103642455D01*
X86357544Y-103642452D01*
X86242335Y-103556206D01*
X86242328Y-103556202D01*
X86107482Y-103505908D01*
X86107483Y-103505908D01*
X86047883Y-103499501D01*
X86047881Y-103499500D01*
X86047873Y-103499500D01*
X86047864Y-103499500D01*
X83952129Y-103499500D01*
X83952123Y-103499501D01*
X83892516Y-103505908D01*
X83757671Y-103556202D01*
X83757664Y-103556206D01*
X83642455Y-103642452D01*
X83642452Y-103642455D01*
X83556206Y-103757664D01*
X83556202Y-103757671D01*
X83505908Y-103892517D01*
X83499501Y-103952116D01*
X83499501Y-103952123D01*
X83499500Y-103952135D01*
X83499500Y-106047870D01*
X46500500Y-106047870D01*
X46500499Y-103952128D01*
X46494091Y-103892517D01*
X46443796Y-103757669D01*
X46443795Y-103757668D01*
X46443793Y-103757664D01*
X46357547Y-103642455D01*
X46357544Y-103642452D01*
X46242335Y-103556206D01*
X46242328Y-103556202D01*
X46107482Y-103505908D01*
X46107483Y-103505908D01*
X46047883Y-103499501D01*
X46047881Y-103499500D01*
X46047873Y-103499500D01*
X46047864Y-103499500D01*
X43952129Y-103499500D01*
X43952123Y-103499501D01*
X43892516Y-103505908D01*
X43757671Y-103556202D01*
X43757664Y-103556206D01*
X43642455Y-103642452D01*
X43642452Y-103642455D01*
X43556206Y-103757664D01*
X43556202Y-103757671D01*
X43505908Y-103892517D01*
X43499501Y-103952116D01*
X43499501Y-103952123D01*
X43499500Y-103952135D01*
X43499500Y-106047870D01*
X31500500Y-106047870D01*
X31500499Y-103952128D01*
X31494091Y-103892517D01*
X31443796Y-103757669D01*
X31443795Y-103757668D01*
X31443793Y-103757664D01*
X31357547Y-103642455D01*
X31357544Y-103642452D01*
X31242335Y-103556206D01*
X31242328Y-103556202D01*
X31107482Y-103505908D01*
X31107483Y-103505908D01*
X31047883Y-103499501D01*
X31047881Y-103499500D01*
X31047873Y-103499500D01*
X31047864Y-103499500D01*
X28952129Y-103499500D01*
X28952123Y-103499501D01*
X28892516Y-103505908D01*
X28757671Y-103556202D01*
X28757664Y-103556206D01*
X28642455Y-103642452D01*
X28642452Y-103642455D01*
X28556206Y-103757664D01*
X28556202Y-103757671D01*
X28505908Y-103892517D01*
X28499501Y-103952116D01*
X28499501Y-103952123D01*
X28499500Y-103952135D01*
X28499500Y-106047870D01*
X15000500Y-106047870D01*
X15000500Y-102000000D01*
X89094540Y-102000000D01*
X89114326Y-102188256D01*
X89114327Y-102188259D01*
X89172818Y-102368277D01*
X89172821Y-102368284D01*
X89267467Y-102532216D01*
X89394129Y-102672888D01*
X89547265Y-102784148D01*
X89547270Y-102784151D01*
X89720192Y-102861142D01*
X89720197Y-102861144D01*
X89905354Y-102900500D01*
X89905355Y-102900500D01*
X90094644Y-102900500D01*
X90094646Y-102900500D01*
X90279803Y-102861144D01*
X90452730Y-102784151D01*
X90605871Y-102672888D01*
X90732533Y-102532216D01*
X90827179Y-102368284D01*
X90885674Y-102188256D01*
X90905460Y-102000000D01*
X90885674Y-101811744D01*
X90827179Y-101631716D01*
X90732533Y-101467784D01*
X90605871Y-101327112D01*
X90605870Y-101327111D01*
X90452734Y-101215851D01*
X90452729Y-101215848D01*
X90279807Y-101138857D01*
X90279802Y-101138855D01*
X90134001Y-101107865D01*
X90094646Y-101099500D01*
X89905354Y-101099500D01*
X89872897Y-101106398D01*
X89720197Y-101138855D01*
X89720192Y-101138857D01*
X89547270Y-101215848D01*
X89547265Y-101215851D01*
X89394129Y-101327111D01*
X89267466Y-101467785D01*
X89172821Y-101631715D01*
X89172818Y-101631722D01*
X89114327Y-101811740D01*
X89114326Y-101811744D01*
X89094540Y-102000000D01*
X15000500Y-102000000D01*
X15000500Y-84800000D01*
X23694318Y-84800000D01*
X23699500Y-84839361D01*
X23701158Y-84851952D01*
X23714955Y-84956760D01*
X23714956Y-84956762D01*
X23767851Y-85084463D01*
X23775464Y-85102841D01*
X23871718Y-85228282D01*
X23899995Y-85249980D01*
X23906085Y-85255320D01*
X24600737Y-85949972D01*
X25294669Y-86643904D01*
X25300020Y-86650005D01*
X25321718Y-86678282D01*
X25413207Y-86748484D01*
X25447159Y-86774536D01*
X25593238Y-86835044D01*
X25671619Y-86845363D01*
X25749999Y-86855682D01*
X25750000Y-86855682D01*
X25785329Y-86851030D01*
X25793428Y-86850500D01*
X28998743Y-86850500D01*
X29065782Y-86870185D01*
X29071099Y-86873924D01*
X29072157Y-86874534D01*
X29072159Y-86874536D01*
X29072160Y-86874536D01*
X29072163Y-86874538D01*
X29137413Y-86901565D01*
X29218238Y-86935044D01*
X29335639Y-86950500D01*
X29849360Y-86950499D01*
X29849363Y-86950499D01*
X29966755Y-86935045D01*
X29966755Y-86935044D01*
X29966762Y-86935044D01*
X29966767Y-86935041D01*
X29967900Y-86934739D01*
X29969085Y-86934738D01*
X29974821Y-86933984D01*
X29974920Y-86934738D01*
X30025080Y-86934737D01*
X30025180Y-86933983D01*
X30030907Y-86934737D01*
X30032091Y-86934737D01*
X30033234Y-86935043D01*
X30033236Y-86935043D01*
X30033238Y-86935044D01*
X30150639Y-86950500D01*
X30664360Y-86950499D01*
X30664363Y-86950499D01*
X30781753Y-86935046D01*
X30781757Y-86935044D01*
X30781762Y-86935044D01*
X30927841Y-86874536D01*
X30927845Y-86874532D01*
X30934876Y-86870474D01*
X30935882Y-86872216D01*
X30990932Y-86850931D01*
X31001257Y-86850500D01*
X31669933Y-86850500D01*
X31713790Y-86859821D01*
X31714014Y-86859135D01*
X31720194Y-86861142D01*
X31720197Y-86861144D01*
X31905354Y-86900500D01*
X31905355Y-86900500D01*
X32094647Y-86900500D01*
X32101105Y-86899821D01*
X32101288Y-86901565D01*
X32162371Y-86906219D01*
X32218110Y-86948349D01*
X32225887Y-86960198D01*
X32267467Y-87032216D01*
X32394129Y-87172888D01*
X32547265Y-87284148D01*
X32547270Y-87284151D01*
X32720192Y-87361142D01*
X32720197Y-87361144D01*
X32905354Y-87400500D01*
X32999903Y-87400500D01*
X33066942Y-87420185D01*
X33087584Y-87436819D01*
X38838584Y-93187819D01*
X38872069Y-93249142D01*
X38867085Y-93318834D01*
X38825213Y-93374767D01*
X38759749Y-93399184D01*
X38750903Y-93399500D01*
X27504279Y-93399500D01*
X27437240Y-93379815D01*
X27391485Y-93327011D01*
X27386348Y-93313818D01*
X27327181Y-93131722D01*
X27327180Y-93131721D01*
X27327179Y-93131716D01*
X27232533Y-92967784D01*
X27105871Y-92827112D01*
X27084719Y-92811744D01*
X26952734Y-92715851D01*
X26952729Y-92715848D01*
X26779807Y-92638857D01*
X26779802Y-92638855D01*
X26625678Y-92606096D01*
X26594646Y-92599500D01*
X26405354Y-92599500D01*
X26374322Y-92606096D01*
X26220197Y-92638855D01*
X26220192Y-92638857D01*
X26047270Y-92715848D01*
X26047265Y-92715851D01*
X25894129Y-92827111D01*
X25767466Y-92967785D01*
X25672821Y-93131715D01*
X25672818Y-93131722D01*
X25619656Y-93295340D01*
X25614326Y-93311744D01*
X25594540Y-93500000D01*
X25614326Y-93688256D01*
X25614327Y-93688259D01*
X25672818Y-93868277D01*
X25672821Y-93868284D01*
X25767467Y-94032216D01*
X25879607Y-94156760D01*
X25894129Y-94172888D01*
X26047265Y-94284148D01*
X26047270Y-94284151D01*
X26220192Y-94361142D01*
X26220197Y-94361144D01*
X26405354Y-94400500D01*
X26493420Y-94400500D01*
X26560459Y-94420185D01*
X26568907Y-94426124D01*
X26571716Y-94428279D01*
X26571718Y-94428282D01*
X26697159Y-94524536D01*
X26843238Y-94585044D01*
X26921619Y-94595363D01*
X26999999Y-94605682D01*
X27000000Y-94605682D01*
X27035329Y-94601030D01*
X27043428Y-94600500D01*
X45960639Y-94600500D01*
X56316589Y-94600500D01*
X56383628Y-94620185D01*
X56429383Y-94672989D01*
X56439327Y-94742147D01*
X56410302Y-94805703D01*
X56404270Y-94812181D01*
X50853270Y-100363181D01*
X50791947Y-100396666D01*
X50765589Y-100399500D01*
X30726258Y-100399500D01*
X30659219Y-100379815D01*
X30634109Y-100358473D01*
X30605871Y-100327112D01*
X30605864Y-100327106D01*
X30452734Y-100215851D01*
X30452729Y-100215848D01*
X30279807Y-100138857D01*
X30279802Y-100138855D01*
X30134001Y-100107865D01*
X30094646Y-100099500D01*
X29905354Y-100099500D01*
X29872897Y-100106398D01*
X29720197Y-100138855D01*
X29720192Y-100138857D01*
X29547270Y-100215848D01*
X29547265Y-100215851D01*
X29394129Y-100327111D01*
X29267466Y-100467785D01*
X29172821Y-100631715D01*
X29172818Y-100631722D01*
X29114327Y-100811740D01*
X29114326Y-100811744D01*
X29094540Y-101000000D01*
X29114326Y-101188256D01*
X29114327Y-101188259D01*
X29172818Y-101368277D01*
X29172821Y-101368284D01*
X29267467Y-101532216D01*
X29394128Y-101672887D01*
X29394129Y-101672888D01*
X29547265Y-101784148D01*
X29547270Y-101784151D01*
X29720192Y-101861142D01*
X29720197Y-101861144D01*
X29905354Y-101900500D01*
X29905355Y-101900500D01*
X30094644Y-101900500D01*
X30094646Y-101900500D01*
X30279803Y-101861144D01*
X30452730Y-101784151D01*
X30605871Y-101672888D01*
X30634109Y-101641527D01*
X30693595Y-101604879D01*
X30726258Y-101600500D01*
X51022258Y-101600500D01*
X51030356Y-101601030D01*
X51065686Y-101605682D01*
X51065687Y-101605682D01*
X51117940Y-101598802D01*
X51222448Y-101585044D01*
X51368527Y-101524536D01*
X51493968Y-101428282D01*
X51515669Y-101399999D01*
X51520997Y-101393922D01*
X61293922Y-91620997D01*
X61299999Y-91615669D01*
X61328282Y-91593968D01*
X61424536Y-91468527D01*
X61485044Y-91322448D01*
X61500500Y-91205047D01*
X61505682Y-91165686D01*
X61504820Y-91159142D01*
X61501031Y-91130359D01*
X61500500Y-91122257D01*
X61500500Y-87877741D01*
X61501031Y-87869639D01*
X61501210Y-87868284D01*
X61505682Y-87834315D01*
X61502843Y-87812753D01*
X61485044Y-87677554D01*
X61485042Y-87677549D01*
X61480961Y-87667697D01*
X61434988Y-87556707D01*
X61424538Y-87531478D01*
X61424535Y-87531473D01*
X61412292Y-87515518D01*
X61400002Y-87499501D01*
X61328282Y-87406033D01*
X61307992Y-87390464D01*
X61300009Y-87384338D01*
X61293905Y-87378985D01*
X60977102Y-87062181D01*
X60943617Y-87000858D01*
X60948601Y-86931166D01*
X60990473Y-86875233D01*
X61055937Y-86850816D01*
X61064783Y-86850500D01*
X61706572Y-86850500D01*
X61714670Y-86851030D01*
X61750000Y-86855682D01*
X61750001Y-86855682D01*
X61802254Y-86848802D01*
X61906762Y-86835044D01*
X62052841Y-86774536D01*
X62086793Y-86748484D01*
X62178282Y-86678282D01*
X62199984Y-86649998D01*
X62205318Y-86643915D01*
X62452450Y-86396785D01*
X63393923Y-85455310D01*
X63399998Y-85449984D01*
X63428282Y-85428282D01*
X63524536Y-85302841D01*
X63585044Y-85156762D01*
X63589291Y-85124501D01*
X63605683Y-85000000D01*
X63601031Y-84964665D01*
X63600500Y-84956563D01*
X63600500Y-79322243D01*
X63620185Y-79255204D01*
X63672989Y-79209449D01*
X63737756Y-79198954D01*
X63752127Y-79200500D01*
X66247872Y-79200499D01*
X66262242Y-79198954D01*
X66331001Y-79211357D01*
X66382140Y-79258966D01*
X66399500Y-79322243D01*
X66399500Y-93956571D01*
X66398969Y-93964673D01*
X66394318Y-93999999D01*
X66394318Y-94000000D01*
X66399500Y-94039360D01*
X66414955Y-94156760D01*
X66414956Y-94156762D01*
X66428002Y-94188259D01*
X66475464Y-94302841D01*
X66571718Y-94428282D01*
X66599995Y-94449980D01*
X66606085Y-94455320D01*
X67335808Y-95185043D01*
X68044669Y-95893904D01*
X68050020Y-95900005D01*
X68071718Y-95928282D01*
X68197159Y-96024536D01*
X68343238Y-96085044D01*
X68421619Y-96095363D01*
X68499999Y-96105682D01*
X68500000Y-96105682D01*
X68535329Y-96101030D01*
X68543428Y-96100500D01*
X82011548Y-96100500D01*
X82078587Y-96120185D01*
X82117086Y-96159403D01*
X82179657Y-96260846D01*
X82179660Y-96260850D01*
X82301650Y-96382840D01*
X82448484Y-96473408D01*
X82612247Y-96527674D01*
X82713323Y-96538000D01*
X83286676Y-96537999D01*
X83286684Y-96537998D01*
X83286687Y-96537998D01*
X83342030Y-96532344D01*
X83387753Y-96527674D01*
X83551516Y-96473408D01*
X83698350Y-96382840D01*
X83790399Y-96290790D01*
X83851718Y-96257308D01*
X83921410Y-96262292D01*
X83928978Y-96265403D01*
X83931923Y-96266728D01*
X83931931Y-96266733D01*
X84085067Y-96314452D01*
X84149362Y-96320294D01*
X84214343Y-96345964D01*
X84255132Y-96402692D01*
X84258776Y-96472467D01*
X84245527Y-96505784D01*
X84172820Y-96631718D01*
X84172818Y-96631722D01*
X84114327Y-96811740D01*
X84114326Y-96811744D01*
X84094540Y-97000000D01*
X84114326Y-97188256D01*
X84114327Y-97188259D01*
X84172818Y-97368277D01*
X84172821Y-97368284D01*
X84267467Y-97532216D01*
X84394129Y-97672888D01*
X84547265Y-97784148D01*
X84547270Y-97784151D01*
X84720192Y-97861142D01*
X84720197Y-97861144D01*
X84905354Y-97900500D01*
X84905355Y-97900500D01*
X85094644Y-97900500D01*
X85094646Y-97900500D01*
X85279803Y-97861144D01*
X85452730Y-97784151D01*
X85605871Y-97672888D01*
X85732533Y-97532216D01*
X85827179Y-97368284D01*
X85885674Y-97188256D01*
X85905460Y-97000000D01*
X85885674Y-96811744D01*
X85827179Y-96631716D01*
X85754473Y-96505785D01*
X85738000Y-96437884D01*
X85760853Y-96371858D01*
X85815774Y-96328667D01*
X85850640Y-96320294D01*
X85914926Y-96314453D01*
X85914927Y-96314452D01*
X85914933Y-96314452D01*
X86068069Y-96266733D01*
X86151995Y-96215998D01*
X86205329Y-96183757D01*
X86205329Y-96183756D01*
X86205335Y-96183753D01*
X86217431Y-96171656D01*
X86278749Y-96138173D01*
X86348441Y-96143155D01*
X86387957Y-96170040D01*
X86389305Y-96168544D01*
X86394135Y-96172893D01*
X86547265Y-96284148D01*
X86547270Y-96284151D01*
X86720192Y-96361142D01*
X86720197Y-96361144D01*
X86905354Y-96400500D01*
X86905355Y-96400500D01*
X87094644Y-96400500D01*
X87094646Y-96400500D01*
X87279803Y-96361144D01*
X87452730Y-96284151D01*
X87605871Y-96172888D01*
X87732533Y-96032216D01*
X87827179Y-95868284D01*
X87885674Y-95688256D01*
X87905460Y-95500000D01*
X87888436Y-95338030D01*
X87901005Y-95269305D01*
X87948737Y-95218281D01*
X87995592Y-95202132D01*
X88001597Y-95201341D01*
X88003974Y-95201029D01*
X88012063Y-95200500D01*
X99356572Y-95200500D01*
X99364670Y-95201030D01*
X99400000Y-95205682D01*
X99400001Y-95205682D01*
X99452254Y-95198802D01*
X99556762Y-95185044D01*
X99702841Y-95124536D01*
X99771675Y-95071718D01*
X99828282Y-95028282D01*
X99849980Y-95000002D01*
X99855324Y-94993910D01*
X99912418Y-94936817D01*
X99973742Y-94903333D01*
X100000098Y-94900500D01*
X100094644Y-94900500D01*
X100094646Y-94900500D01*
X100279803Y-94861144D01*
X100452730Y-94784151D01*
X100605871Y-94672888D01*
X100732533Y-94532216D01*
X100827179Y-94368284D01*
X100885674Y-94188256D01*
X100905460Y-94000000D01*
X100885674Y-93811744D01*
X100869777Y-93762818D01*
X100867782Y-93692977D01*
X100903862Y-93633144D01*
X100966563Y-93602316D01*
X100987708Y-93600500D01*
X104773742Y-93600500D01*
X104840781Y-93620185D01*
X104865891Y-93641527D01*
X104894128Y-93672887D01*
X104894135Y-93672893D01*
X105047265Y-93784148D01*
X105047270Y-93784151D01*
X105220192Y-93861142D01*
X105220197Y-93861144D01*
X105405354Y-93900500D01*
X105405355Y-93900500D01*
X105594644Y-93900500D01*
X105594646Y-93900500D01*
X105779803Y-93861144D01*
X105952730Y-93784151D01*
X106105871Y-93672888D01*
X106232533Y-93532216D01*
X106327179Y-93368284D01*
X106385674Y-93188256D01*
X106405460Y-93000000D01*
X106385674Y-92811744D01*
X106327179Y-92631716D01*
X106232533Y-92467784D01*
X106105871Y-92327112D01*
X106060119Y-92293871D01*
X105952734Y-92215851D01*
X105952729Y-92215848D01*
X105779807Y-92138857D01*
X105779802Y-92138855D01*
X105634001Y-92107865D01*
X105594646Y-92099500D01*
X105405354Y-92099500D01*
X105372897Y-92106398D01*
X105220197Y-92138855D01*
X105220192Y-92138857D01*
X105047270Y-92215848D01*
X105047265Y-92215851D01*
X104894135Y-92327106D01*
X104894128Y-92327112D01*
X104865891Y-92358473D01*
X104806405Y-92395121D01*
X104773742Y-92399500D01*
X98543428Y-92399500D01*
X98535329Y-92398969D01*
X98500000Y-92394318D01*
X98499999Y-92394318D01*
X98362114Y-92412471D01*
X98343238Y-92414956D01*
X98343237Y-92414956D01*
X98197157Y-92475464D01*
X98071719Y-92571716D01*
X98050019Y-92599994D01*
X98044668Y-92606096D01*
X97801451Y-92849312D01*
X97740128Y-92882797D01*
X97670436Y-92877813D01*
X97621620Y-92844603D01*
X97605870Y-92827111D01*
X97452734Y-92715851D01*
X97452729Y-92715848D01*
X97279807Y-92638857D01*
X97279802Y-92638855D01*
X97125678Y-92606096D01*
X97094646Y-92599500D01*
X96905354Y-92599500D01*
X96874322Y-92606096D01*
X96720197Y-92638855D01*
X96720192Y-92638857D01*
X96547270Y-92715848D01*
X96547265Y-92715851D01*
X96394135Y-92827106D01*
X96394128Y-92827112D01*
X96365891Y-92858473D01*
X96306405Y-92895121D01*
X96273742Y-92899500D01*
X93800098Y-92899500D01*
X93733059Y-92879815D01*
X93712417Y-92863181D01*
X90455328Y-89606093D01*
X90449974Y-89599988D01*
X90428286Y-89571722D01*
X90428283Y-89571720D01*
X90428282Y-89571718D01*
X90302841Y-89475464D01*
X90284302Y-89467785D01*
X90156762Y-89414956D01*
X90156760Y-89414955D01*
X90000001Y-89394318D01*
X90000000Y-89394318D01*
X89964670Y-89398969D01*
X89956572Y-89399500D01*
X84800097Y-89399500D01*
X84733058Y-89379815D01*
X84712416Y-89363181D01*
X81705328Y-86356093D01*
X81699974Y-86349988D01*
X81678286Y-86321722D01*
X81678283Y-86321720D01*
X81678282Y-86321718D01*
X81552841Y-86225464D01*
X81481030Y-86195719D01*
X81406762Y-86164956D01*
X81406760Y-86164955D01*
X81344522Y-86156762D01*
X81250001Y-86144318D01*
X81250000Y-86144318D01*
X81214670Y-86148969D01*
X81206572Y-86149500D01*
X79009508Y-86149500D01*
X78962058Y-86140062D01*
X78959475Y-86138992D01*
X78959470Y-86138990D01*
X78849401Y-86124500D01*
X78025596Y-86124500D01*
X77915536Y-86138988D01*
X77915527Y-86138991D01*
X77778574Y-86195719D01*
X77778571Y-86195720D01*
X77778571Y-86195721D01*
X77660964Y-86285964D01*
X77574727Y-86398351D01*
X77570719Y-86403574D01*
X77513991Y-86540527D01*
X77513990Y-86540529D01*
X77499500Y-86650598D01*
X77499500Y-86849403D01*
X77513989Y-86959468D01*
X77516094Y-86967322D01*
X77512814Y-86968200D01*
X77518581Y-87022073D01*
X77515517Y-87032522D01*
X77516095Y-87032677D01*
X77513990Y-87040529D01*
X77499500Y-87150598D01*
X77499500Y-87349400D01*
X77501165Y-87362045D01*
X77490396Y-87431080D01*
X77444013Y-87483333D01*
X77376743Y-87502215D01*
X77362046Y-87501164D01*
X77349401Y-87499500D01*
X77150596Y-87499500D01*
X77040531Y-87513989D01*
X77032678Y-87516094D01*
X77031802Y-87512824D01*
X76977853Y-87518567D01*
X76967477Y-87515518D01*
X76967323Y-87516095D01*
X76959470Y-87513990D01*
X76849401Y-87499500D01*
X76650596Y-87499500D01*
X76540531Y-87513989D01*
X76532678Y-87516094D01*
X76531802Y-87512824D01*
X76477853Y-87518567D01*
X76467477Y-87515518D01*
X76467323Y-87516095D01*
X76459470Y-87513990D01*
X76349401Y-87499500D01*
X76150596Y-87499500D01*
X76040536Y-87513988D01*
X76040527Y-87513991D01*
X75903574Y-87570719D01*
X75903571Y-87570720D01*
X75903571Y-87570721D01*
X75785964Y-87660964D01*
X75722873Y-87743185D01*
X75666447Y-87784386D01*
X75596701Y-87788541D01*
X75535780Y-87754328D01*
X75503028Y-87692611D01*
X75500499Y-87667697D01*
X75500499Y-87650597D01*
X75494776Y-87607127D01*
X75486009Y-87540528D01*
X75486008Y-87540525D01*
X75483905Y-87532674D01*
X75487207Y-87531789D01*
X75481392Y-87478075D01*
X75484501Y-87467485D01*
X75483905Y-87467326D01*
X75486008Y-87459475D01*
X75486008Y-87459474D01*
X75486009Y-87459472D01*
X75500500Y-87349401D01*
X75500499Y-87150600D01*
X75486009Y-87040528D01*
X75486008Y-87040525D01*
X75483905Y-87032674D01*
X75487207Y-87031789D01*
X75481392Y-86978075D01*
X75484501Y-86967485D01*
X75483905Y-86967326D01*
X75486008Y-86959475D01*
X75486008Y-86959474D01*
X75486009Y-86959472D01*
X75500500Y-86849401D01*
X75500499Y-86650600D01*
X75486009Y-86540528D01*
X75486008Y-86540525D01*
X75483905Y-86532674D01*
X75487207Y-86531789D01*
X75481392Y-86478075D01*
X75484501Y-86467485D01*
X75483905Y-86467326D01*
X75486008Y-86459475D01*
X75486008Y-86459474D01*
X75486009Y-86459472D01*
X75500500Y-86349401D01*
X75500499Y-86150600D01*
X75500498Y-86150596D01*
X75492226Y-86087753D01*
X75486009Y-86040528D01*
X75486008Y-86040525D01*
X75483905Y-86032674D01*
X75487207Y-86031789D01*
X75481392Y-85978075D01*
X75484501Y-85967485D01*
X75483905Y-85967326D01*
X75486008Y-85959475D01*
X75486008Y-85959474D01*
X75486009Y-85959472D01*
X75500500Y-85849401D01*
X75500499Y-85650600D01*
X75500498Y-85650596D01*
X75498835Y-85637960D01*
X75509601Y-85568925D01*
X75555981Y-85516669D01*
X75623249Y-85497784D01*
X75637959Y-85498836D01*
X75638945Y-85498965D01*
X75650599Y-85500500D01*
X75849400Y-85500499D01*
X75849401Y-85500499D01*
X75870024Y-85497784D01*
X75959472Y-85486009D01*
X75959475Y-85486007D01*
X75967326Y-85483905D01*
X75968210Y-85487207D01*
X76021925Y-85481392D01*
X76032514Y-85484501D01*
X76032674Y-85483905D01*
X76040524Y-85486008D01*
X76040526Y-85486008D01*
X76040528Y-85486009D01*
X76150599Y-85500500D01*
X76349400Y-85500499D01*
X76349403Y-85500499D01*
X76459463Y-85486011D01*
X76459467Y-85486009D01*
X76459472Y-85486009D01*
X76596429Y-85429279D01*
X76674515Y-85369360D01*
X76739682Y-85344168D01*
X76808127Y-85358206D01*
X76825478Y-85369356D01*
X76903571Y-85429279D01*
X77040528Y-85486009D01*
X77150599Y-85500500D01*
X77349400Y-85500499D01*
X77427261Y-85490249D01*
X77496296Y-85501015D01*
X77548551Y-85547395D01*
X77558005Y-85565733D01*
X77570718Y-85596424D01*
X77570718Y-85596425D01*
X77570720Y-85596428D01*
X77570721Y-85596429D01*
X77660964Y-85714036D01*
X77778571Y-85804279D01*
X77915528Y-85861009D01*
X78025599Y-85875500D01*
X78849400Y-85875499D01*
X78849403Y-85875499D01*
X78959463Y-85861011D01*
X78959466Y-85861009D01*
X78959472Y-85861009D01*
X78962058Y-85859938D01*
X79009508Y-85850500D01*
X95949903Y-85850500D01*
X96016942Y-85870185D01*
X96037584Y-85886819D01*
X96058221Y-85907456D01*
X96091706Y-85968779D01*
X96094540Y-85995137D01*
X96094540Y-85999997D01*
X96094540Y-86000000D01*
X96114326Y-86188256D01*
X96114327Y-86188259D01*
X96172818Y-86368277D01*
X96172821Y-86368284D01*
X96267467Y-86532216D01*
X96368034Y-86643907D01*
X96394129Y-86672888D01*
X96547265Y-86784148D01*
X96547270Y-86784151D01*
X96720192Y-86861142D01*
X96720197Y-86861144D01*
X96905354Y-86900500D01*
X96905355Y-86900500D01*
X97094644Y-86900500D01*
X97094646Y-86900500D01*
X97279803Y-86861144D01*
X97452730Y-86784151D01*
X97605871Y-86672888D01*
X97657851Y-86615158D01*
X97717336Y-86578510D01*
X97787193Y-86579840D01*
X97842148Y-86615158D01*
X97873532Y-86650013D01*
X97894129Y-86672888D01*
X98047265Y-86784148D01*
X98047270Y-86784151D01*
X98220192Y-86861142D01*
X98220197Y-86861144D01*
X98405354Y-86900500D01*
X98405355Y-86900500D01*
X98594644Y-86900500D01*
X98594646Y-86900500D01*
X98779803Y-86861144D01*
X98779808Y-86861141D01*
X98785986Y-86859135D01*
X98786209Y-86859821D01*
X98830067Y-86850500D01*
X98998743Y-86850500D01*
X99065782Y-86870185D01*
X99071099Y-86873924D01*
X99072157Y-86874534D01*
X99072159Y-86874536D01*
X99072160Y-86874536D01*
X99072163Y-86874538D01*
X99137413Y-86901565D01*
X99218238Y-86935044D01*
X99335639Y-86950500D01*
X99849360Y-86950499D01*
X99849363Y-86950499D01*
X99966755Y-86935045D01*
X99966755Y-86935044D01*
X99966762Y-86935044D01*
X99966767Y-86935041D01*
X99967900Y-86934739D01*
X99969085Y-86934738D01*
X99974821Y-86933984D01*
X99974920Y-86934738D01*
X100025080Y-86934737D01*
X100025180Y-86933983D01*
X100030907Y-86934737D01*
X100032091Y-86934737D01*
X100033234Y-86935043D01*
X100033236Y-86935043D01*
X100033238Y-86935044D01*
X100150639Y-86950500D01*
X100664360Y-86950499D01*
X100664363Y-86950499D01*
X100781753Y-86935046D01*
X100781757Y-86935044D01*
X100781762Y-86935044D01*
X100927841Y-86874536D01*
X100927845Y-86874532D01*
X100934876Y-86870474D01*
X100935882Y-86872216D01*
X100990932Y-86850931D01*
X101001257Y-86850500D01*
X104206572Y-86850500D01*
X104214670Y-86851030D01*
X104250000Y-86855682D01*
X104250001Y-86855682D01*
X104302254Y-86848802D01*
X104406762Y-86835044D01*
X104552841Y-86774536D01*
X104586793Y-86748484D01*
X104678282Y-86678282D01*
X104699983Y-86649999D01*
X104705311Y-86643922D01*
X105393922Y-85955311D01*
X105399999Y-85949983D01*
X105428282Y-85928282D01*
X105524536Y-85802841D01*
X105585044Y-85656762D01*
X105600500Y-85539361D01*
X105605682Y-85500000D01*
X105601030Y-85464669D01*
X105600500Y-85456571D01*
X105600500Y-68242450D01*
X105620185Y-68175411D01*
X105636819Y-68154769D01*
X105675215Y-68116373D01*
X105721253Y-68070335D01*
X105727094Y-68060674D01*
X105804232Y-67933070D01*
X105804233Y-67933069D01*
X105851952Y-67779933D01*
X105858000Y-67713381D01*
X105857999Y-67286620D01*
X105857999Y-67286619D01*
X105857999Y-67286611D01*
X105851953Y-67220073D01*
X105851952Y-67220070D01*
X105851952Y-67220067D01*
X105804233Y-67066931D01*
X105778123Y-67023739D01*
X105721257Y-66929670D01*
X105721253Y-66929665D01*
X105607834Y-66816246D01*
X105607829Y-66816242D01*
X105470570Y-66733267D01*
X105470566Y-66733265D01*
X105317433Y-66685548D01*
X105317435Y-66685548D01*
X105290812Y-66683128D01*
X105250881Y-66679500D01*
X105250878Y-66679500D01*
X104749111Y-66679500D01*
X104682573Y-66685546D01*
X104682566Y-66685548D01*
X104529433Y-66733265D01*
X104529429Y-66733267D01*
X104392170Y-66816242D01*
X104392165Y-66816246D01*
X104345231Y-66863181D01*
X104283908Y-66896666D01*
X104257550Y-66899500D01*
X101800097Y-66899500D01*
X101733058Y-66879815D01*
X101712416Y-66863181D01*
X93878523Y-59029288D01*
X89849235Y-55000000D01*
X103569341Y-55000000D01*
X103589936Y-55235403D01*
X103589938Y-55235413D01*
X103651094Y-55463655D01*
X103651096Y-55463659D01*
X103651097Y-55463663D01*
X103683063Y-55532214D01*
X103750964Y-55677828D01*
X103750965Y-55677830D01*
X103886505Y-55871402D01*
X104053597Y-56038494D01*
X104247169Y-56174034D01*
X104247171Y-56174035D01*
X104461337Y-56273903D01*
X104689592Y-56335063D01*
X104866034Y-56350500D01*
X105233966Y-56350500D01*
X105410408Y-56335063D01*
X105638663Y-56273903D01*
X105852829Y-56174035D01*
X106046401Y-56038495D01*
X106213495Y-55871401D01*
X106349035Y-55677830D01*
X106448903Y-55463663D01*
X106510063Y-55235408D01*
X106530659Y-55000000D01*
X106510063Y-54764592D01*
X106448903Y-54536337D01*
X106349035Y-54322171D01*
X106349034Y-54322169D01*
X106213494Y-54128597D01*
X106046403Y-53961506D01*
X105990187Y-53922144D01*
X105889401Y-53851573D01*
X105845778Y-53796999D01*
X105838584Y-53727500D01*
X105870106Y-53665145D01*
X105889398Y-53648428D01*
X106046401Y-53538495D01*
X106213495Y-53371401D01*
X106349035Y-53177830D01*
X106448903Y-52963663D01*
X106510063Y-52735408D01*
X106530659Y-52500000D01*
X106510063Y-52264592D01*
X106448903Y-52036337D01*
X106349035Y-51822171D01*
X106349034Y-51822169D01*
X106213494Y-51628597D01*
X106046402Y-51461505D01*
X105852830Y-51325965D01*
X105852828Y-51325964D01*
X105745746Y-51276031D01*
X105638663Y-51226097D01*
X105638659Y-51226096D01*
X105638655Y-51226094D01*
X105410413Y-51164938D01*
X105410403Y-51164936D01*
X105233966Y-51149500D01*
X104866034Y-51149500D01*
X104689596Y-51164936D01*
X104689586Y-51164938D01*
X104461344Y-51226094D01*
X104461335Y-51226098D01*
X104247171Y-51325964D01*
X104247169Y-51325965D01*
X104053597Y-51461505D01*
X103886506Y-51628597D01*
X103886501Y-51628604D01*
X103750967Y-51822165D01*
X103750965Y-51822169D01*
X103651098Y-52036335D01*
X103651094Y-52036344D01*
X103589938Y-52264586D01*
X103589936Y-52264596D01*
X103569341Y-52499999D01*
X103569341Y-52500000D01*
X103589936Y-52735403D01*
X103589938Y-52735413D01*
X103651094Y-52963655D01*
X103651096Y-52963659D01*
X103651097Y-52963663D01*
X103681005Y-53027801D01*
X103750964Y-53177828D01*
X103750965Y-53177830D01*
X103886505Y-53371402D01*
X104053597Y-53538494D01*
X104210595Y-53648425D01*
X104254220Y-53703002D01*
X104261414Y-53772500D01*
X104229891Y-53834855D01*
X104210595Y-53851575D01*
X104053597Y-53961505D01*
X103886506Y-54128597D01*
X103886501Y-54128604D01*
X103750967Y-54322165D01*
X103750965Y-54322169D01*
X103651098Y-54536335D01*
X103651094Y-54536344D01*
X103589938Y-54764586D01*
X103589936Y-54764596D01*
X103569341Y-54999999D01*
X103569341Y-55000000D01*
X89849235Y-55000000D01*
X85922477Y-51073242D01*
X85917137Y-51067152D01*
X85895439Y-51038875D01*
X85769998Y-50942621D01*
X85623919Y-50882113D01*
X85623917Y-50882112D01*
X85506518Y-50866657D01*
X85467157Y-50861475D01*
X85431827Y-50866126D01*
X85423729Y-50866657D01*
X49176771Y-50866657D01*
X49168672Y-50866126D01*
X49133343Y-50861475D01*
X49093982Y-50866657D01*
X48976582Y-50882112D01*
X48976580Y-50882113D01*
X48830500Y-50942621D01*
X48705062Y-51038873D01*
X48683365Y-51067147D01*
X48678014Y-51073248D01*
X48587584Y-51163680D01*
X48526261Y-51197166D01*
X48499902Y-51200000D01*
X48405354Y-51200000D01*
X48372897Y-51206898D01*
X48220197Y-51239355D01*
X48220192Y-51239357D01*
X48047270Y-51316348D01*
X48047265Y-51316351D01*
X47894129Y-51427611D01*
X47767465Y-51568285D01*
X47706887Y-51673211D01*
X47656320Y-51721427D01*
X47587713Y-51734650D01*
X47522848Y-51708682D01*
X47482320Y-51651767D01*
X47475500Y-51611211D01*
X47475500Y-50524500D01*
X47495185Y-50457461D01*
X47547989Y-50411706D01*
X47588361Y-50402923D01*
X47588178Y-50401180D01*
X47594644Y-50400500D01*
X47594646Y-50400500D01*
X47779803Y-50361144D01*
X47952730Y-50284151D01*
X48105871Y-50172888D01*
X48232533Y-50032216D01*
X48327179Y-49868284D01*
X48385674Y-49688256D01*
X48405460Y-49500000D01*
X48385674Y-49311744D01*
X48327179Y-49131716D01*
X48232533Y-48967784D01*
X48105871Y-48827112D01*
X48084719Y-48811744D01*
X47952734Y-48715851D01*
X47952729Y-48715848D01*
X47779807Y-48638857D01*
X47779802Y-48638855D01*
X47634001Y-48607865D01*
X47594646Y-48599500D01*
X47405354Y-48599500D01*
X47372897Y-48606398D01*
X47220197Y-48638855D01*
X47220192Y-48638857D01*
X47047270Y-48715848D01*
X47047265Y-48715851D01*
X46894129Y-48827111D01*
X46767466Y-48967785D01*
X46672821Y-49131715D01*
X46672818Y-49131722D01*
X46614327Y-49311740D01*
X46614326Y-49311744D01*
X46608384Y-49368284D01*
X46594540Y-49500002D01*
X46594540Y-49504862D01*
X46574855Y-49571901D01*
X46558225Y-49592538D01*
X46519658Y-49631106D01*
X46481095Y-49669668D01*
X46474994Y-49675019D01*
X46446720Y-49696715D01*
X46423722Y-49726686D01*
X46365287Y-49802841D01*
X46353912Y-49817665D01*
X46350463Y-49822160D01*
X46289956Y-49968237D01*
X46289955Y-49968239D01*
X46269318Y-50124998D01*
X46269318Y-50124999D01*
X46273969Y-50160326D01*
X46274500Y-50168428D01*
X46274500Y-58206264D01*
X46254815Y-58273303D01*
X46202011Y-58319058D01*
X46132853Y-58329002D01*
X46077615Y-58306582D01*
X45952734Y-58215851D01*
X45952729Y-58215848D01*
X45779807Y-58138857D01*
X45779802Y-58138855D01*
X45634001Y-58107865D01*
X45594646Y-58099500D01*
X45405354Y-58099500D01*
X45372897Y-58106398D01*
X45220197Y-58138855D01*
X45220192Y-58138857D01*
X45137451Y-58175697D01*
X45068201Y-58184982D01*
X45004925Y-58155354D01*
X44999334Y-58150099D01*
X41636819Y-54787584D01*
X41603334Y-54726261D01*
X41600500Y-54699903D01*
X41600500Y-50043428D01*
X41601031Y-50035326D01*
X41601441Y-50032216D01*
X41605682Y-50000000D01*
X41601500Y-49968238D01*
X41585044Y-49843239D01*
X41585044Y-49843238D01*
X41524536Y-49697159D01*
X41524198Y-49696718D01*
X41494029Y-49657401D01*
X41431084Y-49575369D01*
X41405890Y-49510200D01*
X41405468Y-49500081D01*
X41405459Y-49500002D01*
X41405460Y-49500000D01*
X41385674Y-49311744D01*
X41327179Y-49131716D01*
X41232533Y-48967784D01*
X41105871Y-48827112D01*
X41084719Y-48811744D01*
X40952734Y-48715851D01*
X40952729Y-48715848D01*
X40779807Y-48638857D01*
X40779802Y-48638855D01*
X40634001Y-48607865D01*
X40594646Y-48599500D01*
X40405354Y-48599500D01*
X40372897Y-48606398D01*
X40220197Y-48638855D01*
X40220192Y-48638857D01*
X40047270Y-48715848D01*
X40047265Y-48715851D01*
X39894129Y-48827111D01*
X39767466Y-48967785D01*
X39672821Y-49131715D01*
X39672818Y-49131722D01*
X39614327Y-49311740D01*
X39614326Y-49311744D01*
X39594540Y-49500000D01*
X39614326Y-49688256D01*
X39614327Y-49688259D01*
X39672818Y-49868277D01*
X39672821Y-49868284D01*
X39767467Y-50032216D01*
X39882818Y-50160326D01*
X39894129Y-50172888D01*
X40047265Y-50284148D01*
X40047270Y-50284151D01*
X40220197Y-50361144D01*
X40301283Y-50378379D01*
X40362762Y-50411569D01*
X40396539Y-50472732D01*
X40399500Y-50499668D01*
X40399500Y-54956571D01*
X40398969Y-54964673D01*
X40394318Y-54999999D01*
X40394318Y-55000000D01*
X40399500Y-55039360D01*
X40414955Y-55156760D01*
X40414956Y-55156762D01*
X40428002Y-55188259D01*
X40475464Y-55302841D01*
X40571718Y-55428282D01*
X40599995Y-55449980D01*
X40606085Y-55455320D01*
X42618549Y-57467784D01*
X44544669Y-59393904D01*
X44550020Y-59400005D01*
X44571718Y-59428282D01*
X44679435Y-59510936D01*
X44697159Y-59524536D01*
X44772335Y-59555674D01*
X44817030Y-59587261D01*
X44841153Y-59614052D01*
X44894129Y-59672888D01*
X44894135Y-59672893D01*
X45047265Y-59784148D01*
X45047270Y-59784151D01*
X45220192Y-59861142D01*
X45220197Y-59861144D01*
X45405354Y-59900500D01*
X45405355Y-59900500D01*
X45594644Y-59900500D01*
X45594646Y-59900500D01*
X45779803Y-59861144D01*
X45952730Y-59784151D01*
X46077616Y-59693416D01*
X46143421Y-59669937D01*
X46211475Y-59685762D01*
X46260170Y-59735868D01*
X46274500Y-59793735D01*
X46274500Y-80706264D01*
X46254815Y-80773303D01*
X46202011Y-80819058D01*
X46132853Y-80829002D01*
X46077615Y-80806582D01*
X45952734Y-80715851D01*
X45952729Y-80715848D01*
X45779807Y-80638857D01*
X45779802Y-80638855D01*
X45634001Y-80607865D01*
X45594646Y-80599500D01*
X45405354Y-80599500D01*
X45372897Y-80606398D01*
X45220197Y-80638855D01*
X45220192Y-80638857D01*
X45047270Y-80715848D01*
X45047265Y-80715851D01*
X44894129Y-80827111D01*
X44767466Y-80967785D01*
X44672821Y-81131715D01*
X44672818Y-81131722D01*
X44638082Y-81238630D01*
X44614326Y-81311744D01*
X44594540Y-81500000D01*
X44614326Y-81688256D01*
X44614327Y-81688259D01*
X44663389Y-81839259D01*
X44665384Y-81909101D01*
X44629303Y-81968933D01*
X44582350Y-81995962D01*
X44566930Y-82000767D01*
X44566929Y-82000767D01*
X44429670Y-82083742D01*
X44429665Y-82083746D01*
X44316246Y-82197165D01*
X44316242Y-82197170D01*
X44233267Y-82334429D01*
X44233265Y-82334433D01*
X44185548Y-82487565D01*
X44179500Y-82554121D01*
X44179500Y-83055888D01*
X44186141Y-83128967D01*
X44183845Y-83129175D01*
X44178564Y-83188215D01*
X44135702Y-83243393D01*
X44069813Y-83266639D01*
X44001815Y-83250572D01*
X43990289Y-83243136D01*
X43952733Y-83215851D01*
X43952729Y-83215848D01*
X43779807Y-83138857D01*
X43779802Y-83138855D01*
X43634001Y-83107865D01*
X43594646Y-83099500D01*
X43405354Y-83099500D01*
X43372897Y-83106398D01*
X43220197Y-83138855D01*
X43220192Y-83138857D01*
X43047270Y-83215848D01*
X43047265Y-83215851D01*
X42894129Y-83327111D01*
X42767466Y-83467785D01*
X42672821Y-83631715D01*
X42672818Y-83631722D01*
X42622702Y-83785964D01*
X42614326Y-83811744D01*
X42594540Y-84000000D01*
X42614326Y-84188256D01*
X42614327Y-84188259D01*
X42672818Y-84368277D01*
X42672821Y-84368284D01*
X42767467Y-84532216D01*
X42872592Y-84648969D01*
X42894129Y-84672888D01*
X43047265Y-84784148D01*
X43047270Y-84784151D01*
X43220192Y-84861142D01*
X43220197Y-84861144D01*
X43405354Y-84900500D01*
X43405355Y-84900500D01*
X43594644Y-84900500D01*
X43594646Y-84900500D01*
X43779803Y-84861144D01*
X43952730Y-84784151D01*
X44105871Y-84672888D01*
X44134109Y-84641527D01*
X44193595Y-84604879D01*
X44226258Y-84600500D01*
X44257550Y-84600500D01*
X44324589Y-84620185D01*
X44345231Y-84636819D01*
X44429665Y-84721253D01*
X44429670Y-84721257D01*
X44566929Y-84804232D01*
X44566933Y-84804234D01*
X44620344Y-84820877D01*
X44720067Y-84851952D01*
X44786619Y-84858000D01*
X45213380Y-84857999D01*
X45213388Y-84857999D01*
X45279926Y-84851953D01*
X45279927Y-84851952D01*
X45279933Y-84851952D01*
X45433069Y-84804233D01*
X45520689Y-84751265D01*
X45570329Y-84721257D01*
X45570330Y-84721255D01*
X45570335Y-84721253D01*
X45683753Y-84607835D01*
X45766733Y-84470569D01*
X45814452Y-84317433D01*
X45820500Y-84250881D01*
X45820499Y-83749120D01*
X45820499Y-83749111D01*
X45814453Y-83682573D01*
X45814452Y-83682569D01*
X45814452Y-83682567D01*
X45802551Y-83644378D01*
X45801400Y-83574520D01*
X45838201Y-83515127D01*
X45901270Y-83485059D01*
X45970583Y-83493861D01*
X46008618Y-83519808D01*
X46114150Y-83625340D01*
X46260984Y-83715908D01*
X46424747Y-83770174D01*
X46525823Y-83780500D01*
X47224176Y-83780499D01*
X47224184Y-83780498D01*
X47224187Y-83780498D01*
X47279530Y-83774844D01*
X47325253Y-83770174D01*
X47489016Y-83715908D01*
X47635850Y-83625340D01*
X47757840Y-83503350D01*
X47848408Y-83356516D01*
X47902674Y-83192753D01*
X47913000Y-83091677D01*
X47912999Y-82518324D01*
X47911219Y-82500903D01*
X47902674Y-82417247D01*
X47848408Y-82253484D01*
X47757840Y-82106650D01*
X47635850Y-81984660D01*
X47635846Y-81984657D01*
X47534403Y-81922086D01*
X47487678Y-81870138D01*
X47475500Y-81816548D01*
X47475500Y-63624097D01*
X47495185Y-63557058D01*
X47547989Y-63511303D01*
X47617147Y-63501359D01*
X47680703Y-63530384D01*
X47687181Y-63536416D01*
X48644669Y-64493904D01*
X48650020Y-64500005D01*
X48671718Y-64528282D01*
X48797159Y-64624536D01*
X48943238Y-64685044D01*
X49021619Y-64695363D01*
X49099999Y-64705682D01*
X49100000Y-64705682D01*
X49135329Y-64701030D01*
X49143428Y-64700500D01*
X53988303Y-64700500D01*
X54055342Y-64720185D01*
X54101097Y-64772989D01*
X54111623Y-64837458D01*
X54094540Y-65000000D01*
X54114326Y-65188256D01*
X54114327Y-65188259D01*
X54172818Y-65368277D01*
X54172821Y-65368284D01*
X54267467Y-65532216D01*
X54394129Y-65672888D01*
X54547265Y-65784148D01*
X54547270Y-65784151D01*
X54720192Y-65861142D01*
X54720197Y-65861144D01*
X54905354Y-65900500D01*
X54999903Y-65900500D01*
X55066942Y-65920185D01*
X55087584Y-65936819D01*
X56113181Y-66962416D01*
X56146666Y-67023739D01*
X56149500Y-67050097D01*
X56149500Y-78955824D01*
X56129815Y-79022863D01*
X56077011Y-79068618D01*
X56007853Y-79078562D01*
X55944297Y-79049537D01*
X55906523Y-78990759D01*
X55902179Y-78968786D01*
X55901323Y-78960638D01*
X55885674Y-78811744D01*
X55827179Y-78631716D01*
X55732533Y-78467784D01*
X55605871Y-78327112D01*
X55584719Y-78311744D01*
X55452734Y-78215851D01*
X55452729Y-78215848D01*
X55279807Y-78138857D01*
X55279802Y-78138855D01*
X55134001Y-78107865D01*
X55094646Y-78099500D01*
X54905354Y-78099500D01*
X54872897Y-78106398D01*
X54720197Y-78138855D01*
X54720192Y-78138857D01*
X54547270Y-78215848D01*
X54547265Y-78215851D01*
X54394129Y-78327111D01*
X54267466Y-78467785D01*
X54172821Y-78631715D01*
X54172818Y-78631722D01*
X54114327Y-78811740D01*
X54114326Y-78811744D01*
X54094540Y-79000000D01*
X54114326Y-79188256D01*
X54114327Y-79188259D01*
X54172818Y-79368277D01*
X54172821Y-79368284D01*
X54267467Y-79532216D01*
X54370581Y-79646735D01*
X54394129Y-79672888D01*
X54547265Y-79784148D01*
X54547270Y-79784151D01*
X54720192Y-79861142D01*
X54720197Y-79861144D01*
X54905354Y-79900500D01*
X54999903Y-79900500D01*
X55066942Y-79920185D01*
X55087584Y-79936819D01*
X55193338Y-80042573D01*
X55226823Y-80103896D01*
X55224734Y-80164847D01*
X55202425Y-80241638D01*
X55202423Y-80241648D01*
X55199500Y-80278795D01*
X55199501Y-80721202D01*
X55202423Y-80758354D01*
X55202423Y-80758357D01*
X55202424Y-80758358D01*
X55248630Y-80917400D01*
X55306497Y-81015247D01*
X55323680Y-81082971D01*
X55301520Y-81149233D01*
X55247054Y-81192997D01*
X55234360Y-81197444D01*
X55092604Y-81238628D01*
X55092601Y-81238629D01*
X54950049Y-81322934D01*
X54950040Y-81322941D01*
X54832941Y-81440040D01*
X54832934Y-81440049D01*
X54748629Y-81582601D01*
X54748628Y-81582604D01*
X54702424Y-81741637D01*
X54702423Y-81741643D01*
X54699500Y-81778795D01*
X54699501Y-82221202D01*
X54702423Y-82258354D01*
X54748630Y-82417400D01*
X54832934Y-82559950D01*
X54832936Y-82559953D01*
X54832937Y-82559954D01*
X54930682Y-82657699D01*
X54964166Y-82719020D01*
X54967000Y-82745379D01*
X54967000Y-84336571D01*
X54966469Y-84344673D01*
X54961818Y-84379999D01*
X54961818Y-84380000D01*
X54967000Y-84419360D01*
X54982455Y-84536760D01*
X54982456Y-84536762D01*
X55042964Y-84682842D01*
X55098876Y-84755708D01*
X55124070Y-84820877D01*
X55124500Y-84831193D01*
X55124500Y-84974403D01*
X55138988Y-85084463D01*
X55138991Y-85084472D01*
X55193409Y-85215849D01*
X55195721Y-85221429D01*
X55285964Y-85339036D01*
X55368184Y-85402125D01*
X55409385Y-85458552D01*
X55413540Y-85528298D01*
X55379328Y-85589219D01*
X55317610Y-85621971D01*
X55292696Y-85624500D01*
X54650596Y-85624500D01*
X54540536Y-85638988D01*
X54540525Y-85638992D01*
X54537942Y-85640062D01*
X54490492Y-85649500D01*
X53099500Y-85649500D01*
X53032461Y-85629815D01*
X52986706Y-85577011D01*
X52975500Y-85525501D01*
X52975499Y-85288331D01*
X52975498Y-85288312D01*
X52965174Y-85187247D01*
X52952666Y-85149500D01*
X52910908Y-85023484D01*
X52820340Y-84876650D01*
X52698350Y-84754660D01*
X52552917Y-84664956D01*
X52551518Y-84664093D01*
X52551513Y-84664091D01*
X52525801Y-84655571D01*
X52387753Y-84609826D01*
X52387751Y-84609825D01*
X52286678Y-84599500D01*
X51713330Y-84599500D01*
X51713312Y-84599501D01*
X51612247Y-84609825D01*
X51448484Y-84664092D01*
X51448481Y-84664093D01*
X51301648Y-84754661D01*
X51179661Y-84876648D01*
X51089093Y-85023481D01*
X51089091Y-85023486D01*
X51071355Y-85077011D01*
X51034826Y-85187247D01*
X51034826Y-85187248D01*
X51034825Y-85187248D01*
X51024500Y-85288315D01*
X51024500Y-85986669D01*
X51024501Y-85986687D01*
X51034825Y-86087752D01*
X51068130Y-86188256D01*
X51089092Y-86251516D01*
X51151820Y-86353215D01*
X51179661Y-86398351D01*
X51193629Y-86412319D01*
X51227114Y-86473642D01*
X51222130Y-86543334D01*
X51193629Y-86587681D01*
X51179661Y-86601648D01*
X51089093Y-86748481D01*
X51089091Y-86748486D01*
X51070641Y-86804166D01*
X51034826Y-86912247D01*
X51034826Y-86912248D01*
X51034825Y-86912248D01*
X51024500Y-87013315D01*
X51024500Y-87711669D01*
X51024501Y-87711687D01*
X51034825Y-87812752D01*
X51089092Y-87976515D01*
X51089093Y-87976518D01*
X51111212Y-88012379D01*
X51179660Y-88123350D01*
X51301650Y-88245340D01*
X51448484Y-88335908D01*
X51612247Y-88390174D01*
X51713323Y-88400500D01*
X52286676Y-88400499D01*
X52286684Y-88400498D01*
X52286687Y-88400498D01*
X52302899Y-88398842D01*
X52371591Y-88411612D01*
X52422476Y-88459493D01*
X52439500Y-88522200D01*
X52439501Y-88976202D01*
X52442423Y-89013354D01*
X52488630Y-89172400D01*
X52503023Y-89196737D01*
X52520206Y-89264461D01*
X52498046Y-89330724D01*
X52459416Y-89366588D01*
X52427542Y-89385439D01*
X52310441Y-89502540D01*
X52310434Y-89502549D01*
X52226129Y-89645101D01*
X52226128Y-89645104D01*
X52179924Y-89804137D01*
X52179923Y-89804143D01*
X52177000Y-89841295D01*
X52177001Y-90283702D01*
X52179923Y-90320855D01*
X52222870Y-90468680D01*
X52222670Y-90538549D01*
X52211181Y-90565273D01*
X52172820Y-90631716D01*
X52122176Y-90787584D01*
X52114326Y-90811744D01*
X52094540Y-91000000D01*
X52114326Y-91188256D01*
X52114327Y-91188259D01*
X52130223Y-91237182D01*
X52132218Y-91307023D01*
X52096138Y-91366856D01*
X52033437Y-91397684D01*
X52012292Y-91399500D01*
X42300097Y-91399500D01*
X42233058Y-91379815D01*
X42212416Y-91363181D01*
X37636819Y-86787584D01*
X37603334Y-86726261D01*
X37600500Y-86699903D01*
X37600500Y-79043434D01*
X37601031Y-79035333D01*
X37605683Y-79000000D01*
X37605683Y-78999999D01*
X37585044Y-78843238D01*
X37567143Y-78800022D01*
X37524536Y-78697159D01*
X37428282Y-78571718D01*
X37400005Y-78550020D01*
X37393904Y-78544669D01*
X37349235Y-78500000D01*
X38594540Y-78500000D01*
X38614326Y-78688256D01*
X38614327Y-78688259D01*
X38672818Y-78868277D01*
X38672821Y-78868284D01*
X38767467Y-79032216D01*
X38894129Y-79172888D01*
X39047265Y-79284148D01*
X39047270Y-79284151D01*
X39220192Y-79361142D01*
X39220197Y-79361144D01*
X39405354Y-79400500D01*
X39405355Y-79400500D01*
X39594644Y-79400500D01*
X39594646Y-79400500D01*
X39779803Y-79361144D01*
X39952730Y-79284151D01*
X40105871Y-79172888D01*
X40232533Y-79032216D01*
X40327179Y-78868284D01*
X40385674Y-78688256D01*
X40405460Y-78500000D01*
X40385674Y-78311744D01*
X40327179Y-78131716D01*
X40232533Y-77967784D01*
X40105871Y-77827112D01*
X40084719Y-77811744D01*
X39952734Y-77715851D01*
X39952729Y-77715848D01*
X39779807Y-77638857D01*
X39779802Y-77638855D01*
X39634001Y-77607865D01*
X39594646Y-77599500D01*
X39405354Y-77599500D01*
X39374331Y-77606094D01*
X39220197Y-77638855D01*
X39220192Y-77638857D01*
X39047270Y-77715848D01*
X39047265Y-77715851D01*
X38894129Y-77827111D01*
X38767466Y-77967785D01*
X38672821Y-78131715D01*
X38672818Y-78131722D01*
X38631836Y-78257853D01*
X38614326Y-78311744D01*
X38594540Y-78500000D01*
X37349235Y-78500000D01*
X36929050Y-78079815D01*
X36455320Y-77606085D01*
X36449980Y-77599995D01*
X36428282Y-77571718D01*
X36302841Y-77475464D01*
X36284302Y-77467785D01*
X36156762Y-77414956D01*
X36156760Y-77414955D01*
X36039361Y-77399500D01*
X36000000Y-77394318D01*
X35964670Y-77398969D01*
X35956572Y-77399500D01*
X30226258Y-77399500D01*
X30159219Y-77379815D01*
X30134109Y-77358473D01*
X30105871Y-77327112D01*
X30105864Y-77327106D01*
X29952734Y-77215851D01*
X29952729Y-77215848D01*
X29779807Y-77138857D01*
X29779802Y-77138855D01*
X29634001Y-77107865D01*
X29594646Y-77099500D01*
X29405354Y-77099500D01*
X29372897Y-77106398D01*
X29220197Y-77138855D01*
X29220192Y-77138857D01*
X29047270Y-77215848D01*
X29047265Y-77215851D01*
X28894129Y-77327111D01*
X28767466Y-77467785D01*
X28672821Y-77631715D01*
X28672818Y-77631722D01*
X28614327Y-77811740D01*
X28614326Y-77811744D01*
X28594540Y-78000000D01*
X28614326Y-78188256D01*
X28614327Y-78188259D01*
X28630223Y-78237182D01*
X28632218Y-78307023D01*
X28596138Y-78366856D01*
X28533437Y-78397684D01*
X28512292Y-78399500D01*
X25726258Y-78399500D01*
X25659219Y-78379815D01*
X25634109Y-78358473D01*
X25605871Y-78327112D01*
X25605864Y-78327106D01*
X25452734Y-78215851D01*
X25452729Y-78215848D01*
X25279807Y-78138857D01*
X25279802Y-78138855D01*
X25134001Y-78107865D01*
X25094646Y-78099500D01*
X25024500Y-78099500D01*
X24957461Y-78079815D01*
X24911706Y-78027011D01*
X24900500Y-77975500D01*
X24900500Y-68500097D01*
X24920185Y-68433058D01*
X24936819Y-68412416D01*
X24992417Y-68356818D01*
X25053740Y-68323333D01*
X25080098Y-68320499D01*
X25250888Y-68320499D01*
X25317426Y-68314453D01*
X25317427Y-68314452D01*
X25317433Y-68314452D01*
X25470569Y-68266733D01*
X25580961Y-68199999D01*
X25607829Y-68183757D01*
X25607830Y-68183755D01*
X25607835Y-68183753D01*
X25721253Y-68070335D01*
X25727094Y-68060674D01*
X25804232Y-67933070D01*
X25804233Y-67933069D01*
X25851952Y-67779933D01*
X25858000Y-67713381D01*
X25857999Y-67286620D01*
X25857999Y-67286619D01*
X25857999Y-67286611D01*
X25851953Y-67220073D01*
X25851952Y-67220070D01*
X25851952Y-67220067D01*
X25804233Y-67066931D01*
X25778123Y-67023739D01*
X25721257Y-66929670D01*
X25721253Y-66929665D01*
X25636819Y-66845231D01*
X25603334Y-66783908D01*
X25600500Y-66757550D01*
X25600500Y-63300097D01*
X25620185Y-63233058D01*
X25636819Y-63212416D01*
X36412416Y-52436819D01*
X36473739Y-52403334D01*
X36500097Y-52400500D01*
X36594644Y-52400500D01*
X36594646Y-52400500D01*
X36779803Y-52361144D01*
X36952730Y-52284151D01*
X37105871Y-52172888D01*
X37232533Y-52032216D01*
X37327179Y-51868284D01*
X37385674Y-51688256D01*
X37405460Y-51500000D01*
X37385674Y-51311744D01*
X37327179Y-51131716D01*
X37232533Y-50967784D01*
X37105871Y-50827112D01*
X37105870Y-50827111D01*
X36952734Y-50715851D01*
X36952729Y-50715848D01*
X36779807Y-50638857D01*
X36779802Y-50638855D01*
X36634001Y-50607865D01*
X36594646Y-50599500D01*
X36405354Y-50599500D01*
X36372897Y-50606398D01*
X36220197Y-50638855D01*
X36220192Y-50638857D01*
X36047270Y-50715848D01*
X36047265Y-50715851D01*
X35894129Y-50827111D01*
X35767466Y-50967785D01*
X35672821Y-51131715D01*
X35672818Y-51131722D01*
X35637846Y-51239356D01*
X35614326Y-51311744D01*
X35602148Y-51427612D01*
X35594540Y-51500002D01*
X35594540Y-51504862D01*
X35574855Y-51571901D01*
X35558221Y-51592543D01*
X24606096Y-62544668D01*
X24599994Y-62550019D01*
X24571720Y-62571715D01*
X24555662Y-62592642D01*
X24482296Y-62688256D01*
X24478759Y-62692865D01*
X24475463Y-62697159D01*
X24414956Y-62843237D01*
X24414955Y-62843239D01*
X24394318Y-62999998D01*
X24394318Y-63000000D01*
X24398559Y-63032216D01*
X24398969Y-63035326D01*
X24399500Y-63043428D01*
X24399500Y-66757550D01*
X24379815Y-66824589D01*
X24363181Y-66845231D01*
X24278746Y-66929665D01*
X24278742Y-66929670D01*
X24195767Y-67066929D01*
X24195765Y-67066933D01*
X24148048Y-67220065D01*
X24148048Y-67220066D01*
X24148048Y-67220067D01*
X24143171Y-67273739D01*
X24142000Y-67286621D01*
X24142000Y-67457402D01*
X24122315Y-67524441D01*
X24105681Y-67545083D01*
X23906095Y-67744668D01*
X23899993Y-67750020D01*
X23871719Y-67771716D01*
X23847550Y-67803215D01*
X23775461Y-67897162D01*
X23775461Y-67897163D01*
X23714957Y-68043234D01*
X23714955Y-68043239D01*
X23694318Y-68199998D01*
X23694318Y-68199999D01*
X23698969Y-68235326D01*
X23699500Y-68243428D01*
X23699500Y-84756571D01*
X23698969Y-84764669D01*
X23694318Y-84800000D01*
X15000500Y-84800000D01*
X15000500Y-57500000D01*
X23469341Y-57500000D01*
X23489936Y-57735403D01*
X23489938Y-57735413D01*
X23551094Y-57963655D01*
X23551096Y-57963659D01*
X23551097Y-57963663D01*
X23601031Y-58070746D01*
X23650964Y-58177828D01*
X23650965Y-58177830D01*
X23786505Y-58371402D01*
X23953597Y-58538494D01*
X24147169Y-58674034D01*
X24147171Y-58674035D01*
X24361337Y-58773903D01*
X24361343Y-58773904D01*
X24361344Y-58773905D01*
X24416285Y-58788626D01*
X24589592Y-58835063D01*
X24766034Y-58850500D01*
X25133966Y-58850500D01*
X25310408Y-58835063D01*
X25538663Y-58773903D01*
X25752829Y-58674035D01*
X25946401Y-58538495D01*
X26113495Y-58371401D01*
X26249035Y-58177830D01*
X26348903Y-57963663D01*
X26410063Y-57735408D01*
X26430659Y-57500000D01*
X26427840Y-57467785D01*
X26410063Y-57264596D01*
X26410063Y-57264592D01*
X26348903Y-57036337D01*
X26249035Y-56822171D01*
X26249034Y-56822169D01*
X26113494Y-56628597D01*
X25946403Y-56461506D01*
X25890187Y-56422144D01*
X25789401Y-56351573D01*
X25745778Y-56296999D01*
X25738584Y-56227500D01*
X25770106Y-56165145D01*
X25789398Y-56148428D01*
X25946401Y-56038495D01*
X26113495Y-55871401D01*
X26249035Y-55677830D01*
X26348903Y-55463663D01*
X26410063Y-55235408D01*
X26430659Y-55000000D01*
X26410063Y-54764592D01*
X26348903Y-54536337D01*
X26249035Y-54322171D01*
X26249034Y-54322169D01*
X26113494Y-54128597D01*
X25946402Y-53961505D01*
X25752830Y-53825965D01*
X25752828Y-53825964D01*
X25638174Y-53772500D01*
X25538663Y-53726097D01*
X25538659Y-53726096D01*
X25538655Y-53726094D01*
X25310413Y-53664938D01*
X25310403Y-53664936D01*
X25133966Y-53649500D01*
X24766034Y-53649500D01*
X24589596Y-53664936D01*
X24589586Y-53664938D01*
X24361344Y-53726094D01*
X24361335Y-53726098D01*
X24147171Y-53825964D01*
X24147169Y-53825965D01*
X23953597Y-53961505D01*
X23786506Y-54128597D01*
X23786501Y-54128604D01*
X23650967Y-54322165D01*
X23650965Y-54322169D01*
X23551098Y-54536335D01*
X23551094Y-54536344D01*
X23489938Y-54764586D01*
X23489936Y-54764596D01*
X23469341Y-54999999D01*
X23469341Y-55000000D01*
X23489936Y-55235403D01*
X23489938Y-55235413D01*
X23551094Y-55463655D01*
X23551096Y-55463659D01*
X23551097Y-55463663D01*
X23583063Y-55532214D01*
X23650964Y-55677828D01*
X23650965Y-55677830D01*
X23786505Y-55871402D01*
X23953597Y-56038494D01*
X24110595Y-56148425D01*
X24154220Y-56203002D01*
X24161414Y-56272500D01*
X24129891Y-56334855D01*
X24110595Y-56351575D01*
X23953597Y-56461505D01*
X23786506Y-56628597D01*
X23786501Y-56628604D01*
X23650967Y-56822165D01*
X23650965Y-56822169D01*
X23551098Y-57036335D01*
X23551094Y-57036344D01*
X23489938Y-57264586D01*
X23489936Y-57264596D01*
X23469341Y-57499999D01*
X23469341Y-57500000D01*
X15000500Y-57500000D01*
X15000500Y-45500000D01*
X57594540Y-45500000D01*
X57614326Y-45688256D01*
X57614327Y-45688259D01*
X57672818Y-45868277D01*
X57672821Y-45868284D01*
X57767467Y-46032216D01*
X57894129Y-46172888D01*
X58047265Y-46284148D01*
X58047270Y-46284151D01*
X58220192Y-46361142D01*
X58220197Y-46361144D01*
X58405354Y-46400500D01*
X58405355Y-46400500D01*
X58594644Y-46400500D01*
X58594646Y-46400500D01*
X58779803Y-46361144D01*
X58952730Y-46284151D01*
X59105871Y-46172888D01*
X59232533Y-46032216D01*
X59266728Y-45972989D01*
X59272784Y-45962500D01*
X59323351Y-45914284D01*
X59380171Y-45900500D01*
X65172179Y-45900500D01*
X65239218Y-45920185D01*
X65284973Y-45972989D01*
X65294917Y-46042147D01*
X65265892Y-46105703D01*
X65222615Y-46137779D01*
X65047270Y-46215848D01*
X65047265Y-46215851D01*
X64894129Y-46327111D01*
X64767466Y-46467785D01*
X64672821Y-46631715D01*
X64672818Y-46631722D01*
X64614327Y-46811740D01*
X64614326Y-46811744D01*
X64594540Y-47000000D01*
X64614326Y-47188256D01*
X64614327Y-47188259D01*
X64672818Y-47368277D01*
X64672821Y-47368284D01*
X64767467Y-47532216D01*
X64857063Y-47631722D01*
X64894129Y-47672888D01*
X65047265Y-47784148D01*
X65047270Y-47784151D01*
X65220192Y-47861142D01*
X65220197Y-47861144D01*
X65302839Y-47878710D01*
X65364321Y-47911902D01*
X65398097Y-47973065D01*
X65393445Y-48042780D01*
X65351840Y-48098912D01*
X65302839Y-48121290D01*
X65220197Y-48138855D01*
X65220192Y-48138857D01*
X65047270Y-48215848D01*
X65047265Y-48215851D01*
X64894129Y-48327111D01*
X64767466Y-48467785D01*
X64672821Y-48631715D01*
X64672818Y-48631722D01*
X64617931Y-48800648D01*
X64578493Y-48858324D01*
X64514135Y-48885522D01*
X64445288Y-48873607D01*
X64393813Y-48826363D01*
X64382069Y-48800648D01*
X64327181Y-48631722D01*
X64327180Y-48631721D01*
X64327179Y-48631716D01*
X64232533Y-48467784D01*
X64111146Y-48332971D01*
X64080917Y-48269981D01*
X64089542Y-48200646D01*
X64111147Y-48167028D01*
X64232533Y-48032216D01*
X64327179Y-47868284D01*
X64385674Y-47688256D01*
X64405460Y-47500000D01*
X64385674Y-47311744D01*
X64327179Y-47131716D01*
X64232533Y-46967784D01*
X64105871Y-46827112D01*
X64084719Y-46811744D01*
X63952734Y-46715851D01*
X63952729Y-46715848D01*
X63779807Y-46638857D01*
X63779802Y-46638855D01*
X63634001Y-46607865D01*
X63594646Y-46599500D01*
X63405354Y-46599500D01*
X63372897Y-46606398D01*
X63220197Y-46638855D01*
X63220192Y-46638857D01*
X63047270Y-46715848D01*
X63047265Y-46715851D01*
X62894129Y-46827111D01*
X62767466Y-46967785D01*
X62672821Y-47131715D01*
X62672818Y-47131722D01*
X62617931Y-47300648D01*
X62578493Y-47358324D01*
X62514135Y-47385522D01*
X62445288Y-47373607D01*
X62393813Y-47326363D01*
X62382069Y-47300648D01*
X62327181Y-47131722D01*
X62327180Y-47131721D01*
X62327179Y-47131716D01*
X62232533Y-46967784D01*
X62105871Y-46827112D01*
X62084719Y-46811744D01*
X61952734Y-46715851D01*
X61952729Y-46715848D01*
X61779807Y-46638857D01*
X61779802Y-46638855D01*
X61634001Y-46607865D01*
X61594646Y-46599500D01*
X61405354Y-46599500D01*
X61372897Y-46606398D01*
X61220197Y-46638855D01*
X61220192Y-46638857D01*
X61047270Y-46715848D01*
X61047265Y-46715851D01*
X60894129Y-46827111D01*
X60767466Y-46967785D01*
X60672821Y-47131715D01*
X60672818Y-47131722D01*
X60617931Y-47300648D01*
X60614326Y-47311744D01*
X60594540Y-47500000D01*
X60614326Y-47688256D01*
X60614327Y-47688259D01*
X60672818Y-47868277D01*
X60672821Y-47868284D01*
X60767466Y-48032215D01*
X60888851Y-48167028D01*
X60919081Y-48230020D01*
X60910455Y-48299355D01*
X60888851Y-48332972D01*
X60767466Y-48467784D01*
X60672821Y-48631715D01*
X60672818Y-48631722D01*
X60617931Y-48800648D01*
X60614326Y-48811744D01*
X60594540Y-49000000D01*
X60614326Y-49188256D01*
X60614327Y-49188259D01*
X60672818Y-49368277D01*
X60672821Y-49368284D01*
X60767467Y-49532216D01*
X60821787Y-49592544D01*
X60894129Y-49672888D01*
X61047265Y-49784148D01*
X61047270Y-49784151D01*
X61220192Y-49861142D01*
X61220197Y-49861144D01*
X61405354Y-49900500D01*
X61405355Y-49900500D01*
X61594644Y-49900500D01*
X61594646Y-49900500D01*
X61779803Y-49861144D01*
X61952730Y-49784151D01*
X62105871Y-49672888D01*
X62232533Y-49532216D01*
X62327179Y-49368284D01*
X62382069Y-49199351D01*
X62421506Y-49141675D01*
X62485865Y-49114477D01*
X62554711Y-49126392D01*
X62606187Y-49173636D01*
X62617931Y-49199351D01*
X62672818Y-49368277D01*
X62672821Y-49368284D01*
X62767467Y-49532216D01*
X62821787Y-49592544D01*
X62894129Y-49672888D01*
X63047265Y-49784148D01*
X63047270Y-49784151D01*
X63220192Y-49861142D01*
X63220197Y-49861144D01*
X63405354Y-49900500D01*
X63405355Y-49900500D01*
X63594644Y-49900500D01*
X63594646Y-49900500D01*
X63779803Y-49861144D01*
X63952730Y-49784151D01*
X64105871Y-49672888D01*
X64232533Y-49532216D01*
X64327179Y-49368284D01*
X64382069Y-49199351D01*
X64421506Y-49141675D01*
X64485865Y-49114477D01*
X64554711Y-49126392D01*
X64606187Y-49173636D01*
X64617931Y-49199351D01*
X64672818Y-49368277D01*
X64672821Y-49368284D01*
X64767467Y-49532216D01*
X64821787Y-49592544D01*
X64894129Y-49672888D01*
X65047265Y-49784148D01*
X65047270Y-49784151D01*
X65220192Y-49861142D01*
X65220197Y-49861144D01*
X65405354Y-49900500D01*
X65405355Y-49900500D01*
X65594644Y-49900500D01*
X65594646Y-49900500D01*
X65779803Y-49861144D01*
X65952730Y-49784151D01*
X66105871Y-49672888D01*
X66232533Y-49532216D01*
X66327179Y-49368284D01*
X66385674Y-49188256D01*
X66405460Y-49000000D01*
X66385674Y-48811744D01*
X66327179Y-48631716D01*
X66232533Y-48467784D01*
X66105871Y-48327112D01*
X66067667Y-48299355D01*
X65952734Y-48215851D01*
X65952729Y-48215848D01*
X65779807Y-48138857D01*
X65779800Y-48138855D01*
X65697161Y-48121290D01*
X65635679Y-48088098D01*
X65601902Y-48026935D01*
X65603699Y-48000000D01*
X94094540Y-48000000D01*
X94114326Y-48188256D01*
X94114327Y-48188259D01*
X94172818Y-48368277D01*
X94172821Y-48368284D01*
X94267467Y-48532216D01*
X94363487Y-48638857D01*
X94394129Y-48672888D01*
X94547265Y-48784148D01*
X94547270Y-48784151D01*
X94720192Y-48861142D01*
X94720197Y-48861144D01*
X94905354Y-48900500D01*
X94905355Y-48900500D01*
X95094644Y-48900500D01*
X95094646Y-48900500D01*
X95279803Y-48861144D01*
X95452730Y-48784151D01*
X95605871Y-48672888D01*
X95732533Y-48532216D01*
X95827179Y-48368284D01*
X95885674Y-48188256D01*
X95905460Y-48000000D01*
X95885674Y-47811744D01*
X95827179Y-47631716D01*
X95751133Y-47500000D01*
X99594540Y-47500000D01*
X99614326Y-47688256D01*
X99614327Y-47688259D01*
X99672818Y-47868277D01*
X99672821Y-47868284D01*
X99767467Y-48032216D01*
X99863487Y-48138857D01*
X99894129Y-48172888D01*
X100047265Y-48284148D01*
X100047270Y-48284151D01*
X100220192Y-48361142D01*
X100220197Y-48361144D01*
X100405354Y-48400500D01*
X100405355Y-48400500D01*
X100594644Y-48400500D01*
X100594646Y-48400500D01*
X100779803Y-48361144D01*
X100952730Y-48284151D01*
X101105871Y-48172888D01*
X101232533Y-48032216D01*
X101327179Y-47868284D01*
X101385674Y-47688256D01*
X101405460Y-47500000D01*
X101385674Y-47311744D01*
X101327179Y-47131716D01*
X101232533Y-46967784D01*
X101105871Y-46827112D01*
X101084719Y-46811744D01*
X100952734Y-46715851D01*
X100952729Y-46715848D01*
X100779807Y-46638857D01*
X100779802Y-46638855D01*
X100634001Y-46607865D01*
X100594646Y-46599500D01*
X100405354Y-46599500D01*
X100372897Y-46606398D01*
X100220197Y-46638855D01*
X100220192Y-46638857D01*
X100047270Y-46715848D01*
X100047265Y-46715851D01*
X99894129Y-46827111D01*
X99767466Y-46967785D01*
X99672821Y-47131715D01*
X99672818Y-47131722D01*
X99617931Y-47300648D01*
X99614326Y-47311744D01*
X99594540Y-47500000D01*
X95751133Y-47500000D01*
X95732533Y-47467784D01*
X95605871Y-47327112D01*
X95584719Y-47311744D01*
X95452734Y-47215851D01*
X95452729Y-47215848D01*
X95279807Y-47138857D01*
X95279802Y-47138855D01*
X95134001Y-47107865D01*
X95094646Y-47099500D01*
X94905354Y-47099500D01*
X94872897Y-47106398D01*
X94720197Y-47138855D01*
X94720192Y-47138857D01*
X94547270Y-47215848D01*
X94547265Y-47215851D01*
X94394129Y-47327111D01*
X94267466Y-47467785D01*
X94172821Y-47631715D01*
X94172818Y-47631722D01*
X94114327Y-47811740D01*
X94114326Y-47811744D01*
X94094540Y-48000000D01*
X65603699Y-48000000D01*
X65606554Y-47957221D01*
X65648158Y-47901088D01*
X65697161Y-47878710D01*
X65703201Y-47877426D01*
X65779803Y-47861144D01*
X65952730Y-47784151D01*
X66105871Y-47672888D01*
X66232533Y-47532216D01*
X66327179Y-47368284D01*
X66385674Y-47188256D01*
X66405460Y-47000000D01*
X66385674Y-46811744D01*
X66327179Y-46631716D01*
X66232533Y-46467784D01*
X66105871Y-46327112D01*
X66084719Y-46311744D01*
X65952734Y-46215851D01*
X65952729Y-46215848D01*
X65777385Y-46137779D01*
X65724148Y-46092529D01*
X65703827Y-46025680D01*
X65722873Y-45958456D01*
X65775239Y-45912201D01*
X65827821Y-45900500D01*
X69972432Y-45900500D01*
X70039471Y-45920185D01*
X70085226Y-45972989D01*
X70095752Y-46011535D01*
X70114326Y-46188256D01*
X70114327Y-46188259D01*
X70172818Y-46368277D01*
X70172821Y-46368284D01*
X70267467Y-46532216D01*
X70363487Y-46638857D01*
X70394129Y-46672888D01*
X70547265Y-46784148D01*
X70547270Y-46784151D01*
X70720192Y-46861142D01*
X70720197Y-46861144D01*
X70905354Y-46900500D01*
X70905355Y-46900500D01*
X71094644Y-46900500D01*
X71094646Y-46900500D01*
X71279803Y-46861144D01*
X71452730Y-46784151D01*
X71605871Y-46672888D01*
X71732533Y-46532216D01*
X71827179Y-46368284D01*
X71885674Y-46188256D01*
X71904247Y-46011536D01*
X71930832Y-45946924D01*
X71988129Y-45906939D01*
X72027568Y-45900500D01*
X78119829Y-45900500D01*
X78186868Y-45920185D01*
X78227216Y-45962500D01*
X78233272Y-45972989D01*
X78263693Y-46025680D01*
X78267466Y-46032214D01*
X78267465Y-46032214D01*
X78394129Y-46172888D01*
X78547265Y-46284148D01*
X78547270Y-46284151D01*
X78720192Y-46361142D01*
X78720197Y-46361144D01*
X78905354Y-46400500D01*
X78905355Y-46400500D01*
X79094644Y-46400500D01*
X79094646Y-46400500D01*
X79279803Y-46361144D01*
X79452730Y-46284151D01*
X79605871Y-46172888D01*
X79732533Y-46032216D01*
X79751133Y-46000000D01*
X92594540Y-46000000D01*
X92614326Y-46188256D01*
X92614327Y-46188259D01*
X92672818Y-46368277D01*
X92672821Y-46368284D01*
X92767467Y-46532216D01*
X92863487Y-46638857D01*
X92894129Y-46672888D01*
X93047265Y-46784148D01*
X93047270Y-46784151D01*
X93220192Y-46861142D01*
X93220197Y-46861144D01*
X93405354Y-46900500D01*
X93405355Y-46900500D01*
X93594644Y-46900500D01*
X93594646Y-46900500D01*
X93779803Y-46861144D01*
X93952730Y-46784151D01*
X94105871Y-46672888D01*
X94232533Y-46532216D01*
X94251133Y-46500000D01*
X95594540Y-46500000D01*
X95614326Y-46688256D01*
X95614327Y-46688259D01*
X95672818Y-46868277D01*
X95672821Y-46868284D01*
X95767467Y-47032216D01*
X95863487Y-47138857D01*
X95894129Y-47172888D01*
X96047265Y-47284148D01*
X96047270Y-47284151D01*
X96220192Y-47361142D01*
X96220197Y-47361144D01*
X96405354Y-47400500D01*
X96405355Y-47400500D01*
X96594644Y-47400500D01*
X96594646Y-47400500D01*
X96779803Y-47361144D01*
X96952730Y-47284151D01*
X97105871Y-47172888D01*
X97232533Y-47032216D01*
X97327179Y-46868284D01*
X97385674Y-46688256D01*
X97405460Y-46500000D01*
X97385674Y-46311744D01*
X97327179Y-46131716D01*
X97232533Y-45967784D01*
X97105871Y-45827112D01*
X97084719Y-45811744D01*
X96952734Y-45715851D01*
X96952729Y-45715848D01*
X96779807Y-45638857D01*
X96779802Y-45638855D01*
X96634001Y-45607865D01*
X96594646Y-45599500D01*
X96405354Y-45599500D01*
X96372897Y-45606398D01*
X96220197Y-45638855D01*
X96220192Y-45638857D01*
X96047270Y-45715848D01*
X96047265Y-45715851D01*
X95894129Y-45827111D01*
X95767466Y-45967785D01*
X95672821Y-46131715D01*
X95672818Y-46131722D01*
X95614327Y-46311740D01*
X95614326Y-46311744D01*
X95594540Y-46500000D01*
X94251133Y-46500000D01*
X94327179Y-46368284D01*
X94385674Y-46188256D01*
X94405460Y-46000000D01*
X94385674Y-45811744D01*
X94327179Y-45631716D01*
X94232533Y-45467784D01*
X94105871Y-45327112D01*
X94084719Y-45311744D01*
X93952734Y-45215851D01*
X93952729Y-45215848D01*
X93779807Y-45138857D01*
X93779802Y-45138855D01*
X93634001Y-45107865D01*
X93594646Y-45099500D01*
X93405354Y-45099500D01*
X93372897Y-45106398D01*
X93220197Y-45138855D01*
X93220192Y-45138857D01*
X93047270Y-45215848D01*
X93047265Y-45215851D01*
X92894129Y-45327111D01*
X92767466Y-45467785D01*
X92672821Y-45631715D01*
X92672818Y-45631722D01*
X92614327Y-45811740D01*
X92614326Y-45811744D01*
X92594540Y-46000000D01*
X79751133Y-46000000D01*
X79827179Y-45868284D01*
X79885674Y-45688256D01*
X79905460Y-45500000D01*
X79885674Y-45311744D01*
X79827179Y-45131716D01*
X79732533Y-44967784D01*
X79605871Y-44827112D01*
X79605870Y-44827111D01*
X79452734Y-44715851D01*
X79452729Y-44715848D01*
X79279807Y-44638857D01*
X79279802Y-44638855D01*
X79134001Y-44607865D01*
X79094646Y-44599500D01*
X78905354Y-44599500D01*
X78872897Y-44606398D01*
X78720197Y-44638855D01*
X78720192Y-44638857D01*
X78608069Y-44688779D01*
X78557633Y-44699500D01*
X58942367Y-44699500D01*
X58891931Y-44688779D01*
X58779807Y-44638857D01*
X58779802Y-44638855D01*
X58634001Y-44607865D01*
X58594646Y-44599500D01*
X58405354Y-44599500D01*
X58372897Y-44606398D01*
X58220197Y-44638855D01*
X58220192Y-44638857D01*
X58047270Y-44715848D01*
X58047265Y-44715851D01*
X57894129Y-44827111D01*
X57767466Y-44967785D01*
X57672821Y-45131715D01*
X57672818Y-45131722D01*
X57614327Y-45311740D01*
X57614326Y-45311744D01*
X57594540Y-45500000D01*
X15000500Y-45500000D01*
X15000500Y-44500000D01*
X97594540Y-44500000D01*
X97614326Y-44688256D01*
X97614327Y-44688259D01*
X97672818Y-44868277D01*
X97672821Y-44868284D01*
X97767467Y-45032216D01*
X97863487Y-45138857D01*
X97894129Y-45172888D01*
X98047265Y-45284148D01*
X98047270Y-45284151D01*
X98220192Y-45361142D01*
X98220197Y-45361144D01*
X98405354Y-45400500D01*
X98405355Y-45400500D01*
X98594644Y-45400500D01*
X98594646Y-45400500D01*
X98779803Y-45361144D01*
X98952730Y-45284151D01*
X99105871Y-45172888D01*
X99232533Y-45032216D01*
X99327179Y-44868284D01*
X99385674Y-44688256D01*
X99405460Y-44500000D01*
X99385674Y-44311744D01*
X99327179Y-44131716D01*
X99232533Y-43967784D01*
X99105871Y-43827112D01*
X99105870Y-43827111D01*
X98952734Y-43715851D01*
X98952729Y-43715848D01*
X98779807Y-43638857D01*
X98779802Y-43638855D01*
X98634001Y-43607865D01*
X98594646Y-43599500D01*
X98405354Y-43599500D01*
X98372897Y-43606398D01*
X98220197Y-43638855D01*
X98220192Y-43638857D01*
X98047270Y-43715848D01*
X98047265Y-43715851D01*
X97894129Y-43827111D01*
X97767466Y-43967785D01*
X97672821Y-44131715D01*
X97672818Y-44131722D01*
X97614327Y-44311740D01*
X97614326Y-44311744D01*
X97594540Y-44500000D01*
X15000500Y-44500000D01*
X15000500Y-42500000D01*
X23469341Y-42500000D01*
X23489936Y-42735403D01*
X23489938Y-42735413D01*
X23551094Y-42963655D01*
X23551096Y-42963659D01*
X23551097Y-42963663D01*
X23601031Y-43070746D01*
X23650964Y-43177828D01*
X23650965Y-43177830D01*
X23786505Y-43371402D01*
X23953597Y-43538494D01*
X24147169Y-43674034D01*
X24147171Y-43674035D01*
X24361337Y-43773903D01*
X24361343Y-43773904D01*
X24361344Y-43773905D01*
X24416285Y-43788626D01*
X24589592Y-43835063D01*
X24766034Y-43850500D01*
X25133966Y-43850500D01*
X25310408Y-43835063D01*
X25538663Y-43773903D01*
X25752829Y-43674035D01*
X25946401Y-43538495D01*
X25984896Y-43500000D01*
X94594540Y-43500000D01*
X94614326Y-43688256D01*
X94614327Y-43688259D01*
X94672818Y-43868277D01*
X94672821Y-43868284D01*
X94767467Y-44032216D01*
X94857063Y-44131722D01*
X94894129Y-44172888D01*
X95047265Y-44284148D01*
X95047270Y-44284151D01*
X95220192Y-44361142D01*
X95220197Y-44361144D01*
X95405354Y-44400500D01*
X95405355Y-44400500D01*
X95594644Y-44400500D01*
X95594646Y-44400500D01*
X95779803Y-44361144D01*
X95952730Y-44284151D01*
X96105871Y-44172888D01*
X96232533Y-44032216D01*
X96327179Y-43868284D01*
X96385674Y-43688256D01*
X96405460Y-43500000D01*
X96385674Y-43311744D01*
X96327179Y-43131716D01*
X96251133Y-43000000D01*
X99094540Y-43000000D01*
X99114326Y-43188256D01*
X99114327Y-43188259D01*
X99172818Y-43368277D01*
X99172821Y-43368284D01*
X99267467Y-43532216D01*
X99363487Y-43638857D01*
X99394129Y-43672888D01*
X99547265Y-43784148D01*
X99547270Y-43784151D01*
X99720192Y-43861142D01*
X99720197Y-43861144D01*
X99905354Y-43900500D01*
X99905355Y-43900500D01*
X100094644Y-43900500D01*
X100094646Y-43900500D01*
X100279803Y-43861144D01*
X100452730Y-43784151D01*
X100605871Y-43672888D01*
X100732533Y-43532216D01*
X100827179Y-43368284D01*
X100885674Y-43188256D01*
X100905460Y-43000000D01*
X100885674Y-42811744D01*
X100827179Y-42631716D01*
X100732533Y-42467784D01*
X100605871Y-42327112D01*
X100605870Y-42327111D01*
X100452734Y-42215851D01*
X100452729Y-42215848D01*
X100279807Y-42138857D01*
X100279802Y-42138855D01*
X100134001Y-42107865D01*
X100094646Y-42099500D01*
X99905354Y-42099500D01*
X99872897Y-42106398D01*
X99720197Y-42138855D01*
X99720192Y-42138857D01*
X99547270Y-42215848D01*
X99547265Y-42215851D01*
X99394129Y-42327111D01*
X99267466Y-42467785D01*
X99172821Y-42631715D01*
X99172818Y-42631722D01*
X99114327Y-42811740D01*
X99114326Y-42811744D01*
X99094540Y-43000000D01*
X96251133Y-43000000D01*
X96232533Y-42967784D01*
X96105871Y-42827112D01*
X96084719Y-42811744D01*
X95952734Y-42715851D01*
X95952729Y-42715848D01*
X95779807Y-42638857D01*
X95779802Y-42638855D01*
X95634001Y-42607865D01*
X95594646Y-42599500D01*
X95405354Y-42599500D01*
X95372897Y-42606398D01*
X95220197Y-42638855D01*
X95220192Y-42638857D01*
X95047270Y-42715848D01*
X95047265Y-42715851D01*
X94894129Y-42827111D01*
X94767466Y-42967785D01*
X94672821Y-43131715D01*
X94672818Y-43131722D01*
X94614327Y-43311740D01*
X94614326Y-43311744D01*
X94594540Y-43500000D01*
X25984896Y-43500000D01*
X26113495Y-43371401D01*
X26249035Y-43177830D01*
X26348903Y-42963663D01*
X26410063Y-42735408D01*
X26430659Y-42500000D01*
X26427840Y-42467785D01*
X26410063Y-42264596D01*
X26410063Y-42264592D01*
X26348903Y-42036337D01*
X26331959Y-42000000D01*
X55094540Y-42000000D01*
X55114326Y-42188256D01*
X55114327Y-42188259D01*
X55172818Y-42368277D01*
X55172821Y-42368284D01*
X55267467Y-42532216D01*
X55363487Y-42638857D01*
X55394129Y-42672888D01*
X55547265Y-42784148D01*
X55547270Y-42784151D01*
X55720192Y-42861142D01*
X55720197Y-42861144D01*
X55905354Y-42900500D01*
X55905355Y-42900500D01*
X56094644Y-42900500D01*
X56094646Y-42900500D01*
X56279803Y-42861144D01*
X56452730Y-42784151D01*
X56605871Y-42672888D01*
X56732533Y-42532216D01*
X56827179Y-42368284D01*
X56885674Y-42188256D01*
X56905460Y-42000000D01*
X56885674Y-41811744D01*
X56827179Y-41631716D01*
X56751133Y-41500000D01*
X97094540Y-41500000D01*
X97114326Y-41688256D01*
X97114327Y-41688259D01*
X97172818Y-41868277D01*
X97172821Y-41868284D01*
X97267467Y-42032216D01*
X97363487Y-42138857D01*
X97394129Y-42172888D01*
X97547265Y-42284148D01*
X97547270Y-42284151D01*
X97720192Y-42361142D01*
X97720197Y-42361144D01*
X97905354Y-42400500D01*
X97905355Y-42400500D01*
X98094644Y-42400500D01*
X98094646Y-42400500D01*
X98279803Y-42361144D01*
X98452730Y-42284151D01*
X98605871Y-42172888D01*
X98732533Y-42032216D01*
X98827179Y-41868284D01*
X98885674Y-41688256D01*
X98905460Y-41500000D01*
X98885674Y-41311744D01*
X98827179Y-41131716D01*
X98732533Y-40967784D01*
X98605871Y-40827112D01*
X98605870Y-40827111D01*
X98452734Y-40715851D01*
X98452729Y-40715848D01*
X98279807Y-40638857D01*
X98279802Y-40638855D01*
X98134001Y-40607865D01*
X98094646Y-40599500D01*
X97905354Y-40599500D01*
X97872897Y-40606398D01*
X97720197Y-40638855D01*
X97720192Y-40638857D01*
X97547270Y-40715848D01*
X97547265Y-40715851D01*
X97394129Y-40827111D01*
X97267466Y-40967785D01*
X97172821Y-41131715D01*
X97172818Y-41131722D01*
X97119117Y-41296999D01*
X97114326Y-41311744D01*
X97094540Y-41500000D01*
X56751133Y-41500000D01*
X56732533Y-41467784D01*
X56605871Y-41327112D01*
X56605870Y-41327111D01*
X56452734Y-41215851D01*
X56452729Y-41215848D01*
X56279807Y-41138857D01*
X56279802Y-41138855D01*
X56134001Y-41107865D01*
X56094646Y-41099500D01*
X55905354Y-41099500D01*
X55872897Y-41106398D01*
X55720197Y-41138855D01*
X55720192Y-41138857D01*
X55547270Y-41215848D01*
X55547265Y-41215851D01*
X55394129Y-41327111D01*
X55267466Y-41467785D01*
X55172821Y-41631715D01*
X55172818Y-41631722D01*
X55114327Y-41811740D01*
X55114326Y-41811744D01*
X55094540Y-42000000D01*
X26331959Y-42000000D01*
X26249035Y-41822171D01*
X26249034Y-41822169D01*
X26113494Y-41628597D01*
X25946403Y-41461506D01*
X25859276Y-41400500D01*
X25789401Y-41351573D01*
X25745778Y-41296999D01*
X25738584Y-41227500D01*
X25770106Y-41165145D01*
X25789398Y-41148428D01*
X25946401Y-41038495D01*
X26113495Y-40871401D01*
X26249035Y-40677830D01*
X26331959Y-40500000D01*
X75594540Y-40500000D01*
X75614326Y-40688256D01*
X75614327Y-40688259D01*
X75672818Y-40868277D01*
X75672821Y-40868284D01*
X75767467Y-41032216D01*
X75863487Y-41138857D01*
X75894129Y-41172888D01*
X76047265Y-41284148D01*
X76047270Y-41284151D01*
X76220192Y-41361142D01*
X76220197Y-41361144D01*
X76405354Y-41400500D01*
X76405355Y-41400500D01*
X76594644Y-41400500D01*
X76594646Y-41400500D01*
X76779803Y-41361144D01*
X76952730Y-41284151D01*
X77105871Y-41172888D01*
X77232533Y-41032216D01*
X77327179Y-40868284D01*
X77385674Y-40688256D01*
X77405460Y-40500000D01*
X77385674Y-40311744D01*
X77327179Y-40131716D01*
X77251133Y-40000000D01*
X94594540Y-40000000D01*
X94614326Y-40188256D01*
X94614327Y-40188259D01*
X94672818Y-40368277D01*
X94672821Y-40368284D01*
X94767467Y-40532216D01*
X94863487Y-40638857D01*
X94894129Y-40672888D01*
X95047265Y-40784148D01*
X95047270Y-40784151D01*
X95220192Y-40861142D01*
X95220197Y-40861144D01*
X95405354Y-40900500D01*
X95405355Y-40900500D01*
X95594644Y-40900500D01*
X95594646Y-40900500D01*
X95779803Y-40861144D01*
X95952730Y-40784151D01*
X96105871Y-40672888D01*
X96232533Y-40532216D01*
X96327179Y-40368284D01*
X96385674Y-40188256D01*
X96405460Y-40000000D01*
X96385674Y-39811744D01*
X96327179Y-39631716D01*
X96251133Y-39500000D01*
X98594540Y-39500000D01*
X98614326Y-39688256D01*
X98614327Y-39688259D01*
X98672818Y-39868277D01*
X98672821Y-39868284D01*
X98767467Y-40032216D01*
X98857063Y-40131722D01*
X98894129Y-40172888D01*
X99047265Y-40284148D01*
X99047270Y-40284151D01*
X99220192Y-40361142D01*
X99220197Y-40361144D01*
X99405354Y-40400500D01*
X99405355Y-40400500D01*
X99594644Y-40400500D01*
X99594646Y-40400500D01*
X99779803Y-40361144D01*
X99952730Y-40284151D01*
X100105871Y-40172888D01*
X100232533Y-40032216D01*
X100251133Y-40000000D01*
X103569341Y-40000000D01*
X103589936Y-40235403D01*
X103589938Y-40235413D01*
X103651094Y-40463655D01*
X103651096Y-40463659D01*
X103651097Y-40463663D01*
X103683063Y-40532214D01*
X103750964Y-40677828D01*
X103750965Y-40677830D01*
X103886505Y-40871402D01*
X104053597Y-41038494D01*
X104247169Y-41174034D01*
X104247171Y-41174035D01*
X104461337Y-41273903D01*
X104461343Y-41273904D01*
X104461344Y-41273905D01*
X104516285Y-41288626D01*
X104689592Y-41335063D01*
X104866034Y-41350500D01*
X105233966Y-41350500D01*
X105410408Y-41335063D01*
X105638663Y-41273903D01*
X105852829Y-41174035D01*
X106046401Y-41038495D01*
X106213495Y-40871401D01*
X106349035Y-40677830D01*
X106448903Y-40463663D01*
X106510063Y-40235408D01*
X106530659Y-40000000D01*
X106527840Y-39967785D01*
X106510063Y-39764596D01*
X106510063Y-39764592D01*
X106448903Y-39536337D01*
X106349035Y-39322171D01*
X106349034Y-39322169D01*
X106213494Y-39128597D01*
X106046403Y-38961506D01*
X105990187Y-38922144D01*
X105889401Y-38851573D01*
X105845778Y-38796999D01*
X105838584Y-38727500D01*
X105870106Y-38665145D01*
X105889398Y-38648428D01*
X106046401Y-38538495D01*
X106213495Y-38371401D01*
X106349035Y-38177830D01*
X106448903Y-37963663D01*
X106510063Y-37735408D01*
X106530659Y-37500000D01*
X106510063Y-37264592D01*
X106448903Y-37036337D01*
X106349035Y-36822171D01*
X106349034Y-36822169D01*
X106213494Y-36628597D01*
X106046402Y-36461505D01*
X105852830Y-36325965D01*
X105852828Y-36325964D01*
X105745746Y-36276031D01*
X105638663Y-36226097D01*
X105638659Y-36226096D01*
X105638655Y-36226094D01*
X105410413Y-36164938D01*
X105410403Y-36164936D01*
X105233966Y-36149500D01*
X104866034Y-36149500D01*
X104689596Y-36164936D01*
X104689586Y-36164938D01*
X104461344Y-36226094D01*
X104461335Y-36226098D01*
X104247171Y-36325964D01*
X104247169Y-36325965D01*
X104053597Y-36461505D01*
X103886506Y-36628597D01*
X103886501Y-36628604D01*
X103750967Y-36822165D01*
X103750965Y-36822169D01*
X103651098Y-37036335D01*
X103651094Y-37036344D01*
X103589938Y-37264586D01*
X103589936Y-37264596D01*
X103569341Y-37499999D01*
X103569341Y-37500000D01*
X103589936Y-37735403D01*
X103589938Y-37735413D01*
X103651094Y-37963655D01*
X103651096Y-37963659D01*
X103651097Y-37963663D01*
X103701031Y-38070746D01*
X103750964Y-38177828D01*
X103750965Y-38177830D01*
X103886505Y-38371402D01*
X104053597Y-38538494D01*
X104210595Y-38648425D01*
X104254220Y-38703002D01*
X104261414Y-38772500D01*
X104229891Y-38834855D01*
X104210595Y-38851575D01*
X104053597Y-38961505D01*
X103886506Y-39128597D01*
X103886501Y-39128604D01*
X103750967Y-39322165D01*
X103750965Y-39322169D01*
X103651098Y-39536335D01*
X103651094Y-39536344D01*
X103589938Y-39764586D01*
X103589936Y-39764596D01*
X103569341Y-39999999D01*
X103569341Y-40000000D01*
X100251133Y-40000000D01*
X100327179Y-39868284D01*
X100385674Y-39688256D01*
X100405460Y-39500000D01*
X100385674Y-39311744D01*
X100327179Y-39131716D01*
X100232533Y-38967784D01*
X100105871Y-38827112D01*
X100105870Y-38827111D01*
X99952734Y-38715851D01*
X99952729Y-38715848D01*
X99779807Y-38638857D01*
X99779802Y-38638855D01*
X99634001Y-38607865D01*
X99594646Y-38599500D01*
X99405354Y-38599500D01*
X99372897Y-38606398D01*
X99220197Y-38638855D01*
X99220192Y-38638857D01*
X99047270Y-38715848D01*
X99047265Y-38715851D01*
X98894129Y-38827111D01*
X98767466Y-38967785D01*
X98672821Y-39131715D01*
X98672818Y-39131722D01*
X98614327Y-39311740D01*
X98614326Y-39311744D01*
X98594540Y-39500000D01*
X96251133Y-39500000D01*
X96232533Y-39467784D01*
X96105871Y-39327112D01*
X96105870Y-39327111D01*
X95952734Y-39215851D01*
X95952729Y-39215848D01*
X95779807Y-39138857D01*
X95779802Y-39138855D01*
X95634001Y-39107865D01*
X95594646Y-39099500D01*
X95405354Y-39099500D01*
X95372897Y-39106398D01*
X95220197Y-39138855D01*
X95220192Y-39138857D01*
X95047270Y-39215848D01*
X95047265Y-39215851D01*
X94894129Y-39327111D01*
X94767466Y-39467785D01*
X94672821Y-39631715D01*
X94672818Y-39631722D01*
X94629645Y-39764596D01*
X94614326Y-39811744D01*
X94594540Y-40000000D01*
X77251133Y-40000000D01*
X77232533Y-39967784D01*
X77105871Y-39827112D01*
X77084719Y-39811744D01*
X76952734Y-39715851D01*
X76952729Y-39715848D01*
X76779807Y-39638857D01*
X76779802Y-39638855D01*
X76634001Y-39607865D01*
X76594646Y-39599500D01*
X76405354Y-39599500D01*
X76372897Y-39606398D01*
X76220197Y-39638855D01*
X76220192Y-39638857D01*
X76047270Y-39715848D01*
X76047265Y-39715851D01*
X75894129Y-39827111D01*
X75767466Y-39967785D01*
X75672821Y-40131715D01*
X75672818Y-40131722D01*
X75614327Y-40311740D01*
X75614326Y-40311744D01*
X75594540Y-40500000D01*
X26331959Y-40500000D01*
X26348903Y-40463663D01*
X26410063Y-40235408D01*
X26430659Y-40000000D01*
X26427840Y-39967785D01*
X26410063Y-39764596D01*
X26410063Y-39764592D01*
X26348903Y-39536337D01*
X26249035Y-39322171D01*
X26249034Y-39322169D01*
X26113494Y-39128597D01*
X25946402Y-38961505D01*
X25752830Y-38825965D01*
X25752828Y-38825964D01*
X25638174Y-38772500D01*
X25538663Y-38726097D01*
X25538659Y-38726096D01*
X25538655Y-38726094D01*
X25310413Y-38664938D01*
X25310403Y-38664936D01*
X25133966Y-38649500D01*
X24766034Y-38649500D01*
X24589596Y-38664936D01*
X24589586Y-38664938D01*
X24361344Y-38726094D01*
X24361335Y-38726098D01*
X24147171Y-38825964D01*
X24147169Y-38825965D01*
X23953597Y-38961505D01*
X23786506Y-39128597D01*
X23786501Y-39128604D01*
X23650967Y-39322165D01*
X23650965Y-39322169D01*
X23551098Y-39536335D01*
X23551094Y-39536344D01*
X23489938Y-39764586D01*
X23489936Y-39764596D01*
X23469341Y-39999999D01*
X23469341Y-40000000D01*
X23489936Y-40235403D01*
X23489938Y-40235413D01*
X23551094Y-40463655D01*
X23551096Y-40463659D01*
X23551097Y-40463663D01*
X23583063Y-40532214D01*
X23650964Y-40677828D01*
X23650965Y-40677830D01*
X23786505Y-40871402D01*
X23953597Y-41038494D01*
X24110595Y-41148425D01*
X24154220Y-41203002D01*
X24161414Y-41272500D01*
X24129891Y-41334855D01*
X24110595Y-41351575D01*
X23953597Y-41461505D01*
X23786506Y-41628597D01*
X23786501Y-41628604D01*
X23650967Y-41822165D01*
X23650965Y-41822169D01*
X23551098Y-42036335D01*
X23551094Y-42036344D01*
X23489938Y-42264586D01*
X23489936Y-42264596D01*
X23469341Y-42499999D01*
X23469341Y-42500000D01*
X15000500Y-42500000D01*
X15000500Y-37000000D01*
X93594540Y-37000000D01*
X93614326Y-37188256D01*
X93614327Y-37188259D01*
X93672818Y-37368277D01*
X93672821Y-37368284D01*
X93767467Y-37532216D01*
X93894129Y-37672888D01*
X94047265Y-37784148D01*
X94047270Y-37784151D01*
X94220192Y-37861142D01*
X94220197Y-37861144D01*
X94405354Y-37900500D01*
X94405355Y-37900500D01*
X94594644Y-37900500D01*
X94594646Y-37900500D01*
X94779803Y-37861144D01*
X94952730Y-37784151D01*
X95105871Y-37672888D01*
X95232533Y-37532216D01*
X95327179Y-37368284D01*
X95385674Y-37188256D01*
X95405460Y-37000000D01*
X95385674Y-36811744D01*
X95327179Y-36631716D01*
X95251133Y-36500000D01*
X96594540Y-36500000D01*
X96614326Y-36688256D01*
X96614327Y-36688259D01*
X96672818Y-36868277D01*
X96672821Y-36868284D01*
X96767467Y-37032216D01*
X96894129Y-37172888D01*
X97047265Y-37284148D01*
X97047270Y-37284151D01*
X97220192Y-37361142D01*
X97220197Y-37361144D01*
X97405354Y-37400500D01*
X97405355Y-37400500D01*
X97594644Y-37400500D01*
X97594646Y-37400500D01*
X97779803Y-37361144D01*
X97952730Y-37284151D01*
X98105871Y-37172888D01*
X98232533Y-37032216D01*
X98327179Y-36868284D01*
X98385674Y-36688256D01*
X98405460Y-36500000D01*
X98385674Y-36311744D01*
X98327179Y-36131716D01*
X98232533Y-35967784D01*
X98105871Y-35827112D01*
X98105870Y-35827111D01*
X97952734Y-35715851D01*
X97952729Y-35715848D01*
X97779807Y-35638857D01*
X97779802Y-35638855D01*
X97634001Y-35607865D01*
X97594646Y-35599500D01*
X97405354Y-35599500D01*
X97372897Y-35606398D01*
X97220197Y-35638855D01*
X97220192Y-35638857D01*
X97047270Y-35715848D01*
X97047265Y-35715851D01*
X96894129Y-35827111D01*
X96767466Y-35967785D01*
X96672821Y-36131715D01*
X96672818Y-36131722D01*
X96642154Y-36226098D01*
X96614326Y-36311744D01*
X96594540Y-36500000D01*
X95251133Y-36500000D01*
X95232533Y-36467784D01*
X95105871Y-36327112D01*
X95105870Y-36327111D01*
X94952734Y-36215851D01*
X94952729Y-36215848D01*
X94779807Y-36138857D01*
X94779802Y-36138855D01*
X94634001Y-36107865D01*
X94594646Y-36099500D01*
X94405354Y-36099500D01*
X94372897Y-36106398D01*
X94220197Y-36138855D01*
X94220192Y-36138857D01*
X94047270Y-36215848D01*
X94047265Y-36215851D01*
X93894129Y-36327111D01*
X93767466Y-36467785D01*
X93672821Y-36631715D01*
X93672818Y-36631722D01*
X93614327Y-36811740D01*
X93614326Y-36811744D01*
X93594540Y-37000000D01*
X15000500Y-37000000D01*
X15000500Y-27500000D01*
X88594540Y-27500000D01*
X88614326Y-27688256D01*
X88614327Y-27688259D01*
X88672818Y-27868277D01*
X88672821Y-27868284D01*
X88767467Y-28032216D01*
X88863487Y-28138857D01*
X88894129Y-28172888D01*
X89047265Y-28284148D01*
X89047270Y-28284151D01*
X89220192Y-28361142D01*
X89220197Y-28361144D01*
X89405354Y-28400500D01*
X89405355Y-28400500D01*
X89594644Y-28400500D01*
X89594646Y-28400500D01*
X89779803Y-28361144D01*
X89929098Y-28294672D01*
X89998344Y-28285387D01*
X90061621Y-28315015D01*
X90098835Y-28374150D01*
X90102852Y-28420913D01*
X90094540Y-28500000D01*
X90114326Y-28688256D01*
X90114327Y-28688259D01*
X90172818Y-28868277D01*
X90172821Y-28868284D01*
X90267467Y-29032216D01*
X90357063Y-29131722D01*
X90394129Y-29172888D01*
X90547265Y-29284148D01*
X90547270Y-29284151D01*
X90720192Y-29361142D01*
X90720197Y-29361144D01*
X90905354Y-29400500D01*
X90905355Y-29400500D01*
X91094644Y-29400500D01*
X91094646Y-29400500D01*
X91279803Y-29361144D01*
X91452730Y-29284151D01*
X91605871Y-29172888D01*
X91732533Y-29032216D01*
X91751133Y-29000000D01*
X96594540Y-29000000D01*
X96614326Y-29188256D01*
X96614327Y-29188259D01*
X96672818Y-29368277D01*
X96672821Y-29368284D01*
X96767467Y-29532216D01*
X96894129Y-29672888D01*
X97047265Y-29784148D01*
X97047270Y-29784151D01*
X97220192Y-29861142D01*
X97220197Y-29861144D01*
X97405354Y-29900500D01*
X97405355Y-29900500D01*
X97594644Y-29900500D01*
X97594646Y-29900500D01*
X97779803Y-29861144D01*
X97952730Y-29784151D01*
X98105871Y-29672888D01*
X98232533Y-29532216D01*
X98251133Y-29500000D01*
X100594540Y-29500000D01*
X100614326Y-29688256D01*
X100614327Y-29688259D01*
X100672818Y-29868277D01*
X100672821Y-29868284D01*
X100767467Y-30032216D01*
X100894129Y-30172888D01*
X101047265Y-30284148D01*
X101047270Y-30284151D01*
X101220192Y-30361142D01*
X101220197Y-30361144D01*
X101405354Y-30400500D01*
X101405355Y-30400500D01*
X101594644Y-30400500D01*
X101594646Y-30400500D01*
X101779803Y-30361144D01*
X101952730Y-30284151D01*
X102105871Y-30172888D01*
X102232533Y-30032216D01*
X102327179Y-29868284D01*
X102385674Y-29688256D01*
X102405460Y-29500000D01*
X102385674Y-29311744D01*
X102327179Y-29131716D01*
X102232533Y-28967784D01*
X102105871Y-28827112D01*
X102084719Y-28811744D01*
X101952734Y-28715851D01*
X101952729Y-28715848D01*
X101779807Y-28638857D01*
X101779802Y-28638855D01*
X101634001Y-28607865D01*
X101594646Y-28599500D01*
X101405354Y-28599500D01*
X101372897Y-28606398D01*
X101220197Y-28638855D01*
X101220192Y-28638857D01*
X101047270Y-28715848D01*
X101047265Y-28715851D01*
X100894129Y-28827111D01*
X100767466Y-28967785D01*
X100672821Y-29131715D01*
X100672818Y-29131722D01*
X100614327Y-29311740D01*
X100614326Y-29311744D01*
X100594540Y-29500000D01*
X98251133Y-29500000D01*
X98327179Y-29368284D01*
X98385674Y-29188256D01*
X98405460Y-29000000D01*
X98385674Y-28811744D01*
X98327179Y-28631716D01*
X98232533Y-28467784D01*
X98105871Y-28327112D01*
X98084719Y-28311744D01*
X97952734Y-28215851D01*
X97952729Y-28215848D01*
X97779807Y-28138857D01*
X97779802Y-28138855D01*
X97634001Y-28107865D01*
X97594646Y-28099500D01*
X97405354Y-28099500D01*
X97372897Y-28106398D01*
X97220197Y-28138855D01*
X97220192Y-28138857D01*
X97047270Y-28215848D01*
X97047265Y-28215851D01*
X96894129Y-28327111D01*
X96767466Y-28467785D01*
X96672821Y-28631715D01*
X96672818Y-28631722D01*
X96614327Y-28811740D01*
X96614326Y-28811744D01*
X96594540Y-29000000D01*
X91751133Y-29000000D01*
X91827179Y-28868284D01*
X91885674Y-28688256D01*
X91905460Y-28500000D01*
X91885674Y-28311744D01*
X91827179Y-28131716D01*
X91751133Y-28000000D01*
X94094540Y-28000000D01*
X94114326Y-28188256D01*
X94114327Y-28188259D01*
X94172818Y-28368277D01*
X94172821Y-28368284D01*
X94267467Y-28532216D01*
X94363487Y-28638857D01*
X94394129Y-28672888D01*
X94547265Y-28784148D01*
X94547270Y-28784151D01*
X94720192Y-28861142D01*
X94720197Y-28861144D01*
X94905354Y-28900500D01*
X94905355Y-28900500D01*
X95094644Y-28900500D01*
X95094646Y-28900500D01*
X95279803Y-28861144D01*
X95452730Y-28784151D01*
X95605871Y-28672888D01*
X95732533Y-28532216D01*
X95827179Y-28368284D01*
X95885674Y-28188256D01*
X95905460Y-28000000D01*
X95885674Y-27811744D01*
X95827179Y-27631716D01*
X95751133Y-27500000D01*
X104094540Y-27500000D01*
X104114326Y-27688256D01*
X104114327Y-27688259D01*
X104172818Y-27868277D01*
X104172821Y-27868284D01*
X104267467Y-28032216D01*
X104363487Y-28138857D01*
X104394129Y-28172888D01*
X104547265Y-28284148D01*
X104547270Y-28284151D01*
X104720192Y-28361142D01*
X104720197Y-28361144D01*
X104905354Y-28400500D01*
X104905355Y-28400500D01*
X105094644Y-28400500D01*
X105094646Y-28400500D01*
X105279803Y-28361144D01*
X105452730Y-28284151D01*
X105605871Y-28172888D01*
X105732533Y-28032216D01*
X105827179Y-27868284D01*
X105885674Y-27688256D01*
X105905460Y-27500000D01*
X105885674Y-27311744D01*
X105827179Y-27131716D01*
X105732533Y-26967784D01*
X105605871Y-26827112D01*
X105605870Y-26827111D01*
X105452734Y-26715851D01*
X105452729Y-26715848D01*
X105279807Y-26638857D01*
X105279802Y-26638855D01*
X105134001Y-26607865D01*
X105094646Y-26599500D01*
X104905354Y-26599500D01*
X104872897Y-26606398D01*
X104720197Y-26638855D01*
X104720192Y-26638857D01*
X104547270Y-26715848D01*
X104547265Y-26715851D01*
X104394129Y-26827111D01*
X104267466Y-26967785D01*
X104172821Y-27131715D01*
X104172818Y-27131722D01*
X104114327Y-27311740D01*
X104114326Y-27311744D01*
X104094540Y-27500000D01*
X95751133Y-27500000D01*
X95732533Y-27467784D01*
X95605871Y-27327112D01*
X95584719Y-27311744D01*
X95452734Y-27215851D01*
X95452729Y-27215848D01*
X95279807Y-27138857D01*
X95279802Y-27138855D01*
X95134001Y-27107865D01*
X95094646Y-27099500D01*
X94905354Y-27099500D01*
X94872897Y-27106398D01*
X94720197Y-27138855D01*
X94720192Y-27138857D01*
X94547270Y-27215848D01*
X94547265Y-27215851D01*
X94394129Y-27327111D01*
X94267466Y-27467785D01*
X94172821Y-27631715D01*
X94172818Y-27631722D01*
X94114327Y-27811740D01*
X94114326Y-27811744D01*
X94094540Y-28000000D01*
X91751133Y-28000000D01*
X91732533Y-27967784D01*
X91605871Y-27827112D01*
X91584719Y-27811744D01*
X91452734Y-27715851D01*
X91452729Y-27715848D01*
X91279807Y-27638857D01*
X91279802Y-27638855D01*
X91134001Y-27607865D01*
X91094646Y-27599500D01*
X90905354Y-27599500D01*
X90872897Y-27606398D01*
X90720197Y-27638855D01*
X90720192Y-27638857D01*
X90570904Y-27705326D01*
X90501654Y-27714611D01*
X90438377Y-27684983D01*
X90401164Y-27625848D01*
X90397147Y-27579090D01*
X90405460Y-27500000D01*
X90385674Y-27311744D01*
X90327179Y-27131716D01*
X90232533Y-26967784D01*
X90105871Y-26827112D01*
X90105870Y-26827111D01*
X89952734Y-26715851D01*
X89952729Y-26715848D01*
X89779807Y-26638857D01*
X89779802Y-26638855D01*
X89634001Y-26607865D01*
X89594646Y-26599500D01*
X89405354Y-26599500D01*
X89372897Y-26606398D01*
X89220197Y-26638855D01*
X89220192Y-26638857D01*
X89047270Y-26715848D01*
X89047265Y-26715851D01*
X88894129Y-26827111D01*
X88767466Y-26967785D01*
X88672821Y-27131715D01*
X88672818Y-27131722D01*
X88614327Y-27311740D01*
X88614326Y-27311744D01*
X88594540Y-27500000D01*
X15000500Y-27500000D01*
X15000500Y-25133966D01*
X31149500Y-25133966D01*
X31164936Y-25310403D01*
X31164938Y-25310413D01*
X31226094Y-25538655D01*
X31226096Y-25538659D01*
X31226097Y-25538663D01*
X31250000Y-25589922D01*
X31325964Y-25752828D01*
X31325965Y-25752830D01*
X31461505Y-25946402D01*
X31628597Y-26113493D01*
X31628599Y-26113495D01*
X31725384Y-26181265D01*
X31822165Y-26249032D01*
X31822167Y-26249033D01*
X31822170Y-26249035D01*
X32036337Y-26348903D01*
X32264592Y-26410063D01*
X32452918Y-26426539D01*
X32499999Y-26430659D01*
X32500000Y-26430659D01*
X32500001Y-26430659D01*
X32539234Y-26427226D01*
X32735408Y-26410063D01*
X32963663Y-26348903D01*
X33177829Y-26249035D01*
X33371401Y-26113495D01*
X33538495Y-25946401D01*
X33648426Y-25789401D01*
X33703001Y-25745778D01*
X33772500Y-25738584D01*
X33834855Y-25770106D01*
X33851571Y-25789398D01*
X33895962Y-25852795D01*
X33961506Y-25946403D01*
X34128597Y-26113493D01*
X34128599Y-26113495D01*
X34225384Y-26181265D01*
X34322165Y-26249032D01*
X34322167Y-26249033D01*
X34322170Y-26249035D01*
X34536337Y-26348903D01*
X34764592Y-26410063D01*
X34952918Y-26426539D01*
X34999999Y-26430659D01*
X35000000Y-26430659D01*
X35000001Y-26430659D01*
X35039234Y-26427226D01*
X35235408Y-26410063D01*
X35463663Y-26348903D01*
X35677829Y-26249035D01*
X35871401Y-26113495D01*
X36038495Y-25946401D01*
X36174035Y-25752829D01*
X36273903Y-25538663D01*
X36335063Y-25310408D01*
X36350500Y-25133966D01*
X46149500Y-25133966D01*
X46164936Y-25310403D01*
X46164938Y-25310413D01*
X46226094Y-25538655D01*
X46226096Y-25538659D01*
X46226097Y-25538663D01*
X46250000Y-25589922D01*
X46325964Y-25752828D01*
X46325965Y-25752830D01*
X46461505Y-25946402D01*
X46628597Y-26113493D01*
X46628599Y-26113495D01*
X46725384Y-26181265D01*
X46822165Y-26249032D01*
X46822167Y-26249033D01*
X46822170Y-26249035D01*
X47036337Y-26348903D01*
X47264592Y-26410063D01*
X47452918Y-26426539D01*
X47499999Y-26430659D01*
X47500000Y-26430659D01*
X47500001Y-26430659D01*
X47539234Y-26427226D01*
X47735408Y-26410063D01*
X47963663Y-26348903D01*
X48177829Y-26249035D01*
X48371401Y-26113495D01*
X48538495Y-25946401D01*
X48648426Y-25789401D01*
X48703001Y-25745778D01*
X48772500Y-25738584D01*
X48834855Y-25770106D01*
X48851571Y-25789398D01*
X48895962Y-25852795D01*
X48961506Y-25946403D01*
X49128597Y-26113493D01*
X49128599Y-26113495D01*
X49225384Y-26181265D01*
X49322165Y-26249032D01*
X49322167Y-26249033D01*
X49322170Y-26249035D01*
X49536337Y-26348903D01*
X49764592Y-26410063D01*
X49952918Y-26426539D01*
X49999999Y-26430659D01*
X50000000Y-26430659D01*
X50000001Y-26430659D01*
X50039234Y-26427226D01*
X50235408Y-26410063D01*
X50463663Y-26348903D01*
X50677829Y-26249035D01*
X50871401Y-26113495D01*
X51038495Y-25946401D01*
X51174035Y-25752829D01*
X51273903Y-25538663D01*
X51335063Y-25310408D01*
X51348313Y-25158966D01*
X67399500Y-25158966D01*
X67414936Y-25335403D01*
X67414938Y-25335413D01*
X67476094Y-25563655D01*
X67476096Y-25563659D01*
X67476097Y-25563663D01*
X67488342Y-25589922D01*
X67575964Y-25777828D01*
X67575965Y-25777830D01*
X67711505Y-25971402D01*
X67853597Y-26113493D01*
X67878599Y-26138495D01*
X67921675Y-26168657D01*
X68072165Y-26274032D01*
X68072167Y-26274033D01*
X68072170Y-26274035D01*
X68286337Y-26373903D01*
X68514592Y-26435063D01*
X68691034Y-26450500D01*
X68749999Y-26455659D01*
X68750000Y-26455659D01*
X68750001Y-26455659D01*
X68808966Y-26450500D01*
X68985408Y-26435063D01*
X69213663Y-26373903D01*
X69427829Y-26274035D01*
X69621401Y-26138495D01*
X69768602Y-25991293D01*
X69829924Y-25957810D01*
X69899615Y-25962794D01*
X69955549Y-26004665D01*
X69961821Y-26013879D01*
X69965186Y-26019334D01*
X70057288Y-26168656D01*
X70181344Y-26292712D01*
X70330666Y-26384814D01*
X70497203Y-26439999D01*
X70599991Y-26450500D01*
X71900008Y-26450499D01*
X72002797Y-26439999D01*
X72169334Y-26384814D01*
X72318656Y-26292712D01*
X72442712Y-26168656D01*
X72534814Y-26019334D01*
X72589999Y-25852797D01*
X72600500Y-25750009D01*
X72600499Y-24500000D01*
X88094540Y-24500000D01*
X88114326Y-24688256D01*
X88114327Y-24688259D01*
X88172818Y-24868277D01*
X88172821Y-24868284D01*
X88267467Y-25032216D01*
X88381594Y-25158966D01*
X88394129Y-25172888D01*
X88547265Y-25284148D01*
X88547270Y-25284151D01*
X88720192Y-25361142D01*
X88720197Y-25361144D01*
X88905354Y-25400500D01*
X88905355Y-25400500D01*
X89094644Y-25400500D01*
X89094646Y-25400500D01*
X89279803Y-25361144D01*
X89452730Y-25284151D01*
X89605871Y-25172888D01*
X89732533Y-25032216D01*
X89827179Y-24868284D01*
X89885674Y-24688256D01*
X89905460Y-24500000D01*
X89885674Y-24311744D01*
X89827179Y-24131716D01*
X89732533Y-23967784D01*
X89605871Y-23827112D01*
X89605870Y-23827111D01*
X89452734Y-23715851D01*
X89452729Y-23715848D01*
X89279807Y-23638857D01*
X89279802Y-23638855D01*
X89131286Y-23607288D01*
X89094646Y-23599500D01*
X88905354Y-23599500D01*
X88872897Y-23606398D01*
X88720197Y-23638855D01*
X88720192Y-23638857D01*
X88547270Y-23715848D01*
X88547265Y-23715851D01*
X88394129Y-23827111D01*
X88267466Y-23967785D01*
X88172821Y-24131715D01*
X88172818Y-24131722D01*
X88114327Y-24311740D01*
X88114326Y-24311744D01*
X88094540Y-24500000D01*
X72600499Y-24500000D01*
X72600499Y-24149992D01*
X72589999Y-24047203D01*
X72534814Y-23880666D01*
X72442712Y-23731344D01*
X72318656Y-23607288D01*
X72240313Y-23558966D01*
X92399500Y-23558966D01*
X92414936Y-23735403D01*
X92414938Y-23735413D01*
X92476094Y-23963655D01*
X92476096Y-23963659D01*
X92476097Y-23963663D01*
X92508063Y-24032214D01*
X92575964Y-24177828D01*
X92575965Y-24177830D01*
X92711505Y-24371402D01*
X92840104Y-24500000D01*
X92878599Y-24538495D01*
X92951573Y-24589592D01*
X93072165Y-24674032D01*
X93072167Y-24674033D01*
X93072170Y-24674035D01*
X93286337Y-24773903D01*
X93514592Y-24835063D01*
X93702918Y-24851539D01*
X93749999Y-24855659D01*
X93750000Y-24855659D01*
X93750001Y-24855659D01*
X93789234Y-24852226D01*
X93985408Y-24835063D01*
X94213663Y-24773903D01*
X94427829Y-24674035D01*
X94621401Y-24538495D01*
X94788495Y-24371401D01*
X94924035Y-24177829D01*
X95023903Y-23963663D01*
X95085063Y-23735408D01*
X95100500Y-23558966D01*
X95100500Y-23500000D01*
X104094540Y-23500000D01*
X104114326Y-23688256D01*
X104114327Y-23688259D01*
X104172818Y-23868277D01*
X104172821Y-23868284D01*
X104267467Y-24032216D01*
X104373513Y-24149992D01*
X104394129Y-24172888D01*
X104547265Y-24284148D01*
X104547270Y-24284151D01*
X104720192Y-24361142D01*
X104720197Y-24361144D01*
X104905354Y-24400500D01*
X104905355Y-24400500D01*
X105094644Y-24400500D01*
X105094646Y-24400500D01*
X105279803Y-24361144D01*
X105452730Y-24284151D01*
X105605871Y-24172888D01*
X105732533Y-24032216D01*
X105827179Y-23868284D01*
X105885674Y-23688256D01*
X105905460Y-23500000D01*
X105885674Y-23311744D01*
X105827179Y-23131716D01*
X105732533Y-22967784D01*
X105605871Y-22827112D01*
X105605870Y-22827111D01*
X105452734Y-22715851D01*
X105452729Y-22715848D01*
X105279807Y-22638857D01*
X105279802Y-22638855D01*
X105134001Y-22607865D01*
X105094646Y-22599500D01*
X104905354Y-22599500D01*
X104872897Y-22606398D01*
X104720197Y-22638855D01*
X104720192Y-22638857D01*
X104547270Y-22715848D01*
X104547265Y-22715851D01*
X104394129Y-22827111D01*
X104267466Y-22967785D01*
X104172821Y-23131715D01*
X104172818Y-23131722D01*
X104114327Y-23311740D01*
X104114326Y-23311744D01*
X104094540Y-23500000D01*
X95100500Y-23500000D01*
X95100500Y-23141034D01*
X95085063Y-22964592D01*
X95023903Y-22736337D01*
X94924035Y-22522171D01*
X94788495Y-22328599D01*
X94788494Y-22328597D01*
X94621402Y-22161506D01*
X94621395Y-22161501D01*
X94427834Y-22025967D01*
X94427830Y-22025965D01*
X94427828Y-22025964D01*
X94213663Y-21926097D01*
X94213659Y-21926096D01*
X94213655Y-21926094D01*
X93985413Y-21864938D01*
X93985403Y-21864936D01*
X93750001Y-21844341D01*
X93749999Y-21844341D01*
X93514596Y-21864936D01*
X93514586Y-21864938D01*
X93286344Y-21926094D01*
X93286335Y-21926098D01*
X93072171Y-22025964D01*
X93072169Y-22025965D01*
X92878597Y-22161505D01*
X92711505Y-22328597D01*
X92575965Y-22522169D01*
X92575964Y-22522171D01*
X92476098Y-22736335D01*
X92476094Y-22736344D01*
X92414938Y-22964586D01*
X92414936Y-22964596D01*
X92399500Y-23141034D01*
X92399500Y-23558966D01*
X72240313Y-23558966D01*
X72225888Y-23550069D01*
X72169336Y-23515187D01*
X72169331Y-23515185D01*
X72167862Y-23514698D01*
X72002797Y-23460001D01*
X72002795Y-23460000D01*
X71900010Y-23449500D01*
X70599998Y-23449500D01*
X70599981Y-23449501D01*
X70497203Y-23460000D01*
X70497200Y-23460001D01*
X70330668Y-23515185D01*
X70330663Y-23515187D01*
X70181342Y-23607289D01*
X70057289Y-23731342D01*
X69961821Y-23886121D01*
X69909873Y-23932845D01*
X69840910Y-23944068D01*
X69776828Y-23916224D01*
X69768601Y-23908705D01*
X69621402Y-23761506D01*
X69621395Y-23761501D01*
X69427834Y-23625967D01*
X69427830Y-23625965D01*
X69387777Y-23607288D01*
X69213663Y-23526097D01*
X69213659Y-23526096D01*
X69213655Y-23526094D01*
X68985413Y-23464938D01*
X68985403Y-23464936D01*
X68750001Y-23444341D01*
X68749999Y-23444341D01*
X68514596Y-23464936D01*
X68514586Y-23464938D01*
X68286344Y-23526094D01*
X68286335Y-23526098D01*
X68072171Y-23625964D01*
X68072169Y-23625965D01*
X67878597Y-23761505D01*
X67711505Y-23928597D01*
X67575965Y-24122169D01*
X67575964Y-24122171D01*
X67476098Y-24336335D01*
X67476094Y-24336344D01*
X67414938Y-24564586D01*
X67414936Y-24564596D01*
X67399500Y-24741034D01*
X67399500Y-25158966D01*
X51348313Y-25158966D01*
X51350500Y-25133966D01*
X51350500Y-24766034D01*
X51335063Y-24589592D01*
X51273903Y-24361337D01*
X51174035Y-24147171D01*
X51163214Y-24131716D01*
X51038494Y-23953597D01*
X50871402Y-23786506D01*
X50871395Y-23786501D01*
X50677834Y-23650967D01*
X50677830Y-23650965D01*
X50651860Y-23638855D01*
X50463663Y-23551097D01*
X50463659Y-23551096D01*
X50463655Y-23551094D01*
X50235413Y-23489938D01*
X50235403Y-23489936D01*
X50000001Y-23469341D01*
X49999999Y-23469341D01*
X49764596Y-23489936D01*
X49764586Y-23489938D01*
X49536344Y-23551094D01*
X49536335Y-23551098D01*
X49322171Y-23650964D01*
X49322169Y-23650965D01*
X49128597Y-23786505D01*
X48961505Y-23953597D01*
X48851575Y-24110595D01*
X48796998Y-24154220D01*
X48727500Y-24161414D01*
X48665145Y-24129891D01*
X48648425Y-24110595D01*
X48538494Y-23953597D01*
X48371402Y-23786506D01*
X48371395Y-23786501D01*
X48177834Y-23650967D01*
X48177830Y-23650965D01*
X48151860Y-23638855D01*
X47963663Y-23551097D01*
X47963659Y-23551096D01*
X47963655Y-23551094D01*
X47735413Y-23489938D01*
X47735403Y-23489936D01*
X47500001Y-23469341D01*
X47499999Y-23469341D01*
X47264596Y-23489936D01*
X47264586Y-23489938D01*
X47036344Y-23551094D01*
X47036335Y-23551098D01*
X46822171Y-23650964D01*
X46822169Y-23650965D01*
X46628597Y-23786505D01*
X46461505Y-23953597D01*
X46325965Y-24147169D01*
X46325964Y-24147171D01*
X46226098Y-24361335D01*
X46226094Y-24361344D01*
X46164938Y-24589586D01*
X46164936Y-24589596D01*
X46149500Y-24766034D01*
X46149500Y-25133966D01*
X36350500Y-25133966D01*
X36350500Y-24766034D01*
X36335063Y-24589592D01*
X36273903Y-24361337D01*
X36174035Y-24147171D01*
X36163214Y-24131716D01*
X36038494Y-23953597D01*
X35871402Y-23786506D01*
X35871395Y-23786501D01*
X35677834Y-23650967D01*
X35677830Y-23650965D01*
X35651860Y-23638855D01*
X35463663Y-23551097D01*
X35463659Y-23551096D01*
X35463655Y-23551094D01*
X35235413Y-23489938D01*
X35235403Y-23489936D01*
X35000001Y-23469341D01*
X34999999Y-23469341D01*
X34764596Y-23489936D01*
X34764586Y-23489938D01*
X34536344Y-23551094D01*
X34536335Y-23551098D01*
X34322171Y-23650964D01*
X34322169Y-23650965D01*
X34128597Y-23786505D01*
X33961505Y-23953597D01*
X33851575Y-24110595D01*
X33796998Y-24154220D01*
X33727500Y-24161414D01*
X33665145Y-24129891D01*
X33648425Y-24110595D01*
X33538494Y-23953597D01*
X33371402Y-23786506D01*
X33371395Y-23786501D01*
X33177834Y-23650967D01*
X33177830Y-23650965D01*
X33151860Y-23638855D01*
X32963663Y-23551097D01*
X32963659Y-23551096D01*
X32963655Y-23551094D01*
X32735413Y-23489938D01*
X32735403Y-23489936D01*
X32500001Y-23469341D01*
X32499999Y-23469341D01*
X32264596Y-23489936D01*
X32264586Y-23489938D01*
X32036344Y-23551094D01*
X32036335Y-23551098D01*
X31822171Y-23650964D01*
X31822169Y-23650965D01*
X31628597Y-23786505D01*
X31461505Y-23953597D01*
X31325965Y-24147169D01*
X31325964Y-24147171D01*
X31226098Y-24361335D01*
X31226094Y-24361344D01*
X31164938Y-24589586D01*
X31164936Y-24589596D01*
X31149500Y-24766034D01*
X31149500Y-25133966D01*
X15000500Y-25133966D01*
X15000500Y-20067763D01*
X18145787Y-20067763D01*
X18175413Y-20337013D01*
X18175415Y-20337024D01*
X18243926Y-20599082D01*
X18243928Y-20599088D01*
X18349870Y-20848390D01*
X18421998Y-20966575D01*
X18490979Y-21079605D01*
X18490986Y-21079615D01*
X18664253Y-21287819D01*
X18664259Y-21287824D01*
X18865998Y-21468582D01*
X19091910Y-21618044D01*
X19337176Y-21733020D01*
X19337183Y-21733022D01*
X19337185Y-21733023D01*
X19596557Y-21811057D01*
X19596564Y-21811058D01*
X19596569Y-21811060D01*
X19864561Y-21850500D01*
X19864566Y-21850500D01*
X20067636Y-21850500D01*
X20119133Y-21846730D01*
X20270156Y-21835677D01*
X20382758Y-21810593D01*
X20534546Y-21776782D01*
X20534548Y-21776781D01*
X20534553Y-21776780D01*
X20787558Y-21680014D01*
X21023777Y-21547441D01*
X21238177Y-21381888D01*
X21426186Y-21186881D01*
X21583799Y-20966579D01*
X21657787Y-20822669D01*
X21707649Y-20725690D01*
X21707651Y-20725684D01*
X21707656Y-20725675D01*
X21795118Y-20469305D01*
X21844319Y-20202933D01*
X21849259Y-20067763D01*
X108145787Y-20067763D01*
X108175413Y-20337013D01*
X108175415Y-20337024D01*
X108243926Y-20599082D01*
X108243928Y-20599088D01*
X108349870Y-20848390D01*
X108421998Y-20966575D01*
X108490979Y-21079605D01*
X108490986Y-21079615D01*
X108664253Y-21287819D01*
X108664259Y-21287824D01*
X108865998Y-21468582D01*
X109091910Y-21618044D01*
X109337176Y-21733020D01*
X109337183Y-21733022D01*
X109337185Y-21733023D01*
X109596557Y-21811057D01*
X109596564Y-21811058D01*
X109596569Y-21811060D01*
X109864561Y-21850500D01*
X109864566Y-21850500D01*
X110067636Y-21850500D01*
X110119133Y-21846730D01*
X110270156Y-21835677D01*
X110382758Y-21810593D01*
X110534546Y-21776782D01*
X110534548Y-21776781D01*
X110534553Y-21776780D01*
X110787558Y-21680014D01*
X111023777Y-21547441D01*
X111238177Y-21381888D01*
X111426186Y-21186881D01*
X111583799Y-20966579D01*
X111657787Y-20822669D01*
X111707649Y-20725690D01*
X111707651Y-20725684D01*
X111707656Y-20725675D01*
X111795118Y-20469305D01*
X111844319Y-20202933D01*
X111854212Y-19932235D01*
X111824586Y-19662982D01*
X111756072Y-19400912D01*
X111650130Y-19151610D01*
X111509018Y-18920390D01*
X111419747Y-18813119D01*
X111335746Y-18712180D01*
X111335740Y-18712175D01*
X111134002Y-18531418D01*
X110908092Y-18381957D01*
X110908090Y-18381956D01*
X110662824Y-18266980D01*
X110662819Y-18266978D01*
X110662814Y-18266976D01*
X110403442Y-18188942D01*
X110403428Y-18188939D01*
X110287791Y-18171921D01*
X110135439Y-18149500D01*
X109932369Y-18149500D01*
X109932364Y-18149500D01*
X109729844Y-18164323D01*
X109729831Y-18164325D01*
X109465453Y-18223217D01*
X109465446Y-18223220D01*
X109212439Y-18319987D01*
X108976226Y-18452557D01*
X108761822Y-18618112D01*
X108573822Y-18813109D01*
X108573816Y-18813116D01*
X108416202Y-19033419D01*
X108416199Y-19033424D01*
X108292350Y-19274309D01*
X108292343Y-19274327D01*
X108204884Y-19530685D01*
X108204881Y-19530699D01*
X108155681Y-19797068D01*
X108155680Y-19797075D01*
X108145787Y-20067763D01*
X21849259Y-20067763D01*
X21854212Y-19932235D01*
X21824586Y-19662982D01*
X21756072Y-19400912D01*
X21650130Y-19151610D01*
X21509018Y-18920390D01*
X21419747Y-18813119D01*
X21335746Y-18712180D01*
X21335740Y-18712175D01*
X21134002Y-18531418D01*
X20908092Y-18381957D01*
X20908090Y-18381956D01*
X20662824Y-18266980D01*
X20662819Y-18266978D01*
X20662814Y-18266976D01*
X20403442Y-18188942D01*
X20403428Y-18188939D01*
X20287791Y-18171921D01*
X20135439Y-18149500D01*
X19932369Y-18149500D01*
X19932364Y-18149500D01*
X19729844Y-18164323D01*
X19729831Y-18164325D01*
X19465453Y-18223217D01*
X19465446Y-18223220D01*
X19212439Y-18319987D01*
X18976226Y-18452557D01*
X18761822Y-18618112D01*
X18573822Y-18813109D01*
X18573816Y-18813116D01*
X18416202Y-19033419D01*
X18416199Y-19033424D01*
X18292350Y-19274309D01*
X18292343Y-19274327D01*
X18204884Y-19530685D01*
X18204881Y-19530699D01*
X18155681Y-19797068D01*
X18155680Y-19797075D01*
X18145787Y-20067763D01*
X15000500Y-20067763D01*
X15000500Y-15124500D01*
X15020185Y-15057461D01*
X15072989Y-15011706D01*
X15124500Y-15000500D01*
X114875500Y-15000500D01*
X114942539Y-15020185D01*
G37*
%TD.AperFunction*%
%TD*%
M02*
