%TF.GenerationSoftware,KiCad,Pcbnew,7.0.8*%
%TF.CreationDate,2024-07-04T02:39:20-07:00*%
%TF.ProjectId,go-kart-esc,676f2d6b-6172-4742-9d65-73632e6b6963,rev?*%
%TF.SameCoordinates,Original*%
%TF.FileFunction,Legend,Bot*%
%TF.FilePolarity,Positive*%
%FSLAX46Y46*%
G04 Gerber Fmt 4.6, Leading zero omitted, Abs format (unit mm)*
G04 Created by KiCad (PCBNEW 7.0.8) date 2024-07-04 02:39:20*
%MOMM*%
%LPD*%
G01*
G04 APERTURE LIST*
%ADD10C,0.150000*%
%ADD11C,0.120000*%
G04 APERTURE END LIST*
D10*
X43499047Y-78519580D02*
X43546666Y-78567200D01*
X43546666Y-78567200D02*
X43689523Y-78614819D01*
X43689523Y-78614819D02*
X43784761Y-78614819D01*
X43784761Y-78614819D02*
X43927618Y-78567200D01*
X43927618Y-78567200D02*
X44022856Y-78471961D01*
X44022856Y-78471961D02*
X44070475Y-78376723D01*
X44070475Y-78376723D02*
X44118094Y-78186247D01*
X44118094Y-78186247D02*
X44118094Y-78043390D01*
X44118094Y-78043390D02*
X44070475Y-77852914D01*
X44070475Y-77852914D02*
X44022856Y-77757676D01*
X44022856Y-77757676D02*
X43927618Y-77662438D01*
X43927618Y-77662438D02*
X43784761Y-77614819D01*
X43784761Y-77614819D02*
X43689523Y-77614819D01*
X43689523Y-77614819D02*
X43546666Y-77662438D01*
X43546666Y-77662438D02*
X43499047Y-77710057D01*
X43165713Y-77614819D02*
X42546666Y-77614819D01*
X42546666Y-77614819D02*
X42879999Y-77995771D01*
X42879999Y-77995771D02*
X42737142Y-77995771D01*
X42737142Y-77995771D02*
X42641904Y-78043390D01*
X42641904Y-78043390D02*
X42594285Y-78091009D01*
X42594285Y-78091009D02*
X42546666Y-78186247D01*
X42546666Y-78186247D02*
X42546666Y-78424342D01*
X42546666Y-78424342D02*
X42594285Y-78519580D01*
X42594285Y-78519580D02*
X42641904Y-78567200D01*
X42641904Y-78567200D02*
X42737142Y-78614819D01*
X42737142Y-78614819D02*
X43022856Y-78614819D01*
X43022856Y-78614819D02*
X43118094Y-78567200D01*
X43118094Y-78567200D02*
X43165713Y-78519580D01*
X41927618Y-77614819D02*
X41832380Y-77614819D01*
X41832380Y-77614819D02*
X41737142Y-77662438D01*
X41737142Y-77662438D02*
X41689523Y-77710057D01*
X41689523Y-77710057D02*
X41641904Y-77805295D01*
X41641904Y-77805295D02*
X41594285Y-77995771D01*
X41594285Y-77995771D02*
X41594285Y-78233866D01*
X41594285Y-78233866D02*
X41641904Y-78424342D01*
X41641904Y-78424342D02*
X41689523Y-78519580D01*
X41689523Y-78519580D02*
X41737142Y-78567200D01*
X41737142Y-78567200D02*
X41832380Y-78614819D01*
X41832380Y-78614819D02*
X41927618Y-78614819D01*
X41927618Y-78614819D02*
X42022856Y-78567200D01*
X42022856Y-78567200D02*
X42070475Y-78519580D01*
X42070475Y-78519580D02*
X42118094Y-78424342D01*
X42118094Y-78424342D02*
X42165713Y-78233866D01*
X42165713Y-78233866D02*
X42165713Y-77995771D01*
X42165713Y-77995771D02*
X42118094Y-77805295D01*
X42118094Y-77805295D02*
X42070475Y-77710057D01*
X42070475Y-77710057D02*
X42022856Y-77662438D01*
X42022856Y-77662438D02*
X41927618Y-77614819D01*
X40641904Y-78614819D02*
X41213332Y-78614819D01*
X40927618Y-78614819D02*
X40927618Y-77614819D01*
X40927618Y-77614819D02*
X41022856Y-77757676D01*
X41022856Y-77757676D02*
X41118094Y-77852914D01*
X41118094Y-77852914D02*
X41213332Y-77900533D01*
X53186547Y-80859580D02*
X53234166Y-80907200D01*
X53234166Y-80907200D02*
X53377023Y-80954819D01*
X53377023Y-80954819D02*
X53472261Y-80954819D01*
X53472261Y-80954819D02*
X53615118Y-80907200D01*
X53615118Y-80907200D02*
X53710356Y-80811961D01*
X53710356Y-80811961D02*
X53757975Y-80716723D01*
X53757975Y-80716723D02*
X53805594Y-80526247D01*
X53805594Y-80526247D02*
X53805594Y-80383390D01*
X53805594Y-80383390D02*
X53757975Y-80192914D01*
X53757975Y-80192914D02*
X53710356Y-80097676D01*
X53710356Y-80097676D02*
X53615118Y-80002438D01*
X53615118Y-80002438D02*
X53472261Y-79954819D01*
X53472261Y-79954819D02*
X53377023Y-79954819D01*
X53377023Y-79954819D02*
X53234166Y-80002438D01*
X53234166Y-80002438D02*
X53186547Y-80050057D01*
X52805594Y-80050057D02*
X52757975Y-80002438D01*
X52757975Y-80002438D02*
X52662737Y-79954819D01*
X52662737Y-79954819D02*
X52424642Y-79954819D01*
X52424642Y-79954819D02*
X52329404Y-80002438D01*
X52329404Y-80002438D02*
X52281785Y-80050057D01*
X52281785Y-80050057D02*
X52234166Y-80145295D01*
X52234166Y-80145295D02*
X52234166Y-80240533D01*
X52234166Y-80240533D02*
X52281785Y-80383390D01*
X52281785Y-80383390D02*
X52853213Y-80954819D01*
X52853213Y-80954819D02*
X52234166Y-80954819D01*
X51615118Y-79954819D02*
X51519880Y-79954819D01*
X51519880Y-79954819D02*
X51424642Y-80002438D01*
X51424642Y-80002438D02*
X51377023Y-80050057D01*
X51377023Y-80050057D02*
X51329404Y-80145295D01*
X51329404Y-80145295D02*
X51281785Y-80335771D01*
X51281785Y-80335771D02*
X51281785Y-80573866D01*
X51281785Y-80573866D02*
X51329404Y-80764342D01*
X51329404Y-80764342D02*
X51377023Y-80859580D01*
X51377023Y-80859580D02*
X51424642Y-80907200D01*
X51424642Y-80907200D02*
X51519880Y-80954819D01*
X51519880Y-80954819D02*
X51615118Y-80954819D01*
X51615118Y-80954819D02*
X51710356Y-80907200D01*
X51710356Y-80907200D02*
X51757975Y-80859580D01*
X51757975Y-80859580D02*
X51805594Y-80764342D01*
X51805594Y-80764342D02*
X51853213Y-80573866D01*
X51853213Y-80573866D02*
X51853213Y-80335771D01*
X51853213Y-80335771D02*
X51805594Y-80145295D01*
X51805594Y-80145295D02*
X51757975Y-80050057D01*
X51757975Y-80050057D02*
X51710356Y-80002438D01*
X51710356Y-80002438D02*
X51615118Y-79954819D01*
X50948451Y-79954819D02*
X50329404Y-79954819D01*
X50329404Y-79954819D02*
X50662737Y-80335771D01*
X50662737Y-80335771D02*
X50519880Y-80335771D01*
X50519880Y-80335771D02*
X50424642Y-80383390D01*
X50424642Y-80383390D02*
X50377023Y-80431009D01*
X50377023Y-80431009D02*
X50329404Y-80526247D01*
X50329404Y-80526247D02*
X50329404Y-80764342D01*
X50329404Y-80764342D02*
X50377023Y-80859580D01*
X50377023Y-80859580D02*
X50424642Y-80907200D01*
X50424642Y-80907200D02*
X50519880Y-80954819D01*
X50519880Y-80954819D02*
X50805594Y-80954819D01*
X50805594Y-80954819D02*
X50900832Y-80907200D01*
X50900832Y-80907200D02*
X50948451Y-80859580D01*
X25521547Y-64454819D02*
X25854880Y-63978628D01*
X26092975Y-64454819D02*
X26092975Y-63454819D01*
X26092975Y-63454819D02*
X25712023Y-63454819D01*
X25712023Y-63454819D02*
X25616785Y-63502438D01*
X25616785Y-63502438D02*
X25569166Y-63550057D01*
X25569166Y-63550057D02*
X25521547Y-63645295D01*
X25521547Y-63645295D02*
X25521547Y-63788152D01*
X25521547Y-63788152D02*
X25569166Y-63883390D01*
X25569166Y-63883390D02*
X25616785Y-63931009D01*
X25616785Y-63931009D02*
X25712023Y-63978628D01*
X25712023Y-63978628D02*
X26092975Y-63978628D01*
X25188213Y-63454819D02*
X24569166Y-63454819D01*
X24569166Y-63454819D02*
X24902499Y-63835771D01*
X24902499Y-63835771D02*
X24759642Y-63835771D01*
X24759642Y-63835771D02*
X24664404Y-63883390D01*
X24664404Y-63883390D02*
X24616785Y-63931009D01*
X24616785Y-63931009D02*
X24569166Y-64026247D01*
X24569166Y-64026247D02*
X24569166Y-64264342D01*
X24569166Y-64264342D02*
X24616785Y-64359580D01*
X24616785Y-64359580D02*
X24664404Y-64407200D01*
X24664404Y-64407200D02*
X24759642Y-64454819D01*
X24759642Y-64454819D02*
X25045356Y-64454819D01*
X25045356Y-64454819D02*
X25140594Y-64407200D01*
X25140594Y-64407200D02*
X25188213Y-64359580D01*
X23950118Y-63454819D02*
X23854880Y-63454819D01*
X23854880Y-63454819D02*
X23759642Y-63502438D01*
X23759642Y-63502438D02*
X23712023Y-63550057D01*
X23712023Y-63550057D02*
X23664404Y-63645295D01*
X23664404Y-63645295D02*
X23616785Y-63835771D01*
X23616785Y-63835771D02*
X23616785Y-64073866D01*
X23616785Y-64073866D02*
X23664404Y-64264342D01*
X23664404Y-64264342D02*
X23712023Y-64359580D01*
X23712023Y-64359580D02*
X23759642Y-64407200D01*
X23759642Y-64407200D02*
X23854880Y-64454819D01*
X23854880Y-64454819D02*
X23950118Y-64454819D01*
X23950118Y-64454819D02*
X24045356Y-64407200D01*
X24045356Y-64407200D02*
X24092975Y-64359580D01*
X24092975Y-64359580D02*
X24140594Y-64264342D01*
X24140594Y-64264342D02*
X24188213Y-64073866D01*
X24188213Y-64073866D02*
X24188213Y-63835771D01*
X24188213Y-63835771D02*
X24140594Y-63645295D01*
X24140594Y-63645295D02*
X24092975Y-63550057D01*
X24092975Y-63550057D02*
X24045356Y-63502438D01*
X24045356Y-63502438D02*
X23950118Y-63454819D01*
X22712023Y-63454819D02*
X23188213Y-63454819D01*
X23188213Y-63454819D02*
X23235832Y-63931009D01*
X23235832Y-63931009D02*
X23188213Y-63883390D01*
X23188213Y-63883390D02*
X23092975Y-63835771D01*
X23092975Y-63835771D02*
X22854880Y-63835771D01*
X22854880Y-63835771D02*
X22759642Y-63883390D01*
X22759642Y-63883390D02*
X22712023Y-63931009D01*
X22712023Y-63931009D02*
X22664404Y-64026247D01*
X22664404Y-64026247D02*
X22664404Y-64264342D01*
X22664404Y-64264342D02*
X22712023Y-64359580D01*
X22712023Y-64359580D02*
X22759642Y-64407200D01*
X22759642Y-64407200D02*
X22854880Y-64454819D01*
X22854880Y-64454819D02*
X23092975Y-64454819D01*
X23092975Y-64454819D02*
X23188213Y-64407200D01*
X23188213Y-64407200D02*
X23235832Y-64359580D01*
X46219047Y-86259819D02*
X46552380Y-85783628D01*
X46790475Y-86259819D02*
X46790475Y-85259819D01*
X46790475Y-85259819D02*
X46409523Y-85259819D01*
X46409523Y-85259819D02*
X46314285Y-85307438D01*
X46314285Y-85307438D02*
X46266666Y-85355057D01*
X46266666Y-85355057D02*
X46219047Y-85450295D01*
X46219047Y-85450295D02*
X46219047Y-85593152D01*
X46219047Y-85593152D02*
X46266666Y-85688390D01*
X46266666Y-85688390D02*
X46314285Y-85736009D01*
X46314285Y-85736009D02*
X46409523Y-85783628D01*
X46409523Y-85783628D02*
X46790475Y-85783628D01*
X45885713Y-85259819D02*
X45266666Y-85259819D01*
X45266666Y-85259819D02*
X45599999Y-85640771D01*
X45599999Y-85640771D02*
X45457142Y-85640771D01*
X45457142Y-85640771D02*
X45361904Y-85688390D01*
X45361904Y-85688390D02*
X45314285Y-85736009D01*
X45314285Y-85736009D02*
X45266666Y-85831247D01*
X45266666Y-85831247D02*
X45266666Y-86069342D01*
X45266666Y-86069342D02*
X45314285Y-86164580D01*
X45314285Y-86164580D02*
X45361904Y-86212200D01*
X45361904Y-86212200D02*
X45457142Y-86259819D01*
X45457142Y-86259819D02*
X45742856Y-86259819D01*
X45742856Y-86259819D02*
X45838094Y-86212200D01*
X45838094Y-86212200D02*
X45885713Y-86164580D01*
X44647618Y-85259819D02*
X44552380Y-85259819D01*
X44552380Y-85259819D02*
X44457142Y-85307438D01*
X44457142Y-85307438D02*
X44409523Y-85355057D01*
X44409523Y-85355057D02*
X44361904Y-85450295D01*
X44361904Y-85450295D02*
X44314285Y-85640771D01*
X44314285Y-85640771D02*
X44314285Y-85878866D01*
X44314285Y-85878866D02*
X44361904Y-86069342D01*
X44361904Y-86069342D02*
X44409523Y-86164580D01*
X44409523Y-86164580D02*
X44457142Y-86212200D01*
X44457142Y-86212200D02*
X44552380Y-86259819D01*
X44552380Y-86259819D02*
X44647618Y-86259819D01*
X44647618Y-86259819D02*
X44742856Y-86212200D01*
X44742856Y-86212200D02*
X44790475Y-86164580D01*
X44790475Y-86164580D02*
X44838094Y-86069342D01*
X44838094Y-86069342D02*
X44885713Y-85878866D01*
X44885713Y-85878866D02*
X44885713Y-85640771D01*
X44885713Y-85640771D02*
X44838094Y-85450295D01*
X44838094Y-85450295D02*
X44790475Y-85355057D01*
X44790475Y-85355057D02*
X44742856Y-85307438D01*
X44742856Y-85307438D02*
X44647618Y-85259819D01*
X43933332Y-85355057D02*
X43885713Y-85307438D01*
X43885713Y-85307438D02*
X43790475Y-85259819D01*
X43790475Y-85259819D02*
X43552380Y-85259819D01*
X43552380Y-85259819D02*
X43457142Y-85307438D01*
X43457142Y-85307438D02*
X43409523Y-85355057D01*
X43409523Y-85355057D02*
X43361904Y-85450295D01*
X43361904Y-85450295D02*
X43361904Y-85545533D01*
X43361904Y-85545533D02*
X43409523Y-85688390D01*
X43409523Y-85688390D02*
X43980951Y-86259819D01*
X43980951Y-86259819D02*
X43361904Y-86259819D01*
X73456547Y-90568032D02*
X73504166Y-90615652D01*
X73504166Y-90615652D02*
X73647023Y-90663271D01*
X73647023Y-90663271D02*
X73742261Y-90663271D01*
X73742261Y-90663271D02*
X73885118Y-90615652D01*
X73885118Y-90615652D02*
X73980356Y-90520413D01*
X73980356Y-90520413D02*
X74027975Y-90425175D01*
X74027975Y-90425175D02*
X74075594Y-90234699D01*
X74075594Y-90234699D02*
X74075594Y-90091842D01*
X74075594Y-90091842D02*
X74027975Y-89901366D01*
X74027975Y-89901366D02*
X73980356Y-89806128D01*
X73980356Y-89806128D02*
X73885118Y-89710890D01*
X73885118Y-89710890D02*
X73742261Y-89663271D01*
X73742261Y-89663271D02*
X73647023Y-89663271D01*
X73647023Y-89663271D02*
X73504166Y-89710890D01*
X73504166Y-89710890D02*
X73456547Y-89758509D01*
X72551785Y-89663271D02*
X73027975Y-89663271D01*
X73027975Y-89663271D02*
X73075594Y-90139461D01*
X73075594Y-90139461D02*
X73027975Y-90091842D01*
X73027975Y-90091842D02*
X72932737Y-90044223D01*
X72932737Y-90044223D02*
X72694642Y-90044223D01*
X72694642Y-90044223D02*
X72599404Y-90091842D01*
X72599404Y-90091842D02*
X72551785Y-90139461D01*
X72551785Y-90139461D02*
X72504166Y-90234699D01*
X72504166Y-90234699D02*
X72504166Y-90472794D01*
X72504166Y-90472794D02*
X72551785Y-90568032D01*
X72551785Y-90568032D02*
X72599404Y-90615652D01*
X72599404Y-90615652D02*
X72694642Y-90663271D01*
X72694642Y-90663271D02*
X72932737Y-90663271D01*
X72932737Y-90663271D02*
X73027975Y-90615652D01*
X73027975Y-90615652D02*
X73075594Y-90568032D01*
X71885118Y-89663271D02*
X71789880Y-89663271D01*
X71789880Y-89663271D02*
X71694642Y-89710890D01*
X71694642Y-89710890D02*
X71647023Y-89758509D01*
X71647023Y-89758509D02*
X71599404Y-89853747D01*
X71599404Y-89853747D02*
X71551785Y-90044223D01*
X71551785Y-90044223D02*
X71551785Y-90282318D01*
X71551785Y-90282318D02*
X71599404Y-90472794D01*
X71599404Y-90472794D02*
X71647023Y-90568032D01*
X71647023Y-90568032D02*
X71694642Y-90615652D01*
X71694642Y-90615652D02*
X71789880Y-90663271D01*
X71789880Y-90663271D02*
X71885118Y-90663271D01*
X71885118Y-90663271D02*
X71980356Y-90615652D01*
X71980356Y-90615652D02*
X72027975Y-90568032D01*
X72027975Y-90568032D02*
X72075594Y-90472794D01*
X72075594Y-90472794D02*
X72123213Y-90282318D01*
X72123213Y-90282318D02*
X72123213Y-90044223D01*
X72123213Y-90044223D02*
X72075594Y-89853747D01*
X72075594Y-89853747D02*
X72027975Y-89758509D01*
X72027975Y-89758509D02*
X71980356Y-89710890D01*
X71980356Y-89710890D02*
X71885118Y-89663271D01*
X71170832Y-89758509D02*
X71123213Y-89710890D01*
X71123213Y-89710890D02*
X71027975Y-89663271D01*
X71027975Y-89663271D02*
X70789880Y-89663271D01*
X70789880Y-89663271D02*
X70694642Y-89710890D01*
X70694642Y-89710890D02*
X70647023Y-89758509D01*
X70647023Y-89758509D02*
X70599404Y-89853747D01*
X70599404Y-89853747D02*
X70599404Y-89948985D01*
X70599404Y-89948985D02*
X70647023Y-90091842D01*
X70647023Y-90091842D02*
X71218451Y-90663271D01*
X71218451Y-90663271D02*
X70599404Y-90663271D01*
X79274819Y-84785714D02*
X80084342Y-84785714D01*
X80084342Y-84785714D02*
X80179580Y-84833333D01*
X80179580Y-84833333D02*
X80227200Y-84880952D01*
X80227200Y-84880952D02*
X80274819Y-84976190D01*
X80274819Y-84976190D02*
X80274819Y-85166666D01*
X80274819Y-85166666D02*
X80227200Y-85261904D01*
X80227200Y-85261904D02*
X80179580Y-85309523D01*
X80179580Y-85309523D02*
X80084342Y-85357142D01*
X80084342Y-85357142D02*
X79274819Y-85357142D01*
X79274819Y-86309523D02*
X79274819Y-85833333D01*
X79274819Y-85833333D02*
X79751009Y-85785714D01*
X79751009Y-85785714D02*
X79703390Y-85833333D01*
X79703390Y-85833333D02*
X79655771Y-85928571D01*
X79655771Y-85928571D02*
X79655771Y-86166666D01*
X79655771Y-86166666D02*
X79703390Y-86261904D01*
X79703390Y-86261904D02*
X79751009Y-86309523D01*
X79751009Y-86309523D02*
X79846247Y-86357142D01*
X79846247Y-86357142D02*
X80084342Y-86357142D01*
X80084342Y-86357142D02*
X80179580Y-86309523D01*
X80179580Y-86309523D02*
X80227200Y-86261904D01*
X80227200Y-86261904D02*
X80274819Y-86166666D01*
X80274819Y-86166666D02*
X80274819Y-85928571D01*
X80274819Y-85928571D02*
X80227200Y-85833333D01*
X80227200Y-85833333D02*
X80179580Y-85785714D01*
X79274819Y-86976190D02*
X79274819Y-87071428D01*
X79274819Y-87071428D02*
X79322438Y-87166666D01*
X79322438Y-87166666D02*
X79370057Y-87214285D01*
X79370057Y-87214285D02*
X79465295Y-87261904D01*
X79465295Y-87261904D02*
X79655771Y-87309523D01*
X79655771Y-87309523D02*
X79893866Y-87309523D01*
X79893866Y-87309523D02*
X80084342Y-87261904D01*
X80084342Y-87261904D02*
X80179580Y-87214285D01*
X80179580Y-87214285D02*
X80227200Y-87166666D01*
X80227200Y-87166666D02*
X80274819Y-87071428D01*
X80274819Y-87071428D02*
X80274819Y-86976190D01*
X80274819Y-86976190D02*
X80227200Y-86880952D01*
X80227200Y-86880952D02*
X80179580Y-86833333D01*
X80179580Y-86833333D02*
X80084342Y-86785714D01*
X80084342Y-86785714D02*
X79893866Y-86738095D01*
X79893866Y-86738095D02*
X79655771Y-86738095D01*
X79655771Y-86738095D02*
X79465295Y-86785714D01*
X79465295Y-86785714D02*
X79370057Y-86833333D01*
X79370057Y-86833333D02*
X79322438Y-86880952D01*
X79322438Y-86880952D02*
X79274819Y-86976190D01*
X80274819Y-88261904D02*
X80274819Y-87690476D01*
X80274819Y-87976190D02*
X79274819Y-87976190D01*
X79274819Y-87976190D02*
X79417676Y-87880952D01*
X79417676Y-87880952D02*
X79512914Y-87785714D01*
X79512914Y-87785714D02*
X79560533Y-87690476D01*
X102238094Y-86754819D02*
X101666666Y-86754819D01*
X101952380Y-87754819D02*
X101952380Y-86754819D01*
X101333332Y-87754819D02*
X101333332Y-86754819D01*
X101333332Y-87231009D02*
X100761904Y-87231009D01*
X100761904Y-87754819D02*
X100761904Y-86754819D01*
X99857142Y-86754819D02*
X100047618Y-86754819D01*
X100047618Y-86754819D02*
X100142856Y-86802438D01*
X100142856Y-86802438D02*
X100190475Y-86850057D01*
X100190475Y-86850057D02*
X100285713Y-86992914D01*
X100285713Y-86992914D02*
X100333332Y-87183390D01*
X100333332Y-87183390D02*
X100333332Y-87564342D01*
X100333332Y-87564342D02*
X100285713Y-87659580D01*
X100285713Y-87659580D02*
X100238094Y-87707200D01*
X100238094Y-87707200D02*
X100142856Y-87754819D01*
X100142856Y-87754819D02*
X99952380Y-87754819D01*
X99952380Y-87754819D02*
X99857142Y-87707200D01*
X99857142Y-87707200D02*
X99809523Y-87659580D01*
X99809523Y-87659580D02*
X99761904Y-87564342D01*
X99761904Y-87564342D02*
X99761904Y-87326247D01*
X99761904Y-87326247D02*
X99809523Y-87231009D01*
X99809523Y-87231009D02*
X99857142Y-87183390D01*
X99857142Y-87183390D02*
X99952380Y-87135771D01*
X99952380Y-87135771D02*
X100142856Y-87135771D01*
X100142856Y-87135771D02*
X100238094Y-87183390D01*
X100238094Y-87183390D02*
X100285713Y-87231009D01*
X100285713Y-87231009D02*
X100333332Y-87326247D01*
X99142856Y-86754819D02*
X99047618Y-86754819D01*
X99047618Y-86754819D02*
X98952380Y-86802438D01*
X98952380Y-86802438D02*
X98904761Y-86850057D01*
X98904761Y-86850057D02*
X98857142Y-86945295D01*
X98857142Y-86945295D02*
X98809523Y-87135771D01*
X98809523Y-87135771D02*
X98809523Y-87373866D01*
X98809523Y-87373866D02*
X98857142Y-87564342D01*
X98857142Y-87564342D02*
X98904761Y-87659580D01*
X98904761Y-87659580D02*
X98952380Y-87707200D01*
X98952380Y-87707200D02*
X99047618Y-87754819D01*
X99047618Y-87754819D02*
X99142856Y-87754819D01*
X99142856Y-87754819D02*
X99238094Y-87707200D01*
X99238094Y-87707200D02*
X99285713Y-87659580D01*
X99285713Y-87659580D02*
X99333332Y-87564342D01*
X99333332Y-87564342D02*
X99380951Y-87373866D01*
X99380951Y-87373866D02*
X99380951Y-87135771D01*
X99380951Y-87135771D02*
X99333332Y-86945295D01*
X99333332Y-86945295D02*
X99285713Y-86850057D01*
X99285713Y-86850057D02*
X99238094Y-86802438D01*
X99238094Y-86802438D02*
X99142856Y-86754819D01*
X97857142Y-87754819D02*
X98428570Y-87754819D01*
X98142856Y-87754819D02*
X98142856Y-86754819D01*
X98142856Y-86754819D02*
X98238094Y-86897676D01*
X98238094Y-86897676D02*
X98333332Y-86992914D01*
X98333332Y-86992914D02*
X98428570Y-87040533D01*
X79301547Y-90174580D02*
X79349166Y-90222200D01*
X79349166Y-90222200D02*
X79492023Y-90269819D01*
X79492023Y-90269819D02*
X79587261Y-90269819D01*
X79587261Y-90269819D02*
X79730118Y-90222200D01*
X79730118Y-90222200D02*
X79825356Y-90126961D01*
X79825356Y-90126961D02*
X79872975Y-90031723D01*
X79872975Y-90031723D02*
X79920594Y-89841247D01*
X79920594Y-89841247D02*
X79920594Y-89698390D01*
X79920594Y-89698390D02*
X79872975Y-89507914D01*
X79872975Y-89507914D02*
X79825356Y-89412676D01*
X79825356Y-89412676D02*
X79730118Y-89317438D01*
X79730118Y-89317438D02*
X79587261Y-89269819D01*
X79587261Y-89269819D02*
X79492023Y-89269819D01*
X79492023Y-89269819D02*
X79349166Y-89317438D01*
X79349166Y-89317438D02*
X79301547Y-89365057D01*
X78396785Y-89269819D02*
X78872975Y-89269819D01*
X78872975Y-89269819D02*
X78920594Y-89746009D01*
X78920594Y-89746009D02*
X78872975Y-89698390D01*
X78872975Y-89698390D02*
X78777737Y-89650771D01*
X78777737Y-89650771D02*
X78539642Y-89650771D01*
X78539642Y-89650771D02*
X78444404Y-89698390D01*
X78444404Y-89698390D02*
X78396785Y-89746009D01*
X78396785Y-89746009D02*
X78349166Y-89841247D01*
X78349166Y-89841247D02*
X78349166Y-90079342D01*
X78349166Y-90079342D02*
X78396785Y-90174580D01*
X78396785Y-90174580D02*
X78444404Y-90222200D01*
X78444404Y-90222200D02*
X78539642Y-90269819D01*
X78539642Y-90269819D02*
X78777737Y-90269819D01*
X78777737Y-90269819D02*
X78872975Y-90222200D01*
X78872975Y-90222200D02*
X78920594Y-90174580D01*
X77730118Y-89269819D02*
X77634880Y-89269819D01*
X77634880Y-89269819D02*
X77539642Y-89317438D01*
X77539642Y-89317438D02*
X77492023Y-89365057D01*
X77492023Y-89365057D02*
X77444404Y-89460295D01*
X77444404Y-89460295D02*
X77396785Y-89650771D01*
X77396785Y-89650771D02*
X77396785Y-89888866D01*
X77396785Y-89888866D02*
X77444404Y-90079342D01*
X77444404Y-90079342D02*
X77492023Y-90174580D01*
X77492023Y-90174580D02*
X77539642Y-90222200D01*
X77539642Y-90222200D02*
X77634880Y-90269819D01*
X77634880Y-90269819D02*
X77730118Y-90269819D01*
X77730118Y-90269819D02*
X77825356Y-90222200D01*
X77825356Y-90222200D02*
X77872975Y-90174580D01*
X77872975Y-90174580D02*
X77920594Y-90079342D01*
X77920594Y-90079342D02*
X77968213Y-89888866D01*
X77968213Y-89888866D02*
X77968213Y-89650771D01*
X77968213Y-89650771D02*
X77920594Y-89460295D01*
X77920594Y-89460295D02*
X77872975Y-89365057D01*
X77872975Y-89365057D02*
X77825356Y-89317438D01*
X77825356Y-89317438D02*
X77730118Y-89269819D01*
X76444404Y-90269819D02*
X77015832Y-90269819D01*
X76730118Y-90269819D02*
X76730118Y-89269819D01*
X76730118Y-89269819D02*
X76825356Y-89412676D01*
X76825356Y-89412676D02*
X76920594Y-89507914D01*
X76920594Y-89507914D02*
X77015832Y-89555533D01*
X53596547Y-89262080D02*
X53644166Y-89309700D01*
X53644166Y-89309700D02*
X53787023Y-89357319D01*
X53787023Y-89357319D02*
X53882261Y-89357319D01*
X53882261Y-89357319D02*
X54025118Y-89309700D01*
X54025118Y-89309700D02*
X54120356Y-89214461D01*
X54120356Y-89214461D02*
X54167975Y-89119223D01*
X54167975Y-89119223D02*
X54215594Y-88928747D01*
X54215594Y-88928747D02*
X54215594Y-88785890D01*
X54215594Y-88785890D02*
X54167975Y-88595414D01*
X54167975Y-88595414D02*
X54120356Y-88500176D01*
X54120356Y-88500176D02*
X54025118Y-88404938D01*
X54025118Y-88404938D02*
X53882261Y-88357319D01*
X53882261Y-88357319D02*
X53787023Y-88357319D01*
X53787023Y-88357319D02*
X53644166Y-88404938D01*
X53644166Y-88404938D02*
X53596547Y-88452557D01*
X53215594Y-88452557D02*
X53167975Y-88404938D01*
X53167975Y-88404938D02*
X53072737Y-88357319D01*
X53072737Y-88357319D02*
X52834642Y-88357319D01*
X52834642Y-88357319D02*
X52739404Y-88404938D01*
X52739404Y-88404938D02*
X52691785Y-88452557D01*
X52691785Y-88452557D02*
X52644166Y-88547795D01*
X52644166Y-88547795D02*
X52644166Y-88643033D01*
X52644166Y-88643033D02*
X52691785Y-88785890D01*
X52691785Y-88785890D02*
X53263213Y-89357319D01*
X53263213Y-89357319D02*
X52644166Y-89357319D01*
X52025118Y-88357319D02*
X51929880Y-88357319D01*
X51929880Y-88357319D02*
X51834642Y-88404938D01*
X51834642Y-88404938D02*
X51787023Y-88452557D01*
X51787023Y-88452557D02*
X51739404Y-88547795D01*
X51739404Y-88547795D02*
X51691785Y-88738271D01*
X51691785Y-88738271D02*
X51691785Y-88976366D01*
X51691785Y-88976366D02*
X51739404Y-89166842D01*
X51739404Y-89166842D02*
X51787023Y-89262080D01*
X51787023Y-89262080D02*
X51834642Y-89309700D01*
X51834642Y-89309700D02*
X51929880Y-89357319D01*
X51929880Y-89357319D02*
X52025118Y-89357319D01*
X52025118Y-89357319D02*
X52120356Y-89309700D01*
X52120356Y-89309700D02*
X52167975Y-89262080D01*
X52167975Y-89262080D02*
X52215594Y-89166842D01*
X52215594Y-89166842D02*
X52263213Y-88976366D01*
X52263213Y-88976366D02*
X52263213Y-88738271D01*
X52263213Y-88738271D02*
X52215594Y-88547795D01*
X52215594Y-88547795D02*
X52167975Y-88452557D01*
X52167975Y-88452557D02*
X52120356Y-88404938D01*
X52120356Y-88404938D02*
X52025118Y-88357319D01*
X50787023Y-88357319D02*
X51263213Y-88357319D01*
X51263213Y-88357319D02*
X51310832Y-88833509D01*
X51310832Y-88833509D02*
X51263213Y-88785890D01*
X51263213Y-88785890D02*
X51167975Y-88738271D01*
X51167975Y-88738271D02*
X50929880Y-88738271D01*
X50929880Y-88738271D02*
X50834642Y-88785890D01*
X50834642Y-88785890D02*
X50787023Y-88833509D01*
X50787023Y-88833509D02*
X50739404Y-88928747D01*
X50739404Y-88928747D02*
X50739404Y-89166842D01*
X50739404Y-89166842D02*
X50787023Y-89262080D01*
X50787023Y-89262080D02*
X50834642Y-89309700D01*
X50834642Y-89309700D02*
X50929880Y-89357319D01*
X50929880Y-89357319D02*
X51167975Y-89357319D01*
X51167975Y-89357319D02*
X51263213Y-89309700D01*
X51263213Y-89309700D02*
X51310832Y-89262080D01*
X58714285Y-89274819D02*
X58714285Y-90084342D01*
X58714285Y-90084342D02*
X58666666Y-90179580D01*
X58666666Y-90179580D02*
X58619047Y-90227200D01*
X58619047Y-90227200D02*
X58523809Y-90274819D01*
X58523809Y-90274819D02*
X58333333Y-90274819D01*
X58333333Y-90274819D02*
X58238095Y-90227200D01*
X58238095Y-90227200D02*
X58190476Y-90179580D01*
X58190476Y-90179580D02*
X58142857Y-90084342D01*
X58142857Y-90084342D02*
X58142857Y-89274819D01*
X57714285Y-89370057D02*
X57666666Y-89322438D01*
X57666666Y-89322438D02*
X57571428Y-89274819D01*
X57571428Y-89274819D02*
X57333333Y-89274819D01*
X57333333Y-89274819D02*
X57238095Y-89322438D01*
X57238095Y-89322438D02*
X57190476Y-89370057D01*
X57190476Y-89370057D02*
X57142857Y-89465295D01*
X57142857Y-89465295D02*
X57142857Y-89560533D01*
X57142857Y-89560533D02*
X57190476Y-89703390D01*
X57190476Y-89703390D02*
X57761904Y-90274819D01*
X57761904Y-90274819D02*
X57142857Y-90274819D01*
X56523809Y-89274819D02*
X56428571Y-89274819D01*
X56428571Y-89274819D02*
X56333333Y-89322438D01*
X56333333Y-89322438D02*
X56285714Y-89370057D01*
X56285714Y-89370057D02*
X56238095Y-89465295D01*
X56238095Y-89465295D02*
X56190476Y-89655771D01*
X56190476Y-89655771D02*
X56190476Y-89893866D01*
X56190476Y-89893866D02*
X56238095Y-90084342D01*
X56238095Y-90084342D02*
X56285714Y-90179580D01*
X56285714Y-90179580D02*
X56333333Y-90227200D01*
X56333333Y-90227200D02*
X56428571Y-90274819D01*
X56428571Y-90274819D02*
X56523809Y-90274819D01*
X56523809Y-90274819D02*
X56619047Y-90227200D01*
X56619047Y-90227200D02*
X56666666Y-90179580D01*
X56666666Y-90179580D02*
X56714285Y-90084342D01*
X56714285Y-90084342D02*
X56761904Y-89893866D01*
X56761904Y-89893866D02*
X56761904Y-89655771D01*
X56761904Y-89655771D02*
X56714285Y-89465295D01*
X56714285Y-89465295D02*
X56666666Y-89370057D01*
X56666666Y-89370057D02*
X56619047Y-89322438D01*
X56619047Y-89322438D02*
X56523809Y-89274819D01*
X55238095Y-90274819D02*
X55809523Y-90274819D01*
X55523809Y-90274819D02*
X55523809Y-89274819D01*
X55523809Y-89274819D02*
X55619047Y-89417676D01*
X55619047Y-89417676D02*
X55714285Y-89512914D01*
X55714285Y-89512914D02*
X55809523Y-89560533D01*
X106716547Y-69124819D02*
X107049880Y-68648628D01*
X107287975Y-69124819D02*
X107287975Y-68124819D01*
X107287975Y-68124819D02*
X106907023Y-68124819D01*
X106907023Y-68124819D02*
X106811785Y-68172438D01*
X106811785Y-68172438D02*
X106764166Y-68220057D01*
X106764166Y-68220057D02*
X106716547Y-68315295D01*
X106716547Y-68315295D02*
X106716547Y-68458152D01*
X106716547Y-68458152D02*
X106764166Y-68553390D01*
X106764166Y-68553390D02*
X106811785Y-68601009D01*
X106811785Y-68601009D02*
X106907023Y-68648628D01*
X106907023Y-68648628D02*
X107287975Y-68648628D01*
X105859404Y-68124819D02*
X106049880Y-68124819D01*
X106049880Y-68124819D02*
X106145118Y-68172438D01*
X106145118Y-68172438D02*
X106192737Y-68220057D01*
X106192737Y-68220057D02*
X106287975Y-68362914D01*
X106287975Y-68362914D02*
X106335594Y-68553390D01*
X106335594Y-68553390D02*
X106335594Y-68934342D01*
X106335594Y-68934342D02*
X106287975Y-69029580D01*
X106287975Y-69029580D02*
X106240356Y-69077200D01*
X106240356Y-69077200D02*
X106145118Y-69124819D01*
X106145118Y-69124819D02*
X105954642Y-69124819D01*
X105954642Y-69124819D02*
X105859404Y-69077200D01*
X105859404Y-69077200D02*
X105811785Y-69029580D01*
X105811785Y-69029580D02*
X105764166Y-68934342D01*
X105764166Y-68934342D02*
X105764166Y-68696247D01*
X105764166Y-68696247D02*
X105811785Y-68601009D01*
X105811785Y-68601009D02*
X105859404Y-68553390D01*
X105859404Y-68553390D02*
X105954642Y-68505771D01*
X105954642Y-68505771D02*
X106145118Y-68505771D01*
X106145118Y-68505771D02*
X106240356Y-68553390D01*
X106240356Y-68553390D02*
X106287975Y-68601009D01*
X106287975Y-68601009D02*
X106335594Y-68696247D01*
X105145118Y-68124819D02*
X105049880Y-68124819D01*
X105049880Y-68124819D02*
X104954642Y-68172438D01*
X104954642Y-68172438D02*
X104907023Y-68220057D01*
X104907023Y-68220057D02*
X104859404Y-68315295D01*
X104859404Y-68315295D02*
X104811785Y-68505771D01*
X104811785Y-68505771D02*
X104811785Y-68743866D01*
X104811785Y-68743866D02*
X104859404Y-68934342D01*
X104859404Y-68934342D02*
X104907023Y-69029580D01*
X104907023Y-69029580D02*
X104954642Y-69077200D01*
X104954642Y-69077200D02*
X105049880Y-69124819D01*
X105049880Y-69124819D02*
X105145118Y-69124819D01*
X105145118Y-69124819D02*
X105240356Y-69077200D01*
X105240356Y-69077200D02*
X105287975Y-69029580D01*
X105287975Y-69029580D02*
X105335594Y-68934342D01*
X105335594Y-68934342D02*
X105383213Y-68743866D01*
X105383213Y-68743866D02*
X105383213Y-68505771D01*
X105383213Y-68505771D02*
X105335594Y-68315295D01*
X105335594Y-68315295D02*
X105287975Y-68220057D01*
X105287975Y-68220057D02*
X105240356Y-68172438D01*
X105240356Y-68172438D02*
X105145118Y-68124819D01*
X103907023Y-68124819D02*
X104383213Y-68124819D01*
X104383213Y-68124819D02*
X104430832Y-68601009D01*
X104430832Y-68601009D02*
X104383213Y-68553390D01*
X104383213Y-68553390D02*
X104287975Y-68505771D01*
X104287975Y-68505771D02*
X104049880Y-68505771D01*
X104049880Y-68505771D02*
X103954642Y-68553390D01*
X103954642Y-68553390D02*
X103907023Y-68601009D01*
X103907023Y-68601009D02*
X103859404Y-68696247D01*
X103859404Y-68696247D02*
X103859404Y-68934342D01*
X103859404Y-68934342D02*
X103907023Y-69029580D01*
X103907023Y-69029580D02*
X103954642Y-69077200D01*
X103954642Y-69077200D02*
X104049880Y-69124819D01*
X104049880Y-69124819D02*
X104287975Y-69124819D01*
X104287975Y-69124819D02*
X104383213Y-69077200D01*
X104383213Y-69077200D02*
X104430832Y-69029580D01*
X69449580Y-86855952D02*
X69497200Y-86808333D01*
X69497200Y-86808333D02*
X69544819Y-86665476D01*
X69544819Y-86665476D02*
X69544819Y-86570238D01*
X69544819Y-86570238D02*
X69497200Y-86427381D01*
X69497200Y-86427381D02*
X69401961Y-86332143D01*
X69401961Y-86332143D02*
X69306723Y-86284524D01*
X69306723Y-86284524D02*
X69116247Y-86236905D01*
X69116247Y-86236905D02*
X68973390Y-86236905D01*
X68973390Y-86236905D02*
X68782914Y-86284524D01*
X68782914Y-86284524D02*
X68687676Y-86332143D01*
X68687676Y-86332143D02*
X68592438Y-86427381D01*
X68592438Y-86427381D02*
X68544819Y-86570238D01*
X68544819Y-86570238D02*
X68544819Y-86665476D01*
X68544819Y-86665476D02*
X68592438Y-86808333D01*
X68592438Y-86808333D02*
X68640057Y-86855952D01*
X68544819Y-87760714D02*
X68544819Y-87284524D01*
X68544819Y-87284524D02*
X69021009Y-87236905D01*
X69021009Y-87236905D02*
X68973390Y-87284524D01*
X68973390Y-87284524D02*
X68925771Y-87379762D01*
X68925771Y-87379762D02*
X68925771Y-87617857D01*
X68925771Y-87617857D02*
X68973390Y-87713095D01*
X68973390Y-87713095D02*
X69021009Y-87760714D01*
X69021009Y-87760714D02*
X69116247Y-87808333D01*
X69116247Y-87808333D02*
X69354342Y-87808333D01*
X69354342Y-87808333D02*
X69449580Y-87760714D01*
X69449580Y-87760714D02*
X69497200Y-87713095D01*
X69497200Y-87713095D02*
X69544819Y-87617857D01*
X69544819Y-87617857D02*
X69544819Y-87379762D01*
X69544819Y-87379762D02*
X69497200Y-87284524D01*
X69497200Y-87284524D02*
X69449580Y-87236905D01*
X68544819Y-88427381D02*
X68544819Y-88522619D01*
X68544819Y-88522619D02*
X68592438Y-88617857D01*
X68592438Y-88617857D02*
X68640057Y-88665476D01*
X68640057Y-88665476D02*
X68735295Y-88713095D01*
X68735295Y-88713095D02*
X68925771Y-88760714D01*
X68925771Y-88760714D02*
X69163866Y-88760714D01*
X69163866Y-88760714D02*
X69354342Y-88713095D01*
X69354342Y-88713095D02*
X69449580Y-88665476D01*
X69449580Y-88665476D02*
X69497200Y-88617857D01*
X69497200Y-88617857D02*
X69544819Y-88522619D01*
X69544819Y-88522619D02*
X69544819Y-88427381D01*
X69544819Y-88427381D02*
X69497200Y-88332143D01*
X69497200Y-88332143D02*
X69449580Y-88284524D01*
X69449580Y-88284524D02*
X69354342Y-88236905D01*
X69354342Y-88236905D02*
X69163866Y-88189286D01*
X69163866Y-88189286D02*
X68925771Y-88189286D01*
X68925771Y-88189286D02*
X68735295Y-88236905D01*
X68735295Y-88236905D02*
X68640057Y-88284524D01*
X68640057Y-88284524D02*
X68592438Y-88332143D01*
X68592438Y-88332143D02*
X68544819Y-88427381D01*
X68544819Y-89094048D02*
X68544819Y-89713095D01*
X68544819Y-89713095D02*
X68925771Y-89379762D01*
X68925771Y-89379762D02*
X68925771Y-89522619D01*
X68925771Y-89522619D02*
X68973390Y-89617857D01*
X68973390Y-89617857D02*
X69021009Y-89665476D01*
X69021009Y-89665476D02*
X69116247Y-89713095D01*
X69116247Y-89713095D02*
X69354342Y-89713095D01*
X69354342Y-89713095D02*
X69449580Y-89665476D01*
X69449580Y-89665476D02*
X69497200Y-89617857D01*
X69497200Y-89617857D02*
X69544819Y-89522619D01*
X69544819Y-89522619D02*
X69544819Y-89236905D01*
X69544819Y-89236905D02*
X69497200Y-89141667D01*
X69497200Y-89141667D02*
X69449580Y-89094048D01*
X54769580Y-87010952D02*
X54817200Y-86963333D01*
X54817200Y-86963333D02*
X54864819Y-86820476D01*
X54864819Y-86820476D02*
X54864819Y-86725238D01*
X54864819Y-86725238D02*
X54817200Y-86582381D01*
X54817200Y-86582381D02*
X54721961Y-86487143D01*
X54721961Y-86487143D02*
X54626723Y-86439524D01*
X54626723Y-86439524D02*
X54436247Y-86391905D01*
X54436247Y-86391905D02*
X54293390Y-86391905D01*
X54293390Y-86391905D02*
X54102914Y-86439524D01*
X54102914Y-86439524D02*
X54007676Y-86487143D01*
X54007676Y-86487143D02*
X53912438Y-86582381D01*
X53912438Y-86582381D02*
X53864819Y-86725238D01*
X53864819Y-86725238D02*
X53864819Y-86820476D01*
X53864819Y-86820476D02*
X53912438Y-86963333D01*
X53912438Y-86963333D02*
X53960057Y-87010952D01*
X53960057Y-87391905D02*
X53912438Y-87439524D01*
X53912438Y-87439524D02*
X53864819Y-87534762D01*
X53864819Y-87534762D02*
X53864819Y-87772857D01*
X53864819Y-87772857D02*
X53912438Y-87868095D01*
X53912438Y-87868095D02*
X53960057Y-87915714D01*
X53960057Y-87915714D02*
X54055295Y-87963333D01*
X54055295Y-87963333D02*
X54150533Y-87963333D01*
X54150533Y-87963333D02*
X54293390Y-87915714D01*
X54293390Y-87915714D02*
X54864819Y-87344286D01*
X54864819Y-87344286D02*
X54864819Y-87963333D01*
X53864819Y-88582381D02*
X53864819Y-88677619D01*
X53864819Y-88677619D02*
X53912438Y-88772857D01*
X53912438Y-88772857D02*
X53960057Y-88820476D01*
X53960057Y-88820476D02*
X54055295Y-88868095D01*
X54055295Y-88868095D02*
X54245771Y-88915714D01*
X54245771Y-88915714D02*
X54483866Y-88915714D01*
X54483866Y-88915714D02*
X54674342Y-88868095D01*
X54674342Y-88868095D02*
X54769580Y-88820476D01*
X54769580Y-88820476D02*
X54817200Y-88772857D01*
X54817200Y-88772857D02*
X54864819Y-88677619D01*
X54864819Y-88677619D02*
X54864819Y-88582381D01*
X54864819Y-88582381D02*
X54817200Y-88487143D01*
X54817200Y-88487143D02*
X54769580Y-88439524D01*
X54769580Y-88439524D02*
X54674342Y-88391905D01*
X54674342Y-88391905D02*
X54483866Y-88344286D01*
X54483866Y-88344286D02*
X54245771Y-88344286D01*
X54245771Y-88344286D02*
X54055295Y-88391905D01*
X54055295Y-88391905D02*
X53960057Y-88439524D01*
X53960057Y-88439524D02*
X53912438Y-88487143D01*
X53912438Y-88487143D02*
X53864819Y-88582381D01*
X54864819Y-89868095D02*
X54864819Y-89296667D01*
X54864819Y-89582381D02*
X53864819Y-89582381D01*
X53864819Y-89582381D02*
X54007676Y-89487143D01*
X54007676Y-89487143D02*
X54102914Y-89391905D01*
X54102914Y-89391905D02*
X54150533Y-89296667D01*
X53789580Y-85380952D02*
X53837200Y-85333333D01*
X53837200Y-85333333D02*
X53884819Y-85190476D01*
X53884819Y-85190476D02*
X53884819Y-85095238D01*
X53884819Y-85095238D02*
X53837200Y-84952381D01*
X53837200Y-84952381D02*
X53741961Y-84857143D01*
X53741961Y-84857143D02*
X53646723Y-84809524D01*
X53646723Y-84809524D02*
X53456247Y-84761905D01*
X53456247Y-84761905D02*
X53313390Y-84761905D01*
X53313390Y-84761905D02*
X53122914Y-84809524D01*
X53122914Y-84809524D02*
X53027676Y-84857143D01*
X53027676Y-84857143D02*
X52932438Y-84952381D01*
X52932438Y-84952381D02*
X52884819Y-85095238D01*
X52884819Y-85095238D02*
X52884819Y-85190476D01*
X52884819Y-85190476D02*
X52932438Y-85333333D01*
X52932438Y-85333333D02*
X52980057Y-85380952D01*
X52980057Y-85761905D02*
X52932438Y-85809524D01*
X52932438Y-85809524D02*
X52884819Y-85904762D01*
X52884819Y-85904762D02*
X52884819Y-86142857D01*
X52884819Y-86142857D02*
X52932438Y-86238095D01*
X52932438Y-86238095D02*
X52980057Y-86285714D01*
X52980057Y-86285714D02*
X53075295Y-86333333D01*
X53075295Y-86333333D02*
X53170533Y-86333333D01*
X53170533Y-86333333D02*
X53313390Y-86285714D01*
X53313390Y-86285714D02*
X53884819Y-85714286D01*
X53884819Y-85714286D02*
X53884819Y-86333333D01*
X52884819Y-86952381D02*
X52884819Y-87047619D01*
X52884819Y-87047619D02*
X52932438Y-87142857D01*
X52932438Y-87142857D02*
X52980057Y-87190476D01*
X52980057Y-87190476D02*
X53075295Y-87238095D01*
X53075295Y-87238095D02*
X53265771Y-87285714D01*
X53265771Y-87285714D02*
X53503866Y-87285714D01*
X53503866Y-87285714D02*
X53694342Y-87238095D01*
X53694342Y-87238095D02*
X53789580Y-87190476D01*
X53789580Y-87190476D02*
X53837200Y-87142857D01*
X53837200Y-87142857D02*
X53884819Y-87047619D01*
X53884819Y-87047619D02*
X53884819Y-86952381D01*
X53884819Y-86952381D02*
X53837200Y-86857143D01*
X53837200Y-86857143D02*
X53789580Y-86809524D01*
X53789580Y-86809524D02*
X53694342Y-86761905D01*
X53694342Y-86761905D02*
X53503866Y-86714286D01*
X53503866Y-86714286D02*
X53265771Y-86714286D01*
X53265771Y-86714286D02*
X53075295Y-86761905D01*
X53075295Y-86761905D02*
X52980057Y-86809524D01*
X52980057Y-86809524D02*
X52932438Y-86857143D01*
X52932438Y-86857143D02*
X52884819Y-86952381D01*
X52980057Y-87666667D02*
X52932438Y-87714286D01*
X52932438Y-87714286D02*
X52884819Y-87809524D01*
X52884819Y-87809524D02*
X52884819Y-88047619D01*
X52884819Y-88047619D02*
X52932438Y-88142857D01*
X52932438Y-88142857D02*
X52980057Y-88190476D01*
X52980057Y-88190476D02*
X53075295Y-88238095D01*
X53075295Y-88238095D02*
X53170533Y-88238095D01*
X53170533Y-88238095D02*
X53313390Y-88190476D01*
X53313390Y-88190476D02*
X53884819Y-87619048D01*
X53884819Y-87619048D02*
X53884819Y-88238095D01*
X54331547Y-83569580D02*
X54379166Y-83617200D01*
X54379166Y-83617200D02*
X54522023Y-83664819D01*
X54522023Y-83664819D02*
X54617261Y-83664819D01*
X54617261Y-83664819D02*
X54760118Y-83617200D01*
X54760118Y-83617200D02*
X54855356Y-83521961D01*
X54855356Y-83521961D02*
X54902975Y-83426723D01*
X54902975Y-83426723D02*
X54950594Y-83236247D01*
X54950594Y-83236247D02*
X54950594Y-83093390D01*
X54950594Y-83093390D02*
X54902975Y-82902914D01*
X54902975Y-82902914D02*
X54855356Y-82807676D01*
X54855356Y-82807676D02*
X54760118Y-82712438D01*
X54760118Y-82712438D02*
X54617261Y-82664819D01*
X54617261Y-82664819D02*
X54522023Y-82664819D01*
X54522023Y-82664819D02*
X54379166Y-82712438D01*
X54379166Y-82712438D02*
X54331547Y-82760057D01*
X53998213Y-82664819D02*
X53379166Y-82664819D01*
X53379166Y-82664819D02*
X53712499Y-83045771D01*
X53712499Y-83045771D02*
X53569642Y-83045771D01*
X53569642Y-83045771D02*
X53474404Y-83093390D01*
X53474404Y-83093390D02*
X53426785Y-83141009D01*
X53426785Y-83141009D02*
X53379166Y-83236247D01*
X53379166Y-83236247D02*
X53379166Y-83474342D01*
X53379166Y-83474342D02*
X53426785Y-83569580D01*
X53426785Y-83569580D02*
X53474404Y-83617200D01*
X53474404Y-83617200D02*
X53569642Y-83664819D01*
X53569642Y-83664819D02*
X53855356Y-83664819D01*
X53855356Y-83664819D02*
X53950594Y-83617200D01*
X53950594Y-83617200D02*
X53998213Y-83569580D01*
X52760118Y-82664819D02*
X52664880Y-82664819D01*
X52664880Y-82664819D02*
X52569642Y-82712438D01*
X52569642Y-82712438D02*
X52522023Y-82760057D01*
X52522023Y-82760057D02*
X52474404Y-82855295D01*
X52474404Y-82855295D02*
X52426785Y-83045771D01*
X52426785Y-83045771D02*
X52426785Y-83283866D01*
X52426785Y-83283866D02*
X52474404Y-83474342D01*
X52474404Y-83474342D02*
X52522023Y-83569580D01*
X52522023Y-83569580D02*
X52569642Y-83617200D01*
X52569642Y-83617200D02*
X52664880Y-83664819D01*
X52664880Y-83664819D02*
X52760118Y-83664819D01*
X52760118Y-83664819D02*
X52855356Y-83617200D01*
X52855356Y-83617200D02*
X52902975Y-83569580D01*
X52902975Y-83569580D02*
X52950594Y-83474342D01*
X52950594Y-83474342D02*
X52998213Y-83283866D01*
X52998213Y-83283866D02*
X52998213Y-83045771D01*
X52998213Y-83045771D02*
X52950594Y-82855295D01*
X52950594Y-82855295D02*
X52902975Y-82760057D01*
X52902975Y-82760057D02*
X52855356Y-82712438D01*
X52855356Y-82712438D02*
X52760118Y-82664819D01*
X52093451Y-82664819D02*
X51474404Y-82664819D01*
X51474404Y-82664819D02*
X51807737Y-83045771D01*
X51807737Y-83045771D02*
X51664880Y-83045771D01*
X51664880Y-83045771D02*
X51569642Y-83093390D01*
X51569642Y-83093390D02*
X51522023Y-83141009D01*
X51522023Y-83141009D02*
X51474404Y-83236247D01*
X51474404Y-83236247D02*
X51474404Y-83474342D01*
X51474404Y-83474342D02*
X51522023Y-83569580D01*
X51522023Y-83569580D02*
X51569642Y-83617200D01*
X51569642Y-83617200D02*
X51664880Y-83664819D01*
X51664880Y-83664819D02*
X51950594Y-83664819D01*
X51950594Y-83664819D02*
X52045832Y-83617200D01*
X52045832Y-83617200D02*
X52093451Y-83569580D01*
X80449580Y-91423452D02*
X80497200Y-91375833D01*
X80497200Y-91375833D02*
X80544819Y-91232976D01*
X80544819Y-91232976D02*
X80544819Y-91137738D01*
X80544819Y-91137738D02*
X80497200Y-90994881D01*
X80497200Y-90994881D02*
X80401961Y-90899643D01*
X80401961Y-90899643D02*
X80306723Y-90852024D01*
X80306723Y-90852024D02*
X80116247Y-90804405D01*
X80116247Y-90804405D02*
X79973390Y-90804405D01*
X79973390Y-90804405D02*
X79782914Y-90852024D01*
X79782914Y-90852024D02*
X79687676Y-90899643D01*
X79687676Y-90899643D02*
X79592438Y-90994881D01*
X79592438Y-90994881D02*
X79544819Y-91137738D01*
X79544819Y-91137738D02*
X79544819Y-91232976D01*
X79544819Y-91232976D02*
X79592438Y-91375833D01*
X79592438Y-91375833D02*
X79640057Y-91423452D01*
X79544819Y-92328214D02*
X79544819Y-91852024D01*
X79544819Y-91852024D02*
X80021009Y-91804405D01*
X80021009Y-91804405D02*
X79973390Y-91852024D01*
X79973390Y-91852024D02*
X79925771Y-91947262D01*
X79925771Y-91947262D02*
X79925771Y-92185357D01*
X79925771Y-92185357D02*
X79973390Y-92280595D01*
X79973390Y-92280595D02*
X80021009Y-92328214D01*
X80021009Y-92328214D02*
X80116247Y-92375833D01*
X80116247Y-92375833D02*
X80354342Y-92375833D01*
X80354342Y-92375833D02*
X80449580Y-92328214D01*
X80449580Y-92328214D02*
X80497200Y-92280595D01*
X80497200Y-92280595D02*
X80544819Y-92185357D01*
X80544819Y-92185357D02*
X80544819Y-91947262D01*
X80544819Y-91947262D02*
X80497200Y-91852024D01*
X80497200Y-91852024D02*
X80449580Y-91804405D01*
X79544819Y-92994881D02*
X79544819Y-93090119D01*
X79544819Y-93090119D02*
X79592438Y-93185357D01*
X79592438Y-93185357D02*
X79640057Y-93232976D01*
X79640057Y-93232976D02*
X79735295Y-93280595D01*
X79735295Y-93280595D02*
X79925771Y-93328214D01*
X79925771Y-93328214D02*
X80163866Y-93328214D01*
X80163866Y-93328214D02*
X80354342Y-93280595D01*
X80354342Y-93280595D02*
X80449580Y-93232976D01*
X80449580Y-93232976D02*
X80497200Y-93185357D01*
X80497200Y-93185357D02*
X80544819Y-93090119D01*
X80544819Y-93090119D02*
X80544819Y-92994881D01*
X80544819Y-92994881D02*
X80497200Y-92899643D01*
X80497200Y-92899643D02*
X80449580Y-92852024D01*
X80449580Y-92852024D02*
X80354342Y-92804405D01*
X80354342Y-92804405D02*
X80163866Y-92756786D01*
X80163866Y-92756786D02*
X79925771Y-92756786D01*
X79925771Y-92756786D02*
X79735295Y-92804405D01*
X79735295Y-92804405D02*
X79640057Y-92852024D01*
X79640057Y-92852024D02*
X79592438Y-92899643D01*
X79592438Y-92899643D02*
X79544819Y-92994881D01*
X79544819Y-94232976D02*
X79544819Y-93756786D01*
X79544819Y-93756786D02*
X80021009Y-93709167D01*
X80021009Y-93709167D02*
X79973390Y-93756786D01*
X79973390Y-93756786D02*
X79925771Y-93852024D01*
X79925771Y-93852024D02*
X79925771Y-94090119D01*
X79925771Y-94090119D02*
X79973390Y-94185357D01*
X79973390Y-94185357D02*
X80021009Y-94232976D01*
X80021009Y-94232976D02*
X80116247Y-94280595D01*
X80116247Y-94280595D02*
X80354342Y-94280595D01*
X80354342Y-94280595D02*
X80449580Y-94232976D01*
X80449580Y-94232976D02*
X80497200Y-94185357D01*
X80497200Y-94185357D02*
X80544819Y-94090119D01*
X80544819Y-94090119D02*
X80544819Y-93852024D01*
X80544819Y-93852024D02*
X80497200Y-93756786D01*
X80497200Y-93756786D02*
X80449580Y-93709167D01*
X70949580Y-87423452D02*
X70997200Y-87375833D01*
X70997200Y-87375833D02*
X71044819Y-87232976D01*
X71044819Y-87232976D02*
X71044819Y-87137738D01*
X71044819Y-87137738D02*
X70997200Y-86994881D01*
X70997200Y-86994881D02*
X70901961Y-86899643D01*
X70901961Y-86899643D02*
X70806723Y-86852024D01*
X70806723Y-86852024D02*
X70616247Y-86804405D01*
X70616247Y-86804405D02*
X70473390Y-86804405D01*
X70473390Y-86804405D02*
X70282914Y-86852024D01*
X70282914Y-86852024D02*
X70187676Y-86899643D01*
X70187676Y-86899643D02*
X70092438Y-86994881D01*
X70092438Y-86994881D02*
X70044819Y-87137738D01*
X70044819Y-87137738D02*
X70044819Y-87232976D01*
X70044819Y-87232976D02*
X70092438Y-87375833D01*
X70092438Y-87375833D02*
X70140057Y-87423452D01*
X70044819Y-88328214D02*
X70044819Y-87852024D01*
X70044819Y-87852024D02*
X70521009Y-87804405D01*
X70521009Y-87804405D02*
X70473390Y-87852024D01*
X70473390Y-87852024D02*
X70425771Y-87947262D01*
X70425771Y-87947262D02*
X70425771Y-88185357D01*
X70425771Y-88185357D02*
X70473390Y-88280595D01*
X70473390Y-88280595D02*
X70521009Y-88328214D01*
X70521009Y-88328214D02*
X70616247Y-88375833D01*
X70616247Y-88375833D02*
X70854342Y-88375833D01*
X70854342Y-88375833D02*
X70949580Y-88328214D01*
X70949580Y-88328214D02*
X70997200Y-88280595D01*
X70997200Y-88280595D02*
X71044819Y-88185357D01*
X71044819Y-88185357D02*
X71044819Y-87947262D01*
X71044819Y-87947262D02*
X70997200Y-87852024D01*
X70997200Y-87852024D02*
X70949580Y-87804405D01*
X70044819Y-88994881D02*
X70044819Y-89090119D01*
X70044819Y-89090119D02*
X70092438Y-89185357D01*
X70092438Y-89185357D02*
X70140057Y-89232976D01*
X70140057Y-89232976D02*
X70235295Y-89280595D01*
X70235295Y-89280595D02*
X70425771Y-89328214D01*
X70425771Y-89328214D02*
X70663866Y-89328214D01*
X70663866Y-89328214D02*
X70854342Y-89280595D01*
X70854342Y-89280595D02*
X70949580Y-89232976D01*
X70949580Y-89232976D02*
X70997200Y-89185357D01*
X70997200Y-89185357D02*
X71044819Y-89090119D01*
X71044819Y-89090119D02*
X71044819Y-88994881D01*
X71044819Y-88994881D02*
X70997200Y-88899643D01*
X70997200Y-88899643D02*
X70949580Y-88852024D01*
X70949580Y-88852024D02*
X70854342Y-88804405D01*
X70854342Y-88804405D02*
X70663866Y-88756786D01*
X70663866Y-88756786D02*
X70425771Y-88756786D01*
X70425771Y-88756786D02*
X70235295Y-88804405D01*
X70235295Y-88804405D02*
X70140057Y-88852024D01*
X70140057Y-88852024D02*
X70092438Y-88899643D01*
X70092438Y-88899643D02*
X70044819Y-88994881D01*
X70378152Y-90185357D02*
X71044819Y-90185357D01*
X69997200Y-89947262D02*
X70711485Y-89709167D01*
X70711485Y-89709167D02*
X70711485Y-90328214D01*
X81929580Y-95243452D02*
X81977200Y-95195833D01*
X81977200Y-95195833D02*
X82024819Y-95052976D01*
X82024819Y-95052976D02*
X82024819Y-94957738D01*
X82024819Y-94957738D02*
X81977200Y-94814881D01*
X81977200Y-94814881D02*
X81881961Y-94719643D01*
X81881961Y-94719643D02*
X81786723Y-94672024D01*
X81786723Y-94672024D02*
X81596247Y-94624405D01*
X81596247Y-94624405D02*
X81453390Y-94624405D01*
X81453390Y-94624405D02*
X81262914Y-94672024D01*
X81262914Y-94672024D02*
X81167676Y-94719643D01*
X81167676Y-94719643D02*
X81072438Y-94814881D01*
X81072438Y-94814881D02*
X81024819Y-94957738D01*
X81024819Y-94957738D02*
X81024819Y-95052976D01*
X81024819Y-95052976D02*
X81072438Y-95195833D01*
X81072438Y-95195833D02*
X81120057Y-95243452D01*
X81024819Y-96100595D02*
X81024819Y-95910119D01*
X81024819Y-95910119D02*
X81072438Y-95814881D01*
X81072438Y-95814881D02*
X81120057Y-95767262D01*
X81120057Y-95767262D02*
X81262914Y-95672024D01*
X81262914Y-95672024D02*
X81453390Y-95624405D01*
X81453390Y-95624405D02*
X81834342Y-95624405D01*
X81834342Y-95624405D02*
X81929580Y-95672024D01*
X81929580Y-95672024D02*
X81977200Y-95719643D01*
X81977200Y-95719643D02*
X82024819Y-95814881D01*
X82024819Y-95814881D02*
X82024819Y-96005357D01*
X82024819Y-96005357D02*
X81977200Y-96100595D01*
X81977200Y-96100595D02*
X81929580Y-96148214D01*
X81929580Y-96148214D02*
X81834342Y-96195833D01*
X81834342Y-96195833D02*
X81596247Y-96195833D01*
X81596247Y-96195833D02*
X81501009Y-96148214D01*
X81501009Y-96148214D02*
X81453390Y-96100595D01*
X81453390Y-96100595D02*
X81405771Y-96005357D01*
X81405771Y-96005357D02*
X81405771Y-95814881D01*
X81405771Y-95814881D02*
X81453390Y-95719643D01*
X81453390Y-95719643D02*
X81501009Y-95672024D01*
X81501009Y-95672024D02*
X81596247Y-95624405D01*
X81024819Y-96814881D02*
X81024819Y-96910119D01*
X81024819Y-96910119D02*
X81072438Y-97005357D01*
X81072438Y-97005357D02*
X81120057Y-97052976D01*
X81120057Y-97052976D02*
X81215295Y-97100595D01*
X81215295Y-97100595D02*
X81405771Y-97148214D01*
X81405771Y-97148214D02*
X81643866Y-97148214D01*
X81643866Y-97148214D02*
X81834342Y-97100595D01*
X81834342Y-97100595D02*
X81929580Y-97052976D01*
X81929580Y-97052976D02*
X81977200Y-97005357D01*
X81977200Y-97005357D02*
X82024819Y-96910119D01*
X82024819Y-96910119D02*
X82024819Y-96814881D01*
X82024819Y-96814881D02*
X81977200Y-96719643D01*
X81977200Y-96719643D02*
X81929580Y-96672024D01*
X81929580Y-96672024D02*
X81834342Y-96624405D01*
X81834342Y-96624405D02*
X81643866Y-96576786D01*
X81643866Y-96576786D02*
X81405771Y-96576786D01*
X81405771Y-96576786D02*
X81215295Y-96624405D01*
X81215295Y-96624405D02*
X81120057Y-96672024D01*
X81120057Y-96672024D02*
X81072438Y-96719643D01*
X81072438Y-96719643D02*
X81024819Y-96814881D01*
X81024819Y-97481548D02*
X81024819Y-98100595D01*
X81024819Y-98100595D02*
X81405771Y-97767262D01*
X81405771Y-97767262D02*
X81405771Y-97910119D01*
X81405771Y-97910119D02*
X81453390Y-98005357D01*
X81453390Y-98005357D02*
X81501009Y-98052976D01*
X81501009Y-98052976D02*
X81596247Y-98100595D01*
X81596247Y-98100595D02*
X81834342Y-98100595D01*
X81834342Y-98100595D02*
X81929580Y-98052976D01*
X81929580Y-98052976D02*
X81977200Y-98005357D01*
X81977200Y-98005357D02*
X82024819Y-97910119D01*
X82024819Y-97910119D02*
X82024819Y-97624405D01*
X82024819Y-97624405D02*
X81977200Y-97529167D01*
X81977200Y-97529167D02*
X81929580Y-97481548D01*
X86119047Y-94784819D02*
X86452380Y-94308628D01*
X86690475Y-94784819D02*
X86690475Y-93784819D01*
X86690475Y-93784819D02*
X86309523Y-93784819D01*
X86309523Y-93784819D02*
X86214285Y-93832438D01*
X86214285Y-93832438D02*
X86166666Y-93880057D01*
X86166666Y-93880057D02*
X86119047Y-93975295D01*
X86119047Y-93975295D02*
X86119047Y-94118152D01*
X86119047Y-94118152D02*
X86166666Y-94213390D01*
X86166666Y-94213390D02*
X86214285Y-94261009D01*
X86214285Y-94261009D02*
X86309523Y-94308628D01*
X86309523Y-94308628D02*
X86690475Y-94308628D01*
X85261904Y-93784819D02*
X85452380Y-93784819D01*
X85452380Y-93784819D02*
X85547618Y-93832438D01*
X85547618Y-93832438D02*
X85595237Y-93880057D01*
X85595237Y-93880057D02*
X85690475Y-94022914D01*
X85690475Y-94022914D02*
X85738094Y-94213390D01*
X85738094Y-94213390D02*
X85738094Y-94594342D01*
X85738094Y-94594342D02*
X85690475Y-94689580D01*
X85690475Y-94689580D02*
X85642856Y-94737200D01*
X85642856Y-94737200D02*
X85547618Y-94784819D01*
X85547618Y-94784819D02*
X85357142Y-94784819D01*
X85357142Y-94784819D02*
X85261904Y-94737200D01*
X85261904Y-94737200D02*
X85214285Y-94689580D01*
X85214285Y-94689580D02*
X85166666Y-94594342D01*
X85166666Y-94594342D02*
X85166666Y-94356247D01*
X85166666Y-94356247D02*
X85214285Y-94261009D01*
X85214285Y-94261009D02*
X85261904Y-94213390D01*
X85261904Y-94213390D02*
X85357142Y-94165771D01*
X85357142Y-94165771D02*
X85547618Y-94165771D01*
X85547618Y-94165771D02*
X85642856Y-94213390D01*
X85642856Y-94213390D02*
X85690475Y-94261009D01*
X85690475Y-94261009D02*
X85738094Y-94356247D01*
X84547618Y-93784819D02*
X84452380Y-93784819D01*
X84452380Y-93784819D02*
X84357142Y-93832438D01*
X84357142Y-93832438D02*
X84309523Y-93880057D01*
X84309523Y-93880057D02*
X84261904Y-93975295D01*
X84261904Y-93975295D02*
X84214285Y-94165771D01*
X84214285Y-94165771D02*
X84214285Y-94403866D01*
X84214285Y-94403866D02*
X84261904Y-94594342D01*
X84261904Y-94594342D02*
X84309523Y-94689580D01*
X84309523Y-94689580D02*
X84357142Y-94737200D01*
X84357142Y-94737200D02*
X84452380Y-94784819D01*
X84452380Y-94784819D02*
X84547618Y-94784819D01*
X84547618Y-94784819D02*
X84642856Y-94737200D01*
X84642856Y-94737200D02*
X84690475Y-94689580D01*
X84690475Y-94689580D02*
X84738094Y-94594342D01*
X84738094Y-94594342D02*
X84785713Y-94403866D01*
X84785713Y-94403866D02*
X84785713Y-94165771D01*
X84785713Y-94165771D02*
X84738094Y-93975295D01*
X84738094Y-93975295D02*
X84690475Y-93880057D01*
X84690475Y-93880057D02*
X84642856Y-93832438D01*
X84642856Y-93832438D02*
X84547618Y-93784819D01*
X83833332Y-93880057D02*
X83785713Y-93832438D01*
X83785713Y-93832438D02*
X83690475Y-93784819D01*
X83690475Y-93784819D02*
X83452380Y-93784819D01*
X83452380Y-93784819D02*
X83357142Y-93832438D01*
X83357142Y-93832438D02*
X83309523Y-93880057D01*
X83309523Y-93880057D02*
X83261904Y-93975295D01*
X83261904Y-93975295D02*
X83261904Y-94070533D01*
X83261904Y-94070533D02*
X83309523Y-94213390D01*
X83309523Y-94213390D02*
X83880951Y-94784819D01*
X83880951Y-94784819D02*
X83261904Y-94784819D01*
X53119047Y-82359580D02*
X53166666Y-82407200D01*
X53166666Y-82407200D02*
X53309523Y-82454819D01*
X53309523Y-82454819D02*
X53404761Y-82454819D01*
X53404761Y-82454819D02*
X53547618Y-82407200D01*
X53547618Y-82407200D02*
X53642856Y-82311961D01*
X53642856Y-82311961D02*
X53690475Y-82216723D01*
X53690475Y-82216723D02*
X53738094Y-82026247D01*
X53738094Y-82026247D02*
X53738094Y-81883390D01*
X53738094Y-81883390D02*
X53690475Y-81692914D01*
X53690475Y-81692914D02*
X53642856Y-81597676D01*
X53642856Y-81597676D02*
X53547618Y-81502438D01*
X53547618Y-81502438D02*
X53404761Y-81454819D01*
X53404761Y-81454819D02*
X53309523Y-81454819D01*
X53309523Y-81454819D02*
X53166666Y-81502438D01*
X53166666Y-81502438D02*
X53119047Y-81550057D01*
X52738094Y-81550057D02*
X52690475Y-81502438D01*
X52690475Y-81502438D02*
X52595237Y-81454819D01*
X52595237Y-81454819D02*
X52357142Y-81454819D01*
X52357142Y-81454819D02*
X52261904Y-81502438D01*
X52261904Y-81502438D02*
X52214285Y-81550057D01*
X52214285Y-81550057D02*
X52166666Y-81645295D01*
X52166666Y-81645295D02*
X52166666Y-81740533D01*
X52166666Y-81740533D02*
X52214285Y-81883390D01*
X52214285Y-81883390D02*
X52785713Y-82454819D01*
X52785713Y-82454819D02*
X52166666Y-82454819D01*
X51547618Y-81454819D02*
X51452380Y-81454819D01*
X51452380Y-81454819D02*
X51357142Y-81502438D01*
X51357142Y-81502438D02*
X51309523Y-81550057D01*
X51309523Y-81550057D02*
X51261904Y-81645295D01*
X51261904Y-81645295D02*
X51214285Y-81835771D01*
X51214285Y-81835771D02*
X51214285Y-82073866D01*
X51214285Y-82073866D02*
X51261904Y-82264342D01*
X51261904Y-82264342D02*
X51309523Y-82359580D01*
X51309523Y-82359580D02*
X51357142Y-82407200D01*
X51357142Y-82407200D02*
X51452380Y-82454819D01*
X51452380Y-82454819D02*
X51547618Y-82454819D01*
X51547618Y-82454819D02*
X51642856Y-82407200D01*
X51642856Y-82407200D02*
X51690475Y-82359580D01*
X51690475Y-82359580D02*
X51738094Y-82264342D01*
X51738094Y-82264342D02*
X51785713Y-82073866D01*
X51785713Y-82073866D02*
X51785713Y-81835771D01*
X51785713Y-81835771D02*
X51738094Y-81645295D01*
X51738094Y-81645295D02*
X51690475Y-81550057D01*
X51690475Y-81550057D02*
X51642856Y-81502438D01*
X51642856Y-81502438D02*
X51547618Y-81454819D01*
X50357142Y-81788152D02*
X50357142Y-82454819D01*
X50595237Y-81407200D02*
X50833332Y-82121485D01*
X50833332Y-82121485D02*
X50214285Y-82121485D01*
X32238094Y-82204819D02*
X31666666Y-82204819D01*
X31952380Y-83204819D02*
X31952380Y-82204819D01*
X31333332Y-83204819D02*
X31333332Y-82204819D01*
X31333332Y-82681009D02*
X30761904Y-82681009D01*
X30761904Y-83204819D02*
X30761904Y-82204819D01*
X30380951Y-82204819D02*
X29761904Y-82204819D01*
X29761904Y-82204819D02*
X30095237Y-82585771D01*
X30095237Y-82585771D02*
X29952380Y-82585771D01*
X29952380Y-82585771D02*
X29857142Y-82633390D01*
X29857142Y-82633390D02*
X29809523Y-82681009D01*
X29809523Y-82681009D02*
X29761904Y-82776247D01*
X29761904Y-82776247D02*
X29761904Y-83014342D01*
X29761904Y-83014342D02*
X29809523Y-83109580D01*
X29809523Y-83109580D02*
X29857142Y-83157200D01*
X29857142Y-83157200D02*
X29952380Y-83204819D01*
X29952380Y-83204819D02*
X30238094Y-83204819D01*
X30238094Y-83204819D02*
X30333332Y-83157200D01*
X30333332Y-83157200D02*
X30380951Y-83109580D01*
X29142856Y-82204819D02*
X29047618Y-82204819D01*
X29047618Y-82204819D02*
X28952380Y-82252438D01*
X28952380Y-82252438D02*
X28904761Y-82300057D01*
X28904761Y-82300057D02*
X28857142Y-82395295D01*
X28857142Y-82395295D02*
X28809523Y-82585771D01*
X28809523Y-82585771D02*
X28809523Y-82823866D01*
X28809523Y-82823866D02*
X28857142Y-83014342D01*
X28857142Y-83014342D02*
X28904761Y-83109580D01*
X28904761Y-83109580D02*
X28952380Y-83157200D01*
X28952380Y-83157200D02*
X29047618Y-83204819D01*
X29047618Y-83204819D02*
X29142856Y-83204819D01*
X29142856Y-83204819D02*
X29238094Y-83157200D01*
X29238094Y-83157200D02*
X29285713Y-83109580D01*
X29285713Y-83109580D02*
X29333332Y-83014342D01*
X29333332Y-83014342D02*
X29380951Y-82823866D01*
X29380951Y-82823866D02*
X29380951Y-82585771D01*
X29380951Y-82585771D02*
X29333332Y-82395295D01*
X29333332Y-82395295D02*
X29285713Y-82300057D01*
X29285713Y-82300057D02*
X29238094Y-82252438D01*
X29238094Y-82252438D02*
X29142856Y-82204819D01*
X27857142Y-83204819D02*
X28428570Y-83204819D01*
X28142856Y-83204819D02*
X28142856Y-82204819D01*
X28142856Y-82204819D02*
X28238094Y-82347676D01*
X28238094Y-82347676D02*
X28333332Y-82442914D01*
X28333332Y-82442914D02*
X28428570Y-82490533D01*
D11*
%TO.C,C203*%
X55615835Y-80860000D02*
X55384165Y-80860000D01*
X55615835Y-80140000D02*
X55384165Y-80140000D01*
%TO.C,R305*%
X24570121Y-67880000D02*
X24234879Y-67880000D01*
X24570121Y-67120000D02*
X24234879Y-67120000D01*
%TO.C,R302*%
X44620000Y-83570121D02*
X44620000Y-83234879D01*
X45380000Y-83570121D02*
X45380000Y-83234879D01*
%TO.C,C502*%
X76758767Y-92985000D02*
X76466233Y-92985000D01*
X76758767Y-91965000D02*
X76466233Y-91965000D01*
%TO.C,U501*%
X74390000Y-88610000D02*
X74865000Y-88610000D01*
X74390000Y-88135000D02*
X74390000Y-88610000D01*
X78610000Y-88135000D02*
X78610000Y-88610000D01*
X74390000Y-84865000D02*
X74390000Y-84390000D01*
X78610000Y-84865000D02*
X78610000Y-84390000D01*
X74390000Y-84390000D02*
X74865000Y-84390000D01*
X78610000Y-84390000D02*
X78135000Y-84390000D01*
%TO.C,C501*%
X78298335Y-91335000D02*
X78066665Y-91335000D01*
X78298335Y-90615000D02*
X78066665Y-90615000D01*
%TO.C,C205*%
X52593335Y-90422500D02*
X52361665Y-90422500D01*
X52593335Y-89702500D02*
X52361665Y-89702500D01*
%TO.C,U201*%
X54890000Y-84390000D02*
X54890000Y-84865000D01*
X55365000Y-84390000D02*
X54890000Y-84390000D01*
X55365000Y-88610000D02*
X54890000Y-88610000D01*
X58635000Y-84390000D02*
X59110000Y-84390000D01*
X58635000Y-88610000D02*
X59110000Y-88610000D01*
X59110000Y-84390000D02*
X59110000Y-84865000D01*
X59110000Y-88610000D02*
X59110000Y-88135000D01*
%TO.C,R605*%
X105429879Y-67120000D02*
X105765121Y-67120000D01*
X105429879Y-67880000D02*
X105765121Y-67880000D01*
%TO.C,C503*%
X70610000Y-87859165D02*
X70610000Y-88090835D01*
X69890000Y-87859165D02*
X69890000Y-88090835D01*
%TO.C,C201*%
X52890000Y-88245835D02*
X52890000Y-88014165D01*
X53610000Y-88245835D02*
X53610000Y-88014165D01*
%TO.C,C202*%
X51490000Y-86646267D02*
X51490000Y-86353733D01*
X52510000Y-86646267D02*
X52510000Y-86353733D01*
%TO.C,C303*%
X47591233Y-82295000D02*
X47883767Y-82295000D01*
X47591233Y-83315000D02*
X47883767Y-83315000D01*
%TO.C,C505*%
X81110000Y-91926665D02*
X81110000Y-92158335D01*
X80390000Y-91926665D02*
X80390000Y-92158335D01*
%TO.C,C504*%
X72110000Y-88426665D02*
X72110000Y-88658335D01*
X71390000Y-88426665D02*
X71390000Y-88658335D01*
%TO.C,C603*%
X83510000Y-96216233D02*
X83510000Y-96508767D01*
X82490000Y-96216233D02*
X82490000Y-96508767D01*
%TO.C,R602*%
X85167621Y-95880000D02*
X84832379Y-95880000D01*
X85167621Y-95120000D02*
X84832379Y-95120000D01*
%TO.C,C204*%
X55115835Y-82360000D02*
X54884165Y-82360000D01*
X55115835Y-81640000D02*
X54884165Y-81640000D01*
%TD*%
M02*
