%TF.GenerationSoftware,KiCad,Pcbnew,8.0.3*%
%TF.CreationDate,2024-07-05T23:28:03-07:00*%
%TF.ProjectId,go-kart-esc,676f2d6b-6172-4742-9d65-73632e6b6963,rev?*%
%TF.SameCoordinates,Original*%
%TF.FileFunction,Legend,Bot*%
%TF.FilePolarity,Positive*%
%FSLAX46Y46*%
G04 Gerber Fmt 4.6, Leading zero omitted, Abs format (unit mm)*
G04 Created by KiCad (PCBNEW 8.0.3) date 2024-07-05 23:28:03*
%MOMM*%
%LPD*%
G01*
G04 APERTURE LIST*
%ADD10C,0.150000*%
%ADD11C,0.120000*%
G04 APERTURE END LIST*
D10*
X84274580Y-27408207D02*
X84322200Y-27360588D01*
X84322200Y-27360588D02*
X84369819Y-27217731D01*
X84369819Y-27217731D02*
X84369819Y-27122493D01*
X84369819Y-27122493D02*
X84322200Y-26979636D01*
X84322200Y-26979636D02*
X84226961Y-26884398D01*
X84226961Y-26884398D02*
X84131723Y-26836779D01*
X84131723Y-26836779D02*
X83941247Y-26789160D01*
X83941247Y-26789160D02*
X83798390Y-26789160D01*
X83798390Y-26789160D02*
X83607914Y-26836779D01*
X83607914Y-26836779D02*
X83512676Y-26884398D01*
X83512676Y-26884398D02*
X83417438Y-26979636D01*
X83417438Y-26979636D02*
X83369819Y-27122493D01*
X83369819Y-27122493D02*
X83369819Y-27217731D01*
X83369819Y-27217731D02*
X83417438Y-27360588D01*
X83417438Y-27360588D02*
X83465057Y-27408207D01*
X84084104Y-27789160D02*
X84084104Y-28265350D01*
X84369819Y-27693922D02*
X83369819Y-28027255D01*
X83369819Y-28027255D02*
X84369819Y-28360588D01*
X84369819Y-28693922D02*
X83369819Y-28693922D01*
X83369819Y-28693922D02*
X84369819Y-29265350D01*
X84369819Y-29265350D02*
X83369819Y-29265350D01*
X84369819Y-30979636D02*
X84369819Y-30503446D01*
X84369819Y-30503446D02*
X83369819Y-30503446D01*
X83369819Y-31503446D02*
X83369819Y-31693922D01*
X83369819Y-31693922D02*
X83417438Y-31789160D01*
X83417438Y-31789160D02*
X83512676Y-31884398D01*
X83512676Y-31884398D02*
X83703152Y-31932017D01*
X83703152Y-31932017D02*
X84036485Y-31932017D01*
X84036485Y-31932017D02*
X84226961Y-31884398D01*
X84226961Y-31884398D02*
X84322200Y-31789160D01*
X84322200Y-31789160D02*
X84369819Y-31693922D01*
X84369819Y-31693922D02*
X84369819Y-31503446D01*
X84369819Y-31503446D02*
X84322200Y-31408208D01*
X84322200Y-31408208D02*
X84226961Y-31312970D01*
X84226961Y-31312970D02*
X84036485Y-31265351D01*
X84036485Y-31265351D02*
X83703152Y-31265351D01*
X83703152Y-31265351D02*
X83512676Y-31312970D01*
X83512676Y-31312970D02*
X83417438Y-31408208D01*
X83417438Y-31408208D02*
X83369819Y-31503446D01*
X83369819Y-32265351D02*
X84369819Y-32503446D01*
X84369819Y-32503446D02*
X83655533Y-32693922D01*
X83655533Y-32693922D02*
X84369819Y-32884398D01*
X84369819Y-32884398D02*
X83369819Y-33122494D01*
X102139411Y-56917438D02*
X102234649Y-56869819D01*
X102234649Y-56869819D02*
X102377506Y-56869819D01*
X102377506Y-56869819D02*
X102520363Y-56917438D01*
X102520363Y-56917438D02*
X102615601Y-57012676D01*
X102615601Y-57012676D02*
X102663220Y-57107914D01*
X102663220Y-57107914D02*
X102710839Y-57298390D01*
X102710839Y-57298390D02*
X102710839Y-57441247D01*
X102710839Y-57441247D02*
X102663220Y-57631723D01*
X102663220Y-57631723D02*
X102615601Y-57726961D01*
X102615601Y-57726961D02*
X102520363Y-57822200D01*
X102520363Y-57822200D02*
X102377506Y-57869819D01*
X102377506Y-57869819D02*
X102282268Y-57869819D01*
X102282268Y-57869819D02*
X102139411Y-57822200D01*
X102139411Y-57822200D02*
X102091792Y-57774580D01*
X102091792Y-57774580D02*
X102091792Y-57441247D01*
X102091792Y-57441247D02*
X102282268Y-57441247D01*
X101663220Y-57869819D02*
X101663220Y-56869819D01*
X101663220Y-56869819D02*
X101091792Y-57869819D01*
X101091792Y-57869819D02*
X101091792Y-56869819D01*
X100615601Y-57869819D02*
X100615601Y-56869819D01*
X100615601Y-56869819D02*
X100377506Y-56869819D01*
X100377506Y-56869819D02*
X100234649Y-56917438D01*
X100234649Y-56917438D02*
X100139411Y-57012676D01*
X100139411Y-57012676D02*
X100091792Y-57107914D01*
X100091792Y-57107914D02*
X100044173Y-57298390D01*
X100044173Y-57298390D02*
X100044173Y-57441247D01*
X100044173Y-57441247D02*
X100091792Y-57631723D01*
X100091792Y-57631723D02*
X100139411Y-57726961D01*
X100139411Y-57726961D02*
X100234649Y-57822200D01*
X100234649Y-57822200D02*
X100377506Y-57869819D01*
X100377506Y-57869819D02*
X100615601Y-57869819D01*
X103258458Y-36869819D02*
X102639411Y-36869819D01*
X102639411Y-36869819D02*
X102972744Y-37250771D01*
X102972744Y-37250771D02*
X102829887Y-37250771D01*
X102829887Y-37250771D02*
X102734649Y-37298390D01*
X102734649Y-37298390D02*
X102687030Y-37346009D01*
X102687030Y-37346009D02*
X102639411Y-37441247D01*
X102639411Y-37441247D02*
X102639411Y-37679342D01*
X102639411Y-37679342D02*
X102687030Y-37774580D01*
X102687030Y-37774580D02*
X102734649Y-37822200D01*
X102734649Y-37822200D02*
X102829887Y-37869819D01*
X102829887Y-37869819D02*
X103115601Y-37869819D01*
X103115601Y-37869819D02*
X103210839Y-37822200D01*
X103210839Y-37822200D02*
X103258458Y-37774580D01*
X102306077Y-37203152D02*
X102067982Y-37869819D01*
X102067982Y-37869819D02*
X101829887Y-37203152D01*
X101544172Y-36869819D02*
X100925125Y-36869819D01*
X100925125Y-36869819D02*
X101258458Y-37250771D01*
X101258458Y-37250771D02*
X101115601Y-37250771D01*
X101115601Y-37250771D02*
X101020363Y-37298390D01*
X101020363Y-37298390D02*
X100972744Y-37346009D01*
X100972744Y-37346009D02*
X100925125Y-37441247D01*
X100925125Y-37441247D02*
X100925125Y-37679342D01*
X100925125Y-37679342D02*
X100972744Y-37774580D01*
X100972744Y-37774580D02*
X101020363Y-37822200D01*
X101020363Y-37822200D02*
X101115601Y-37869819D01*
X101115601Y-37869819D02*
X101401315Y-37869819D01*
X101401315Y-37869819D02*
X101496553Y-37822200D01*
X101496553Y-37822200D02*
X101544172Y-37774580D01*
X40646303Y-40869819D02*
X40646303Y-39869819D01*
X40646303Y-39869819D02*
X40312970Y-40584104D01*
X40312970Y-40584104D02*
X39979637Y-39869819D01*
X39979637Y-39869819D02*
X39979637Y-40869819D01*
X39312970Y-39869819D02*
X39122494Y-39869819D01*
X39122494Y-39869819D02*
X39027256Y-39917438D01*
X39027256Y-39917438D02*
X38932018Y-40012676D01*
X38932018Y-40012676D02*
X38884399Y-40203152D01*
X38884399Y-40203152D02*
X38884399Y-40536485D01*
X38884399Y-40536485D02*
X38932018Y-40726961D01*
X38932018Y-40726961D02*
X39027256Y-40822200D01*
X39027256Y-40822200D02*
X39122494Y-40869819D01*
X39122494Y-40869819D02*
X39312970Y-40869819D01*
X39312970Y-40869819D02*
X39408208Y-40822200D01*
X39408208Y-40822200D02*
X39503446Y-40726961D01*
X39503446Y-40726961D02*
X39551065Y-40536485D01*
X39551065Y-40536485D02*
X39551065Y-40203152D01*
X39551065Y-40203152D02*
X39503446Y-40012676D01*
X39503446Y-40012676D02*
X39408208Y-39917438D01*
X39408208Y-39917438D02*
X39312970Y-39869819D01*
X38598684Y-39869819D02*
X38027256Y-39869819D01*
X38312970Y-40869819D02*
X38312970Y-39869819D01*
X37503446Y-39869819D02*
X37312970Y-39869819D01*
X37312970Y-39869819D02*
X37217732Y-39917438D01*
X37217732Y-39917438D02*
X37122494Y-40012676D01*
X37122494Y-40012676D02*
X37074875Y-40203152D01*
X37074875Y-40203152D02*
X37074875Y-40536485D01*
X37074875Y-40536485D02*
X37122494Y-40726961D01*
X37122494Y-40726961D02*
X37217732Y-40822200D01*
X37217732Y-40822200D02*
X37312970Y-40869819D01*
X37312970Y-40869819D02*
X37503446Y-40869819D01*
X37503446Y-40869819D02*
X37598684Y-40822200D01*
X37598684Y-40822200D02*
X37693922Y-40726961D01*
X37693922Y-40726961D02*
X37741541Y-40536485D01*
X37741541Y-40536485D02*
X37741541Y-40203152D01*
X37741541Y-40203152D02*
X37693922Y-40012676D01*
X37693922Y-40012676D02*
X37598684Y-39917438D01*
X37598684Y-39917438D02*
X37503446Y-39869819D01*
X36074875Y-40869819D02*
X36408208Y-40393628D01*
X36646303Y-40869819D02*
X36646303Y-39869819D01*
X36646303Y-39869819D02*
X36265351Y-39869819D01*
X36265351Y-39869819D02*
X36170113Y-39917438D01*
X36170113Y-39917438D02*
X36122494Y-39965057D01*
X36122494Y-39965057D02*
X36074875Y-40060295D01*
X36074875Y-40060295D02*
X36074875Y-40203152D01*
X36074875Y-40203152D02*
X36122494Y-40298390D01*
X36122494Y-40298390D02*
X36170113Y-40346009D01*
X36170113Y-40346009D02*
X36265351Y-40393628D01*
X36265351Y-40393628D02*
X36646303Y-40393628D01*
X34884398Y-40346009D02*
X34551065Y-40346009D01*
X34408208Y-40869819D02*
X34884398Y-40869819D01*
X34884398Y-40869819D02*
X34884398Y-39869819D01*
X34884398Y-39869819D02*
X34408208Y-39869819D01*
X33979636Y-40869819D02*
X33979636Y-39869819D01*
X33979636Y-39869819D02*
X33408208Y-40869819D01*
X33408208Y-40869819D02*
X33408208Y-39869819D01*
X32360589Y-40774580D02*
X32408208Y-40822200D01*
X32408208Y-40822200D02*
X32551065Y-40869819D01*
X32551065Y-40869819D02*
X32646303Y-40869819D01*
X32646303Y-40869819D02*
X32789160Y-40822200D01*
X32789160Y-40822200D02*
X32884398Y-40726961D01*
X32884398Y-40726961D02*
X32932017Y-40631723D01*
X32932017Y-40631723D02*
X32979636Y-40441247D01*
X32979636Y-40441247D02*
X32979636Y-40298390D01*
X32979636Y-40298390D02*
X32932017Y-40107914D01*
X32932017Y-40107914D02*
X32884398Y-40012676D01*
X32884398Y-40012676D02*
X32789160Y-39917438D01*
X32789160Y-39917438D02*
X32646303Y-39869819D01*
X32646303Y-39869819D02*
X32551065Y-39869819D01*
X32551065Y-39869819D02*
X32408208Y-39917438D01*
X32408208Y-39917438D02*
X32360589Y-39965057D01*
X31741541Y-39869819D02*
X31551065Y-39869819D01*
X31551065Y-39869819D02*
X31455827Y-39917438D01*
X31455827Y-39917438D02*
X31360589Y-40012676D01*
X31360589Y-40012676D02*
X31312970Y-40203152D01*
X31312970Y-40203152D02*
X31312970Y-40536485D01*
X31312970Y-40536485D02*
X31360589Y-40726961D01*
X31360589Y-40726961D02*
X31455827Y-40822200D01*
X31455827Y-40822200D02*
X31551065Y-40869819D01*
X31551065Y-40869819D02*
X31741541Y-40869819D01*
X31741541Y-40869819D02*
X31836779Y-40822200D01*
X31836779Y-40822200D02*
X31932017Y-40726961D01*
X31932017Y-40726961D02*
X31979636Y-40536485D01*
X31979636Y-40536485D02*
X31979636Y-40203152D01*
X31979636Y-40203152D02*
X31932017Y-40012676D01*
X31932017Y-40012676D02*
X31836779Y-39917438D01*
X31836779Y-39917438D02*
X31741541Y-39869819D01*
X30884398Y-40869819D02*
X30884398Y-39869819D01*
X30884398Y-39869819D02*
X30646303Y-39869819D01*
X30646303Y-39869819D02*
X30503446Y-39917438D01*
X30503446Y-39917438D02*
X30408208Y-40012676D01*
X30408208Y-40012676D02*
X30360589Y-40107914D01*
X30360589Y-40107914D02*
X30312970Y-40298390D01*
X30312970Y-40298390D02*
X30312970Y-40441247D01*
X30312970Y-40441247D02*
X30360589Y-40631723D01*
X30360589Y-40631723D02*
X30408208Y-40726961D01*
X30408208Y-40726961D02*
X30503446Y-40822200D01*
X30503446Y-40822200D02*
X30646303Y-40869819D01*
X30646303Y-40869819D02*
X30884398Y-40869819D01*
X29884398Y-40346009D02*
X29551065Y-40346009D01*
X29408208Y-40869819D02*
X29884398Y-40869819D01*
X29884398Y-40869819D02*
X29884398Y-39869819D01*
X29884398Y-39869819D02*
X29408208Y-39869819D01*
X28408208Y-40869819D02*
X28741541Y-40393628D01*
X28979636Y-40869819D02*
X28979636Y-39869819D01*
X28979636Y-39869819D02*
X28598684Y-39869819D01*
X28598684Y-39869819D02*
X28503446Y-39917438D01*
X28503446Y-39917438D02*
X28455827Y-39965057D01*
X28455827Y-39965057D02*
X28408208Y-40060295D01*
X28408208Y-40060295D02*
X28408208Y-40203152D01*
X28408208Y-40203152D02*
X28455827Y-40298390D01*
X28455827Y-40298390D02*
X28503446Y-40346009D01*
X28503446Y-40346009D02*
X28598684Y-40393628D01*
X28598684Y-40393628D02*
X28979636Y-40393628D01*
X27265350Y-40584104D02*
X26789160Y-40584104D01*
X27360588Y-40869819D02*
X27027255Y-39869819D01*
X27027255Y-39869819D02*
X26693922Y-40869819D01*
X102139411Y-41917438D02*
X102234649Y-41869819D01*
X102234649Y-41869819D02*
X102377506Y-41869819D01*
X102377506Y-41869819D02*
X102520363Y-41917438D01*
X102520363Y-41917438D02*
X102615601Y-42012676D01*
X102615601Y-42012676D02*
X102663220Y-42107914D01*
X102663220Y-42107914D02*
X102710839Y-42298390D01*
X102710839Y-42298390D02*
X102710839Y-42441247D01*
X102710839Y-42441247D02*
X102663220Y-42631723D01*
X102663220Y-42631723D02*
X102615601Y-42726961D01*
X102615601Y-42726961D02*
X102520363Y-42822200D01*
X102520363Y-42822200D02*
X102377506Y-42869819D01*
X102377506Y-42869819D02*
X102282268Y-42869819D01*
X102282268Y-42869819D02*
X102139411Y-42822200D01*
X102139411Y-42822200D02*
X102091792Y-42774580D01*
X102091792Y-42774580D02*
X102091792Y-42441247D01*
X102091792Y-42441247D02*
X102282268Y-42441247D01*
X101663220Y-42869819D02*
X101663220Y-41869819D01*
X101663220Y-41869819D02*
X101091792Y-42869819D01*
X101091792Y-42869819D02*
X101091792Y-41869819D01*
X100615601Y-42869819D02*
X100615601Y-41869819D01*
X100615601Y-41869819D02*
X100377506Y-41869819D01*
X100377506Y-41869819D02*
X100234649Y-41917438D01*
X100234649Y-41917438D02*
X100139411Y-42012676D01*
X100139411Y-42012676D02*
X100091792Y-42107914D01*
X100091792Y-42107914D02*
X100044173Y-42298390D01*
X100044173Y-42298390D02*
X100044173Y-42441247D01*
X100044173Y-42441247D02*
X100091792Y-42631723D01*
X100091792Y-42631723D02*
X100139411Y-42726961D01*
X100139411Y-42726961D02*
X100234649Y-42822200D01*
X100234649Y-42822200D02*
X100377506Y-42869819D01*
X100377506Y-42869819D02*
X100615601Y-42869819D01*
X29122493Y-57369819D02*
X28503446Y-57369819D01*
X28503446Y-57369819D02*
X28836779Y-57750771D01*
X28836779Y-57750771D02*
X28693922Y-57750771D01*
X28693922Y-57750771D02*
X28598684Y-57798390D01*
X28598684Y-57798390D02*
X28551065Y-57846009D01*
X28551065Y-57846009D02*
X28503446Y-57941247D01*
X28503446Y-57941247D02*
X28503446Y-58179342D01*
X28503446Y-58179342D02*
X28551065Y-58274580D01*
X28551065Y-58274580D02*
X28598684Y-58322200D01*
X28598684Y-58322200D02*
X28693922Y-58369819D01*
X28693922Y-58369819D02*
X28979636Y-58369819D01*
X28979636Y-58369819D02*
X29074874Y-58322200D01*
X29074874Y-58322200D02*
X29122493Y-58274580D01*
X28170112Y-57703152D02*
X27932017Y-58369819D01*
X27932017Y-58369819D02*
X27693922Y-57703152D01*
X27408207Y-57369819D02*
X26789160Y-57369819D01*
X26789160Y-57369819D02*
X27122493Y-57750771D01*
X27122493Y-57750771D02*
X26979636Y-57750771D01*
X26979636Y-57750771D02*
X26884398Y-57798390D01*
X26884398Y-57798390D02*
X26836779Y-57846009D01*
X26836779Y-57846009D02*
X26789160Y-57941247D01*
X26789160Y-57941247D02*
X26789160Y-58179342D01*
X26789160Y-58179342D02*
X26836779Y-58274580D01*
X26836779Y-58274580D02*
X26884398Y-58322200D01*
X26884398Y-58322200D02*
X26979636Y-58369819D01*
X26979636Y-58369819D02*
X27265350Y-58369819D01*
X27265350Y-58369819D02*
X27360588Y-58322200D01*
X27360588Y-58322200D02*
X27408207Y-58274580D01*
X69274580Y-27408207D02*
X69322200Y-27360588D01*
X69322200Y-27360588D02*
X69369819Y-27217731D01*
X69369819Y-27217731D02*
X69369819Y-27122493D01*
X69369819Y-27122493D02*
X69322200Y-26979636D01*
X69322200Y-26979636D02*
X69226961Y-26884398D01*
X69226961Y-26884398D02*
X69131723Y-26836779D01*
X69131723Y-26836779D02*
X68941247Y-26789160D01*
X68941247Y-26789160D02*
X68798390Y-26789160D01*
X68798390Y-26789160D02*
X68607914Y-26836779D01*
X68607914Y-26836779D02*
X68512676Y-26884398D01*
X68512676Y-26884398D02*
X68417438Y-26979636D01*
X68417438Y-26979636D02*
X68369819Y-27122493D01*
X68369819Y-27122493D02*
X68369819Y-27217731D01*
X68369819Y-27217731D02*
X68417438Y-27360588D01*
X68417438Y-27360588D02*
X68465057Y-27408207D01*
X69084104Y-27789160D02*
X69084104Y-28265350D01*
X69369819Y-27693922D02*
X68369819Y-28027255D01*
X68369819Y-28027255D02*
X69369819Y-28360588D01*
X69369819Y-28693922D02*
X68369819Y-28693922D01*
X68369819Y-28693922D02*
X69369819Y-29265350D01*
X69369819Y-29265350D02*
X68369819Y-29265350D01*
X69369819Y-30503446D02*
X68369819Y-30503446D01*
X68846009Y-30503446D02*
X68846009Y-31074874D01*
X69369819Y-31074874D02*
X68369819Y-31074874D01*
X69369819Y-31551065D02*
X68369819Y-31551065D01*
X68417438Y-32551064D02*
X68369819Y-32455826D01*
X68369819Y-32455826D02*
X68369819Y-32312969D01*
X68369819Y-32312969D02*
X68417438Y-32170112D01*
X68417438Y-32170112D02*
X68512676Y-32074874D01*
X68512676Y-32074874D02*
X68607914Y-32027255D01*
X68607914Y-32027255D02*
X68798390Y-31979636D01*
X68798390Y-31979636D02*
X68941247Y-31979636D01*
X68941247Y-31979636D02*
X69131723Y-32027255D01*
X69131723Y-32027255D02*
X69226961Y-32074874D01*
X69226961Y-32074874D02*
X69322200Y-32170112D01*
X69322200Y-32170112D02*
X69369819Y-32312969D01*
X69369819Y-32312969D02*
X69369819Y-32408207D01*
X69369819Y-32408207D02*
X69322200Y-32551064D01*
X69322200Y-32551064D02*
X69274580Y-32598683D01*
X69274580Y-32598683D02*
X68941247Y-32598683D01*
X68941247Y-32598683D02*
X68941247Y-32408207D01*
X69369819Y-33027255D02*
X68369819Y-33027255D01*
X68846009Y-33027255D02*
X68846009Y-33598683D01*
X69369819Y-33598683D02*
X68369819Y-33598683D01*
X71274580Y-27408207D02*
X71322200Y-27360588D01*
X71322200Y-27360588D02*
X71369819Y-27217731D01*
X71369819Y-27217731D02*
X71369819Y-27122493D01*
X71369819Y-27122493D02*
X71322200Y-26979636D01*
X71322200Y-26979636D02*
X71226961Y-26884398D01*
X71226961Y-26884398D02*
X71131723Y-26836779D01*
X71131723Y-26836779D02*
X70941247Y-26789160D01*
X70941247Y-26789160D02*
X70798390Y-26789160D01*
X70798390Y-26789160D02*
X70607914Y-26836779D01*
X70607914Y-26836779D02*
X70512676Y-26884398D01*
X70512676Y-26884398D02*
X70417438Y-26979636D01*
X70417438Y-26979636D02*
X70369819Y-27122493D01*
X70369819Y-27122493D02*
X70369819Y-27217731D01*
X70369819Y-27217731D02*
X70417438Y-27360588D01*
X70417438Y-27360588D02*
X70465057Y-27408207D01*
X71084104Y-27789160D02*
X71084104Y-28265350D01*
X71369819Y-27693922D02*
X70369819Y-28027255D01*
X70369819Y-28027255D02*
X71369819Y-28360588D01*
X71369819Y-28693922D02*
X70369819Y-28693922D01*
X70369819Y-28693922D02*
X71369819Y-29265350D01*
X71369819Y-29265350D02*
X70369819Y-29265350D01*
X71369819Y-30979636D02*
X71369819Y-30503446D01*
X71369819Y-30503446D02*
X70369819Y-30503446D01*
X70369819Y-31503446D02*
X70369819Y-31693922D01*
X70369819Y-31693922D02*
X70417438Y-31789160D01*
X70417438Y-31789160D02*
X70512676Y-31884398D01*
X70512676Y-31884398D02*
X70703152Y-31932017D01*
X70703152Y-31932017D02*
X71036485Y-31932017D01*
X71036485Y-31932017D02*
X71226961Y-31884398D01*
X71226961Y-31884398D02*
X71322200Y-31789160D01*
X71322200Y-31789160D02*
X71369819Y-31693922D01*
X71369819Y-31693922D02*
X71369819Y-31503446D01*
X71369819Y-31503446D02*
X71322200Y-31408208D01*
X71322200Y-31408208D02*
X71226961Y-31312970D01*
X71226961Y-31312970D02*
X71036485Y-31265351D01*
X71036485Y-31265351D02*
X70703152Y-31265351D01*
X70703152Y-31265351D02*
X70512676Y-31312970D01*
X70512676Y-31312970D02*
X70417438Y-31408208D01*
X70417438Y-31408208D02*
X70369819Y-31503446D01*
X70369819Y-32265351D02*
X71369819Y-32503446D01*
X71369819Y-32503446D02*
X70655533Y-32693922D01*
X70655533Y-32693922D02*
X71369819Y-32884398D01*
X71369819Y-32884398D02*
X70369819Y-33122494D01*
X46869819Y-27241541D02*
X46869819Y-27860588D01*
X46869819Y-27860588D02*
X47250771Y-27527255D01*
X47250771Y-27527255D02*
X47250771Y-27670112D01*
X47250771Y-27670112D02*
X47298390Y-27765350D01*
X47298390Y-27765350D02*
X47346009Y-27812969D01*
X47346009Y-27812969D02*
X47441247Y-27860588D01*
X47441247Y-27860588D02*
X47679342Y-27860588D01*
X47679342Y-27860588D02*
X47774580Y-27812969D01*
X47774580Y-27812969D02*
X47822200Y-27765350D01*
X47822200Y-27765350D02*
X47869819Y-27670112D01*
X47869819Y-27670112D02*
X47869819Y-27384398D01*
X47869819Y-27384398D02*
X47822200Y-27289160D01*
X47822200Y-27289160D02*
X47774580Y-27241541D01*
X47203152Y-28193922D02*
X47869819Y-28432017D01*
X47869819Y-28432017D02*
X47203152Y-28670112D01*
X46869819Y-28955827D02*
X46869819Y-29574874D01*
X46869819Y-29574874D02*
X47250771Y-29241541D01*
X47250771Y-29241541D02*
X47250771Y-29384398D01*
X47250771Y-29384398D02*
X47298390Y-29479636D01*
X47298390Y-29479636D02*
X47346009Y-29527255D01*
X47346009Y-29527255D02*
X47441247Y-29574874D01*
X47441247Y-29574874D02*
X47679342Y-29574874D01*
X47679342Y-29574874D02*
X47774580Y-29527255D01*
X47774580Y-29527255D02*
X47822200Y-29479636D01*
X47822200Y-29479636D02*
X47869819Y-29384398D01*
X47869819Y-29384398D02*
X47869819Y-29098684D01*
X47869819Y-29098684D02*
X47822200Y-29003446D01*
X47822200Y-29003446D02*
X47774580Y-28955827D01*
X28884398Y-37417438D02*
X28979636Y-37369819D01*
X28979636Y-37369819D02*
X29122493Y-37369819D01*
X29122493Y-37369819D02*
X29265350Y-37417438D01*
X29265350Y-37417438D02*
X29360588Y-37512676D01*
X29360588Y-37512676D02*
X29408207Y-37607914D01*
X29408207Y-37607914D02*
X29455826Y-37798390D01*
X29455826Y-37798390D02*
X29455826Y-37941247D01*
X29455826Y-37941247D02*
X29408207Y-38131723D01*
X29408207Y-38131723D02*
X29360588Y-38226961D01*
X29360588Y-38226961D02*
X29265350Y-38322200D01*
X29265350Y-38322200D02*
X29122493Y-38369819D01*
X29122493Y-38369819D02*
X29027255Y-38369819D01*
X29027255Y-38369819D02*
X28884398Y-38322200D01*
X28884398Y-38322200D02*
X28836779Y-38274580D01*
X28836779Y-38274580D02*
X28836779Y-37941247D01*
X28836779Y-37941247D02*
X29027255Y-37941247D01*
X28408207Y-38369819D02*
X28408207Y-37369819D01*
X28408207Y-37369819D02*
X27836779Y-38369819D01*
X27836779Y-38369819D02*
X27836779Y-37369819D01*
X27360588Y-38369819D02*
X27360588Y-37369819D01*
X27360588Y-37369819D02*
X27122493Y-37369819D01*
X27122493Y-37369819D02*
X26979636Y-37417438D01*
X26979636Y-37417438D02*
X26884398Y-37512676D01*
X26884398Y-37512676D02*
X26836779Y-37607914D01*
X26836779Y-37607914D02*
X26789160Y-37798390D01*
X26789160Y-37798390D02*
X26789160Y-37941247D01*
X26789160Y-37941247D02*
X26836779Y-38131723D01*
X26836779Y-38131723D02*
X26884398Y-38226961D01*
X26884398Y-38226961D02*
X26979636Y-38322200D01*
X26979636Y-38322200D02*
X27122493Y-38369819D01*
X27122493Y-38369819D02*
X27360588Y-38369819D01*
X37551065Y-55869819D02*
X37551065Y-54869819D01*
X37551065Y-54869819D02*
X37217732Y-55584104D01*
X37217732Y-55584104D02*
X36884399Y-54869819D01*
X36884399Y-54869819D02*
X36884399Y-55869819D01*
X36217732Y-54869819D02*
X36027256Y-54869819D01*
X36027256Y-54869819D02*
X35932018Y-54917438D01*
X35932018Y-54917438D02*
X35836780Y-55012676D01*
X35836780Y-55012676D02*
X35789161Y-55203152D01*
X35789161Y-55203152D02*
X35789161Y-55536485D01*
X35789161Y-55536485D02*
X35836780Y-55726961D01*
X35836780Y-55726961D02*
X35932018Y-55822200D01*
X35932018Y-55822200D02*
X36027256Y-55869819D01*
X36027256Y-55869819D02*
X36217732Y-55869819D01*
X36217732Y-55869819D02*
X36312970Y-55822200D01*
X36312970Y-55822200D02*
X36408208Y-55726961D01*
X36408208Y-55726961D02*
X36455827Y-55536485D01*
X36455827Y-55536485D02*
X36455827Y-55203152D01*
X36455827Y-55203152D02*
X36408208Y-55012676D01*
X36408208Y-55012676D02*
X36312970Y-54917438D01*
X36312970Y-54917438D02*
X36217732Y-54869819D01*
X35503446Y-54869819D02*
X34932018Y-54869819D01*
X35217732Y-55869819D02*
X35217732Y-54869819D01*
X34408208Y-54869819D02*
X34217732Y-54869819D01*
X34217732Y-54869819D02*
X34122494Y-54917438D01*
X34122494Y-54917438D02*
X34027256Y-55012676D01*
X34027256Y-55012676D02*
X33979637Y-55203152D01*
X33979637Y-55203152D02*
X33979637Y-55536485D01*
X33979637Y-55536485D02*
X34027256Y-55726961D01*
X34027256Y-55726961D02*
X34122494Y-55822200D01*
X34122494Y-55822200D02*
X34217732Y-55869819D01*
X34217732Y-55869819D02*
X34408208Y-55869819D01*
X34408208Y-55869819D02*
X34503446Y-55822200D01*
X34503446Y-55822200D02*
X34598684Y-55726961D01*
X34598684Y-55726961D02*
X34646303Y-55536485D01*
X34646303Y-55536485D02*
X34646303Y-55203152D01*
X34646303Y-55203152D02*
X34598684Y-55012676D01*
X34598684Y-55012676D02*
X34503446Y-54917438D01*
X34503446Y-54917438D02*
X34408208Y-54869819D01*
X32979637Y-55869819D02*
X33312970Y-55393628D01*
X33551065Y-55869819D02*
X33551065Y-54869819D01*
X33551065Y-54869819D02*
X33170113Y-54869819D01*
X33170113Y-54869819D02*
X33074875Y-54917438D01*
X33074875Y-54917438D02*
X33027256Y-54965057D01*
X33027256Y-54965057D02*
X32979637Y-55060295D01*
X32979637Y-55060295D02*
X32979637Y-55203152D01*
X32979637Y-55203152D02*
X33027256Y-55298390D01*
X33027256Y-55298390D02*
X33074875Y-55346009D01*
X33074875Y-55346009D02*
X33170113Y-55393628D01*
X33170113Y-55393628D02*
X33551065Y-55393628D01*
X31932017Y-54869819D02*
X31360589Y-54869819D01*
X31646303Y-55869819D02*
X31646303Y-54869819D01*
X31027255Y-55346009D02*
X30693922Y-55346009D01*
X30551065Y-55869819D02*
X31027255Y-55869819D01*
X31027255Y-55869819D02*
X31027255Y-54869819D01*
X31027255Y-54869819D02*
X30551065Y-54869819D01*
X30122493Y-55869819D02*
X30122493Y-54869819D01*
X30122493Y-54869819D02*
X29789160Y-55584104D01*
X29789160Y-55584104D02*
X29455827Y-54869819D01*
X29455827Y-54869819D02*
X29455827Y-55869819D01*
X28979636Y-55869819D02*
X28979636Y-54869819D01*
X28979636Y-54869819D02*
X28598684Y-54869819D01*
X28598684Y-54869819D02*
X28503446Y-54917438D01*
X28503446Y-54917438D02*
X28455827Y-54965057D01*
X28455827Y-54965057D02*
X28408208Y-55060295D01*
X28408208Y-55060295D02*
X28408208Y-55203152D01*
X28408208Y-55203152D02*
X28455827Y-55298390D01*
X28455827Y-55298390D02*
X28503446Y-55346009D01*
X28503446Y-55346009D02*
X28598684Y-55393628D01*
X28598684Y-55393628D02*
X28979636Y-55393628D01*
X27265350Y-55584104D02*
X26789160Y-55584104D01*
X27360588Y-55869819D02*
X27027255Y-54869819D01*
X27027255Y-54869819D02*
X26693922Y-55869819D01*
X82274580Y-27408207D02*
X82322200Y-27360588D01*
X82322200Y-27360588D02*
X82369819Y-27217731D01*
X82369819Y-27217731D02*
X82369819Y-27122493D01*
X82369819Y-27122493D02*
X82322200Y-26979636D01*
X82322200Y-26979636D02*
X82226961Y-26884398D01*
X82226961Y-26884398D02*
X82131723Y-26836779D01*
X82131723Y-26836779D02*
X81941247Y-26789160D01*
X81941247Y-26789160D02*
X81798390Y-26789160D01*
X81798390Y-26789160D02*
X81607914Y-26836779D01*
X81607914Y-26836779D02*
X81512676Y-26884398D01*
X81512676Y-26884398D02*
X81417438Y-26979636D01*
X81417438Y-26979636D02*
X81369819Y-27122493D01*
X81369819Y-27122493D02*
X81369819Y-27217731D01*
X81369819Y-27217731D02*
X81417438Y-27360588D01*
X81417438Y-27360588D02*
X81465057Y-27408207D01*
X82084104Y-27789160D02*
X82084104Y-28265350D01*
X82369819Y-27693922D02*
X81369819Y-28027255D01*
X81369819Y-28027255D02*
X82369819Y-28360588D01*
X82369819Y-28693922D02*
X81369819Y-28693922D01*
X81369819Y-28693922D02*
X82369819Y-29265350D01*
X82369819Y-29265350D02*
X81369819Y-29265350D01*
X82369819Y-30503446D02*
X81369819Y-30503446D01*
X81846009Y-30503446D02*
X81846009Y-31074874D01*
X82369819Y-31074874D02*
X81369819Y-31074874D01*
X82369819Y-31551065D02*
X81369819Y-31551065D01*
X81417438Y-32551064D02*
X81369819Y-32455826D01*
X81369819Y-32455826D02*
X81369819Y-32312969D01*
X81369819Y-32312969D02*
X81417438Y-32170112D01*
X81417438Y-32170112D02*
X81512676Y-32074874D01*
X81512676Y-32074874D02*
X81607914Y-32027255D01*
X81607914Y-32027255D02*
X81798390Y-31979636D01*
X81798390Y-31979636D02*
X81941247Y-31979636D01*
X81941247Y-31979636D02*
X82131723Y-32027255D01*
X82131723Y-32027255D02*
X82226961Y-32074874D01*
X82226961Y-32074874D02*
X82322200Y-32170112D01*
X82322200Y-32170112D02*
X82369819Y-32312969D01*
X82369819Y-32312969D02*
X82369819Y-32408207D01*
X82369819Y-32408207D02*
X82322200Y-32551064D01*
X82322200Y-32551064D02*
X82274580Y-32598683D01*
X82274580Y-32598683D02*
X81941247Y-32598683D01*
X81941247Y-32598683D02*
X81941247Y-32408207D01*
X82369819Y-33027255D02*
X81369819Y-33027255D01*
X81846009Y-33027255D02*
X81846009Y-33598683D01*
X82369819Y-33598683D02*
X81369819Y-33598683D01*
X102758458Y-51869819D02*
X102139411Y-51869819D01*
X102139411Y-51869819D02*
X102472744Y-52250771D01*
X102472744Y-52250771D02*
X102329887Y-52250771D01*
X102329887Y-52250771D02*
X102234649Y-52298390D01*
X102234649Y-52298390D02*
X102187030Y-52346009D01*
X102187030Y-52346009D02*
X102139411Y-52441247D01*
X102139411Y-52441247D02*
X102139411Y-52679342D01*
X102139411Y-52679342D02*
X102187030Y-52774580D01*
X102187030Y-52774580D02*
X102234649Y-52822200D01*
X102234649Y-52822200D02*
X102329887Y-52869819D01*
X102329887Y-52869819D02*
X102615601Y-52869819D01*
X102615601Y-52869819D02*
X102710839Y-52822200D01*
X102710839Y-52822200D02*
X102758458Y-52774580D01*
X101806077Y-52203152D02*
X101567982Y-52869819D01*
X101567982Y-52869819D02*
X101329887Y-52203152D01*
X101044172Y-51869819D02*
X100425125Y-51869819D01*
X100425125Y-51869819D02*
X100758458Y-52250771D01*
X100758458Y-52250771D02*
X100615601Y-52250771D01*
X100615601Y-52250771D02*
X100520363Y-52298390D01*
X100520363Y-52298390D02*
X100472744Y-52346009D01*
X100472744Y-52346009D02*
X100425125Y-52441247D01*
X100425125Y-52441247D02*
X100425125Y-52679342D01*
X100425125Y-52679342D02*
X100472744Y-52774580D01*
X100472744Y-52774580D02*
X100520363Y-52822200D01*
X100520363Y-52822200D02*
X100615601Y-52869819D01*
X100615601Y-52869819D02*
X100901315Y-52869819D01*
X100901315Y-52869819D02*
X100996553Y-52822200D01*
X100996553Y-52822200D02*
X101044172Y-52774580D01*
X31869819Y-27241541D02*
X31869819Y-27860588D01*
X31869819Y-27860588D02*
X32250771Y-27527255D01*
X32250771Y-27527255D02*
X32250771Y-27670112D01*
X32250771Y-27670112D02*
X32298390Y-27765350D01*
X32298390Y-27765350D02*
X32346009Y-27812969D01*
X32346009Y-27812969D02*
X32441247Y-27860588D01*
X32441247Y-27860588D02*
X32679342Y-27860588D01*
X32679342Y-27860588D02*
X32774580Y-27812969D01*
X32774580Y-27812969D02*
X32822200Y-27765350D01*
X32822200Y-27765350D02*
X32869819Y-27670112D01*
X32869819Y-27670112D02*
X32869819Y-27384398D01*
X32869819Y-27384398D02*
X32822200Y-27289160D01*
X32822200Y-27289160D02*
X32774580Y-27241541D01*
X32203152Y-28193922D02*
X32869819Y-28432017D01*
X32869819Y-28432017D02*
X32203152Y-28670112D01*
X31869819Y-28955827D02*
X31869819Y-29574874D01*
X31869819Y-29574874D02*
X32250771Y-29241541D01*
X32250771Y-29241541D02*
X32250771Y-29384398D01*
X32250771Y-29384398D02*
X32298390Y-29479636D01*
X32298390Y-29479636D02*
X32346009Y-29527255D01*
X32346009Y-29527255D02*
X32441247Y-29574874D01*
X32441247Y-29574874D02*
X32679342Y-29574874D01*
X32679342Y-29574874D02*
X32774580Y-29527255D01*
X32774580Y-29527255D02*
X32822200Y-29479636D01*
X32822200Y-29479636D02*
X32869819Y-29384398D01*
X32869819Y-29384398D02*
X32869819Y-29098684D01*
X32869819Y-29098684D02*
X32822200Y-29003446D01*
X32822200Y-29003446D02*
X32774580Y-28955827D01*
X103258458Y-39369819D02*
X103020363Y-40369819D01*
X103020363Y-40369819D02*
X102829887Y-39655533D01*
X102829887Y-39655533D02*
X102639411Y-40369819D01*
X102639411Y-40369819D02*
X102401316Y-39369819D01*
X102020363Y-40369819D02*
X102020363Y-39369819D01*
X102020363Y-39846009D02*
X101448935Y-39846009D01*
X101448935Y-40369819D02*
X101448935Y-39369819D01*
X100972744Y-39846009D02*
X100639411Y-39846009D01*
X100496554Y-40369819D02*
X100972744Y-40369819D01*
X100972744Y-40369819D02*
X100972744Y-39369819D01*
X100972744Y-39369819D02*
X100496554Y-39369819D01*
X100067982Y-39846009D02*
X99734649Y-39846009D01*
X99591792Y-40369819D02*
X100067982Y-40369819D01*
X100067982Y-40369819D02*
X100067982Y-39369819D01*
X100067982Y-39369819D02*
X99591792Y-39369819D01*
X98687030Y-40369819D02*
X99163220Y-40369819D01*
X99163220Y-40369819D02*
X99163220Y-39369819D01*
X97591791Y-39846009D02*
X97258458Y-39846009D01*
X97115601Y-40369819D02*
X97591791Y-40369819D01*
X97591791Y-40369819D02*
X97591791Y-39369819D01*
X97591791Y-39369819D02*
X97115601Y-39369819D01*
X96687029Y-40369819D02*
X96687029Y-39369819D01*
X96687029Y-39369819D02*
X96115601Y-40369819D01*
X96115601Y-40369819D02*
X96115601Y-39369819D01*
X95067982Y-40274580D02*
X95115601Y-40322200D01*
X95115601Y-40322200D02*
X95258458Y-40369819D01*
X95258458Y-40369819D02*
X95353696Y-40369819D01*
X95353696Y-40369819D02*
X95496553Y-40322200D01*
X95496553Y-40322200D02*
X95591791Y-40226961D01*
X95591791Y-40226961D02*
X95639410Y-40131723D01*
X95639410Y-40131723D02*
X95687029Y-39941247D01*
X95687029Y-39941247D02*
X95687029Y-39798390D01*
X95687029Y-39798390D02*
X95639410Y-39607914D01*
X95639410Y-39607914D02*
X95591791Y-39512676D01*
X95591791Y-39512676D02*
X95496553Y-39417438D01*
X95496553Y-39417438D02*
X95353696Y-39369819D01*
X95353696Y-39369819D02*
X95258458Y-39369819D01*
X95258458Y-39369819D02*
X95115601Y-39417438D01*
X95115601Y-39417438D02*
X95067982Y-39465057D01*
X94448934Y-39369819D02*
X94258458Y-39369819D01*
X94258458Y-39369819D02*
X94163220Y-39417438D01*
X94163220Y-39417438D02*
X94067982Y-39512676D01*
X94067982Y-39512676D02*
X94020363Y-39703152D01*
X94020363Y-39703152D02*
X94020363Y-40036485D01*
X94020363Y-40036485D02*
X94067982Y-40226961D01*
X94067982Y-40226961D02*
X94163220Y-40322200D01*
X94163220Y-40322200D02*
X94258458Y-40369819D01*
X94258458Y-40369819D02*
X94448934Y-40369819D01*
X94448934Y-40369819D02*
X94544172Y-40322200D01*
X94544172Y-40322200D02*
X94639410Y-40226961D01*
X94639410Y-40226961D02*
X94687029Y-40036485D01*
X94687029Y-40036485D02*
X94687029Y-39703152D01*
X94687029Y-39703152D02*
X94639410Y-39512676D01*
X94639410Y-39512676D02*
X94544172Y-39417438D01*
X94544172Y-39417438D02*
X94448934Y-39369819D01*
X93591791Y-40369819D02*
X93591791Y-39369819D01*
X93591791Y-39369819D02*
X93353696Y-39369819D01*
X93353696Y-39369819D02*
X93210839Y-39417438D01*
X93210839Y-39417438D02*
X93115601Y-39512676D01*
X93115601Y-39512676D02*
X93067982Y-39607914D01*
X93067982Y-39607914D02*
X93020363Y-39798390D01*
X93020363Y-39798390D02*
X93020363Y-39941247D01*
X93020363Y-39941247D02*
X93067982Y-40131723D01*
X93067982Y-40131723D02*
X93115601Y-40226961D01*
X93115601Y-40226961D02*
X93210839Y-40322200D01*
X93210839Y-40322200D02*
X93353696Y-40369819D01*
X93353696Y-40369819D02*
X93591791Y-40369819D01*
X92591791Y-39846009D02*
X92258458Y-39846009D01*
X92115601Y-40369819D02*
X92591791Y-40369819D01*
X92591791Y-40369819D02*
X92591791Y-39369819D01*
X92591791Y-39369819D02*
X92115601Y-39369819D01*
X91115601Y-40369819D02*
X91448934Y-39893628D01*
X91687029Y-40369819D02*
X91687029Y-39369819D01*
X91687029Y-39369819D02*
X91306077Y-39369819D01*
X91306077Y-39369819D02*
X91210839Y-39417438D01*
X91210839Y-39417438D02*
X91163220Y-39465057D01*
X91163220Y-39465057D02*
X91115601Y-39560295D01*
X91115601Y-39560295D02*
X91115601Y-39703152D01*
X91115601Y-39703152D02*
X91163220Y-39798390D01*
X91163220Y-39798390D02*
X91210839Y-39846009D01*
X91210839Y-39846009D02*
X91306077Y-39893628D01*
X91306077Y-39893628D02*
X91687029Y-39893628D01*
X89591791Y-39846009D02*
X89448934Y-39893628D01*
X89448934Y-39893628D02*
X89401315Y-39941247D01*
X89401315Y-39941247D02*
X89353696Y-40036485D01*
X89353696Y-40036485D02*
X89353696Y-40179342D01*
X89353696Y-40179342D02*
X89401315Y-40274580D01*
X89401315Y-40274580D02*
X89448934Y-40322200D01*
X89448934Y-40322200D02*
X89544172Y-40369819D01*
X89544172Y-40369819D02*
X89925124Y-40369819D01*
X89925124Y-40369819D02*
X89925124Y-39369819D01*
X89925124Y-39369819D02*
X89591791Y-39369819D01*
X89591791Y-39369819D02*
X89496553Y-39417438D01*
X89496553Y-39417438D02*
X89448934Y-39465057D01*
X89448934Y-39465057D02*
X89401315Y-39560295D01*
X89401315Y-39560295D02*
X89401315Y-39655533D01*
X89401315Y-39655533D02*
X89448934Y-39750771D01*
X89448934Y-39750771D02*
X89496553Y-39798390D01*
X89496553Y-39798390D02*
X89591791Y-39846009D01*
X89591791Y-39846009D02*
X89925124Y-39846009D01*
X28884398Y-52417438D02*
X28979636Y-52369819D01*
X28979636Y-52369819D02*
X29122493Y-52369819D01*
X29122493Y-52369819D02*
X29265350Y-52417438D01*
X29265350Y-52417438D02*
X29360588Y-52512676D01*
X29360588Y-52512676D02*
X29408207Y-52607914D01*
X29408207Y-52607914D02*
X29455826Y-52798390D01*
X29455826Y-52798390D02*
X29455826Y-52941247D01*
X29455826Y-52941247D02*
X29408207Y-53131723D01*
X29408207Y-53131723D02*
X29360588Y-53226961D01*
X29360588Y-53226961D02*
X29265350Y-53322200D01*
X29265350Y-53322200D02*
X29122493Y-53369819D01*
X29122493Y-53369819D02*
X29027255Y-53369819D01*
X29027255Y-53369819D02*
X28884398Y-53322200D01*
X28884398Y-53322200D02*
X28836779Y-53274580D01*
X28836779Y-53274580D02*
X28836779Y-52941247D01*
X28836779Y-52941247D02*
X29027255Y-52941247D01*
X28408207Y-53369819D02*
X28408207Y-52369819D01*
X28408207Y-52369819D02*
X27836779Y-53369819D01*
X27836779Y-53369819D02*
X27836779Y-52369819D01*
X27360588Y-53369819D02*
X27360588Y-52369819D01*
X27360588Y-52369819D02*
X27122493Y-52369819D01*
X27122493Y-52369819D02*
X26979636Y-52417438D01*
X26979636Y-52417438D02*
X26884398Y-52512676D01*
X26884398Y-52512676D02*
X26836779Y-52607914D01*
X26836779Y-52607914D02*
X26789160Y-52798390D01*
X26789160Y-52798390D02*
X26789160Y-52941247D01*
X26789160Y-52941247D02*
X26836779Y-53131723D01*
X26836779Y-53131723D02*
X26884398Y-53226961D01*
X26884398Y-53226961D02*
X26979636Y-53322200D01*
X26979636Y-53322200D02*
X27122493Y-53369819D01*
X27122493Y-53369819D02*
X27360588Y-53369819D01*
X51917438Y-27860588D02*
X51869819Y-27765350D01*
X51869819Y-27765350D02*
X51869819Y-27622493D01*
X51869819Y-27622493D02*
X51917438Y-27479636D01*
X51917438Y-27479636D02*
X52012676Y-27384398D01*
X52012676Y-27384398D02*
X52107914Y-27336779D01*
X52107914Y-27336779D02*
X52298390Y-27289160D01*
X52298390Y-27289160D02*
X52441247Y-27289160D01*
X52441247Y-27289160D02*
X52631723Y-27336779D01*
X52631723Y-27336779D02*
X52726961Y-27384398D01*
X52726961Y-27384398D02*
X52822200Y-27479636D01*
X52822200Y-27479636D02*
X52869819Y-27622493D01*
X52869819Y-27622493D02*
X52869819Y-27717731D01*
X52869819Y-27717731D02*
X52822200Y-27860588D01*
X52822200Y-27860588D02*
X52774580Y-27908207D01*
X52774580Y-27908207D02*
X52441247Y-27908207D01*
X52441247Y-27908207D02*
X52441247Y-27717731D01*
X52869819Y-28336779D02*
X51869819Y-28336779D01*
X51869819Y-28336779D02*
X52869819Y-28908207D01*
X52869819Y-28908207D02*
X51869819Y-28908207D01*
X52869819Y-29384398D02*
X51869819Y-29384398D01*
X51869819Y-29384398D02*
X51869819Y-29622493D01*
X51869819Y-29622493D02*
X51917438Y-29765350D01*
X51917438Y-29765350D02*
X52012676Y-29860588D01*
X52012676Y-29860588D02*
X52107914Y-29908207D01*
X52107914Y-29908207D02*
X52298390Y-29955826D01*
X52298390Y-29955826D02*
X52441247Y-29955826D01*
X52441247Y-29955826D02*
X52631723Y-29908207D01*
X52631723Y-29908207D02*
X52726961Y-29860588D01*
X52726961Y-29860588D02*
X52822200Y-29765350D01*
X52822200Y-29765350D02*
X52869819Y-29622493D01*
X52869819Y-29622493D02*
X52869819Y-29384398D01*
X36917438Y-27860588D02*
X36869819Y-27765350D01*
X36869819Y-27765350D02*
X36869819Y-27622493D01*
X36869819Y-27622493D02*
X36917438Y-27479636D01*
X36917438Y-27479636D02*
X37012676Y-27384398D01*
X37012676Y-27384398D02*
X37107914Y-27336779D01*
X37107914Y-27336779D02*
X37298390Y-27289160D01*
X37298390Y-27289160D02*
X37441247Y-27289160D01*
X37441247Y-27289160D02*
X37631723Y-27336779D01*
X37631723Y-27336779D02*
X37726961Y-27384398D01*
X37726961Y-27384398D02*
X37822200Y-27479636D01*
X37822200Y-27479636D02*
X37869819Y-27622493D01*
X37869819Y-27622493D02*
X37869819Y-27717731D01*
X37869819Y-27717731D02*
X37822200Y-27860588D01*
X37822200Y-27860588D02*
X37774580Y-27908207D01*
X37774580Y-27908207D02*
X37441247Y-27908207D01*
X37441247Y-27908207D02*
X37441247Y-27717731D01*
X37869819Y-28336779D02*
X36869819Y-28336779D01*
X36869819Y-28336779D02*
X37869819Y-28908207D01*
X37869819Y-28908207D02*
X36869819Y-28908207D01*
X37869819Y-29384398D02*
X36869819Y-29384398D01*
X36869819Y-29384398D02*
X36869819Y-29622493D01*
X36869819Y-29622493D02*
X36917438Y-29765350D01*
X36917438Y-29765350D02*
X37012676Y-29860588D01*
X37012676Y-29860588D02*
X37107914Y-29908207D01*
X37107914Y-29908207D02*
X37298390Y-29955826D01*
X37298390Y-29955826D02*
X37441247Y-29955826D01*
X37441247Y-29955826D02*
X37631723Y-29908207D01*
X37631723Y-29908207D02*
X37726961Y-29860588D01*
X37726961Y-29860588D02*
X37822200Y-29765350D01*
X37822200Y-29765350D02*
X37869819Y-29622493D01*
X37869819Y-29622493D02*
X37869819Y-29384398D01*
X92869819Y-26312969D02*
X92869819Y-25836779D01*
X92869819Y-25836779D02*
X93346009Y-25789160D01*
X93346009Y-25789160D02*
X93298390Y-25836779D01*
X93298390Y-25836779D02*
X93250771Y-25932017D01*
X93250771Y-25932017D02*
X93250771Y-26170112D01*
X93250771Y-26170112D02*
X93298390Y-26265350D01*
X93298390Y-26265350D02*
X93346009Y-26312969D01*
X93346009Y-26312969D02*
X93441247Y-26360588D01*
X93441247Y-26360588D02*
X93679342Y-26360588D01*
X93679342Y-26360588D02*
X93774580Y-26312969D01*
X93774580Y-26312969D02*
X93822200Y-26265350D01*
X93822200Y-26265350D02*
X93869819Y-26170112D01*
X93869819Y-26170112D02*
X93869819Y-25932017D01*
X93869819Y-25932017D02*
X93822200Y-25836779D01*
X93822200Y-25836779D02*
X93774580Y-25789160D01*
X92869819Y-26646303D02*
X93869819Y-26979636D01*
X93869819Y-26979636D02*
X92869819Y-27312969D01*
X34846009Y-27670112D02*
X34893628Y-27812969D01*
X34893628Y-27812969D02*
X34941247Y-27860588D01*
X34941247Y-27860588D02*
X35036485Y-27908207D01*
X35036485Y-27908207D02*
X35179342Y-27908207D01*
X35179342Y-27908207D02*
X35274580Y-27860588D01*
X35274580Y-27860588D02*
X35322200Y-27812969D01*
X35322200Y-27812969D02*
X35369819Y-27717731D01*
X35369819Y-27717731D02*
X35369819Y-27336779D01*
X35369819Y-27336779D02*
X34369819Y-27336779D01*
X34369819Y-27336779D02*
X34369819Y-27670112D01*
X34369819Y-27670112D02*
X34417438Y-27765350D01*
X34417438Y-27765350D02*
X34465057Y-27812969D01*
X34465057Y-27812969D02*
X34560295Y-27860588D01*
X34560295Y-27860588D02*
X34655533Y-27860588D01*
X34655533Y-27860588D02*
X34750771Y-27812969D01*
X34750771Y-27812969D02*
X34798390Y-27765350D01*
X34798390Y-27765350D02*
X34846009Y-27670112D01*
X34846009Y-27670112D02*
X34846009Y-27336779D01*
X35369819Y-28908207D02*
X34893628Y-28574874D01*
X35369819Y-28336779D02*
X34369819Y-28336779D01*
X34369819Y-28336779D02*
X34369819Y-28717731D01*
X34369819Y-28717731D02*
X34417438Y-28812969D01*
X34417438Y-28812969D02*
X34465057Y-28860588D01*
X34465057Y-28860588D02*
X34560295Y-28908207D01*
X34560295Y-28908207D02*
X34703152Y-28908207D01*
X34703152Y-28908207D02*
X34798390Y-28860588D01*
X34798390Y-28860588D02*
X34846009Y-28812969D01*
X34846009Y-28812969D02*
X34893628Y-28717731D01*
X34893628Y-28717731D02*
X34893628Y-28336779D01*
X35084104Y-29289160D02*
X35084104Y-29765350D01*
X35369819Y-29193922D02*
X34369819Y-29527255D01*
X34369819Y-29527255D02*
X35369819Y-29860588D01*
X35369819Y-30193922D02*
X34369819Y-30193922D01*
X35369819Y-30765350D02*
X34798390Y-30336779D01*
X34369819Y-30765350D02*
X34941247Y-30193922D01*
X34846009Y-31193922D02*
X34846009Y-31527255D01*
X35369819Y-31670112D02*
X35369819Y-31193922D01*
X35369819Y-31193922D02*
X34369819Y-31193922D01*
X34369819Y-31193922D02*
X34369819Y-31670112D01*
X102663220Y-55369819D02*
X102663220Y-54369819D01*
X102663220Y-54369819D02*
X102329887Y-55084104D01*
X102329887Y-55084104D02*
X101996554Y-54369819D01*
X101996554Y-54369819D02*
X101996554Y-55369819D01*
X101329887Y-54369819D02*
X101139411Y-54369819D01*
X101139411Y-54369819D02*
X101044173Y-54417438D01*
X101044173Y-54417438D02*
X100948935Y-54512676D01*
X100948935Y-54512676D02*
X100901316Y-54703152D01*
X100901316Y-54703152D02*
X100901316Y-55036485D01*
X100901316Y-55036485D02*
X100948935Y-55226961D01*
X100948935Y-55226961D02*
X101044173Y-55322200D01*
X101044173Y-55322200D02*
X101139411Y-55369819D01*
X101139411Y-55369819D02*
X101329887Y-55369819D01*
X101329887Y-55369819D02*
X101425125Y-55322200D01*
X101425125Y-55322200D02*
X101520363Y-55226961D01*
X101520363Y-55226961D02*
X101567982Y-55036485D01*
X101567982Y-55036485D02*
X101567982Y-54703152D01*
X101567982Y-54703152D02*
X101520363Y-54512676D01*
X101520363Y-54512676D02*
X101425125Y-54417438D01*
X101425125Y-54417438D02*
X101329887Y-54369819D01*
X100615601Y-54369819D02*
X100044173Y-54369819D01*
X100329887Y-55369819D02*
X100329887Y-54369819D01*
X99520363Y-54369819D02*
X99329887Y-54369819D01*
X99329887Y-54369819D02*
X99234649Y-54417438D01*
X99234649Y-54417438D02*
X99139411Y-54512676D01*
X99139411Y-54512676D02*
X99091792Y-54703152D01*
X99091792Y-54703152D02*
X99091792Y-55036485D01*
X99091792Y-55036485D02*
X99139411Y-55226961D01*
X99139411Y-55226961D02*
X99234649Y-55322200D01*
X99234649Y-55322200D02*
X99329887Y-55369819D01*
X99329887Y-55369819D02*
X99520363Y-55369819D01*
X99520363Y-55369819D02*
X99615601Y-55322200D01*
X99615601Y-55322200D02*
X99710839Y-55226961D01*
X99710839Y-55226961D02*
X99758458Y-55036485D01*
X99758458Y-55036485D02*
X99758458Y-54703152D01*
X99758458Y-54703152D02*
X99710839Y-54512676D01*
X99710839Y-54512676D02*
X99615601Y-54417438D01*
X99615601Y-54417438D02*
X99520363Y-54369819D01*
X98091792Y-55369819D02*
X98425125Y-54893628D01*
X98663220Y-55369819D02*
X98663220Y-54369819D01*
X98663220Y-54369819D02*
X98282268Y-54369819D01*
X98282268Y-54369819D02*
X98187030Y-54417438D01*
X98187030Y-54417438D02*
X98139411Y-54465057D01*
X98139411Y-54465057D02*
X98091792Y-54560295D01*
X98091792Y-54560295D02*
X98091792Y-54703152D01*
X98091792Y-54703152D02*
X98139411Y-54798390D01*
X98139411Y-54798390D02*
X98187030Y-54846009D01*
X98187030Y-54846009D02*
X98282268Y-54893628D01*
X98282268Y-54893628D02*
X98663220Y-54893628D01*
X97044172Y-54369819D02*
X96472744Y-54369819D01*
X96758458Y-55369819D02*
X96758458Y-54369819D01*
X96139410Y-55369819D02*
X96139410Y-54369819D01*
X96139410Y-54369819D02*
X95806077Y-55084104D01*
X95806077Y-55084104D02*
X95472744Y-54369819D01*
X95472744Y-54369819D02*
X95472744Y-55369819D01*
X94996553Y-55369819D02*
X94996553Y-54369819D01*
X94996553Y-54369819D02*
X94615601Y-54369819D01*
X94615601Y-54369819D02*
X94520363Y-54417438D01*
X94520363Y-54417438D02*
X94472744Y-54465057D01*
X94472744Y-54465057D02*
X94425125Y-54560295D01*
X94425125Y-54560295D02*
X94425125Y-54703152D01*
X94425125Y-54703152D02*
X94472744Y-54798390D01*
X94472744Y-54798390D02*
X94520363Y-54846009D01*
X94520363Y-54846009D02*
X94615601Y-54893628D01*
X94615601Y-54893628D02*
X94996553Y-54893628D01*
X92901315Y-54846009D02*
X92758458Y-54893628D01*
X92758458Y-54893628D02*
X92710839Y-54941247D01*
X92710839Y-54941247D02*
X92663220Y-55036485D01*
X92663220Y-55036485D02*
X92663220Y-55179342D01*
X92663220Y-55179342D02*
X92710839Y-55274580D01*
X92710839Y-55274580D02*
X92758458Y-55322200D01*
X92758458Y-55322200D02*
X92853696Y-55369819D01*
X92853696Y-55369819D02*
X93234648Y-55369819D01*
X93234648Y-55369819D02*
X93234648Y-54369819D01*
X93234648Y-54369819D02*
X92901315Y-54369819D01*
X92901315Y-54369819D02*
X92806077Y-54417438D01*
X92806077Y-54417438D02*
X92758458Y-54465057D01*
X92758458Y-54465057D02*
X92710839Y-54560295D01*
X92710839Y-54560295D02*
X92710839Y-54655533D01*
X92710839Y-54655533D02*
X92758458Y-54750771D01*
X92758458Y-54750771D02*
X92806077Y-54798390D01*
X92806077Y-54798390D02*
X92901315Y-54846009D01*
X92901315Y-54846009D02*
X93234648Y-54846009D01*
X95917438Y-26360588D02*
X95869819Y-26265350D01*
X95869819Y-26265350D02*
X95869819Y-26122493D01*
X95869819Y-26122493D02*
X95917438Y-25979636D01*
X95917438Y-25979636D02*
X96012676Y-25884398D01*
X96012676Y-25884398D02*
X96107914Y-25836779D01*
X96107914Y-25836779D02*
X96298390Y-25789160D01*
X96298390Y-25789160D02*
X96441247Y-25789160D01*
X96441247Y-25789160D02*
X96631723Y-25836779D01*
X96631723Y-25836779D02*
X96726961Y-25884398D01*
X96726961Y-25884398D02*
X96822200Y-25979636D01*
X96822200Y-25979636D02*
X96869819Y-26122493D01*
X96869819Y-26122493D02*
X96869819Y-26217731D01*
X96869819Y-26217731D02*
X96822200Y-26360588D01*
X96822200Y-26360588D02*
X96774580Y-26408207D01*
X96774580Y-26408207D02*
X96441247Y-26408207D01*
X96441247Y-26408207D02*
X96441247Y-26217731D01*
X96869819Y-26836779D02*
X95869819Y-26836779D01*
X95869819Y-26836779D02*
X96869819Y-27408207D01*
X96869819Y-27408207D02*
X95869819Y-27408207D01*
X96869819Y-27884398D02*
X95869819Y-27884398D01*
X95869819Y-27884398D02*
X95869819Y-28122493D01*
X95869819Y-28122493D02*
X95917438Y-28265350D01*
X95917438Y-28265350D02*
X96012676Y-28360588D01*
X96012676Y-28360588D02*
X96107914Y-28408207D01*
X96107914Y-28408207D02*
X96298390Y-28455826D01*
X96298390Y-28455826D02*
X96441247Y-28455826D01*
X96441247Y-28455826D02*
X96631723Y-28408207D01*
X96631723Y-28408207D02*
X96726961Y-28360588D01*
X96726961Y-28360588D02*
X96822200Y-28265350D01*
X96822200Y-28265350D02*
X96869819Y-28122493D01*
X96869819Y-28122493D02*
X96869819Y-27884398D01*
X29122493Y-42369819D02*
X28503446Y-42369819D01*
X28503446Y-42369819D02*
X28836779Y-42750771D01*
X28836779Y-42750771D02*
X28693922Y-42750771D01*
X28693922Y-42750771D02*
X28598684Y-42798390D01*
X28598684Y-42798390D02*
X28551065Y-42846009D01*
X28551065Y-42846009D02*
X28503446Y-42941247D01*
X28503446Y-42941247D02*
X28503446Y-43179342D01*
X28503446Y-43179342D02*
X28551065Y-43274580D01*
X28551065Y-43274580D02*
X28598684Y-43322200D01*
X28598684Y-43322200D02*
X28693922Y-43369819D01*
X28693922Y-43369819D02*
X28979636Y-43369819D01*
X28979636Y-43369819D02*
X29074874Y-43322200D01*
X29074874Y-43322200D02*
X29122493Y-43274580D01*
X28170112Y-42703152D02*
X27932017Y-43369819D01*
X27932017Y-43369819D02*
X27693922Y-42703152D01*
X27408207Y-42369819D02*
X26789160Y-42369819D01*
X26789160Y-42369819D02*
X27122493Y-42750771D01*
X27122493Y-42750771D02*
X26979636Y-42750771D01*
X26979636Y-42750771D02*
X26884398Y-42798390D01*
X26884398Y-42798390D02*
X26836779Y-42846009D01*
X26836779Y-42846009D02*
X26789160Y-42941247D01*
X26789160Y-42941247D02*
X26789160Y-43179342D01*
X26789160Y-43179342D02*
X26836779Y-43274580D01*
X26836779Y-43274580D02*
X26884398Y-43322200D01*
X26884398Y-43322200D02*
X26979636Y-43369819D01*
X26979636Y-43369819D02*
X27265350Y-43369819D01*
X27265350Y-43369819D02*
X27360588Y-43322200D01*
X27360588Y-43322200D02*
X27408207Y-43274580D01*
X49369819Y-27193922D02*
X49369819Y-27765350D01*
X50369819Y-27479636D02*
X49369819Y-27479636D01*
X50369819Y-28098684D02*
X49369819Y-28098684D01*
X49846009Y-28098684D02*
X49846009Y-28670112D01*
X50369819Y-28670112D02*
X49369819Y-28670112D01*
X50369819Y-29717731D02*
X49893628Y-29384398D01*
X50369819Y-29146303D02*
X49369819Y-29146303D01*
X49369819Y-29146303D02*
X49369819Y-29527255D01*
X49369819Y-29527255D02*
X49417438Y-29622493D01*
X49417438Y-29622493D02*
X49465057Y-29670112D01*
X49465057Y-29670112D02*
X49560295Y-29717731D01*
X49560295Y-29717731D02*
X49703152Y-29717731D01*
X49703152Y-29717731D02*
X49798390Y-29670112D01*
X49798390Y-29670112D02*
X49846009Y-29622493D01*
X49846009Y-29622493D02*
X49893628Y-29527255D01*
X49893628Y-29527255D02*
X49893628Y-29146303D01*
X49369819Y-30336779D02*
X49369819Y-30527255D01*
X49369819Y-30527255D02*
X49417438Y-30622493D01*
X49417438Y-30622493D02*
X49512676Y-30717731D01*
X49512676Y-30717731D02*
X49703152Y-30765350D01*
X49703152Y-30765350D02*
X50036485Y-30765350D01*
X50036485Y-30765350D02*
X50226961Y-30717731D01*
X50226961Y-30717731D02*
X50322200Y-30622493D01*
X50322200Y-30622493D02*
X50369819Y-30527255D01*
X50369819Y-30527255D02*
X50369819Y-30336779D01*
X50369819Y-30336779D02*
X50322200Y-30241541D01*
X50322200Y-30241541D02*
X50226961Y-30146303D01*
X50226961Y-30146303D02*
X50036485Y-30098684D01*
X50036485Y-30098684D02*
X49703152Y-30098684D01*
X49703152Y-30098684D02*
X49512676Y-30146303D01*
X49512676Y-30146303D02*
X49417438Y-30241541D01*
X49417438Y-30241541D02*
X49369819Y-30336779D01*
X49369819Y-31051065D02*
X49369819Y-31622493D01*
X50369819Y-31336779D02*
X49369819Y-31336779D01*
X49369819Y-31812970D02*
X49369819Y-32384398D01*
X50369819Y-32098684D02*
X49369819Y-32098684D01*
X50369819Y-33193922D02*
X50369819Y-32717732D01*
X50369819Y-32717732D02*
X49369819Y-32717732D01*
X49846009Y-33527256D02*
X49846009Y-33860589D01*
X50369819Y-34003446D02*
X50369819Y-33527256D01*
X50369819Y-33527256D02*
X49369819Y-33527256D01*
X49369819Y-33527256D02*
X49369819Y-34003446D01*
X84285714Y-56454819D02*
X84285714Y-57169104D01*
X84285714Y-57169104D02*
X84333333Y-57311961D01*
X84333333Y-57311961D02*
X84428571Y-57407200D01*
X84428571Y-57407200D02*
X84571428Y-57454819D01*
X84571428Y-57454819D02*
X84666666Y-57454819D01*
X83285714Y-57454819D02*
X83857142Y-57454819D01*
X83571428Y-57454819D02*
X83571428Y-56454819D01*
X83571428Y-56454819D02*
X83666666Y-56597676D01*
X83666666Y-56597676D02*
X83761904Y-56692914D01*
X83761904Y-56692914D02*
X83857142Y-56740533D01*
X82666666Y-56454819D02*
X82571428Y-56454819D01*
X82571428Y-56454819D02*
X82476190Y-56502438D01*
X82476190Y-56502438D02*
X82428571Y-56550057D01*
X82428571Y-56550057D02*
X82380952Y-56645295D01*
X82380952Y-56645295D02*
X82333333Y-56835771D01*
X82333333Y-56835771D02*
X82333333Y-57073866D01*
X82333333Y-57073866D02*
X82380952Y-57264342D01*
X82380952Y-57264342D02*
X82428571Y-57359580D01*
X82428571Y-57359580D02*
X82476190Y-57407200D01*
X82476190Y-57407200D02*
X82571428Y-57454819D01*
X82571428Y-57454819D02*
X82666666Y-57454819D01*
X82666666Y-57454819D02*
X82761904Y-57407200D01*
X82761904Y-57407200D02*
X82809523Y-57359580D01*
X82809523Y-57359580D02*
X82857142Y-57264342D01*
X82857142Y-57264342D02*
X82904761Y-57073866D01*
X82904761Y-57073866D02*
X82904761Y-56835771D01*
X82904761Y-56835771D02*
X82857142Y-56645295D01*
X82857142Y-56645295D02*
X82809523Y-56550057D01*
X82809523Y-56550057D02*
X82761904Y-56502438D01*
X82761904Y-56502438D02*
X82666666Y-56454819D01*
X81428571Y-56454819D02*
X81904761Y-56454819D01*
X81904761Y-56454819D02*
X81952380Y-56931009D01*
X81952380Y-56931009D02*
X81904761Y-56883390D01*
X81904761Y-56883390D02*
X81809523Y-56835771D01*
X81809523Y-56835771D02*
X81571428Y-56835771D01*
X81571428Y-56835771D02*
X81476190Y-56883390D01*
X81476190Y-56883390D02*
X81428571Y-56931009D01*
X81428571Y-56931009D02*
X81380952Y-57026247D01*
X81380952Y-57026247D02*
X81380952Y-57264342D01*
X81380952Y-57264342D02*
X81428571Y-57359580D01*
X81428571Y-57359580D02*
X81476190Y-57407200D01*
X81476190Y-57407200D02*
X81571428Y-57454819D01*
X81571428Y-57454819D02*
X81809523Y-57454819D01*
X81809523Y-57454819D02*
X81904761Y-57407200D01*
X81904761Y-57407200D02*
X81952380Y-57359580D01*
X53186547Y-80859580D02*
X53234166Y-80907200D01*
X53234166Y-80907200D02*
X53377023Y-80954819D01*
X53377023Y-80954819D02*
X53472261Y-80954819D01*
X53472261Y-80954819D02*
X53615118Y-80907200D01*
X53615118Y-80907200D02*
X53710356Y-80811961D01*
X53710356Y-80811961D02*
X53757975Y-80716723D01*
X53757975Y-80716723D02*
X53805594Y-80526247D01*
X53805594Y-80526247D02*
X53805594Y-80383390D01*
X53805594Y-80383390D02*
X53757975Y-80192914D01*
X53757975Y-80192914D02*
X53710356Y-80097676D01*
X53710356Y-80097676D02*
X53615118Y-80002438D01*
X53615118Y-80002438D02*
X53472261Y-79954819D01*
X53472261Y-79954819D02*
X53377023Y-79954819D01*
X53377023Y-79954819D02*
X53234166Y-80002438D01*
X53234166Y-80002438D02*
X53186547Y-80050057D01*
X52805594Y-80050057D02*
X52757975Y-80002438D01*
X52757975Y-80002438D02*
X52662737Y-79954819D01*
X52662737Y-79954819D02*
X52424642Y-79954819D01*
X52424642Y-79954819D02*
X52329404Y-80002438D01*
X52329404Y-80002438D02*
X52281785Y-80050057D01*
X52281785Y-80050057D02*
X52234166Y-80145295D01*
X52234166Y-80145295D02*
X52234166Y-80240533D01*
X52234166Y-80240533D02*
X52281785Y-80383390D01*
X52281785Y-80383390D02*
X52853213Y-80954819D01*
X52853213Y-80954819D02*
X52234166Y-80954819D01*
X51615118Y-79954819D02*
X51519880Y-79954819D01*
X51519880Y-79954819D02*
X51424642Y-80002438D01*
X51424642Y-80002438D02*
X51377023Y-80050057D01*
X51377023Y-80050057D02*
X51329404Y-80145295D01*
X51329404Y-80145295D02*
X51281785Y-80335771D01*
X51281785Y-80335771D02*
X51281785Y-80573866D01*
X51281785Y-80573866D02*
X51329404Y-80764342D01*
X51329404Y-80764342D02*
X51377023Y-80859580D01*
X51377023Y-80859580D02*
X51424642Y-80907200D01*
X51424642Y-80907200D02*
X51519880Y-80954819D01*
X51519880Y-80954819D02*
X51615118Y-80954819D01*
X51615118Y-80954819D02*
X51710356Y-80907200D01*
X51710356Y-80907200D02*
X51757975Y-80859580D01*
X51757975Y-80859580D02*
X51805594Y-80764342D01*
X51805594Y-80764342D02*
X51853213Y-80573866D01*
X51853213Y-80573866D02*
X51853213Y-80335771D01*
X51853213Y-80335771D02*
X51805594Y-80145295D01*
X51805594Y-80145295D02*
X51757975Y-80050057D01*
X51757975Y-80050057D02*
X51710356Y-80002438D01*
X51710356Y-80002438D02*
X51615118Y-79954819D01*
X50948451Y-79954819D02*
X50329404Y-79954819D01*
X50329404Y-79954819D02*
X50662737Y-80335771D01*
X50662737Y-80335771D02*
X50519880Y-80335771D01*
X50519880Y-80335771D02*
X50424642Y-80383390D01*
X50424642Y-80383390D02*
X50377023Y-80431009D01*
X50377023Y-80431009D02*
X50329404Y-80526247D01*
X50329404Y-80526247D02*
X50329404Y-80764342D01*
X50329404Y-80764342D02*
X50377023Y-80859580D01*
X50377023Y-80859580D02*
X50424642Y-80907200D01*
X50424642Y-80907200D02*
X50519880Y-80954819D01*
X50519880Y-80954819D02*
X50805594Y-80954819D01*
X50805594Y-80954819D02*
X50900832Y-80907200D01*
X50900832Y-80907200D02*
X50948451Y-80859580D01*
X25521547Y-66454819D02*
X25854880Y-65978628D01*
X26092975Y-66454819D02*
X26092975Y-65454819D01*
X26092975Y-65454819D02*
X25712023Y-65454819D01*
X25712023Y-65454819D02*
X25616785Y-65502438D01*
X25616785Y-65502438D02*
X25569166Y-65550057D01*
X25569166Y-65550057D02*
X25521547Y-65645295D01*
X25521547Y-65645295D02*
X25521547Y-65788152D01*
X25521547Y-65788152D02*
X25569166Y-65883390D01*
X25569166Y-65883390D02*
X25616785Y-65931009D01*
X25616785Y-65931009D02*
X25712023Y-65978628D01*
X25712023Y-65978628D02*
X26092975Y-65978628D01*
X25188213Y-65454819D02*
X24569166Y-65454819D01*
X24569166Y-65454819D02*
X24902499Y-65835771D01*
X24902499Y-65835771D02*
X24759642Y-65835771D01*
X24759642Y-65835771D02*
X24664404Y-65883390D01*
X24664404Y-65883390D02*
X24616785Y-65931009D01*
X24616785Y-65931009D02*
X24569166Y-66026247D01*
X24569166Y-66026247D02*
X24569166Y-66264342D01*
X24569166Y-66264342D02*
X24616785Y-66359580D01*
X24616785Y-66359580D02*
X24664404Y-66407200D01*
X24664404Y-66407200D02*
X24759642Y-66454819D01*
X24759642Y-66454819D02*
X25045356Y-66454819D01*
X25045356Y-66454819D02*
X25140594Y-66407200D01*
X25140594Y-66407200D02*
X25188213Y-66359580D01*
X23950118Y-65454819D02*
X23854880Y-65454819D01*
X23854880Y-65454819D02*
X23759642Y-65502438D01*
X23759642Y-65502438D02*
X23712023Y-65550057D01*
X23712023Y-65550057D02*
X23664404Y-65645295D01*
X23664404Y-65645295D02*
X23616785Y-65835771D01*
X23616785Y-65835771D02*
X23616785Y-66073866D01*
X23616785Y-66073866D02*
X23664404Y-66264342D01*
X23664404Y-66264342D02*
X23712023Y-66359580D01*
X23712023Y-66359580D02*
X23759642Y-66407200D01*
X23759642Y-66407200D02*
X23854880Y-66454819D01*
X23854880Y-66454819D02*
X23950118Y-66454819D01*
X23950118Y-66454819D02*
X24045356Y-66407200D01*
X24045356Y-66407200D02*
X24092975Y-66359580D01*
X24092975Y-66359580D02*
X24140594Y-66264342D01*
X24140594Y-66264342D02*
X24188213Y-66073866D01*
X24188213Y-66073866D02*
X24188213Y-65835771D01*
X24188213Y-65835771D02*
X24140594Y-65645295D01*
X24140594Y-65645295D02*
X24092975Y-65550057D01*
X24092975Y-65550057D02*
X24045356Y-65502438D01*
X24045356Y-65502438D02*
X23950118Y-65454819D01*
X22712023Y-65454819D02*
X23188213Y-65454819D01*
X23188213Y-65454819D02*
X23235832Y-65931009D01*
X23235832Y-65931009D02*
X23188213Y-65883390D01*
X23188213Y-65883390D02*
X23092975Y-65835771D01*
X23092975Y-65835771D02*
X22854880Y-65835771D01*
X22854880Y-65835771D02*
X22759642Y-65883390D01*
X22759642Y-65883390D02*
X22712023Y-65931009D01*
X22712023Y-65931009D02*
X22664404Y-66026247D01*
X22664404Y-66026247D02*
X22664404Y-66264342D01*
X22664404Y-66264342D02*
X22712023Y-66359580D01*
X22712023Y-66359580D02*
X22759642Y-66407200D01*
X22759642Y-66407200D02*
X22854880Y-66454819D01*
X22854880Y-66454819D02*
X23092975Y-66454819D01*
X23092975Y-66454819D02*
X23188213Y-66407200D01*
X23188213Y-66407200D02*
X23235832Y-66359580D01*
X43954819Y-82380952D02*
X43478628Y-82047619D01*
X43954819Y-81809524D02*
X42954819Y-81809524D01*
X42954819Y-81809524D02*
X42954819Y-82190476D01*
X42954819Y-82190476D02*
X43002438Y-82285714D01*
X43002438Y-82285714D02*
X43050057Y-82333333D01*
X43050057Y-82333333D02*
X43145295Y-82380952D01*
X43145295Y-82380952D02*
X43288152Y-82380952D01*
X43288152Y-82380952D02*
X43383390Y-82333333D01*
X43383390Y-82333333D02*
X43431009Y-82285714D01*
X43431009Y-82285714D02*
X43478628Y-82190476D01*
X43478628Y-82190476D02*
X43478628Y-81809524D01*
X42954819Y-82714286D02*
X42954819Y-83333333D01*
X42954819Y-83333333D02*
X43335771Y-83000000D01*
X43335771Y-83000000D02*
X43335771Y-83142857D01*
X43335771Y-83142857D02*
X43383390Y-83238095D01*
X43383390Y-83238095D02*
X43431009Y-83285714D01*
X43431009Y-83285714D02*
X43526247Y-83333333D01*
X43526247Y-83333333D02*
X43764342Y-83333333D01*
X43764342Y-83333333D02*
X43859580Y-83285714D01*
X43859580Y-83285714D02*
X43907200Y-83238095D01*
X43907200Y-83238095D02*
X43954819Y-83142857D01*
X43954819Y-83142857D02*
X43954819Y-82857143D01*
X43954819Y-82857143D02*
X43907200Y-82761905D01*
X43907200Y-82761905D02*
X43859580Y-82714286D01*
X42954819Y-83952381D02*
X42954819Y-84047619D01*
X42954819Y-84047619D02*
X43002438Y-84142857D01*
X43002438Y-84142857D02*
X43050057Y-84190476D01*
X43050057Y-84190476D02*
X43145295Y-84238095D01*
X43145295Y-84238095D02*
X43335771Y-84285714D01*
X43335771Y-84285714D02*
X43573866Y-84285714D01*
X43573866Y-84285714D02*
X43764342Y-84238095D01*
X43764342Y-84238095D02*
X43859580Y-84190476D01*
X43859580Y-84190476D02*
X43907200Y-84142857D01*
X43907200Y-84142857D02*
X43954819Y-84047619D01*
X43954819Y-84047619D02*
X43954819Y-83952381D01*
X43954819Y-83952381D02*
X43907200Y-83857143D01*
X43907200Y-83857143D02*
X43859580Y-83809524D01*
X43859580Y-83809524D02*
X43764342Y-83761905D01*
X43764342Y-83761905D02*
X43573866Y-83714286D01*
X43573866Y-83714286D02*
X43335771Y-83714286D01*
X43335771Y-83714286D02*
X43145295Y-83761905D01*
X43145295Y-83761905D02*
X43050057Y-83809524D01*
X43050057Y-83809524D02*
X43002438Y-83857143D01*
X43002438Y-83857143D02*
X42954819Y-83952381D01*
X43050057Y-84666667D02*
X43002438Y-84714286D01*
X43002438Y-84714286D02*
X42954819Y-84809524D01*
X42954819Y-84809524D02*
X42954819Y-85047619D01*
X42954819Y-85047619D02*
X43002438Y-85142857D01*
X43002438Y-85142857D02*
X43050057Y-85190476D01*
X43050057Y-85190476D02*
X43145295Y-85238095D01*
X43145295Y-85238095D02*
X43240533Y-85238095D01*
X43240533Y-85238095D02*
X43383390Y-85190476D01*
X43383390Y-85190476D02*
X43954819Y-84619048D01*
X43954819Y-84619048D02*
X43954819Y-85238095D01*
X77619047Y-94359580D02*
X77666666Y-94407200D01*
X77666666Y-94407200D02*
X77809523Y-94454819D01*
X77809523Y-94454819D02*
X77904761Y-94454819D01*
X77904761Y-94454819D02*
X78047618Y-94407200D01*
X78047618Y-94407200D02*
X78142856Y-94311961D01*
X78142856Y-94311961D02*
X78190475Y-94216723D01*
X78190475Y-94216723D02*
X78238094Y-94026247D01*
X78238094Y-94026247D02*
X78238094Y-93883390D01*
X78238094Y-93883390D02*
X78190475Y-93692914D01*
X78190475Y-93692914D02*
X78142856Y-93597676D01*
X78142856Y-93597676D02*
X78047618Y-93502438D01*
X78047618Y-93502438D02*
X77904761Y-93454819D01*
X77904761Y-93454819D02*
X77809523Y-93454819D01*
X77809523Y-93454819D02*
X77666666Y-93502438D01*
X77666666Y-93502438D02*
X77619047Y-93550057D01*
X76714285Y-93454819D02*
X77190475Y-93454819D01*
X77190475Y-93454819D02*
X77238094Y-93931009D01*
X77238094Y-93931009D02*
X77190475Y-93883390D01*
X77190475Y-93883390D02*
X77095237Y-93835771D01*
X77095237Y-93835771D02*
X76857142Y-93835771D01*
X76857142Y-93835771D02*
X76761904Y-93883390D01*
X76761904Y-93883390D02*
X76714285Y-93931009D01*
X76714285Y-93931009D02*
X76666666Y-94026247D01*
X76666666Y-94026247D02*
X76666666Y-94264342D01*
X76666666Y-94264342D02*
X76714285Y-94359580D01*
X76714285Y-94359580D02*
X76761904Y-94407200D01*
X76761904Y-94407200D02*
X76857142Y-94454819D01*
X76857142Y-94454819D02*
X77095237Y-94454819D01*
X77095237Y-94454819D02*
X77190475Y-94407200D01*
X77190475Y-94407200D02*
X77238094Y-94359580D01*
X76047618Y-93454819D02*
X75952380Y-93454819D01*
X75952380Y-93454819D02*
X75857142Y-93502438D01*
X75857142Y-93502438D02*
X75809523Y-93550057D01*
X75809523Y-93550057D02*
X75761904Y-93645295D01*
X75761904Y-93645295D02*
X75714285Y-93835771D01*
X75714285Y-93835771D02*
X75714285Y-94073866D01*
X75714285Y-94073866D02*
X75761904Y-94264342D01*
X75761904Y-94264342D02*
X75809523Y-94359580D01*
X75809523Y-94359580D02*
X75857142Y-94407200D01*
X75857142Y-94407200D02*
X75952380Y-94454819D01*
X75952380Y-94454819D02*
X76047618Y-94454819D01*
X76047618Y-94454819D02*
X76142856Y-94407200D01*
X76142856Y-94407200D02*
X76190475Y-94359580D01*
X76190475Y-94359580D02*
X76238094Y-94264342D01*
X76238094Y-94264342D02*
X76285713Y-94073866D01*
X76285713Y-94073866D02*
X76285713Y-93835771D01*
X76285713Y-93835771D02*
X76238094Y-93645295D01*
X76238094Y-93645295D02*
X76190475Y-93550057D01*
X76190475Y-93550057D02*
X76142856Y-93502438D01*
X76142856Y-93502438D02*
X76047618Y-93454819D01*
X75333332Y-93550057D02*
X75285713Y-93502438D01*
X75285713Y-93502438D02*
X75190475Y-93454819D01*
X75190475Y-93454819D02*
X74952380Y-93454819D01*
X74952380Y-93454819D02*
X74857142Y-93502438D01*
X74857142Y-93502438D02*
X74809523Y-93550057D01*
X74809523Y-93550057D02*
X74761904Y-93645295D01*
X74761904Y-93645295D02*
X74761904Y-93740533D01*
X74761904Y-93740533D02*
X74809523Y-93883390D01*
X74809523Y-93883390D02*
X75380951Y-94454819D01*
X75380951Y-94454819D02*
X74761904Y-94454819D01*
X79274819Y-84785714D02*
X80084342Y-84785714D01*
X80084342Y-84785714D02*
X80179580Y-84833333D01*
X80179580Y-84833333D02*
X80227200Y-84880952D01*
X80227200Y-84880952D02*
X80274819Y-84976190D01*
X80274819Y-84976190D02*
X80274819Y-85166666D01*
X80274819Y-85166666D02*
X80227200Y-85261904D01*
X80227200Y-85261904D02*
X80179580Y-85309523D01*
X80179580Y-85309523D02*
X80084342Y-85357142D01*
X80084342Y-85357142D02*
X79274819Y-85357142D01*
X79274819Y-86309523D02*
X79274819Y-85833333D01*
X79274819Y-85833333D02*
X79751009Y-85785714D01*
X79751009Y-85785714D02*
X79703390Y-85833333D01*
X79703390Y-85833333D02*
X79655771Y-85928571D01*
X79655771Y-85928571D02*
X79655771Y-86166666D01*
X79655771Y-86166666D02*
X79703390Y-86261904D01*
X79703390Y-86261904D02*
X79751009Y-86309523D01*
X79751009Y-86309523D02*
X79846247Y-86357142D01*
X79846247Y-86357142D02*
X80084342Y-86357142D01*
X80084342Y-86357142D02*
X80179580Y-86309523D01*
X80179580Y-86309523D02*
X80227200Y-86261904D01*
X80227200Y-86261904D02*
X80274819Y-86166666D01*
X80274819Y-86166666D02*
X80274819Y-85928571D01*
X80274819Y-85928571D02*
X80227200Y-85833333D01*
X80227200Y-85833333D02*
X80179580Y-85785714D01*
X79274819Y-86976190D02*
X79274819Y-87071428D01*
X79274819Y-87071428D02*
X79322438Y-87166666D01*
X79322438Y-87166666D02*
X79370057Y-87214285D01*
X79370057Y-87214285D02*
X79465295Y-87261904D01*
X79465295Y-87261904D02*
X79655771Y-87309523D01*
X79655771Y-87309523D02*
X79893866Y-87309523D01*
X79893866Y-87309523D02*
X80084342Y-87261904D01*
X80084342Y-87261904D02*
X80179580Y-87214285D01*
X80179580Y-87214285D02*
X80227200Y-87166666D01*
X80227200Y-87166666D02*
X80274819Y-87071428D01*
X80274819Y-87071428D02*
X80274819Y-86976190D01*
X80274819Y-86976190D02*
X80227200Y-86880952D01*
X80227200Y-86880952D02*
X80179580Y-86833333D01*
X80179580Y-86833333D02*
X80084342Y-86785714D01*
X80084342Y-86785714D02*
X79893866Y-86738095D01*
X79893866Y-86738095D02*
X79655771Y-86738095D01*
X79655771Y-86738095D02*
X79465295Y-86785714D01*
X79465295Y-86785714D02*
X79370057Y-86833333D01*
X79370057Y-86833333D02*
X79322438Y-86880952D01*
X79322438Y-86880952D02*
X79274819Y-86976190D01*
X80274819Y-88261904D02*
X80274819Y-87690476D01*
X80274819Y-87976190D02*
X79274819Y-87976190D01*
X79274819Y-87976190D02*
X79417676Y-87880952D01*
X79417676Y-87880952D02*
X79512914Y-87785714D01*
X79512914Y-87785714D02*
X79560533Y-87690476D01*
X102238094Y-86874819D02*
X101666666Y-86874819D01*
X101952380Y-87874819D02*
X101952380Y-86874819D01*
X101333332Y-87874819D02*
X101333332Y-86874819D01*
X101333332Y-87351009D02*
X100761904Y-87351009D01*
X100761904Y-87874819D02*
X100761904Y-86874819D01*
X99857142Y-86874819D02*
X100047618Y-86874819D01*
X100047618Y-86874819D02*
X100142856Y-86922438D01*
X100142856Y-86922438D02*
X100190475Y-86970057D01*
X100190475Y-86970057D02*
X100285713Y-87112914D01*
X100285713Y-87112914D02*
X100333332Y-87303390D01*
X100333332Y-87303390D02*
X100333332Y-87684342D01*
X100333332Y-87684342D02*
X100285713Y-87779580D01*
X100285713Y-87779580D02*
X100238094Y-87827200D01*
X100238094Y-87827200D02*
X100142856Y-87874819D01*
X100142856Y-87874819D02*
X99952380Y-87874819D01*
X99952380Y-87874819D02*
X99857142Y-87827200D01*
X99857142Y-87827200D02*
X99809523Y-87779580D01*
X99809523Y-87779580D02*
X99761904Y-87684342D01*
X99761904Y-87684342D02*
X99761904Y-87446247D01*
X99761904Y-87446247D02*
X99809523Y-87351009D01*
X99809523Y-87351009D02*
X99857142Y-87303390D01*
X99857142Y-87303390D02*
X99952380Y-87255771D01*
X99952380Y-87255771D02*
X100142856Y-87255771D01*
X100142856Y-87255771D02*
X100238094Y-87303390D01*
X100238094Y-87303390D02*
X100285713Y-87351009D01*
X100285713Y-87351009D02*
X100333332Y-87446247D01*
X99142856Y-86874819D02*
X99047618Y-86874819D01*
X99047618Y-86874819D02*
X98952380Y-86922438D01*
X98952380Y-86922438D02*
X98904761Y-86970057D01*
X98904761Y-86970057D02*
X98857142Y-87065295D01*
X98857142Y-87065295D02*
X98809523Y-87255771D01*
X98809523Y-87255771D02*
X98809523Y-87493866D01*
X98809523Y-87493866D02*
X98857142Y-87684342D01*
X98857142Y-87684342D02*
X98904761Y-87779580D01*
X98904761Y-87779580D02*
X98952380Y-87827200D01*
X98952380Y-87827200D02*
X99047618Y-87874819D01*
X99047618Y-87874819D02*
X99142856Y-87874819D01*
X99142856Y-87874819D02*
X99238094Y-87827200D01*
X99238094Y-87827200D02*
X99285713Y-87779580D01*
X99285713Y-87779580D02*
X99333332Y-87684342D01*
X99333332Y-87684342D02*
X99380951Y-87493866D01*
X99380951Y-87493866D02*
X99380951Y-87255771D01*
X99380951Y-87255771D02*
X99333332Y-87065295D01*
X99333332Y-87065295D02*
X99285713Y-86970057D01*
X99285713Y-86970057D02*
X99238094Y-86922438D01*
X99238094Y-86922438D02*
X99142856Y-86874819D01*
X97857142Y-87874819D02*
X98428570Y-87874819D01*
X98142856Y-87874819D02*
X98142856Y-86874819D01*
X98142856Y-86874819D02*
X98238094Y-87017676D01*
X98238094Y-87017676D02*
X98333332Y-87112914D01*
X98333332Y-87112914D02*
X98428570Y-87160533D01*
X79301547Y-90174580D02*
X79349166Y-90222200D01*
X79349166Y-90222200D02*
X79492023Y-90269819D01*
X79492023Y-90269819D02*
X79587261Y-90269819D01*
X79587261Y-90269819D02*
X79730118Y-90222200D01*
X79730118Y-90222200D02*
X79825356Y-90126961D01*
X79825356Y-90126961D02*
X79872975Y-90031723D01*
X79872975Y-90031723D02*
X79920594Y-89841247D01*
X79920594Y-89841247D02*
X79920594Y-89698390D01*
X79920594Y-89698390D02*
X79872975Y-89507914D01*
X79872975Y-89507914D02*
X79825356Y-89412676D01*
X79825356Y-89412676D02*
X79730118Y-89317438D01*
X79730118Y-89317438D02*
X79587261Y-89269819D01*
X79587261Y-89269819D02*
X79492023Y-89269819D01*
X79492023Y-89269819D02*
X79349166Y-89317438D01*
X79349166Y-89317438D02*
X79301547Y-89365057D01*
X78396785Y-89269819D02*
X78872975Y-89269819D01*
X78872975Y-89269819D02*
X78920594Y-89746009D01*
X78920594Y-89746009D02*
X78872975Y-89698390D01*
X78872975Y-89698390D02*
X78777737Y-89650771D01*
X78777737Y-89650771D02*
X78539642Y-89650771D01*
X78539642Y-89650771D02*
X78444404Y-89698390D01*
X78444404Y-89698390D02*
X78396785Y-89746009D01*
X78396785Y-89746009D02*
X78349166Y-89841247D01*
X78349166Y-89841247D02*
X78349166Y-90079342D01*
X78349166Y-90079342D02*
X78396785Y-90174580D01*
X78396785Y-90174580D02*
X78444404Y-90222200D01*
X78444404Y-90222200D02*
X78539642Y-90269819D01*
X78539642Y-90269819D02*
X78777737Y-90269819D01*
X78777737Y-90269819D02*
X78872975Y-90222200D01*
X78872975Y-90222200D02*
X78920594Y-90174580D01*
X77730118Y-89269819D02*
X77634880Y-89269819D01*
X77634880Y-89269819D02*
X77539642Y-89317438D01*
X77539642Y-89317438D02*
X77492023Y-89365057D01*
X77492023Y-89365057D02*
X77444404Y-89460295D01*
X77444404Y-89460295D02*
X77396785Y-89650771D01*
X77396785Y-89650771D02*
X77396785Y-89888866D01*
X77396785Y-89888866D02*
X77444404Y-90079342D01*
X77444404Y-90079342D02*
X77492023Y-90174580D01*
X77492023Y-90174580D02*
X77539642Y-90222200D01*
X77539642Y-90222200D02*
X77634880Y-90269819D01*
X77634880Y-90269819D02*
X77730118Y-90269819D01*
X77730118Y-90269819D02*
X77825356Y-90222200D01*
X77825356Y-90222200D02*
X77872975Y-90174580D01*
X77872975Y-90174580D02*
X77920594Y-90079342D01*
X77920594Y-90079342D02*
X77968213Y-89888866D01*
X77968213Y-89888866D02*
X77968213Y-89650771D01*
X77968213Y-89650771D02*
X77920594Y-89460295D01*
X77920594Y-89460295D02*
X77872975Y-89365057D01*
X77872975Y-89365057D02*
X77825356Y-89317438D01*
X77825356Y-89317438D02*
X77730118Y-89269819D01*
X76444404Y-90269819D02*
X77015832Y-90269819D01*
X76730118Y-90269819D02*
X76730118Y-89269819D01*
X76730118Y-89269819D02*
X76825356Y-89412676D01*
X76825356Y-89412676D02*
X76920594Y-89507914D01*
X76920594Y-89507914D02*
X77015832Y-89555533D01*
X53596547Y-91859580D02*
X53644166Y-91907200D01*
X53644166Y-91907200D02*
X53787023Y-91954819D01*
X53787023Y-91954819D02*
X53882261Y-91954819D01*
X53882261Y-91954819D02*
X54025118Y-91907200D01*
X54025118Y-91907200D02*
X54120356Y-91811961D01*
X54120356Y-91811961D02*
X54167975Y-91716723D01*
X54167975Y-91716723D02*
X54215594Y-91526247D01*
X54215594Y-91526247D02*
X54215594Y-91383390D01*
X54215594Y-91383390D02*
X54167975Y-91192914D01*
X54167975Y-91192914D02*
X54120356Y-91097676D01*
X54120356Y-91097676D02*
X54025118Y-91002438D01*
X54025118Y-91002438D02*
X53882261Y-90954819D01*
X53882261Y-90954819D02*
X53787023Y-90954819D01*
X53787023Y-90954819D02*
X53644166Y-91002438D01*
X53644166Y-91002438D02*
X53596547Y-91050057D01*
X53215594Y-91050057D02*
X53167975Y-91002438D01*
X53167975Y-91002438D02*
X53072737Y-90954819D01*
X53072737Y-90954819D02*
X52834642Y-90954819D01*
X52834642Y-90954819D02*
X52739404Y-91002438D01*
X52739404Y-91002438D02*
X52691785Y-91050057D01*
X52691785Y-91050057D02*
X52644166Y-91145295D01*
X52644166Y-91145295D02*
X52644166Y-91240533D01*
X52644166Y-91240533D02*
X52691785Y-91383390D01*
X52691785Y-91383390D02*
X53263213Y-91954819D01*
X53263213Y-91954819D02*
X52644166Y-91954819D01*
X52025118Y-90954819D02*
X51929880Y-90954819D01*
X51929880Y-90954819D02*
X51834642Y-91002438D01*
X51834642Y-91002438D02*
X51787023Y-91050057D01*
X51787023Y-91050057D02*
X51739404Y-91145295D01*
X51739404Y-91145295D02*
X51691785Y-91335771D01*
X51691785Y-91335771D02*
X51691785Y-91573866D01*
X51691785Y-91573866D02*
X51739404Y-91764342D01*
X51739404Y-91764342D02*
X51787023Y-91859580D01*
X51787023Y-91859580D02*
X51834642Y-91907200D01*
X51834642Y-91907200D02*
X51929880Y-91954819D01*
X51929880Y-91954819D02*
X52025118Y-91954819D01*
X52025118Y-91954819D02*
X52120356Y-91907200D01*
X52120356Y-91907200D02*
X52167975Y-91859580D01*
X52167975Y-91859580D02*
X52215594Y-91764342D01*
X52215594Y-91764342D02*
X52263213Y-91573866D01*
X52263213Y-91573866D02*
X52263213Y-91335771D01*
X52263213Y-91335771D02*
X52215594Y-91145295D01*
X52215594Y-91145295D02*
X52167975Y-91050057D01*
X52167975Y-91050057D02*
X52120356Y-91002438D01*
X52120356Y-91002438D02*
X52025118Y-90954819D01*
X50787023Y-90954819D02*
X51263213Y-90954819D01*
X51263213Y-90954819D02*
X51310832Y-91431009D01*
X51310832Y-91431009D02*
X51263213Y-91383390D01*
X51263213Y-91383390D02*
X51167975Y-91335771D01*
X51167975Y-91335771D02*
X50929880Y-91335771D01*
X50929880Y-91335771D02*
X50834642Y-91383390D01*
X50834642Y-91383390D02*
X50787023Y-91431009D01*
X50787023Y-91431009D02*
X50739404Y-91526247D01*
X50739404Y-91526247D02*
X50739404Y-91764342D01*
X50739404Y-91764342D02*
X50787023Y-91859580D01*
X50787023Y-91859580D02*
X50834642Y-91907200D01*
X50834642Y-91907200D02*
X50929880Y-91954819D01*
X50929880Y-91954819D02*
X51167975Y-91954819D01*
X51167975Y-91954819D02*
X51263213Y-91907200D01*
X51263213Y-91907200D02*
X51310832Y-91859580D01*
X58714285Y-89274819D02*
X58714285Y-90084342D01*
X58714285Y-90084342D02*
X58666666Y-90179580D01*
X58666666Y-90179580D02*
X58619047Y-90227200D01*
X58619047Y-90227200D02*
X58523809Y-90274819D01*
X58523809Y-90274819D02*
X58333333Y-90274819D01*
X58333333Y-90274819D02*
X58238095Y-90227200D01*
X58238095Y-90227200D02*
X58190476Y-90179580D01*
X58190476Y-90179580D02*
X58142857Y-90084342D01*
X58142857Y-90084342D02*
X58142857Y-89274819D01*
X57714285Y-89370057D02*
X57666666Y-89322438D01*
X57666666Y-89322438D02*
X57571428Y-89274819D01*
X57571428Y-89274819D02*
X57333333Y-89274819D01*
X57333333Y-89274819D02*
X57238095Y-89322438D01*
X57238095Y-89322438D02*
X57190476Y-89370057D01*
X57190476Y-89370057D02*
X57142857Y-89465295D01*
X57142857Y-89465295D02*
X57142857Y-89560533D01*
X57142857Y-89560533D02*
X57190476Y-89703390D01*
X57190476Y-89703390D02*
X57761904Y-90274819D01*
X57761904Y-90274819D02*
X57142857Y-90274819D01*
X56523809Y-89274819D02*
X56428571Y-89274819D01*
X56428571Y-89274819D02*
X56333333Y-89322438D01*
X56333333Y-89322438D02*
X56285714Y-89370057D01*
X56285714Y-89370057D02*
X56238095Y-89465295D01*
X56238095Y-89465295D02*
X56190476Y-89655771D01*
X56190476Y-89655771D02*
X56190476Y-89893866D01*
X56190476Y-89893866D02*
X56238095Y-90084342D01*
X56238095Y-90084342D02*
X56285714Y-90179580D01*
X56285714Y-90179580D02*
X56333333Y-90227200D01*
X56333333Y-90227200D02*
X56428571Y-90274819D01*
X56428571Y-90274819D02*
X56523809Y-90274819D01*
X56523809Y-90274819D02*
X56619047Y-90227200D01*
X56619047Y-90227200D02*
X56666666Y-90179580D01*
X56666666Y-90179580D02*
X56714285Y-90084342D01*
X56714285Y-90084342D02*
X56761904Y-89893866D01*
X56761904Y-89893866D02*
X56761904Y-89655771D01*
X56761904Y-89655771D02*
X56714285Y-89465295D01*
X56714285Y-89465295D02*
X56666666Y-89370057D01*
X56666666Y-89370057D02*
X56619047Y-89322438D01*
X56619047Y-89322438D02*
X56523809Y-89274819D01*
X55238095Y-90274819D02*
X55809523Y-90274819D01*
X55523809Y-90274819D02*
X55523809Y-89274819D01*
X55523809Y-89274819D02*
X55619047Y-89417676D01*
X55619047Y-89417676D02*
X55714285Y-89512914D01*
X55714285Y-89512914D02*
X55809523Y-89560533D01*
X106716547Y-69124819D02*
X107049880Y-68648628D01*
X107287975Y-69124819D02*
X107287975Y-68124819D01*
X107287975Y-68124819D02*
X106907023Y-68124819D01*
X106907023Y-68124819D02*
X106811785Y-68172438D01*
X106811785Y-68172438D02*
X106764166Y-68220057D01*
X106764166Y-68220057D02*
X106716547Y-68315295D01*
X106716547Y-68315295D02*
X106716547Y-68458152D01*
X106716547Y-68458152D02*
X106764166Y-68553390D01*
X106764166Y-68553390D02*
X106811785Y-68601009D01*
X106811785Y-68601009D02*
X106907023Y-68648628D01*
X106907023Y-68648628D02*
X107287975Y-68648628D01*
X105859404Y-68124819D02*
X106049880Y-68124819D01*
X106049880Y-68124819D02*
X106145118Y-68172438D01*
X106145118Y-68172438D02*
X106192737Y-68220057D01*
X106192737Y-68220057D02*
X106287975Y-68362914D01*
X106287975Y-68362914D02*
X106335594Y-68553390D01*
X106335594Y-68553390D02*
X106335594Y-68934342D01*
X106335594Y-68934342D02*
X106287975Y-69029580D01*
X106287975Y-69029580D02*
X106240356Y-69077200D01*
X106240356Y-69077200D02*
X106145118Y-69124819D01*
X106145118Y-69124819D02*
X105954642Y-69124819D01*
X105954642Y-69124819D02*
X105859404Y-69077200D01*
X105859404Y-69077200D02*
X105811785Y-69029580D01*
X105811785Y-69029580D02*
X105764166Y-68934342D01*
X105764166Y-68934342D02*
X105764166Y-68696247D01*
X105764166Y-68696247D02*
X105811785Y-68601009D01*
X105811785Y-68601009D02*
X105859404Y-68553390D01*
X105859404Y-68553390D02*
X105954642Y-68505771D01*
X105954642Y-68505771D02*
X106145118Y-68505771D01*
X106145118Y-68505771D02*
X106240356Y-68553390D01*
X106240356Y-68553390D02*
X106287975Y-68601009D01*
X106287975Y-68601009D02*
X106335594Y-68696247D01*
X105145118Y-68124819D02*
X105049880Y-68124819D01*
X105049880Y-68124819D02*
X104954642Y-68172438D01*
X104954642Y-68172438D02*
X104907023Y-68220057D01*
X104907023Y-68220057D02*
X104859404Y-68315295D01*
X104859404Y-68315295D02*
X104811785Y-68505771D01*
X104811785Y-68505771D02*
X104811785Y-68743866D01*
X104811785Y-68743866D02*
X104859404Y-68934342D01*
X104859404Y-68934342D02*
X104907023Y-69029580D01*
X104907023Y-69029580D02*
X104954642Y-69077200D01*
X104954642Y-69077200D02*
X105049880Y-69124819D01*
X105049880Y-69124819D02*
X105145118Y-69124819D01*
X105145118Y-69124819D02*
X105240356Y-69077200D01*
X105240356Y-69077200D02*
X105287975Y-69029580D01*
X105287975Y-69029580D02*
X105335594Y-68934342D01*
X105335594Y-68934342D02*
X105383213Y-68743866D01*
X105383213Y-68743866D02*
X105383213Y-68505771D01*
X105383213Y-68505771D02*
X105335594Y-68315295D01*
X105335594Y-68315295D02*
X105287975Y-68220057D01*
X105287975Y-68220057D02*
X105240356Y-68172438D01*
X105240356Y-68172438D02*
X105145118Y-68124819D01*
X103907023Y-68124819D02*
X104383213Y-68124819D01*
X104383213Y-68124819D02*
X104430832Y-68601009D01*
X104430832Y-68601009D02*
X104383213Y-68553390D01*
X104383213Y-68553390D02*
X104287975Y-68505771D01*
X104287975Y-68505771D02*
X104049880Y-68505771D01*
X104049880Y-68505771D02*
X103954642Y-68553390D01*
X103954642Y-68553390D02*
X103907023Y-68601009D01*
X103907023Y-68601009D02*
X103859404Y-68696247D01*
X103859404Y-68696247D02*
X103859404Y-68934342D01*
X103859404Y-68934342D02*
X103907023Y-69029580D01*
X103907023Y-69029580D02*
X103954642Y-69077200D01*
X103954642Y-69077200D02*
X104049880Y-69124819D01*
X104049880Y-69124819D02*
X104287975Y-69124819D01*
X104287975Y-69124819D02*
X104383213Y-69077200D01*
X104383213Y-69077200D02*
X104430832Y-69029580D01*
X70859580Y-83380952D02*
X70907200Y-83333333D01*
X70907200Y-83333333D02*
X70954819Y-83190476D01*
X70954819Y-83190476D02*
X70954819Y-83095238D01*
X70954819Y-83095238D02*
X70907200Y-82952381D01*
X70907200Y-82952381D02*
X70811961Y-82857143D01*
X70811961Y-82857143D02*
X70716723Y-82809524D01*
X70716723Y-82809524D02*
X70526247Y-82761905D01*
X70526247Y-82761905D02*
X70383390Y-82761905D01*
X70383390Y-82761905D02*
X70192914Y-82809524D01*
X70192914Y-82809524D02*
X70097676Y-82857143D01*
X70097676Y-82857143D02*
X70002438Y-82952381D01*
X70002438Y-82952381D02*
X69954819Y-83095238D01*
X69954819Y-83095238D02*
X69954819Y-83190476D01*
X69954819Y-83190476D02*
X70002438Y-83333333D01*
X70002438Y-83333333D02*
X70050057Y-83380952D01*
X69954819Y-84285714D02*
X69954819Y-83809524D01*
X69954819Y-83809524D02*
X70431009Y-83761905D01*
X70431009Y-83761905D02*
X70383390Y-83809524D01*
X70383390Y-83809524D02*
X70335771Y-83904762D01*
X70335771Y-83904762D02*
X70335771Y-84142857D01*
X70335771Y-84142857D02*
X70383390Y-84238095D01*
X70383390Y-84238095D02*
X70431009Y-84285714D01*
X70431009Y-84285714D02*
X70526247Y-84333333D01*
X70526247Y-84333333D02*
X70764342Y-84333333D01*
X70764342Y-84333333D02*
X70859580Y-84285714D01*
X70859580Y-84285714D02*
X70907200Y-84238095D01*
X70907200Y-84238095D02*
X70954819Y-84142857D01*
X70954819Y-84142857D02*
X70954819Y-83904762D01*
X70954819Y-83904762D02*
X70907200Y-83809524D01*
X70907200Y-83809524D02*
X70859580Y-83761905D01*
X69954819Y-84952381D02*
X69954819Y-85047619D01*
X69954819Y-85047619D02*
X70002438Y-85142857D01*
X70002438Y-85142857D02*
X70050057Y-85190476D01*
X70050057Y-85190476D02*
X70145295Y-85238095D01*
X70145295Y-85238095D02*
X70335771Y-85285714D01*
X70335771Y-85285714D02*
X70573866Y-85285714D01*
X70573866Y-85285714D02*
X70764342Y-85238095D01*
X70764342Y-85238095D02*
X70859580Y-85190476D01*
X70859580Y-85190476D02*
X70907200Y-85142857D01*
X70907200Y-85142857D02*
X70954819Y-85047619D01*
X70954819Y-85047619D02*
X70954819Y-84952381D01*
X70954819Y-84952381D02*
X70907200Y-84857143D01*
X70907200Y-84857143D02*
X70859580Y-84809524D01*
X70859580Y-84809524D02*
X70764342Y-84761905D01*
X70764342Y-84761905D02*
X70573866Y-84714286D01*
X70573866Y-84714286D02*
X70335771Y-84714286D01*
X70335771Y-84714286D02*
X70145295Y-84761905D01*
X70145295Y-84761905D02*
X70050057Y-84809524D01*
X70050057Y-84809524D02*
X70002438Y-84857143D01*
X70002438Y-84857143D02*
X69954819Y-84952381D01*
X69954819Y-85619048D02*
X69954819Y-86238095D01*
X69954819Y-86238095D02*
X70335771Y-85904762D01*
X70335771Y-85904762D02*
X70335771Y-86047619D01*
X70335771Y-86047619D02*
X70383390Y-86142857D01*
X70383390Y-86142857D02*
X70431009Y-86190476D01*
X70431009Y-86190476D02*
X70526247Y-86238095D01*
X70526247Y-86238095D02*
X70764342Y-86238095D01*
X70764342Y-86238095D02*
X70859580Y-86190476D01*
X70859580Y-86190476D02*
X70907200Y-86142857D01*
X70907200Y-86142857D02*
X70954819Y-86047619D01*
X70954819Y-86047619D02*
X70954819Y-85761905D01*
X70954819Y-85761905D02*
X70907200Y-85666667D01*
X70907200Y-85666667D02*
X70859580Y-85619048D01*
X50859580Y-87010952D02*
X50907200Y-86963333D01*
X50907200Y-86963333D02*
X50954819Y-86820476D01*
X50954819Y-86820476D02*
X50954819Y-86725238D01*
X50954819Y-86725238D02*
X50907200Y-86582381D01*
X50907200Y-86582381D02*
X50811961Y-86487143D01*
X50811961Y-86487143D02*
X50716723Y-86439524D01*
X50716723Y-86439524D02*
X50526247Y-86391905D01*
X50526247Y-86391905D02*
X50383390Y-86391905D01*
X50383390Y-86391905D02*
X50192914Y-86439524D01*
X50192914Y-86439524D02*
X50097676Y-86487143D01*
X50097676Y-86487143D02*
X50002438Y-86582381D01*
X50002438Y-86582381D02*
X49954819Y-86725238D01*
X49954819Y-86725238D02*
X49954819Y-86820476D01*
X49954819Y-86820476D02*
X50002438Y-86963333D01*
X50002438Y-86963333D02*
X50050057Y-87010952D01*
X50050057Y-87391905D02*
X50002438Y-87439524D01*
X50002438Y-87439524D02*
X49954819Y-87534762D01*
X49954819Y-87534762D02*
X49954819Y-87772857D01*
X49954819Y-87772857D02*
X50002438Y-87868095D01*
X50002438Y-87868095D02*
X50050057Y-87915714D01*
X50050057Y-87915714D02*
X50145295Y-87963333D01*
X50145295Y-87963333D02*
X50240533Y-87963333D01*
X50240533Y-87963333D02*
X50383390Y-87915714D01*
X50383390Y-87915714D02*
X50954819Y-87344286D01*
X50954819Y-87344286D02*
X50954819Y-87963333D01*
X49954819Y-88582381D02*
X49954819Y-88677619D01*
X49954819Y-88677619D02*
X50002438Y-88772857D01*
X50002438Y-88772857D02*
X50050057Y-88820476D01*
X50050057Y-88820476D02*
X50145295Y-88868095D01*
X50145295Y-88868095D02*
X50335771Y-88915714D01*
X50335771Y-88915714D02*
X50573866Y-88915714D01*
X50573866Y-88915714D02*
X50764342Y-88868095D01*
X50764342Y-88868095D02*
X50859580Y-88820476D01*
X50859580Y-88820476D02*
X50907200Y-88772857D01*
X50907200Y-88772857D02*
X50954819Y-88677619D01*
X50954819Y-88677619D02*
X50954819Y-88582381D01*
X50954819Y-88582381D02*
X50907200Y-88487143D01*
X50907200Y-88487143D02*
X50859580Y-88439524D01*
X50859580Y-88439524D02*
X50764342Y-88391905D01*
X50764342Y-88391905D02*
X50573866Y-88344286D01*
X50573866Y-88344286D02*
X50335771Y-88344286D01*
X50335771Y-88344286D02*
X50145295Y-88391905D01*
X50145295Y-88391905D02*
X50050057Y-88439524D01*
X50050057Y-88439524D02*
X50002438Y-88487143D01*
X50002438Y-88487143D02*
X49954819Y-88582381D01*
X50954819Y-89868095D02*
X50954819Y-89296667D01*
X50954819Y-89582381D02*
X49954819Y-89582381D01*
X49954819Y-89582381D02*
X50097676Y-89487143D01*
X50097676Y-89487143D02*
X50192914Y-89391905D01*
X50192914Y-89391905D02*
X50240533Y-89296667D01*
X49359580Y-85880952D02*
X49407200Y-85833333D01*
X49407200Y-85833333D02*
X49454819Y-85690476D01*
X49454819Y-85690476D02*
X49454819Y-85595238D01*
X49454819Y-85595238D02*
X49407200Y-85452381D01*
X49407200Y-85452381D02*
X49311961Y-85357143D01*
X49311961Y-85357143D02*
X49216723Y-85309524D01*
X49216723Y-85309524D02*
X49026247Y-85261905D01*
X49026247Y-85261905D02*
X48883390Y-85261905D01*
X48883390Y-85261905D02*
X48692914Y-85309524D01*
X48692914Y-85309524D02*
X48597676Y-85357143D01*
X48597676Y-85357143D02*
X48502438Y-85452381D01*
X48502438Y-85452381D02*
X48454819Y-85595238D01*
X48454819Y-85595238D02*
X48454819Y-85690476D01*
X48454819Y-85690476D02*
X48502438Y-85833333D01*
X48502438Y-85833333D02*
X48550057Y-85880952D01*
X48550057Y-86261905D02*
X48502438Y-86309524D01*
X48502438Y-86309524D02*
X48454819Y-86404762D01*
X48454819Y-86404762D02*
X48454819Y-86642857D01*
X48454819Y-86642857D02*
X48502438Y-86738095D01*
X48502438Y-86738095D02*
X48550057Y-86785714D01*
X48550057Y-86785714D02*
X48645295Y-86833333D01*
X48645295Y-86833333D02*
X48740533Y-86833333D01*
X48740533Y-86833333D02*
X48883390Y-86785714D01*
X48883390Y-86785714D02*
X49454819Y-86214286D01*
X49454819Y-86214286D02*
X49454819Y-86833333D01*
X48454819Y-87452381D02*
X48454819Y-87547619D01*
X48454819Y-87547619D02*
X48502438Y-87642857D01*
X48502438Y-87642857D02*
X48550057Y-87690476D01*
X48550057Y-87690476D02*
X48645295Y-87738095D01*
X48645295Y-87738095D02*
X48835771Y-87785714D01*
X48835771Y-87785714D02*
X49073866Y-87785714D01*
X49073866Y-87785714D02*
X49264342Y-87738095D01*
X49264342Y-87738095D02*
X49359580Y-87690476D01*
X49359580Y-87690476D02*
X49407200Y-87642857D01*
X49407200Y-87642857D02*
X49454819Y-87547619D01*
X49454819Y-87547619D02*
X49454819Y-87452381D01*
X49454819Y-87452381D02*
X49407200Y-87357143D01*
X49407200Y-87357143D02*
X49359580Y-87309524D01*
X49359580Y-87309524D02*
X49264342Y-87261905D01*
X49264342Y-87261905D02*
X49073866Y-87214286D01*
X49073866Y-87214286D02*
X48835771Y-87214286D01*
X48835771Y-87214286D02*
X48645295Y-87261905D01*
X48645295Y-87261905D02*
X48550057Y-87309524D01*
X48550057Y-87309524D02*
X48502438Y-87357143D01*
X48502438Y-87357143D02*
X48454819Y-87452381D01*
X48550057Y-88166667D02*
X48502438Y-88214286D01*
X48502438Y-88214286D02*
X48454819Y-88309524D01*
X48454819Y-88309524D02*
X48454819Y-88547619D01*
X48454819Y-88547619D02*
X48502438Y-88642857D01*
X48502438Y-88642857D02*
X48550057Y-88690476D01*
X48550057Y-88690476D02*
X48645295Y-88738095D01*
X48645295Y-88738095D02*
X48740533Y-88738095D01*
X48740533Y-88738095D02*
X48883390Y-88690476D01*
X48883390Y-88690476D02*
X49454819Y-88119048D01*
X49454819Y-88119048D02*
X49454819Y-88738095D01*
X49119047Y-84859580D02*
X49166666Y-84907200D01*
X49166666Y-84907200D02*
X49309523Y-84954819D01*
X49309523Y-84954819D02*
X49404761Y-84954819D01*
X49404761Y-84954819D02*
X49547618Y-84907200D01*
X49547618Y-84907200D02*
X49642856Y-84811961D01*
X49642856Y-84811961D02*
X49690475Y-84716723D01*
X49690475Y-84716723D02*
X49738094Y-84526247D01*
X49738094Y-84526247D02*
X49738094Y-84383390D01*
X49738094Y-84383390D02*
X49690475Y-84192914D01*
X49690475Y-84192914D02*
X49642856Y-84097676D01*
X49642856Y-84097676D02*
X49547618Y-84002438D01*
X49547618Y-84002438D02*
X49404761Y-83954819D01*
X49404761Y-83954819D02*
X49309523Y-83954819D01*
X49309523Y-83954819D02*
X49166666Y-84002438D01*
X49166666Y-84002438D02*
X49119047Y-84050057D01*
X48785713Y-83954819D02*
X48166666Y-83954819D01*
X48166666Y-83954819D02*
X48499999Y-84335771D01*
X48499999Y-84335771D02*
X48357142Y-84335771D01*
X48357142Y-84335771D02*
X48261904Y-84383390D01*
X48261904Y-84383390D02*
X48214285Y-84431009D01*
X48214285Y-84431009D02*
X48166666Y-84526247D01*
X48166666Y-84526247D02*
X48166666Y-84764342D01*
X48166666Y-84764342D02*
X48214285Y-84859580D01*
X48214285Y-84859580D02*
X48261904Y-84907200D01*
X48261904Y-84907200D02*
X48357142Y-84954819D01*
X48357142Y-84954819D02*
X48642856Y-84954819D01*
X48642856Y-84954819D02*
X48738094Y-84907200D01*
X48738094Y-84907200D02*
X48785713Y-84859580D01*
X47547618Y-83954819D02*
X47452380Y-83954819D01*
X47452380Y-83954819D02*
X47357142Y-84002438D01*
X47357142Y-84002438D02*
X47309523Y-84050057D01*
X47309523Y-84050057D02*
X47261904Y-84145295D01*
X47261904Y-84145295D02*
X47214285Y-84335771D01*
X47214285Y-84335771D02*
X47214285Y-84573866D01*
X47214285Y-84573866D02*
X47261904Y-84764342D01*
X47261904Y-84764342D02*
X47309523Y-84859580D01*
X47309523Y-84859580D02*
X47357142Y-84907200D01*
X47357142Y-84907200D02*
X47452380Y-84954819D01*
X47452380Y-84954819D02*
X47547618Y-84954819D01*
X47547618Y-84954819D02*
X47642856Y-84907200D01*
X47642856Y-84907200D02*
X47690475Y-84859580D01*
X47690475Y-84859580D02*
X47738094Y-84764342D01*
X47738094Y-84764342D02*
X47785713Y-84573866D01*
X47785713Y-84573866D02*
X47785713Y-84335771D01*
X47785713Y-84335771D02*
X47738094Y-84145295D01*
X47738094Y-84145295D02*
X47690475Y-84050057D01*
X47690475Y-84050057D02*
X47642856Y-84002438D01*
X47642856Y-84002438D02*
X47547618Y-83954819D01*
X46880951Y-83954819D02*
X46261904Y-83954819D01*
X46261904Y-83954819D02*
X46595237Y-84335771D01*
X46595237Y-84335771D02*
X46452380Y-84335771D01*
X46452380Y-84335771D02*
X46357142Y-84383390D01*
X46357142Y-84383390D02*
X46309523Y-84431009D01*
X46309523Y-84431009D02*
X46261904Y-84526247D01*
X46261904Y-84526247D02*
X46261904Y-84764342D01*
X46261904Y-84764342D02*
X46309523Y-84859580D01*
X46309523Y-84859580D02*
X46357142Y-84907200D01*
X46357142Y-84907200D02*
X46452380Y-84954819D01*
X46452380Y-84954819D02*
X46738094Y-84954819D01*
X46738094Y-84954819D02*
X46833332Y-84907200D01*
X46833332Y-84907200D02*
X46880951Y-84859580D01*
X82359580Y-90880952D02*
X82407200Y-90833333D01*
X82407200Y-90833333D02*
X82454819Y-90690476D01*
X82454819Y-90690476D02*
X82454819Y-90595238D01*
X82454819Y-90595238D02*
X82407200Y-90452381D01*
X82407200Y-90452381D02*
X82311961Y-90357143D01*
X82311961Y-90357143D02*
X82216723Y-90309524D01*
X82216723Y-90309524D02*
X82026247Y-90261905D01*
X82026247Y-90261905D02*
X81883390Y-90261905D01*
X81883390Y-90261905D02*
X81692914Y-90309524D01*
X81692914Y-90309524D02*
X81597676Y-90357143D01*
X81597676Y-90357143D02*
X81502438Y-90452381D01*
X81502438Y-90452381D02*
X81454819Y-90595238D01*
X81454819Y-90595238D02*
X81454819Y-90690476D01*
X81454819Y-90690476D02*
X81502438Y-90833333D01*
X81502438Y-90833333D02*
X81550057Y-90880952D01*
X81454819Y-91785714D02*
X81454819Y-91309524D01*
X81454819Y-91309524D02*
X81931009Y-91261905D01*
X81931009Y-91261905D02*
X81883390Y-91309524D01*
X81883390Y-91309524D02*
X81835771Y-91404762D01*
X81835771Y-91404762D02*
X81835771Y-91642857D01*
X81835771Y-91642857D02*
X81883390Y-91738095D01*
X81883390Y-91738095D02*
X81931009Y-91785714D01*
X81931009Y-91785714D02*
X82026247Y-91833333D01*
X82026247Y-91833333D02*
X82264342Y-91833333D01*
X82264342Y-91833333D02*
X82359580Y-91785714D01*
X82359580Y-91785714D02*
X82407200Y-91738095D01*
X82407200Y-91738095D02*
X82454819Y-91642857D01*
X82454819Y-91642857D02*
X82454819Y-91404762D01*
X82454819Y-91404762D02*
X82407200Y-91309524D01*
X82407200Y-91309524D02*
X82359580Y-91261905D01*
X81454819Y-92452381D02*
X81454819Y-92547619D01*
X81454819Y-92547619D02*
X81502438Y-92642857D01*
X81502438Y-92642857D02*
X81550057Y-92690476D01*
X81550057Y-92690476D02*
X81645295Y-92738095D01*
X81645295Y-92738095D02*
X81835771Y-92785714D01*
X81835771Y-92785714D02*
X82073866Y-92785714D01*
X82073866Y-92785714D02*
X82264342Y-92738095D01*
X82264342Y-92738095D02*
X82359580Y-92690476D01*
X82359580Y-92690476D02*
X82407200Y-92642857D01*
X82407200Y-92642857D02*
X82454819Y-92547619D01*
X82454819Y-92547619D02*
X82454819Y-92452381D01*
X82454819Y-92452381D02*
X82407200Y-92357143D01*
X82407200Y-92357143D02*
X82359580Y-92309524D01*
X82359580Y-92309524D02*
X82264342Y-92261905D01*
X82264342Y-92261905D02*
X82073866Y-92214286D01*
X82073866Y-92214286D02*
X81835771Y-92214286D01*
X81835771Y-92214286D02*
X81645295Y-92261905D01*
X81645295Y-92261905D02*
X81550057Y-92309524D01*
X81550057Y-92309524D02*
X81502438Y-92357143D01*
X81502438Y-92357143D02*
X81454819Y-92452381D01*
X81454819Y-93690476D02*
X81454819Y-93214286D01*
X81454819Y-93214286D02*
X81931009Y-93166667D01*
X81931009Y-93166667D02*
X81883390Y-93214286D01*
X81883390Y-93214286D02*
X81835771Y-93309524D01*
X81835771Y-93309524D02*
X81835771Y-93547619D01*
X81835771Y-93547619D02*
X81883390Y-93642857D01*
X81883390Y-93642857D02*
X81931009Y-93690476D01*
X81931009Y-93690476D02*
X82026247Y-93738095D01*
X82026247Y-93738095D02*
X82264342Y-93738095D01*
X82264342Y-93738095D02*
X82359580Y-93690476D01*
X82359580Y-93690476D02*
X82407200Y-93642857D01*
X82407200Y-93642857D02*
X82454819Y-93547619D01*
X82454819Y-93547619D02*
X82454819Y-93309524D01*
X82454819Y-93309524D02*
X82407200Y-93214286D01*
X82407200Y-93214286D02*
X82359580Y-93166667D01*
X72359580Y-84380952D02*
X72407200Y-84333333D01*
X72407200Y-84333333D02*
X72454819Y-84190476D01*
X72454819Y-84190476D02*
X72454819Y-84095238D01*
X72454819Y-84095238D02*
X72407200Y-83952381D01*
X72407200Y-83952381D02*
X72311961Y-83857143D01*
X72311961Y-83857143D02*
X72216723Y-83809524D01*
X72216723Y-83809524D02*
X72026247Y-83761905D01*
X72026247Y-83761905D02*
X71883390Y-83761905D01*
X71883390Y-83761905D02*
X71692914Y-83809524D01*
X71692914Y-83809524D02*
X71597676Y-83857143D01*
X71597676Y-83857143D02*
X71502438Y-83952381D01*
X71502438Y-83952381D02*
X71454819Y-84095238D01*
X71454819Y-84095238D02*
X71454819Y-84190476D01*
X71454819Y-84190476D02*
X71502438Y-84333333D01*
X71502438Y-84333333D02*
X71550057Y-84380952D01*
X71454819Y-85285714D02*
X71454819Y-84809524D01*
X71454819Y-84809524D02*
X71931009Y-84761905D01*
X71931009Y-84761905D02*
X71883390Y-84809524D01*
X71883390Y-84809524D02*
X71835771Y-84904762D01*
X71835771Y-84904762D02*
X71835771Y-85142857D01*
X71835771Y-85142857D02*
X71883390Y-85238095D01*
X71883390Y-85238095D02*
X71931009Y-85285714D01*
X71931009Y-85285714D02*
X72026247Y-85333333D01*
X72026247Y-85333333D02*
X72264342Y-85333333D01*
X72264342Y-85333333D02*
X72359580Y-85285714D01*
X72359580Y-85285714D02*
X72407200Y-85238095D01*
X72407200Y-85238095D02*
X72454819Y-85142857D01*
X72454819Y-85142857D02*
X72454819Y-84904762D01*
X72454819Y-84904762D02*
X72407200Y-84809524D01*
X72407200Y-84809524D02*
X72359580Y-84761905D01*
X71454819Y-85952381D02*
X71454819Y-86047619D01*
X71454819Y-86047619D02*
X71502438Y-86142857D01*
X71502438Y-86142857D02*
X71550057Y-86190476D01*
X71550057Y-86190476D02*
X71645295Y-86238095D01*
X71645295Y-86238095D02*
X71835771Y-86285714D01*
X71835771Y-86285714D02*
X72073866Y-86285714D01*
X72073866Y-86285714D02*
X72264342Y-86238095D01*
X72264342Y-86238095D02*
X72359580Y-86190476D01*
X72359580Y-86190476D02*
X72407200Y-86142857D01*
X72407200Y-86142857D02*
X72454819Y-86047619D01*
X72454819Y-86047619D02*
X72454819Y-85952381D01*
X72454819Y-85952381D02*
X72407200Y-85857143D01*
X72407200Y-85857143D02*
X72359580Y-85809524D01*
X72359580Y-85809524D02*
X72264342Y-85761905D01*
X72264342Y-85761905D02*
X72073866Y-85714286D01*
X72073866Y-85714286D02*
X71835771Y-85714286D01*
X71835771Y-85714286D02*
X71645295Y-85761905D01*
X71645295Y-85761905D02*
X71550057Y-85809524D01*
X71550057Y-85809524D02*
X71502438Y-85857143D01*
X71502438Y-85857143D02*
X71454819Y-85952381D01*
X71788152Y-87142857D02*
X72454819Y-87142857D01*
X71407200Y-86904762D02*
X72121485Y-86666667D01*
X72121485Y-86666667D02*
X72121485Y-87285714D01*
X81929580Y-95243452D02*
X81977200Y-95195833D01*
X81977200Y-95195833D02*
X82024819Y-95052976D01*
X82024819Y-95052976D02*
X82024819Y-94957738D01*
X82024819Y-94957738D02*
X81977200Y-94814881D01*
X81977200Y-94814881D02*
X81881961Y-94719643D01*
X81881961Y-94719643D02*
X81786723Y-94672024D01*
X81786723Y-94672024D02*
X81596247Y-94624405D01*
X81596247Y-94624405D02*
X81453390Y-94624405D01*
X81453390Y-94624405D02*
X81262914Y-94672024D01*
X81262914Y-94672024D02*
X81167676Y-94719643D01*
X81167676Y-94719643D02*
X81072438Y-94814881D01*
X81072438Y-94814881D02*
X81024819Y-94957738D01*
X81024819Y-94957738D02*
X81024819Y-95052976D01*
X81024819Y-95052976D02*
X81072438Y-95195833D01*
X81072438Y-95195833D02*
X81120057Y-95243452D01*
X81024819Y-96100595D02*
X81024819Y-95910119D01*
X81024819Y-95910119D02*
X81072438Y-95814881D01*
X81072438Y-95814881D02*
X81120057Y-95767262D01*
X81120057Y-95767262D02*
X81262914Y-95672024D01*
X81262914Y-95672024D02*
X81453390Y-95624405D01*
X81453390Y-95624405D02*
X81834342Y-95624405D01*
X81834342Y-95624405D02*
X81929580Y-95672024D01*
X81929580Y-95672024D02*
X81977200Y-95719643D01*
X81977200Y-95719643D02*
X82024819Y-95814881D01*
X82024819Y-95814881D02*
X82024819Y-96005357D01*
X82024819Y-96005357D02*
X81977200Y-96100595D01*
X81977200Y-96100595D02*
X81929580Y-96148214D01*
X81929580Y-96148214D02*
X81834342Y-96195833D01*
X81834342Y-96195833D02*
X81596247Y-96195833D01*
X81596247Y-96195833D02*
X81501009Y-96148214D01*
X81501009Y-96148214D02*
X81453390Y-96100595D01*
X81453390Y-96100595D02*
X81405771Y-96005357D01*
X81405771Y-96005357D02*
X81405771Y-95814881D01*
X81405771Y-95814881D02*
X81453390Y-95719643D01*
X81453390Y-95719643D02*
X81501009Y-95672024D01*
X81501009Y-95672024D02*
X81596247Y-95624405D01*
X81024819Y-96814881D02*
X81024819Y-96910119D01*
X81024819Y-96910119D02*
X81072438Y-97005357D01*
X81072438Y-97005357D02*
X81120057Y-97052976D01*
X81120057Y-97052976D02*
X81215295Y-97100595D01*
X81215295Y-97100595D02*
X81405771Y-97148214D01*
X81405771Y-97148214D02*
X81643866Y-97148214D01*
X81643866Y-97148214D02*
X81834342Y-97100595D01*
X81834342Y-97100595D02*
X81929580Y-97052976D01*
X81929580Y-97052976D02*
X81977200Y-97005357D01*
X81977200Y-97005357D02*
X82024819Y-96910119D01*
X82024819Y-96910119D02*
X82024819Y-96814881D01*
X82024819Y-96814881D02*
X81977200Y-96719643D01*
X81977200Y-96719643D02*
X81929580Y-96672024D01*
X81929580Y-96672024D02*
X81834342Y-96624405D01*
X81834342Y-96624405D02*
X81643866Y-96576786D01*
X81643866Y-96576786D02*
X81405771Y-96576786D01*
X81405771Y-96576786D02*
X81215295Y-96624405D01*
X81215295Y-96624405D02*
X81120057Y-96672024D01*
X81120057Y-96672024D02*
X81072438Y-96719643D01*
X81072438Y-96719643D02*
X81024819Y-96814881D01*
X81024819Y-97481548D02*
X81024819Y-98100595D01*
X81024819Y-98100595D02*
X81405771Y-97767262D01*
X81405771Y-97767262D02*
X81405771Y-97910119D01*
X81405771Y-97910119D02*
X81453390Y-98005357D01*
X81453390Y-98005357D02*
X81501009Y-98052976D01*
X81501009Y-98052976D02*
X81596247Y-98100595D01*
X81596247Y-98100595D02*
X81834342Y-98100595D01*
X81834342Y-98100595D02*
X81929580Y-98052976D01*
X81929580Y-98052976D02*
X81977200Y-98005357D01*
X81977200Y-98005357D02*
X82024819Y-97910119D01*
X82024819Y-97910119D02*
X82024819Y-97624405D01*
X82024819Y-97624405D02*
X81977200Y-97529167D01*
X81977200Y-97529167D02*
X81929580Y-97481548D01*
X86119047Y-94784819D02*
X86452380Y-94308628D01*
X86690475Y-94784819D02*
X86690475Y-93784819D01*
X86690475Y-93784819D02*
X86309523Y-93784819D01*
X86309523Y-93784819D02*
X86214285Y-93832438D01*
X86214285Y-93832438D02*
X86166666Y-93880057D01*
X86166666Y-93880057D02*
X86119047Y-93975295D01*
X86119047Y-93975295D02*
X86119047Y-94118152D01*
X86119047Y-94118152D02*
X86166666Y-94213390D01*
X86166666Y-94213390D02*
X86214285Y-94261009D01*
X86214285Y-94261009D02*
X86309523Y-94308628D01*
X86309523Y-94308628D02*
X86690475Y-94308628D01*
X85261904Y-93784819D02*
X85452380Y-93784819D01*
X85452380Y-93784819D02*
X85547618Y-93832438D01*
X85547618Y-93832438D02*
X85595237Y-93880057D01*
X85595237Y-93880057D02*
X85690475Y-94022914D01*
X85690475Y-94022914D02*
X85738094Y-94213390D01*
X85738094Y-94213390D02*
X85738094Y-94594342D01*
X85738094Y-94594342D02*
X85690475Y-94689580D01*
X85690475Y-94689580D02*
X85642856Y-94737200D01*
X85642856Y-94737200D02*
X85547618Y-94784819D01*
X85547618Y-94784819D02*
X85357142Y-94784819D01*
X85357142Y-94784819D02*
X85261904Y-94737200D01*
X85261904Y-94737200D02*
X85214285Y-94689580D01*
X85214285Y-94689580D02*
X85166666Y-94594342D01*
X85166666Y-94594342D02*
X85166666Y-94356247D01*
X85166666Y-94356247D02*
X85214285Y-94261009D01*
X85214285Y-94261009D02*
X85261904Y-94213390D01*
X85261904Y-94213390D02*
X85357142Y-94165771D01*
X85357142Y-94165771D02*
X85547618Y-94165771D01*
X85547618Y-94165771D02*
X85642856Y-94213390D01*
X85642856Y-94213390D02*
X85690475Y-94261009D01*
X85690475Y-94261009D02*
X85738094Y-94356247D01*
X84547618Y-93784819D02*
X84452380Y-93784819D01*
X84452380Y-93784819D02*
X84357142Y-93832438D01*
X84357142Y-93832438D02*
X84309523Y-93880057D01*
X84309523Y-93880057D02*
X84261904Y-93975295D01*
X84261904Y-93975295D02*
X84214285Y-94165771D01*
X84214285Y-94165771D02*
X84214285Y-94403866D01*
X84214285Y-94403866D02*
X84261904Y-94594342D01*
X84261904Y-94594342D02*
X84309523Y-94689580D01*
X84309523Y-94689580D02*
X84357142Y-94737200D01*
X84357142Y-94737200D02*
X84452380Y-94784819D01*
X84452380Y-94784819D02*
X84547618Y-94784819D01*
X84547618Y-94784819D02*
X84642856Y-94737200D01*
X84642856Y-94737200D02*
X84690475Y-94689580D01*
X84690475Y-94689580D02*
X84738094Y-94594342D01*
X84738094Y-94594342D02*
X84785713Y-94403866D01*
X84785713Y-94403866D02*
X84785713Y-94165771D01*
X84785713Y-94165771D02*
X84738094Y-93975295D01*
X84738094Y-93975295D02*
X84690475Y-93880057D01*
X84690475Y-93880057D02*
X84642856Y-93832438D01*
X84642856Y-93832438D02*
X84547618Y-93784819D01*
X83833332Y-93880057D02*
X83785713Y-93832438D01*
X83785713Y-93832438D02*
X83690475Y-93784819D01*
X83690475Y-93784819D02*
X83452380Y-93784819D01*
X83452380Y-93784819D02*
X83357142Y-93832438D01*
X83357142Y-93832438D02*
X83309523Y-93880057D01*
X83309523Y-93880057D02*
X83261904Y-93975295D01*
X83261904Y-93975295D02*
X83261904Y-94070533D01*
X83261904Y-94070533D02*
X83309523Y-94213390D01*
X83309523Y-94213390D02*
X83880951Y-94784819D01*
X83880951Y-94784819D02*
X83261904Y-94784819D01*
X53119047Y-82359580D02*
X53166666Y-82407200D01*
X53166666Y-82407200D02*
X53309523Y-82454819D01*
X53309523Y-82454819D02*
X53404761Y-82454819D01*
X53404761Y-82454819D02*
X53547618Y-82407200D01*
X53547618Y-82407200D02*
X53642856Y-82311961D01*
X53642856Y-82311961D02*
X53690475Y-82216723D01*
X53690475Y-82216723D02*
X53738094Y-82026247D01*
X53738094Y-82026247D02*
X53738094Y-81883390D01*
X53738094Y-81883390D02*
X53690475Y-81692914D01*
X53690475Y-81692914D02*
X53642856Y-81597676D01*
X53642856Y-81597676D02*
X53547618Y-81502438D01*
X53547618Y-81502438D02*
X53404761Y-81454819D01*
X53404761Y-81454819D02*
X53309523Y-81454819D01*
X53309523Y-81454819D02*
X53166666Y-81502438D01*
X53166666Y-81502438D02*
X53119047Y-81550057D01*
X52738094Y-81550057D02*
X52690475Y-81502438D01*
X52690475Y-81502438D02*
X52595237Y-81454819D01*
X52595237Y-81454819D02*
X52357142Y-81454819D01*
X52357142Y-81454819D02*
X52261904Y-81502438D01*
X52261904Y-81502438D02*
X52214285Y-81550057D01*
X52214285Y-81550057D02*
X52166666Y-81645295D01*
X52166666Y-81645295D02*
X52166666Y-81740533D01*
X52166666Y-81740533D02*
X52214285Y-81883390D01*
X52214285Y-81883390D02*
X52785713Y-82454819D01*
X52785713Y-82454819D02*
X52166666Y-82454819D01*
X51547618Y-81454819D02*
X51452380Y-81454819D01*
X51452380Y-81454819D02*
X51357142Y-81502438D01*
X51357142Y-81502438D02*
X51309523Y-81550057D01*
X51309523Y-81550057D02*
X51261904Y-81645295D01*
X51261904Y-81645295D02*
X51214285Y-81835771D01*
X51214285Y-81835771D02*
X51214285Y-82073866D01*
X51214285Y-82073866D02*
X51261904Y-82264342D01*
X51261904Y-82264342D02*
X51309523Y-82359580D01*
X51309523Y-82359580D02*
X51357142Y-82407200D01*
X51357142Y-82407200D02*
X51452380Y-82454819D01*
X51452380Y-82454819D02*
X51547618Y-82454819D01*
X51547618Y-82454819D02*
X51642856Y-82407200D01*
X51642856Y-82407200D02*
X51690475Y-82359580D01*
X51690475Y-82359580D02*
X51738094Y-82264342D01*
X51738094Y-82264342D02*
X51785713Y-82073866D01*
X51785713Y-82073866D02*
X51785713Y-81835771D01*
X51785713Y-81835771D02*
X51738094Y-81645295D01*
X51738094Y-81645295D02*
X51690475Y-81550057D01*
X51690475Y-81550057D02*
X51642856Y-81502438D01*
X51642856Y-81502438D02*
X51547618Y-81454819D01*
X50357142Y-81788152D02*
X50357142Y-82454819D01*
X50595237Y-81407200D02*
X50833332Y-82121485D01*
X50833332Y-82121485D02*
X50214285Y-82121485D01*
X32238094Y-84534819D02*
X31666666Y-84534819D01*
X31952380Y-85534819D02*
X31952380Y-84534819D01*
X31333332Y-85534819D02*
X31333332Y-84534819D01*
X31333332Y-85011009D02*
X30761904Y-85011009D01*
X30761904Y-85534819D02*
X30761904Y-84534819D01*
X30380951Y-84534819D02*
X29761904Y-84534819D01*
X29761904Y-84534819D02*
X30095237Y-84915771D01*
X30095237Y-84915771D02*
X29952380Y-84915771D01*
X29952380Y-84915771D02*
X29857142Y-84963390D01*
X29857142Y-84963390D02*
X29809523Y-85011009D01*
X29809523Y-85011009D02*
X29761904Y-85106247D01*
X29761904Y-85106247D02*
X29761904Y-85344342D01*
X29761904Y-85344342D02*
X29809523Y-85439580D01*
X29809523Y-85439580D02*
X29857142Y-85487200D01*
X29857142Y-85487200D02*
X29952380Y-85534819D01*
X29952380Y-85534819D02*
X30238094Y-85534819D01*
X30238094Y-85534819D02*
X30333332Y-85487200D01*
X30333332Y-85487200D02*
X30380951Y-85439580D01*
X29142856Y-84534819D02*
X29047618Y-84534819D01*
X29047618Y-84534819D02*
X28952380Y-84582438D01*
X28952380Y-84582438D02*
X28904761Y-84630057D01*
X28904761Y-84630057D02*
X28857142Y-84725295D01*
X28857142Y-84725295D02*
X28809523Y-84915771D01*
X28809523Y-84915771D02*
X28809523Y-85153866D01*
X28809523Y-85153866D02*
X28857142Y-85344342D01*
X28857142Y-85344342D02*
X28904761Y-85439580D01*
X28904761Y-85439580D02*
X28952380Y-85487200D01*
X28952380Y-85487200D02*
X29047618Y-85534819D01*
X29047618Y-85534819D02*
X29142856Y-85534819D01*
X29142856Y-85534819D02*
X29238094Y-85487200D01*
X29238094Y-85487200D02*
X29285713Y-85439580D01*
X29285713Y-85439580D02*
X29333332Y-85344342D01*
X29333332Y-85344342D02*
X29380951Y-85153866D01*
X29380951Y-85153866D02*
X29380951Y-84915771D01*
X29380951Y-84915771D02*
X29333332Y-84725295D01*
X29333332Y-84725295D02*
X29285713Y-84630057D01*
X29285713Y-84630057D02*
X29238094Y-84582438D01*
X29238094Y-84582438D02*
X29142856Y-84534819D01*
X27857142Y-85534819D02*
X28428570Y-85534819D01*
X28142856Y-85534819D02*
X28142856Y-84534819D01*
X28142856Y-84534819D02*
X28238094Y-84677676D01*
X28238094Y-84677676D02*
X28333332Y-84772914D01*
X28333332Y-84772914D02*
X28428570Y-84820533D01*
D11*
%TO.C,C203*%
X55615835Y-80140000D02*
X55384165Y-80140000D01*
X55615835Y-80860000D02*
X55384165Y-80860000D01*
%TO.C,R305*%
X24570121Y-67120000D02*
X24234879Y-67120000D01*
X24570121Y-67880000D02*
X24234879Y-67880000D01*
%TO.C,R302*%
X44620000Y-83570121D02*
X44620000Y-83234879D01*
X45380000Y-83570121D02*
X45380000Y-83234879D01*
%TO.C,C502*%
X76758767Y-91965000D02*
X76466233Y-91965000D01*
X76758767Y-92985000D02*
X76466233Y-92985000D01*
%TO.C,U501*%
X74390000Y-84390000D02*
X74865000Y-84390000D01*
X74390000Y-84865000D02*
X74390000Y-84390000D01*
X74390000Y-88135000D02*
X74390000Y-88610000D01*
X74390000Y-88610000D02*
X74865000Y-88610000D01*
X78610000Y-84390000D02*
X78135000Y-84390000D01*
X78610000Y-84865000D02*
X78610000Y-84390000D01*
X78610000Y-88135000D02*
X78610000Y-88610000D01*
%TO.C,TH601*%
X100167621Y-85870000D02*
X99832379Y-85870000D01*
X100167621Y-86630000D02*
X99832379Y-86630000D01*
%TO.C,C501*%
X78298335Y-90615000D02*
X78066665Y-90615000D01*
X78298335Y-91335000D02*
X78066665Y-91335000D01*
%TO.C,C205*%
X52593335Y-89702500D02*
X52361665Y-89702500D01*
X52593335Y-90422500D02*
X52361665Y-90422500D01*
%TO.C,U201*%
X54890000Y-84390000D02*
X54890000Y-84865000D01*
X55365000Y-84390000D02*
X54890000Y-84390000D01*
X55365000Y-88610000D02*
X54890000Y-88610000D01*
X58635000Y-84390000D02*
X59110000Y-84390000D01*
X58635000Y-88610000D02*
X59110000Y-88610000D01*
X59110000Y-84390000D02*
X59110000Y-84865000D01*
X59110000Y-88610000D02*
X59110000Y-88135000D01*
%TO.C,R605*%
X105429879Y-67120000D02*
X105765121Y-67120000D01*
X105429879Y-67880000D02*
X105765121Y-67880000D01*
%TO.C,C503*%
X69890000Y-87859165D02*
X69890000Y-88090835D01*
X70610000Y-87859165D02*
X70610000Y-88090835D01*
%TO.C,C201*%
X52890000Y-88245835D02*
X52890000Y-88014165D01*
X53610000Y-88245835D02*
X53610000Y-88014165D01*
%TO.C,C202*%
X51490000Y-86646267D02*
X51490000Y-86353733D01*
X52510000Y-86646267D02*
X52510000Y-86353733D01*
%TO.C,C303*%
X47591233Y-82295000D02*
X47883767Y-82295000D01*
X47591233Y-83315000D02*
X47883767Y-83315000D01*
%TO.C,C505*%
X80390000Y-91926665D02*
X80390000Y-92158335D01*
X81110000Y-91926665D02*
X81110000Y-92158335D01*
%TO.C,C504*%
X71390000Y-88426665D02*
X71390000Y-88658335D01*
X72110000Y-88426665D02*
X72110000Y-88658335D01*
%TO.C,C603*%
X82490000Y-96216233D02*
X82490000Y-96508767D01*
X83510000Y-96216233D02*
X83510000Y-96508767D01*
%TO.C,R602*%
X85167621Y-95120000D02*
X84832379Y-95120000D01*
X85167621Y-95880000D02*
X84832379Y-95880000D01*
%TO.C,C204*%
X55115835Y-81640000D02*
X54884165Y-81640000D01*
X55115835Y-82360000D02*
X54884165Y-82360000D01*
%TO.C,TH301*%
X29832379Y-85870000D02*
X30167621Y-85870000D01*
X29832379Y-86630000D02*
X30167621Y-86630000D01*
%TD*%
M02*
